<?xml version="1.0" encoding="UTF-8" standalone="no"?>
<svg
   xmlns:dc="http://purl.org/dc/elements/1.1/"
   xmlns:cc="http://creativecommons.org/ns#"
   xmlns:rdf="http://www.w3.org/1999/02/22-rdf-syntax-ns#"
   xmlns:svg="http://www.w3.org/2000/svg"
   xmlns="http://www.w3.org/2000/svg"
   xmlns:sodipodi="http://sodipodi.sourceforge.net/DTD/sodipodi-0.dtd"
   xmlns:inkscape="http://www.inkscape.org/namespaces/inkscape"
   id="svg951"
   version="1.1"
   viewBox="0 0 27.081752 26.688241"
   height="26.688242mm"
   width="27.081753mm"
   sodipodi:docname="greatv2.svg"
   inkscape:version="0.92.4 5da689c313, 2019-01-14">
  <sodipodi:namedview
     pagecolor="#ffffff"
     bordercolor="#666666"
     borderopacity="1"
     objecttolerance="10"
     gridtolerance="10"
     guidetolerance="10"
     inkscape:pageopacity="0"
     inkscape:pageshadow="2"
     inkscape:window-width="1920"
     inkscape:window-height="1147"
     id="namedview10"
     showgrid="false"
     inkscape:zoom="1.1698348"
     inkscape:cx="14.751723"
     inkscape:cy="66.016464"
     inkscape:window-x="0"
     inkscape:window-y="0"
     inkscape:window-maximized="1"
     inkscape:current-layer="svg951" />
  <defs
     id="defs945" />
  <metadata
     id="metadata948">
    <rdf:RDF>
      <cc:Work
         rdf:about="">
        <dc:format>image/svg+xml</dc:format>
        <dc:type
           rdf:resource="http://purl.org/dc/dcmitype/StillImage" />
        <dc:title />
      </cc:Work>
    </rdf:RDF>
  </metadata>
  <path
     style="fill:none;stroke:#518802;stroke-width:0.96532971;stroke-miterlimit:4;stroke-dasharray:none;stroke-opacity:1"
     d="M 13.037862,25.803746 C 11.607096,25.607254 8.287529,23.931079 6.999649,22.886979 5.58489,21.740008 5.05835,21.272193 4.09998,19.349569 2.39922,15.937608 2.63084,11.360515 2.54147,5.7733368 c -0.0152,-0.953549 -0.0118,-1.113912 0.0272,-1.264178 0.0871,-0.336087 0.315,-0.712473 0.63598,-1.050384 1.21117,-1.27504 3.65752,-2.132485 7.04087,-2.467818 1.21745,-0.120665 3.636678,-0.176112 4.962748,-0.113743 2.888042,0.135834 5.076128,0.555248 6.74602,1.293084 1.433863,0.633549 2.440659,1.576208 2.626524,2.459212 0.07036,0.334273 -0.0095,2.858938 -0.139818,4.420071 -0.506353,6.0658412 0.249763,9.7697472 -2.468186,12.6828752 -0.946904,1.014901 -4.369662,2.728264 -5.49275,3.283759 -1.330815,0.658236 -2.475911,0.920225 -3.442132,0.787531 z"
     id="path828-4-5-1"
     inkscape:connector-curvature="0"
     sodipodi:nodetypes="ccssccssssssssc" />
  <path
     inkscape:connector-curvature="0"
     style="fill:none;fill-opacity:1;stroke:#518802;stroke-width:0.92604166;stroke-miterlimit:4;stroke-dasharray:none;stroke-opacity:1"
     d="m 20.350644,15.586086 a 6.7858525,5.5599694 0 0 1 -3.39464,4.81589 6.7858525,5.5599694 0 0 1 -6.787574,-0.002 6.7858525,5.5599694 0 0 1 -3.38949,-4.81832 z"
     id="path4611-9-1-5-0" />
  <circle
     style="fill:none;fill-opacity:1;stroke:#518802;stroke-width:0.84828573;stroke-linecap:round;stroke-linejoin:round;stroke-miterlimit:4;stroke-dasharray:none;stroke-opacity:1;paint-order:normal"
     id="circle2087-1-4-3"
     cx="19.416348"
     cy="11.533904"
     r="1.8156587" />
  <circle
     r="1.8156587"
     cy="11.533904"
     cx="7.7746706"
     id="circle2093-7-4-3"
     style="fill:none;fill-opacity:1;stroke:#518802;stroke-width:0.84828573;stroke-linecap:round;stroke-linejoin:round;stroke-miterlimit:4;stroke-dasharray:none;stroke-opacity:1;paint-order:normal" />
</svg>
