<?xml version="1.0" encoding="UTF-8" standalone="no"?>
<svg
   xmlns:dc="http://purl.org/dc/elements/1.1/"
   xmlns:cc="http://creativecommons.org/ns#"
   xmlns:rdf="http://www.w3.org/1999/02/22-rdf-syntax-ns#"
   xmlns:svg="http://www.w3.org/2000/svg"
   xmlns="http://www.w3.org/2000/svg"
   xmlns:sodipodi="http://sodipodi.sourceforge.net/DTD/sodipodi-0.dtd"
   xmlns:inkscape="http://www.inkscape.org/namespaces/inkscape"
   height="50"
   viewBox="0 0 50 50"
   width="50"
   version="1.1"
   id="svg6"
   sodipodi:docname="eating_ii.svg"
   inkscape:version="0.92.5 (2060ec1f9f, 2020-04-08)"
   inkscape:export-filename="/home/hamhec/workspace/web/skills/dist/assets/languages/de_b2.svg.png"
   inkscape:export-xdpi="99.921013"
   inkscape:export-ydpi="99.921013">
  <metadata
     id="metadata12">
    <rdf:RDF>
      <cc:Work
         rdf:about="">
        <dc:format>image/svg+xml</dc:format>
        <dc:type
           rdf:resource="http://purl.org/dc/dcmitype/StillImage" />
        <dc:title></dc:title>
      </cc:Work>
    </rdf:RDF>
  </metadata>
  <defs
     id="defs10" />
  <sodipodi:namedview
     pagecolor="#ffffff"
     bordercolor="#666666"
     borderopacity="1"
     objecttolerance="10"
     gridtolerance="10"
     guidetolerance="10"
     inkscape:pageopacity="0"
     inkscape:pageshadow="2"
     inkscape:window-width="3840"
     inkscape:window-height="2050"
     id="namedview8"
     showgrid="false"
     showguides="false"
     inkscape:guide-bbox="true"
     inkscape:zoom="15.999999"
     inkscape:cx="45.626984"
     inkscape:cy="50.915347"
     inkscape:window-x="3348"
     inkscape:window-y="-12"
     inkscape:window-maximized="1"
     inkscape:current-layer="svg6"
     inkscape:lockguides="true">
    <sodipodi:guide
       position="0,16.666667"
       orientation="0,1"
       id="guide822"
       inkscape:locked="true"
       inkscape:label=""
       inkscape:color="rgb(0,0,255)" />
    <sodipodi:guide
       position="16.666667,0"
       orientation="1,0"
       id="guide824"
       inkscape:locked="true"
       inkscape:label=""
       inkscape:color="rgb(0,0,255)" />
    <sodipodi:guide
       position="0,32"
       orientation="0,1"
       id="guide821"
       inkscape:locked="true"
       inkscape:label=""
       inkscape:color="rgb(0,0,255)" />
    <sodipodi:guide
       position="32,0"
       orientation="1,0"
       id="guide823"
       inkscape:locked="true"
       inkscape:label=""
       inkscape:color="rgb(0,0,255)" />
    <sodipodi:guide
       position="25.333333,0"
       orientation="1,0"
       id="guide825"
       inkscape:locked="true"
       inkscape:label=""
       inkscape:color="rgb(0,0,255)" />
    <sodipodi:guide
       position="0,25.333333"
       orientation="0,1"
       id="guide827"
       inkscape:locked="true"
       inkscape:label=""
       inkscape:color="rgb(0,0,255)" />
  </sodipodi:namedview>
  <path
     style="fill:#000000"
     d=""
     id="path875"
     inkscape:connector-curvature="0" />
  <path
     d="m 30.864262,6.157488 c -0.903119,0.030028 -1.847022,0.2531749 -2.79945,0.7047356 -0.790835,0.3749455 -1.691233,0.8653144 -2.001039,1.0901072 -0.455308,0.3303682 -0.671258,0.3303682 -1.12657,0 -4.039563,-2.9310779 -8.697785,-2.1429623 -10.769041,1.8218708 -1.596814,3.0566514 -1.002878,6.7108544 1.560978,9.6078974 0.892616,1.00862 9.489992,8.759922 9.729228,8.77177 0.06551,0.0033 1.513947,-1.211337 3.218766,-2.698862 5.525904,-4.821572 7.387237,-6.762664 8.240547,-8.595743 C 39.43377,11.454227 35.74111,5.9953945 30.864262,6.157488 Z m -10.45785,2.4222481 c 0.126959,-0.0065 0.250398,-0.00401 0.369653,0.00747 1.456531,0.141172 1.348608,1.0007381 -0.156535,1.2453901 -1.485005,0.2413818 -2.768543,1.0711838 -3.232599,2.0896828 -0.399069,0.875863 -1.542747,1.079083 -1.542747,0.2741 0,-1.482294 2.657731,-3.520209 4.562228,-3.6167138 z M 44.013429,21.173167 c -0.703998,0.02571 -8.688632,3.752137 -10.034131,4.700532 -1.040193,0.733193 -1.687015,1.55307 -2.376354,3.010679 -0.927238,1.960648 -1.00331,2.028804 -3.570821,3.214366 -1.442678,0.666163 -2.78361,1.212556 -2.979874,1.213953 -0.196264,0.0013 -1.538416,-0.540277 -2.983019,-1.203265 -2.518219,-1.155714 -2.635005,-1.256594 -2.825222,-2.446138 -0.462739,-2.893803 -2.37274,-5.090061 -5.835276,-6.710376 -4.3458506,-2.033667 -8.5793483,-1.728717 -9.418668,0.678959 -0.8936841,2.563624 2.1011761,6.571175 6.596588,8.827093 2.342716,1.175639 3.813062,1.340538 6.139549,0.687759 l 1.958923,-0.550082 1.476108,1.015924 c 0.811953,0.558637 1.476735,1.0754 1.476735,1.148573 0,0.07317 -2.222111,1.203392 -4.937542,2.511519 -4.941318,2.380419 -6.00627,3.198835 -6.00627,4.612518 0,1.189054 0.373532,1.777048 1.415756,2.227991 1.073652,0.464543 1.656752,0.376781 3.412396,-0.51362 0.619613,-0.314245 3.226812,-2.056789 5.793783,-3.87258 2.566968,-1.81579 5.860742,-4.143032 7.320182,-5.171402 l 2.653597,-1.869652 2.514663,0.194259 c 2.127106,0.164031 2.748544,0.08977 4.037288,-0.480301 1.393313,-0.61633 9.22441,-6.041426 9.22441,-6.390386 0,-0.0825 -2.090186,0.949774 -4.644582,2.294002 -3.102058,1.632432 -4.719339,2.322819 -4.869644,2.079625 -0.123764,-0.200259 -0.0252,-0.49595 0.218777,-0.656956 0.243973,-0.161009 2.218185,-1.389638 4.386829,-2.730294 2.168645,-1.340655 3.942991,-2.508433 3.942991,-2.595131 0,-0.0867 -2.092009,0.941052 -4.648354,2.283942 -3.054509,1.604577 -4.723455,2.318917 -4.869014,2.083397 -0.121814,-0.197108 -0.08376,-0.450934 0.08487,-0.563912 0.168631,-0.112989 2.142843,-1.349789 4.38683,-2.748527 2.243986,-1.398738 4.080039,-2.606107 4.080039,-2.683145 0,-0.07704 -1.962213,0.886118 -4.359795,2.140607 -4.116684,2.153971 -5.296508,2.607851 -5.296508,2.03499 0,-0.135535 1.955379,-1.463082 4.345964,-2.949698 2.390585,-1.486617 4.295651,-2.753575 4.233433,-2.815793 -0.0071,-0.0071 -0.02192,-0.01023 -0.04463,-0.0094 z m -13.753944,14.71203 c -0.455575,0 -3.46991,1.987885 -3.470863,2.288972 -9.65e-4,0.303713 6.058488,4.458177 8.022402,5.500195 0.960635,0.509694 1.950258,0.84862 2.199072,0.753141 0.248814,-0.09548 0.584931,-0.173513 0.747485,-0.173513 0.620854,0 1.583607,-1.325908 1.583607,-2.181468 0,-0.49171 -0.229043,-1.220964 -0.50859,-1.620072 -0.488999,-0.698143 -7.751736,-4.567255 -8.573113,-4.567255 z"
     id="rect879"
     inkscape:connector-curvature="0"
     sodipodi:nodetypes="scccsccssscsccscccscscssssscccsssssscccsssccsssccsscsscccscsssscs" />
  <path
     style="font-style:normal;font-variant:normal;font-weight:normal;font-stretch:normal;font-size:medium;line-height:normal;font-family:sans-serif;font-variant-ligatures:normal;font-variant-position:normal;font-variant-caps:normal;font-variant-numeric:normal;font-variant-alternates:normal;font-feature-settings:normal;text-indent:0;text-align:start;text-decoration:none;text-decoration-line:none;text-decoration-style:solid;text-decoration-color:#000000;letter-spacing:normal;word-spacing:normal;text-transform:none;writing-mode:lr-tb;direction:ltr;text-orientation:mixed;dominant-baseline:auto;baseline-shift:baseline;text-anchor:start;white-space:normal;shape-padding:0;clip-rule:nonzero;display:inline;overflow:visible;visibility:visible;opacity:1;isolation:auto;mix-blend-mode:normal;color-interpolation:sRGB;color-interpolation-filters:linearRGB;solid-color:#000000;solid-opacity:1;vector-effect:none;fill-opacity:1;fill-rule:nonzero;stroke:none;stroke-width:1.61402214;stroke-linecap:butt;stroke-linejoin:miter;stroke-miterlimit:4;stroke-dasharray:none;stroke-dashoffset:0;stroke-opacity:1;color-rendering:auto;image-rendering:auto;shape-rendering:auto;text-rendering:auto;enable-background:accumulate"
     d="m 43.975779,1.4749895 -4.261719,4.2617191 1.140625,1.140625 3.121094,-3.119141 3.140625,3.136719 1.140625,-1.142578 z"
     id="path823-7"
     inkscape:connector-curvature="0"
     sodipodi:nodetypes="ccccccc" />
  <path
     sodipodi:nodetypes="ccccccc"
     inkscape:connector-curvature="0"
     id="path854"
     d="m 43.975779,5.6292416 -4.261719,4.261719 1.140625,1.1406254 3.121094,-3.1191404 3.140625,3.1367184 1.140625,-1.1425784 z"
     style="font-style:normal;font-variant:normal;font-weight:normal;font-stretch:normal;font-size:medium;line-height:normal;font-family:sans-serif;font-variant-ligatures:normal;font-variant-position:normal;font-variant-caps:normal;font-variant-numeric:normal;font-variant-alternates:normal;font-feature-settings:normal;text-indent:0;text-align:start;text-decoration:none;text-decoration-line:none;text-decoration-style:solid;text-decoration-color:#000000;letter-spacing:normal;word-spacing:normal;text-transform:none;writing-mode:lr-tb;direction:ltr;text-orientation:mixed;dominant-baseline:auto;baseline-shift:baseline;text-anchor:start;white-space:normal;shape-padding:0;clip-rule:nonzero;display:inline;overflow:visible;visibility:visible;opacity:1;isolation:auto;mix-blend-mode:normal;color-interpolation:sRGB;color-interpolation-filters:linearRGB;solid-color:#000000;solid-opacity:1;vector-effect:none;fill-opacity:1;fill-rule:nonzero;stroke:none;stroke-width:1.61402214;stroke-linecap:butt;stroke-linejoin:miter;stroke-miterlimit:4;stroke-dasharray:none;stroke-dashoffset:0;stroke-opacity:1;color-rendering:auto;image-rendering:auto;shape-rendering:auto;text-rendering:auto;enable-background:accumulate" />
</svg>
