<?xml version="1.0" encoding="UTF-8" standalone="no"?>
<svg
   xmlns:dc="http://purl.org/dc/elements/1.1/"
   xmlns:cc="http://creativecommons.org/ns#"
   xmlns:rdf="http://www.w3.org/1999/02/22-rdf-syntax-ns#"
   xmlns:svg="http://www.w3.org/2000/svg"
   xmlns="http://www.w3.org/2000/svg"
   xmlns:sodipodi="http://sodipodi.sourceforge.net/DTD/sodipodi-0.dtd"
   xmlns:inkscape="http://www.inkscape.org/namespaces/inkscape"
   height="50"
   viewBox="0 0 50 50"
   width="50"
   version="1.1"
   id="svg6"
   sodipodi:docname="smoking_i.svg"
   inkscape:version="0.92.5 (2060ec1f9f, 2020-04-08)"
   inkscape:export-filename="/home/hamhec/workspace/web/skills/dist/assets/languages/de_b2.svg.png"
   inkscape:export-xdpi="99.921013"
   inkscape:export-ydpi="99.921013">
  <metadata
     id="metadata12">
    <rdf:RDF>
      <cc:Work
         rdf:about="">
        <dc:format>image/svg+xml</dc:format>
        <dc:type
           rdf:resource="http://purl.org/dc/dcmitype/StillImage" />
        <dc:title />
      </cc:Work>
    </rdf:RDF>
  </metadata>
  <defs
     id="defs10" />
  <sodipodi:namedview
     pagecolor="#ffffff"
     bordercolor="#666666"
     borderopacity="1"
     objecttolerance="10"
     gridtolerance="10"
     guidetolerance="10"
     inkscape:pageopacity="0"
     inkscape:pageshadow="2"
     inkscape:window-width="3840"
     inkscape:window-height="2050"
     id="namedview8"
     showgrid="false"
     showguides="false"
     inkscape:guide-bbox="true"
     inkscape:zoom="11.313708"
     inkscape:cx="32.93373"
     inkscape:cy="57.452237"
     inkscape:window-x="3348"
     inkscape:window-y="-12"
     inkscape:window-maximized="1"
     inkscape:current-layer="svg6"
     inkscape:lockguides="true">
    <sodipodi:guide
       position="0,16.666667"
       orientation="0,1"
       id="guide822"
       inkscape:locked="true"
       inkscape:label=""
       inkscape:color="rgb(0,0,255)" />
    <sodipodi:guide
       position="16.666667,0"
       orientation="1,0"
       id="guide824"
       inkscape:locked="true"
       inkscape:label=""
       inkscape:color="rgb(0,0,255)" />
    <sodipodi:guide
       position="0,32"
       orientation="0,1"
       id="guide821"
       inkscape:locked="true"
       inkscape:label=""
       inkscape:color="rgb(0,0,255)" />
    <sodipodi:guide
       position="32,0"
       orientation="1,0"
       id="guide823"
       inkscape:locked="true"
       inkscape:label=""
       inkscape:color="rgb(0,0,255)" />
    <sodipodi:guide
       position="25.333333,0"
       orientation="1,0"
       id="guide825"
       inkscape:locked="true"
       inkscape:label=""
       inkscape:color="rgb(0,0,255)" />
    <sodipodi:guide
       position="0,25.333333"
       orientation="0,1"
       id="guide827"
       inkscape:locked="true"
       inkscape:label=""
       inkscape:color="rgb(0,0,255)" />
  </sodipodi:namedview>
  <path
     style="font-style:normal;font-variant:normal;font-weight:normal;font-stretch:normal;font-size:medium;line-height:normal;font-family:sans-serif;font-variant-ligatures:normal;font-variant-position:normal;font-variant-caps:normal;font-variant-numeric:normal;font-variant-alternates:normal;font-feature-settings:normal;text-indent:0;text-align:start;text-decoration:none;text-decoration-line:none;text-decoration-style:solid;text-decoration-color:#000000;letter-spacing:normal;word-spacing:normal;text-transform:none;writing-mode:lr-tb;direction:ltr;text-orientation:mixed;dominant-baseline:auto;baseline-shift:baseline;text-anchor:start;white-space:normal;shape-padding:0;clip-rule:nonzero;display:inline;overflow:visible;visibility:visible;opacity:1;isolation:auto;mix-blend-mode:normal;color-interpolation:sRGB;color-interpolation-filters:linearRGB;solid-color:#000000;solid-opacity:1;vector-effect:none;fill-opacity:1;fill-rule:nonzero;stroke:none;stroke-width:1.61402214;stroke-linecap:butt;stroke-linejoin:miter;stroke-miterlimit:4;stroke-dasharray:none;stroke-dashoffset:0;stroke-opacity:1;color-rendering:auto;image-rendering:auto;shape-rendering:auto;text-rendering:auto;enable-background:accumulate"
     d="M 44.34375,1.5585936 40.082031,5.8203125 41.222656,6.9609375 44.34375,3.8417969 47.484375,6.9785156 48.625,5.8359375 Z"
     id="path823-7"
     inkscape:connector-curvature="0"
     sodipodi:nodetypes="ccccccc" />
  <path
     inkscape:connector-curvature="0"
     d="m 23.950039,7.1510238 c -10.98803,0 -19.8974836,8.9094532 -19.8974836,19.8974822 A 19.871721,19.871721 0 0 0 14.303348,44.441104 c 0.03554,0.01777 0.06214,0.04435 0.09768,0.06211 a 19.434687,19.434687 0 0 0 3.055719,1.314724 l 0.479706,0.159787 a 19.782004,19.782004 0 0 0 6.013588,0.96826 c 10.988028,0 19.897481,-8.909452 19.897481,-19.89748 A 19.876162,19.876162 0 0 0 33.587879,9.6470562 0.78079849,0.78079849 0 0 1 33.499051,9.593794 19.434687,19.434687 0 0 0 30.443331,8.2790729 L 29.963625,8.1192831 A 19.826418,19.826418 0 0 0 23.950037,7.1510249 Z m 0,4.7611472 a 14.460316,14.460316 0 0 1 2.416054,0.213223 15.113203,15.113203 0 0 1 2.531598,0.648513 c 0.159892,0.0533 0.328803,0.10646 0.497575,0.168638 a 14.390142,14.390142 0 0 1 1.598906,0.719646 15.122973,15.122973 0 0 1 8.101048,13.395162 c -0.0089,3.304404 -1.110282,6.333508 -2.904608,8.820694 L 15.120498,14.807934 c 2.487185,-1.794328 5.516256,-2.895763 8.829541,-2.895763 z m 1.856541,0.906152 c -1.065937,0 -3.446597,0.977039 -3.446597,3.881717 0,1.554491 0.799556,2.753667 2.282984,3.375464 a 5.9141711,5.9141711 0 0 0 1.065937,0.319745 c -0.293133,0.870517 -0.31985,1.856613 0.150938,2.549471 0.799453,1.181414 1.803279,1.172495 2.958043,1.163613 h 0.310898 c 2.336178,0 3.073311,0.2042 3.455272,0.381855 0.50632,0.230954 0.604169,0.666315 0.586404,1.394705 v 0.08883 h 1.421249 v -0.08883 c 0,-0.630679 0.02655,-2.025384 -1.394705,-2.682709 -0.781687,-0.364197 -1.954182,-0.506252 -4.050523,-0.506252 h -0.319747 c -1.128116,0.0089 -1.412365,-0.0089 -1.77656,-0.541816 -0.248719,-0.37308 -0.08889,-1.31469 0.328593,-1.945369 a 0.71062434,0.71062434 0 0 0 0.03557,-0.728323 0.7337196,0.7337196 0 0 0 -0.621796,-0.382027 4.7674007,4.7674007 0 0 1 -1.625623,-0.346466 c -0.941576,-0.399726 -1.385682,-1.074786 -1.385682,-2.051891 0,-2.291765 1.93652,-2.460469 2.025348,-2.460469 z m 1.607753,1.358963 v 1.421252 c 1.865389,0 2.318447,0.808437 2.433922,1.483533 0.222071,1.288003 -0.604065,2.851274 -0.612948,2.869041 a 0.71062434,0.71062434 0 0 0 0.0089,0.701776 0.71595398,0.71595398 0 0 0 0.612948,0.346463 h 2.620427 c 0.968226,0 1.723228,0.435222 2.229549,1.296856 0.275367,0.470786 0.612948,1.199212 0.612948,3.677514 h 1.421248 c -7.17e-4,-2.276965 -0.26717,-3.474407 -0.808299,-4.39699 -0.763922,-1.27912 -1.989782,-1.989781 -3.455446,-1.989781 h -1.545643 c 0.257602,-0.737272 0.479672,-1.758831 0.310899,-2.74482 -0.284249,-1.669967 -1.696581,-2.664844 -3.828453,-2.664844 z m -15.695845,4.032829 21.069941,21.069943 c -2.496069,1.803209 -5.533987,2.904781 -8.83839,2.904781 a 14.376818,14.376818 0 0 1 -2.416052,-0.213222 15.113203,15.113203 0 0 1 -2.531601,-0.648515 c -0.168773,-0.05329 -0.337685,-0.10646 -0.497575,-0.168634 A 14.424785,14.424785 0 0 1 16.817079,40.390408 15.13008,15.13008 0 0 1 8.813708,27.039659 c 0,-3.304403 1.1015694,-6.342359 2.90478,-8.829544 z m -0.559686,8.838391 v 4.263747 h 11.512079 l -4.263746,-4.263747 z m 18.298576,0 3.020152,3.020155 v -3.020155 z m 3.730778,0 v 4.263747 h 1.421247 v -4.263747 z m 2.131873,0 v 4.263747 h 1.421248 v -4.263747 z"
     id="rect4"
     style="stroke-width:1.0816859" />
</svg>
