<?xml version="1.0" encoding="UTF-8" standalone="no"?>
<svg
   xmlns:dc="http://purl.org/dc/elements/1.1/"
   xmlns:cc="http://creativecommons.org/ns#"
   xmlns:rdf="http://www.w3.org/1999/02/22-rdf-syntax-ns#"
   xmlns:svg="http://www.w3.org/2000/svg"
   xmlns="http://www.w3.org/2000/svg"
   xmlns:sodipodi="http://sodipodi.sourceforge.net/DTD/sodipodi-0.dtd"
   xmlns:inkscape="http://www.inkscape.org/namespaces/inkscape"
   height="50"
   viewBox="0 0 50 50"
   width="50"
   version="1.1"
   id="svg6"
   sodipodi:docname="ares.svg"
   inkscape:version="0.92.5 (2060ec1f9f, 2020-04-08)"
   inkscape:export-filename="/home/hamhec/workspace/web/skills/dist/assets/languages/de_b2.svg.png"
   inkscape:export-xdpi="99.921013"
   inkscape:export-ydpi="99.921013">
  <metadata
     id="metadata12">
    <rdf:RDF>
      <cc:Work
         rdf:about="">
        <dc:format>image/svg+xml</dc:format>
        <dc:type
           rdf:resource="http://purl.org/dc/dcmitype/StillImage" />
        <dc:title></dc:title>
      </cc:Work>
    </rdf:RDF>
  </metadata>
  <defs
     id="defs10" />
  <sodipodi:namedview
     pagecolor="#ffffff"
     bordercolor="#666666"
     borderopacity="1"
     objecttolerance="10"
     gridtolerance="10"
     guidetolerance="10"
     inkscape:pageopacity="0"
     inkscape:pageshadow="2"
     inkscape:window-width="3840"
     inkscape:window-height="2050"
     id="namedview8"
     showgrid="false"
     showguides="false"
     inkscape:guide-bbox="true"
     inkscape:zoom="14.481547"
     inkscape:cx="30.248795"
     inkscape:cy="30.91686"
     inkscape:window-x="3348"
     inkscape:window-y="-12"
     inkscape:window-maximized="1"
     inkscape:current-layer="svg6"
     inkscape:lockguides="true">
    <sodipodi:guide
       position="0,16.666667"
       orientation="0,1"
       id="guide822"
       inkscape:locked="true"
       inkscape:label=""
       inkscape:color="rgb(0,0,255)" />
    <sodipodi:guide
       position="16.666667,0"
       orientation="1,0"
       id="guide824"
       inkscape:locked="true"
       inkscape:label=""
       inkscape:color="rgb(0,0,255)" />
    <sodipodi:guide
       position="0,32"
       orientation="0,1"
       id="guide821"
       inkscape:locked="true"
       inkscape:label=""
       inkscape:color="rgb(0,0,255)" />
    <sodipodi:guide
       position="32,0"
       orientation="1,0"
       id="guide823"
       inkscape:locked="true"
       inkscape:label=""
       inkscape:color="rgb(0,0,255)" />
    <sodipodi:guide
       position="25.333333,0"
       orientation="1,0"
       id="guide825"
       inkscape:locked="true"
       inkscape:label=""
       inkscape:color="rgb(0,0,255)" />
    <sodipodi:guide
       position="0,25.333333"
       orientation="0,1"
       id="guide827"
       inkscape:locked="true"
       inkscape:label=""
       inkscape:color="rgb(0,0,255)" />
  </sodipodi:namedview>
  <path
     d="m 37.805952,47.17641 c -1.054833,-0.281181 -2.351185,-0.910171 -3.9831,-1.932589 -0.48357,-0.302966 -1.221098,-0.751098 -1.638953,-0.995848 -0.774678,-0.453759 -3.040782,-1.960698 -5.090238,-3.38496 -1.253455,-0.871085 -1.566675,-1.075994 -2.594154,-1.697107 l -0.69481,-0.420012 0.186225,-0.461047 c 0.640033,-1.584561 0.492045,-3.577482 -0.372014,-5.009865 -0.136377,-0.226079 -0.284632,-0.422763 -0.329452,-0.437075 -0.04483,-0.01435 -0.228455,0.291045 -0.408073,0.67857 -0.83034,1.791469 -1.086546,2.269083 -1.551,2.891349 -1.398988,1.874325 -2.968675,2.683688 -4.455185,2.297192 -0.547079,-0.142243 -1.063632,-0.400998 -1.063632,-0.532809 0,-0.04701 0.184989,-0.245191 0.411086,-0.440391 0.513139,-0.443007 1.291769,-1.465518 1.574188,-2.067245 0.275165,-0.586267 0.459742,-1.486148 0.430731,-2.099969 -0.02025,-0.428432 -0.04139,-0.485778 -0.186657,-0.506477 -0.135279,-0.01931 -0.18691,-0.118559 -0.296324,-0.569805 -0.219973,-0.907205 -0.841802,-2.655756 -1.208276,-3.397611 -0.189684,-0.383977 -0.34488,-0.711515 -0.34488,-0.727868 0,-0.01637 0.174928,-0.02973 0.38873,-0.02973 0.367405,0 0.385966,-0.0094 0.338346,-0.170941 -0.216076,-0.733109 -0.423181,-1.639524 -0.423181,-1.852094 V 26.05391 h -0.904832 -0.904832 l -0.623985,0.664772 c -1.69598,1.806835 -2.945752,3.943237 -3.155113,5.39345 -0.09272,0.642321 -0.137185,0.625918 -0.586792,-0.216439 C 9.4294867,30.227698 8.9638994,29.001204 8.8547394,28.036365 L 8.8054474,27.600681 9.5358331,26.928958 C 9.937545,26.559514 10.257506,26.249579 10.246859,26.24022 10.236209,26.23082 9.8856169,26.28276 9.4677616,26.355592 9.0499064,26.428412 8.6859724,26.47599 8.6590194,26.461323 8.5975954,26.427923 8.4046266,25.375865 8.2498401,24.230535 8.0932423,23.071808 8.0091752,20.141164 8.1262579,19.92239 c 0.047404,-0.08857 0.3686338,-0.31564 0.7138452,-0.5046 0.3452125,-0.188955 0.6959936,-0.394281 0.779514,-0.456279 0.1490747,-0.110659 0.148379,-0.113442 -0.037989,-0.152068 -0.1044129,-0.02164 -0.4462537,-0.06717 -0.7596453,-0.101158 L 8.25218,18.646475 8.276115,18.380567 C 8.323084,17.858665 8.685916,16.35265 8.9746415,15.481148 9.5631551,13.704751 10.723353,11.622974 12.058615,9.9474845 13.18922,8.5287948 15.666529,6.2158873 16.875197,5.450545 c 0.752169,-0.4762781 1.351064,-0.8212234 1.425829,-0.8212234 0.07724,0 0.173858,0.2080349 0.812466,1.7494767 0.569462,1.3745346 0.589819,1.3944058 0.54276,0.5297379 -0.04664,-0.8569144 -0.185781,-2.4009917 -0.23739,-2.6343223 -0.0327,-0.1478389 0.04521,-0.1967692 0.742196,-0.4660973 1.012055,-0.3910744 1.098784,-0.416462 2.488141,-0.7282539 1.644074,-0.368966 2.696822,-0.5021989 4.368487,-0.5528699 1.819242,-0.055164 4.522078,0.1277103 4.736542,0.3204464 0.0144,0.012933 -0.133372,0.5644543 -0.328373,1.2255923 -0.194999,0.661138 -0.371473,1.2618962 -0.392166,1.3350251 -0.09617,0.339864 0.223776,-0.00858 1.302156,-1.4182488 0.167143,-0.2184853 0.399541,-0.5104121 0.516441,-0.6487323 l 0.212545,-0.2514794 0.585179,0.09555 c 2.283273,0.3728275 5.316028,1.5547178 7.187613,2.8010763 0.729229,0.4856191 1.779238,1.3651935 1.78755,1.4974028 0.0028,0.044682 -0.392203,0.2649884 -0.877807,0.4895357 -2.524756,1.1674864 -5.792441,3.3783591 -7.346537,4.9705691 -0.416235,0.426447 -0.359658,0.426318 -1.457194,0.0031 -1.404647,-0.541487 -3.291122,-0.960272 -4.987943,-1.107297 -2.226195,-0.192895 -4.430203,0.213025 -6.332139,1.166194 -1.304639,0.653831 -2.365886,1.450764 -3.336239,2.505306 -0.798923,0.868242 -0.726381,0.968634 0.08837,0.122293 1.022728,-1.062388 2.253146,-1.890673 3.703718,-2.493238 1.561747,-0.648745 2.84807,-0.875916 4.93829,-0.872121 1.307916,0.0024 1.773444,0.03395 2.583107,0.175193 1.348765,0.235299 3.846562,1.087543 4.022698,1.372537 0.04801,0.07769 -0.384095,1.215933 -0.795536,2.095599 -0.07818,0.16714 -0.24415,0.559514 -0.368832,0.871936 -0.124682,0.312424 -0.260405,0.579282 -0.301608,0.593017 -0.0412,0.01373 -0.564944,-0.130401 -1.163871,-0.320299 -1.137712,-0.360728 -1.457429,-0.435414 -2.643796,-0.617577 -3.349546,-0.514328 -6.312338,0.198357 -8.546521,2.055814 -2.036022,1.692707 -3.490794,4.507109 -3.4496,6.673586 0.01096,0.576462 0.01745,0.553832 0.149052,-0.519502 0.23969,-1.95498 1.518254,-4.262714 3.029931,-5.468858 1.361325,-1.086182 2.993819,-1.836869 4.90187,-2.254084 0.623287,-0.136286 3.026095,-0.13479 3.722712,0.0024 2.151362,0.423443 3.923933,1.29057 5.4281,2.65537 l 0.611084,0.55447 0.383431,-0.323315 c 0.210886,-0.177823 0.470714,-0.483682 0.577394,-0.679691 0.106681,-0.196003 0.273662,-0.392687 0.37107,-0.437069 0.17384,-0.07921 0.177969,-0.07132 0.223951,0.427948 0.145874,1.583882 0.209769,2.247049 0.345468,3.585579 0.310449,3.062271 0.330198,3.247266 0.717758,6.723669 0.173927,1.560124 0.252509,2.33623 0.419241,4.14057 0.128974,1.395736 0.241636,3.489306 0.192086,3.569484 -0.06943,0.112325 -0.591906,-0.313992 -0.969146,-0.79078 l -0.305036,-0.385533 0.05368,-2.483474 0.05369,-2.48348 -0.310782,-0.225129 c -0.840057,-0.608531 -3.485946,-1.625604 -4.880901,-1.876194 -0.275149,-0.04941 -0.283039,-0.04394 -0.472703,0.33037 -0.209486,0.413397 -0.501043,1.385199 -0.501043,1.67004 0,0.148232 0.103008,0.224749 0.626784,0.465637 0.34473,0.158542 0.934476,0.398418 1.310546,0.533061 1.31792,0.471852 2.842425,1.165409 3.274681,1.489777 0.26821,0.201263 0.262869,0.159644 0.409032,3.187181 0.144592,2.994982 0.382067,5.409661 0.614048,6.243738 0.225037,0.809099 0.965987,2.310511 1.755327,3.556869 0.105854,0.16714 0.266546,0.449193 0.357094,0.626783 0.196936,0.386245 0.180973,0.390585 -0.63618,0.172761 z M 24.152644,33.02449 c -0.06021,-0.09402 -0.226539,-0.370303 -0.369612,-0.613961 l -0.260135,-0.44302 -0.341882,0.04462 c -0.188035,0.02452 -1.025645,0.178032 -1.861355,0.34112 -0.835711,0.163083 -1.683448,0.320852 -1.88386,0.350591 -0.200411,0.02973 -0.347851,0.07061 -0.327642,0.09082 0.03451,0.03451 0.829259,-0.05266 2.971239,-0.326006 0.501426,-0.06398 0.966685,-0.132528 1.033909,-0.152319 0.07597,-0.02238 0.305952,0.136052 0.60779,0.418693 0.267059,0.250082 0.498042,0.455984 0.513295,0.457559 0.01525,0.0018 -0.02153,-0.07405 -0.08174,-0.168072 z m -5.170759,-0.178854 c -0.02525,-0.02525 -0.09077,-0.02795 -0.145616,-0.0062 -0.06061,0.02427 -0.04261,0.04223 0.0459,0.04591 0.08009,0.0031 0.124961,-0.01465 0.09971,-0.03991 z M 18.709168,28.21436 c 3.798278,-0.710141 8.322266,-2.70617 12.221164,-5.392106 0.661818,-0.455924 2.43116,-1.833596 2.43116,-1.892989 0,-0.0182 -0.470089,0.317161 -1.044639,0.745219 -1.410556,1.05092 -2.068482,1.499757 -3.32385,2.267545 -2.824514,1.727484 -6.330266,3.166218 -9.876581,4.05327 -1.339454,0.33504 -1.505598,0.424412 -0.407254,0.219061 z m 20.307715,17.86545 c -0.420412,-0.09354 -0.809684,-0.198068 -0.865047,-0.232289 -0.154433,-0.09543 -1.020825,-1.964725 -1.28642,-2.77551 -0.130035,-0.396965 -0.271145,-0.995253 -0.313577,-1.32954 -0.109729,-0.864453 -0.456654,-5.000242 -0.422321,-5.034579 0.0524,-0.05241 0.990271,0.744638 1.042562,0.885998 0.02829,0.07647 0.157264,0.921536 0.28661,1.877905 0.129344,0.956375 0.305476,1.993981 0.391401,2.305803 0.222624,0.807874 0.687179,1.862599 1.323032,3.003822 0.782726,1.404819 0.819951,1.482692 0.705064,1.474975 -0.05331,-0.0037 -0.440892,-0.08305 -0.861304,-0.176585 z M 34.994925,32.530885 c -0.496107,-0.251346 -1.034057,-0.467894 -3.456803,-1.391508 l -0.949671,-0.36204 0.01638,-0.269413 c 0.009,-0.148176 0.120844,-0.476371 0.248533,-0.729327 0.198953,-0.394121 0.256385,-0.454114 0.401485,-0.419398 0.09313,0.02225 0.408639,0.08319 0.701138,0.135359 l 0.531816,0.09485 -0.026,0.361471 -0.026,0.36147 0.861713,0.405509 c 0.473942,0.223027 1.205316,0.532557 1.625276,0.687844 l 0.763564,0.282346 -0.05714,0.534764 c -0.03142,0.294121 -0.06734,0.544386 -0.0798,0.556143 -0.01247,0.01177 -0.261979,-0.09988 -0.554477,-0.248071 z"
     id="path921"
     inkscape:connector-curvature="0" />
</svg>
