<?xml version="1.0" encoding="UTF-8" standalone="no"?>
<svg
   xmlns:dc="http://purl.org/dc/elements/1.1/"
   xmlns:cc="http://creativecommons.org/ns#"
   xmlns:rdf="http://www.w3.org/1999/02/22-rdf-syntax-ns#"
   xmlns:svg="http://www.w3.org/2000/svg"
   xmlns="http://www.w3.org/2000/svg"
   xmlns:sodipodi="http://sodipodi.sourceforge.net/DTD/sodipodi-0.dtd"
   xmlns:inkscape="http://www.inkscape.org/namespaces/inkscape"
   height="50"
   viewBox="0 0 50 50"
   width="50"
   version="1.1"
   id="svg6"
   sodipodi:docname="caduceus.svg"
   inkscape:version="0.92.5 (2060ec1f9f, 2020-04-08)">
  <metadata
     id="metadata12">
    <rdf:RDF>
      <cc:Work
         rdf:about="">
        <dc:format>image/svg+xml</dc:format>
        <dc:type
           rdf:resource="http://purl.org/dc/dcmitype/StillImage" />
        <dc:title />
      </cc:Work>
    </rdf:RDF>
  </metadata>
  <defs
     id="defs10" />
  <sodipodi:namedview
     pagecolor="#ffffff"
     bordercolor="#666666"
     borderopacity="1"
     objecttolerance="10"
     gridtolerance="10"
     guidetolerance="10"
     inkscape:pageopacity="0"
     inkscape:pageshadow="2"
     inkscape:window-width="3360"
     inkscape:window-height="1990"
     id="namedview8"
     showgrid="false"
     showguides="true"
     inkscape:guide-bbox="true"
     inkscape:zoom="9.2709556"
     inkscape:cx="-82.88644"
     inkscape:cy="12.77205"
     inkscape:window-x="-12"
     inkscape:window-y="-12"
     inkscape:window-maximized="1"
     inkscape:current-layer="svg6">
    <sodipodi:guide
       position="0,16.666667"
       orientation="0,1"
       id="guide822"
       inkscape:locked="false"
       inkscape:label=""
       inkscape:color="rgb(0,0,255)" />
    <sodipodi:guide
       position="16.666667,0"
       orientation="1,0"
       id="guide824"
       inkscape:locked="false"
       inkscape:label=""
       inkscape:color="rgb(0,0,255)" />
  </sodipodi:namedview>
  <path
     style="stroke-width:0.09878266"
     d="m 24.750539,41.845485 -0.07176,-0.957246 -0.290161,-0.05802 c -0.665086,-0.133019 -1.193934,-1.191465 -1.015929,-2.033292 0.05768,-0.273231 0.404168,-0.961152 0.483984,-0.961152 0.01401,0 0.167232,0.049 0.339025,0.10892 l 0.312413,0.10892 -0.292815,0.333495 c -0.518477,0.590515 -0.521451,1.516974 -0.006,2.03189 0.477554,0.477564 0.510658,0.40504 0.435203,-0.953299 l -0.06855,-1.234781 h 0.267047 0.267026 l -0.03035,1.234961 c -0.03437,1.397465 0.008,1.463356 0.572224,0.898745 0.30554,-0.305545 0.33583,-0.388027 0.335487,-0.91374 -5.81e-4,-0.958381 -0.35048,-1.325211 -1.588594,-1.665561 -0.692904,-0.190467 -1.263238,-0.556274 -1.57366,-1.009321 -0.43034,-0.628031 -0.368291,-2.058568 0.101901,-2.349153 0.05588,-0.03456 0.322362,0.01046 0.592062,0.100017 l 0.490378,0.16287 -0.283932,0.238901 c -0.352913,0.296954 -0.463282,0.799654 -0.27386,1.247336 0.19537,0.461539 0.421373,0.631635 1.355234,1.019606 1.230496,0.511212 1.674784,1.027592 1.674784,1.946556 0,0.945036 -0.347005,1.493641 -1.058018,1.672674 l -0.423725,0.106683 -0.0015,0.803227 c -0.0021,1.191827 -0.1612,1.269451 -0.24729,0.120785 z m 0.955669,-4.52579 -0.429112,-0.190988 0.415485,-0.205569 c 0.706109,-0.349352 0.981378,-1.094954 0.644685,-1.746083 -0.197783,-0.382389 -0.640665,-0.56462 -1.675548,-0.689372 -2.040661,-0.246002 -3.232103,-1.346334 -3.095001,-2.858311 0.05045,-0.556979 0.386199,-1.399867 0.557512,-1.399867 0.07056,0 0.511843,0.141712 1.071625,0.34402 0.08622,0.03118 0.04884,0.153447 -0.126032,0.410958 -0.4868,0.717321 -0.446258,1.318772 0.122603,1.818184 0.466841,0.409902 0.83692,0.55874 1.72435,0.693527 0.808477,0.122796 1.491754,0.386878 1.847742,0.714139 0.319327,0.293556 0.600785,0.929474 0.603419,1.363391 0.004,0.710066 -0.439926,1.539337 -0.96606,1.803271 -0.233339,0.117065 -0.320012,0.109934 -0.695679,-0.05729 z M 24.56944,36.526889 c -0.03416,-0.285234 -0.0627,-0.796434 -0.06312,-1.136001 l -8.64e-4,-0.617389 h 0.345739 0.345738 v 1.135998 1.136002 h -0.282585 c -0.267127,0 -0.286002,-0.02837 -0.344875,-0.51861 z m 1.961026,-2.797588 c -0.271651,-0.125324 -0.571702,-0.230581 -0.666775,-0.233915 -0.197781,-0.0071 -0.240314,-0.203627 -0.04401,-0.203627 0.288433,0 1.027748,-0.579425 1.198536,-0.939324 0.14894,-0.313745 0.159195,-0.433312 0.06433,-0.74974 -0.15839,-0.528356 -0.535923,-0.938544 -1.024089,-1.112378 -0.243329,-0.08666 -0.931308,-0.169341 -1.65179,-0.198525 -1.747102,-0.07077 -2.715353,-0.413288 -3.380499,-1.19581 -0.559581,-0.658367 -0.62591,-2.036414 -0.143515,-2.983676 0.143305,-0.28139 0.29778,-0.534658 0.343346,-0.562816 0.04564,-0.02817 0.457594,0.07924 0.91561,0.238643 0.458037,0.159404 0.850467,0.290438 0.872074,0.291165 0.0217,7.39e-4 -0.111753,0.10224 -0.296331,0.225551 -0.650434,0.43451 -0.912978,1.519854 -0.473877,1.95895 0.427445,0.427442 1.035064,0.599485 2.421857,0.685738 1.109754,0.06901 1.41278,0.124262 1.912745,0.348625 1.15267,0.517284 1.734923,1.461514 1.664935,2.699975 -0.03236,0.572371 -0.09004,0.76409 -0.332473,1.105895 -0.1614,0.227418 -0.42672,0.512402 -0.58971,0.633302 l -0.296353,0.219817 z m -2.025748,-1.246536 c -4.03e-4,-0.397178 -0.02914,-1.022191 -0.06372,-1.388921 l -0.06291,-0.666785 h 0.461593 0.461594 l -0.02754,1.358262 -0.02754,1.358263 -0.37044,0.03065 -0.370441,0.03065 -6.84e-4,-0.722138 z m 2.842125,-3.175316 c -0.420168,-0.226337 -0.76462,-0.437821 -0.765465,-0.469969 -7.84e-4,-0.03215 0.17306,-0.110755 0.386341,-0.174649 0.441433,-0.132262 0.896313,-0.611903 0.896313,-0.945126 0,-0.389534 -0.213381,-0.884874 -0.522656,-1.213244 -0.460529,-0.488969 -1.001096,-0.626397 -2.835955,-0.720967 -1.766981,-0.09107 -2.447603,-0.23082 -3.355013,-0.688876 -1.279035,-0.645656 -1.819643,-1.437852 -1.821311,-2.668947 -7.43e-4,-0.602588 0.05066,-0.854638 0.276231,-1.350403 0.152562,-0.335242 0.379508,-0.705618 0.504529,-0.823055 l 0.227289,-0.213524 0.695576,0.25091 c 0.382561,0.138009 0.925561,0.281418 1.206678,0.318711 l 0.511099,0.06779 -0.49932,0.237317 c -0.92144,0.43794 -1.38032,1.241171 -1.098199,1.922283 0.07397,0.178465 0.317518,0.428484 0.579321,0.594594 0.737465,0.467939 1.584915,0.674689 3.168265,0.772961 0.787773,0.04891 1.654603,0.157488 1.926252,0.24131 1.604414,0.495077 2.450257,1.568557 2.456648,3.117796 0.004,0.977926 -0.237037,1.459477 -1.02441,2.046122 -0.11618,0.08661 -0.313356,0.02157 -0.912213,-0.301033 z M 24.406649,27.46358 v -1.382957 h 0.493917 0.493894 v 0.478739 c 0,0.263305 -0.02895,0.885636 -0.06412,1.382957 l -0.06412,0.904219 H 24.836487 24.40677 Z m 4.149965,-2.517621 c -0.168034,-0.202572 -1.462287,-0.839829 -1.718379,-0.846137 -0.114973,-0.0029 0.06855,-0.108227 0.407685,-0.234256 0.634998,-0.235919 0.770732,-0.316918 1.235501,-0.737266 0.53544,-0.484256 0.289116,-1.463991 -0.499402,-1.986287 -0.705224,-0.467112 -1.291236,-0.591816 -3.501078,-0.745019 -1.127243,-0.07816 -2.371909,-0.213639 -2.765927,-0.301089 -1.562766,-0.346857 -2.969257,-1.306871 -3.500958,-2.389639 -0.248174,-0.50539 -0.27768,-0.670434 -0.27768,-1.553299 0,-0.879444 0.02996,-1.048972 0.273679,-1.54511 0.525792,-1.070693 1.701054,-1.845938 3.204747,-2.114002 1.403173,-0.250141 1.919963,-0.138548 2.670793,0.576724 0.492388,0.469057 0.436249,0.719185 -0.229841,1.024134 -0.564889,0.258613 -1.064692,0.275242 -2.241942,0.0746 -0.771535,-0.13149 -1.456802,0.448785 -1.654482,1.401028 -0.226487,1.091014 0.0826,1.702657 1.113894,2.20446 0.918405,0.446868 1.637659,0.59911 3.333425,0.705586 2.600304,0.163272 3.707326,0.456648 4.766992,1.263298 0.835472,0.635995 1.27178,1.435076 1.336803,2.448304 0.07276,1.132901 -0.308775,1.900405 -1.302974,2.621416 -0.444409,0.322309 -0.486298,0.330836 -0.650856,0.132552 z M 22.8713,12.949355 c 0.07297,-0.118207 -0.112768,-0.235322 -0.244354,-0.154006 -0.110546,0.06827 -0.03799,0.24596 0.100308,0.24596 0.04783,0 0.112767,-0.04138 0.143917,-0.09196 z m 1.43656,9.377527 v -1.580523 h 0.543299 0.543301 v 1.580523 1.580523 H 24.851159 24.30786 Z m 4.507601,-3.181001 c -0.427504,-0.218981 -1.005375,-0.47874 -1.284182,-0.577246 -0.530778,-0.187532 -0.521794,-0.202729 0.233983,-0.395425 0.736762,-0.187854 1.443695,-0.571236 1.818719,-0.986342 0.320391,-0.354639 0.35444,-0.446996 0.353938,-0.960101 -7.84e-4,-0.859896 -0.14411,-1.234701 -0.650693,-1.701601 -0.425354,-0.392079 -0.476327,-0.412324 -0.912154,-0.36222 -1.447875,0.166449 -1.679426,0.174729 -2.055052,0.07358 -0.466078,-0.125501 -0.92556,-0.452749 -0.92556,-0.659198 0,-0.212434 0.72241,-0.870547 1.184144,-1.078764 0.366843,-0.165421 0.49703,-0.172698 1.315498,-0.07348 1.193532,0.144679 1.78276,0.333218 2.509692,0.803051 1.121092,0.724603 1.556677,1.645476 1.491352,3.152871 -0.04763,1.097379 -0.158985,1.373847 -0.855934,2.124384 -0.408107,0.439459 -1.245751,1.069688 -1.391735,1.047101 -0.03015,-0.0047 -0.404511,-0.187633 -0.832016,-0.406616 z m -1.563048,-6.210762 c -0.02011,-0.0584 -0.07758,-0.106181 -0.129236,-0.106181 -0.05166,0 -0.109757,0.04778 -0.129236,0.106181 -0.02011,0.0584 0.03859,0.106182 0.129236,0.106182 0.09065,0 0.148747,-0.04778 0.129236,-0.106182 z m -2.944553,3.421924 c 0,-1.74879 0.01,-1.844719 0.25987,-2.420174 0.142904,-0.329566 0.290627,-0.59921 0.328212,-0.59921 0.03759,0 0.187331,0.28982 0.332813,0.644043 0.253119,0.616337 0.264496,0.720456 0.264496,2.420177 v 1.776133 H 24.900566 24.30786 Z m -7.090879,-1.944999 c -1.064512,-0.129155 -1.121736,-0.177522 -0.507866,-0.429294 0.694029,-0.28465 2.603078,-1.244559 3.548656,-1.784345 0.704361,-0.402086 0.765204,-0.4188 1.234777,-0.339203 0.271649,0.04605 0.723658,0.08637 1.004452,0.08961 0.580264,0.0066 0.848114,0.08296 0.764802,0.217772 -0.03236,0.0525 -0.30365,0.0645 -0.627921,0.02782 -1.656675,-0.187431 -3.806437,0.793428 -4.697505,2.143281 -0.0802,0.121541 -0.215331,0.135514 -0.719395,0.07436 z m 14.270741,-0.450582 c -0.454821,-0.641457 -1.173351,-1.137685 -2.153724,-1.487361 -0.595861,-0.212533 -0.92765,-0.263829 -1.815704,-0.28071 -1.274011,-0.02421 -1.226214,-0.01769 -1.037214,-0.139915 0.08141,-0.05266 0.397697,-0.09644 0.702692,-0.09726 0.304976,-8.31e-4 0.777623,-0.04381 1.050319,-0.09554 0.487162,-0.0924 0.51275,-0.0846 1.470529,0.447524 0.868053,0.482283 2.930604,1.509541 3.592453,1.789223 0.242465,0.102449 0.239772,0.106216 -0.148135,0.206182 -0.217341,0.05601 -0.595179,0.121557 -0.839653,0.145704 -0.441153,0.04356 -0.447404,0.03984 -0.821544,-0.487852 z m -18.81412,0.120121 c -0.232354,-0.07256 -0.541731,-0.210074 -0.687516,-0.3056 L 11.721009,13.6023 12.803648,13.334454 c 1.759021,-0.435181 4.210825,-1.455587 5.591206,-2.32698 0.207492,-0.130992 0.502757,-0.238154 0.656161,-0.238154 0.290744,0 1.08262,0.360488 1.495914,0.680975 l 0.239751,0.185924 -0.486717,0.309079 c -1.096009,0.696 -3.848246,1.990568 -4.536808,2.133972 -0.854506,0.177965 -2.523057,0.179211 -3.089553,0.0024 z m 21.150992,-0.04552 C 33.048276,13.826387 31.37271,13.044988 29.987868,12.246807 29.498897,11.964978 29.081363,11.71836 29.060036,11.698769 28.896624,11.548582 30.275719,10.76933 30.70499,10.76933 c 0.132665,0 0.670011,0.242476 1.194296,0.538836 1.703025,0.962627 3.906053,1.819908 5.546666,2.158393 l 0.642091,0.132471 -0.5433,0.282891 c -0.49922,0.25993 -0.643538,0.285417 -1.778096,0.314025 -0.983609,0.02479 -1.378652,-0.0076 -1.942053,-0.159887 z M 8.7496017,13.177412 C 7.9968006,13.041637 7.1196809,12.708518 7.1196809,12.558388 c 0,-0.03859 0.3889529,-0.125347 0.8643354,-0.192778 2.0306117,-0.288027 5.9511347,-1.437666 7.7727077,-2.279234 1.117131,-0.5161186 1.37861,-0.5172357 1.994209,-0.0084 0.262987,0.217323 0.512328,0.395133 0.554074,0.395133 0.360733,0 -0.668742,0.674025 -2.181864,1.428514 -2.494354,1.243777 -5.07546,1.690409 -7.3735413,1.275926 z m 16.3523053,-0.07677 c -0.05647,-0.148357 -0.102513,-0.472547 -0.102513,-0.720407 v -0.450661 l 0.502155,0.04827 c 0.324695,0.03119 0.57333,0.119414 0.703518,0.249606 l 0.20136,0.20136 -0.234304,0.120379 c -0.128833,0.06621 -0.399285,0.278069 -0.600948,0.4708 l -0.366665,0.350423 z m 12.837959,0.178468 c -2.071091,-0.377707 -4.395806,-1.284506 -6.123351,-2.388529 -0.469251,-0.299894 -0.515722,-0.35631 -0.345738,-0.419763 0.107938,-0.04033 0.285197,-0.172015 0.393717,-0.292648 0.268835,-0.2988144 0.673227,-0.4954577 1.018884,-0.4954577 0.15818,0 0.660461,0.1746483 1.116206,0.3880947 1.796107,0.841219 5.783402,2.016616 7.836184,2.309997 l 0.883029,0.126201 -0.503805,0.216735 c -0.882123,0.379477 -1.625638,0.527042 -2.842768,0.564209 -0.65198,0.0199 -1.296522,0.01594 -1.432358,-0.0089 z M 24.303296,12.987075 C 24.171842,12.84714 23.91561,12.640766 23.733907,12.52847 l -0.330361,-0.204175 0.279288,-0.184134 c 0.16522,-0.108881 0.456528,-0.184417 0.712922,-0.184798 l 0.433656,-6.52e-4 -0.05749,0.557375 c -0.07236,0.70151 -0.166226,0.796722 -0.46859,0.474988 z M 5.6379373,12.045985 C 4.7963557,11.92448 3.7920034,11.421357 3.4874103,10.968705 L 3.256,10.624778 4.274099,10.49859 c 2.2469273,-0.278507 6.186345,-1.1236253 8.130447,-1.7442193 0.473975,-0.151292 0.803934,-0.2122223 0.824417,-0.1522163 0.01809,0.055038 0.142306,0.2286239 0.274564,0.3857725 0.292474,0.3475948 0.996511,0.5955709 1.933367,0.6809895 l 0.693245,0.063195 -0.973759,0.3800476 c -3.836826,1.497501 -7.452516,2.232087 -9.5184427,1.933826 z m 36.8953157,0.04292 c -2.664802,-0.303764 -4.747071,-0.81951 -7.655645,-1.896172 L 33.642812,9.7356518 34.415331,9.6638509 C 35.631595,9.5508018 36.224943,9.2281761 36.506,8.5270716 c 0.004,-0.010866 0.598434,0.15493 1.320221,0.3683002 2.201923,0.6509225 6.08486,1.4535272 7.892785,1.6314392 0.393899,0.03875 0.716159,0.10572 0.716159,0.1488 0,0.04307 -0.18733,0.238614 -0.416128,0.434525 -0.915611,0.783723 -2.151794,1.130828 -3.485784,0.978767 z M 21.991951,11.686587 c -0.178287,-0.04651 -0.17467,-0.06002 0.04944,-0.188115 0.21935,-0.125387 0.184517,-0.132201 -0.380169,-0.07461 -0.5392,0.05501 -0.650533,0.03695 -0.839653,-0.136237 -0.11999,-0.109805 -0.418049,-0.300173 -0.662545,-0.423025 -0.48095,-0.241677 -0.486256,-0.230643 0.235974,-0.491607 0.455662,-0.164638 0.272393,-0.183271 -0.697506,-0.07085 L 18.791425,10.40717 18.289833,10.024652 C 18.013961,9.814269 17.788239,9.6149368 17.788239,9.5816912 c 0,-0.033239 0.248394,-0.1387498 0.551982,-0.2344411 0.30359,-0.095689 0.528649,-0.197341 0.500127,-0.2258565 -0.02854,-0.028516 -0.480408,0.0253 -1.00423,0.1196188 -1.113495,0.2004968 -2.502678,0.1576828 -3.226656,-0.099408 -0.469715,-0.1668086 -0.970079,-0.5486669 -0.970079,-0.7403099 0,-0.2784094 3.606943,-2.2637442 4.955504,-2.7276046 0.953963,-0.3281326 1.890435,-0.4108379 2.371405,-0.2094332 0.628022,0.2629675 0.723035,0.5223083 0.729788,1.9917087 0.004,0.9967813 0.04482,1.3774587 0.177482,1.6821277 0.332833,0.7634979 0.852657,1.1305689 1.737494,1.2269299 0.578938,0.06305 0.678834,0.160859 1.035024,1.013347 l 0.150952,0.361436 -1.306572,-0.0015 c -0.718613,-8.45e-4 -1.393004,-0.02408 -1.498649,-0.05163 z m 3.007387,-0.04176 c 0,-0.138006 0.39498,-0.898546 0.570131,-1.097767 0.08363,-0.09508 0.284394,-0.17288 0.446237,-0.17288 0.855271,0 1.697797,-0.5897952 1.924786,-1.3473984 0.06653,-0.2223206 0.121798,-0.9324891 0.122603,-1.5781508 8.84e-4,-0.7348862 0.04702,-1.2627309 0.123425,-1.4113652 0.34799,-0.6771361 1.226898,-0.8561373 2.500046,-0.5091683 1.15116,0.3137289 3.894433,1.7053346 5.29451,2.6858095 l 0.230085,0.1611201 -0.197382,0.219431 c -0.646493,0.7188945 -2.246625,0.9701432 -4.099714,0.6437249 -0.958926,-0.1689193 -1.270153,-0.1795726 -0.839653,-0.028761 0.163011,0.057102 0.447925,0.1654215 0.633167,0.2407052 l 0.336808,0.1368792 -0.534374,0.4018633 -0.534376,0.4018625 -0.691478,-0.0641 c -0.380329,-0.03525 -0.802628,-0.08969 -0.938443,-0.120961 -0.356772,-0.08214 -0.156571,0.08962 0.329235,0.282563 l 0.411628,0.163472 -0.279129,0.108583 c -0.15356,0.05972 -0.480286,0.246994 -0.726167,0.416163 -0.415124,0.285617 -0.490417,0.303504 -1.054441,0.250514 -0.557913,-0.05242 -0.584143,-0.04647 -0.322041,0.07301 l 0.285358,0.13007 -0.26572,0.0667 c -0.399606,0.100304 -2.725163,0.05598 -2.725163,-0.05194 z M 24.551731,10.664449 C 24.350493,10.2673 24.304423,10.048862 24.327798,9.6025338 c 0.02935,-0.5597736 0.03076,-0.5620347 0.36417,-0.5938878 0.184116,-0.017482 0.439686,-0.00557 0.568003,0.026576 0.210427,0.052799 0.23328,0.112724 0.23328,0.611302 0,0.411557 -0.06713,0.676019 -0.262645,1.035336 -0.144512,0.265423 -0.299307,0.482585 -0.344091,0.482585 -0.04482,0 -0.195371,-0.225 -0.334784,-0.499998 z M 24.051022,8.4578034 c -0.476688,-0.476691 -0.444508,-0.5979624 0.133261,-0.5026302 0.600061,0.098987 0.864495,0.09949 1.38295,0.00258 0.382281,-0.071421 0.419828,-0.060426 0.419828,0.1229704 0,0.1107696 -0.136673,0.316491 -0.303931,0.4571488 -0.238705,0.2008577 -0.410419,0.255737 -0.800137,0.255737 -0.43261,0 -0.539258,-0.043053 -0.832075,-0.3358622 z m 0.04523,-0.766306 C 23.359226,7.264125 23.08667,6.2021678 23.542215,5.5328307 23.923973,4.971913 24.252484,4.792966 24.900485,4.792966 c 0.624704,0 0.940434,0.1617635 1.327457,0.6801303 0.287107,0.3845645 0.285478,1.3187842 -0.0021,1.7081048 -0.53496,0.7220001 -1.404259,0.9303852 -2.12872,0.5102963 z"
     id="path825"
     inkscape:connector-curvature="0" />
</svg>
