<?xml version="1.0" encoding="UTF-8" standalone="no"?>
<svg
   xmlns:dc="http://purl.org/dc/elements/1.1/"
   xmlns:cc="http://creativecommons.org/ns#"
   xmlns:rdf="http://www.w3.org/1999/02/22-rdf-syntax-ns#"
   xmlns:svg="http://www.w3.org/2000/svg"
   xmlns="http://www.w3.org/2000/svg"
   xmlns:sodipodi="http://sodipodi.sourceforge.net/DTD/sodipodi-0.dtd"
   xmlns:inkscape="http://www.inkscape.org/namespaces/inkscape"
   height="50"
   viewBox="0 0 50 50"
   width="50"
   version="1.1"
   id="svg6"
   sodipodi:docname="plutus.svg"
   inkscape:version="0.92.5 (2060ec1f9f, 2020-04-08)"
   inkscape:export-filename="/home/hamhec/workspace/web/skills/dist/assets/languages/de_b2.svg.png"
   inkscape:export-xdpi="99.921013"
   inkscape:export-ydpi="99.921013">
  <metadata
     id="metadata12">
    <rdf:RDF>
      <cc:Work
         rdf:about="">
        <dc:format>image/svg+xml</dc:format>
        <dc:type
           rdf:resource="http://purl.org/dc/dcmitype/StillImage" />
        <dc:title />
      </cc:Work>
    </rdf:RDF>
  </metadata>
  <defs
     id="defs10" />
  <sodipodi:namedview
     pagecolor="#ffffff"
     bordercolor="#666666"
     borderopacity="1"
     objecttolerance="10"
     gridtolerance="10"
     guidetolerance="10"
     inkscape:pageopacity="0"
     inkscape:pageshadow="2"
     inkscape:window-width="3840"
     inkscape:window-height="2050"
     id="namedview8"
     showgrid="false"
     showguides="true"
     inkscape:guide-bbox="true"
     inkscape:zoom="11.313708"
     inkscape:cx="-25.505886"
     inkscape:cy="60.75706"
     inkscape:window-x="3348"
     inkscape:window-y="-12"
     inkscape:window-maximized="1"
     inkscape:current-layer="svg6">
    <sodipodi:guide
       position="0,16.666667"
       orientation="0,1"
       id="guide822"
       inkscape:locked="false"
       inkscape:label=""
       inkscape:color="rgb(0,0,255)" />
    <sodipodi:guide
       position="16.666667,0"
       orientation="1,0"
       id="guide824"
       inkscape:locked="false"
       inkscape:label=""
       inkscape:color="rgb(0,0,255)" />
    <sodipodi:guide
       position="0,32"
       orientation="0,1"
       id="guide821"
       inkscape:locked="false"
       inkscape:label=""
       inkscape:color="rgb(0,0,255)" />
    <sodipodi:guide
       position="32,0"
       orientation="1,0"
       id="guide823"
       inkscape:locked="false"
       inkscape:label=""
       inkscape:color="rgb(0,0,255)" />
    <sodipodi:guide
       position="25.333333,0"
       orientation="1,0"
       id="guide825"
       inkscape:locked="false"
       inkscape:label=""
       inkscape:color="rgb(0,0,255)" />
    <sodipodi:guide
       position="0,25.333333"
       orientation="0,1"
       id="guide827"
       inkscape:locked="false"
       inkscape:label=""
       inkscape:color="rgb(0,0,255)" />
  </sodipodi:namedview>
  <path
     style="stroke-width:0.11003336"
     d="m 13.622713,48.02682 -0.03258,-0.744779 -2.228175,-0.02978 -2.2281766,-0.02979 v -1.923307 -1.923306 h 0.7152176 0.715216 v 1.271184 1.271183 l 1.540645,-0.03331 1.540646,-0.03331 -2.2e-4,0.742725 -2.2e-4,0.742725 2.008108,-0.0015 2.008109,-0.0015 0.413115,-1.016273 c 0.227213,-0.558949 0.412895,-1.078165 0.412625,-1.153812 -3.3e-4,-0.103868 -0.402366,-0.137541 -1.641783,-0.137541 H 15.203945 L 13.576386,43.265924 11.948827,41.50539 H 9.490695 7.0325617 l 0.032762,-0.687707 0.032847,-0.687703 1.6250121,-0.03046 1.6250132,-0.03046 -0.02953,-2.539463 -0.02953,-2.539463 -0.661395,-0.264553 C 8.6996201,34.354333 7.8266864,33.635683 7.4282656,32.914841 L 7.0981653,32.317608 7.0664624,27.283582 7.0347596,22.249555 h 0.719416 0.7194149 v 0.531727 0.531727 l 0.8821075,0.438393 c 0.485159,0.24112 0.906036,0.414467 0.935284,0.38522 0.02924,-0.02925 0.05317,-0.911437 0.05317,-1.960425 v -1.907242 h 0.6602 0.6602 v 1.9806 c 0,1.089332 0.02949,1.980601 0.06554,1.980601 0.03605,0 0.201379,-0.09673 0.367406,-0.214948 0.166027,-0.118221 0.545033,-0.310216 0.842237,-0.42666 l 0.540368,-0.21171 0.03326,-0.563644 0.03326,-0.563639 h 0.71468 0.714682 l -0.03272,4.97901 c -0.03147,4.787719 -0.04159,4.998032 -0.263361,5.474159 -0.347466,0.745965 -1.079365,1.406176 -2.10757,1.901143 l -0.907776,0.436994 v 2.510722 2.510722 l 0.462852,0.03383 c 0.442986,0.03238 0.531533,0.108009 2.063125,1.762086 l 1.600274,1.72825 1.705517,0.0041 1.705517,0.0041 1.645704,-3.988066 c 0.905137,-2.193435 1.929185,-4.557488 2.275664,-5.253449 1.166402,-2.34292 2.838728,-4.539814 4.313632,-5.666718 l 0.720064,-0.550166 0.0064,-1.292892 0.0064,-1.292892 h -0.88573 c -0.985703,0 -1.34962,-0.133035 -1.787523,-0.653453 -0.56201,-0.667912 -0.595162,-1.150722 -0.225241,-3.280239 l 0.06212,-0.35761 h -0.899929 c -0.805766,0 -0.893871,-0.02017 -0.842048,-0.192554 0.03183,-0.105912 0.390308,-1.504709 0.796612,-3.108444 0.681622,-2.690457 0.740129,-3.013708 0.756795,-4.181267 0.01508,-1.056441 0.05839,-1.349616 0.262347,-1.775513 0.287342,-0.600035 0.957518,-1.415453 1.163334,-1.415453 0.07927,0 0.478527,0.156481 0.887242,0.347744 l 0.743121,0.347748 -0.51045,0.259422 c -1.408956,0.71605 -1.551413,2.547986 -0.27819,3.577416 0.645917,0.522236 0.734587,0.562507 2.132958,0.968638 1.483562,0.430866 2.604272,0.937869 3.524232,1.594339 0.876934,0.62577 1.312199,1.157803 2.026957,2.477593 0.943617,1.742378 1.95358,2.582117 3.10553,2.582117 0.517997,0 0.710081,-0.05749 1.101872,-0.329741 0.635424,-0.441553 1.004539,-1.155602 0.923568,-1.786628 -0.06922,-0.53947 -0.25394,-0.939563 -0.818398,-1.772633 -0.38895,-0.574045 -0.400318,-0.619413 -0.38164,-1.52304 0.01059,-0.512259 0.04098,-0.953103 0.06754,-0.979664 0.02656,-0.02658 0.346847,0.0812 0.711755,0.239451 l 0.663467,0.28774 -0.05844,0.43572 c -0.04859,0.36223 -0.0026,0.513767 0.272053,0.898472 0.92802,1.299401 1.157142,2.468225 0.73373,3.743002 -0.265523,0.79941 -1.20676,1.729764 -2.025325,2.001903 -0.617271,0.205218 -1.616769,0.262747 -2.063843,0.118791 -0.216703,-0.06978 -0.27766,-0.01799 -0.465224,0.39533 -0.168244,0.370734 -0.21638,0.72167 -0.218264,1.591255 l -0.0024,1.115625 0.842994,0.400335 c 2.203452,1.046417 4.097162,3.046626 4.986012,5.266424 0.698965,1.745582 0.699158,1.74722 0.746044,6.323801 l 0.04312,4.208776 h -1.603561 -1.603567 v 2.695817 2.695818 h -1.815553 -1.81555 v -0.715155 -0.715217 h 1.100333 1.100334 v -5.698616 c 0,-4.696304 -0.02886,-5.809452 -0.164133,-6.328767 -0.584657,-2.244647 -2.49875,-3.870743 -4.826724,-4.100483 -0.881712,-0.08702 -2.077015,0.166583 -2.931285,0.621903 -0.801068,0.426965 -1.840628,1.435591 -2.349885,2.279959 -0.208049,0.344952 -1.601318,3.548571 -3.096155,7.119153 -1.494837,3.570583 -2.818243,6.727165 -2.940903,7.014627 l -0.223019,0.522659 h -0.768578 c -0.572136,0 -0.753737,-0.03513 -0.710844,-0.137542 3.844813,-9.17896 6.024898,-14.299883 6.382431,-14.992045 0.337183,-0.652769 0.697173,-1.123278 1.392924,-1.820568 1.012435,-1.014671 1.821586,-1.499118 3.028863,-1.813415 0.887645,-0.231083 2.566602,-0.230957 3.457253,2.21e-4 2.542685,0.6601 4.48617,2.698596 5.007283,5.252073 0.131772,0.645695 0.173082,1.545178 0.173082,3.768643 0,2.259926 0.03111,2.921853 0.137543,2.926402 0.07565,0.0032 0.459389,0.01333 0.852758,0.02242 l 0.715217,0.01655 0.0292,-3.237638 c 0.02656,-2.944288 0.0091,-3.317333 -0.193226,-4.117247 -0.978324,-3.868759 -4.506428,-6.671527 -8.386434,-6.662289 -3.381653,0.0081 -6.472084,2.406162 -8.7182,6.765141 -0.280657,0.544665 -1.713085,3.911685 -3.183174,7.482268 l -2.672888,6.491968 -2.489328,0.02956 -2.48933,0.02956 -0.03258,-0.744777 z M 10.321647,32.20831 c -0.0405,-0.910635 -0.09626,-1.199358 -0.293184,-1.51798 -0.243224,-0.393545 -1.1331465,-1.068643 -1.4086984,-1.068643 -0.2120192,0 -0.2040835,2.101081 0.00943,2.508723 0.3007659,0.574097 1.3977494,1.415437 1.6457114,1.262188 0.05319,-0.03287 0.0742,-0.565802 0.04669,-1.184288 z m 2.009065,0.949948 c 1.022156,-0.657351 1.204402,-1.035401 1.204402,-2.498417 0,-1.202673 -0.0267,-1.224297 -0.840323,-0.680545 -0.803721,0.537134 -1.030245,1.068468 -1.030245,2.416539 0,0.592361 0.03982,1.07702 0.08849,1.07702 0.04867,0 0.308625,-0.141568 0.577675,-0.314597 z m -1.98718,-5.324613 c -7.94e-4,-1.077714 -0.130946,-1.610956 -0.500704,-2.05039 -0.238307,-0.28321 -1.1303329,-0.893002 -1.3063181,-0.893002 -0.1362448,0 -0.059656,2.215392 0.088573,2.56181 0.1708118,0.399214 0.6229121,0.848452 1.1138851,1.106828 0.573955,0.302049 0.605238,0.264519 0.60457,-0.725246 z m 2.161338,0.550167 c 0.80372,-0.537135 1.030244,-1.068467 1.030244,-2.416541 0,-0.59236 -0.03982,-1.077018 -0.08849,-1.077018 -0.217125,0 -1.122152,0.675244 -1.40889,1.051179 -0.294729,0.386408 -0.318602,0.493958 -0.3567,1.607056 -0.04732,1.382535 -0.02652,1.403626 0.823836,0.835324 z m 18.073005,-1.573746 c 1.42759,-0.373535 2.917677,-0.442875 4.276201,-0.198987 l 0.357609,0.0642 -3.31e-4,-0.975037 c -2.19e-4,-0.80958 0.04928,-1.09187 0.291919,-1.663517 l 0.292233,-0.688481 -0.666691,-0.666691 c -0.464703,-0.4647 -0.841217,-0.998655 -1.242732,-1.762369 -0.368975,-0.701817 -0.778111,-1.29567 -1.138186,-1.65204 -0.690657,-0.683566 -2.12518,-1.410631 -3.58806,-1.818561 C 28.05076,17.13931 27.239145,16.781923 26.661348,16.3484 l -0.35284,-0.264736 -0.108924,0.414585 c -0.326356,1.242234 -0.780868,3.112938 -0.780868,3.213999 0,0.07104 0.305802,0.11647 0.783988,0.11647 h 0.783988 l -0.05686,0.302594 c -0.03127,0.166426 -0.171309,1.05824 -0.311202,1.981811 -0.328097,2.166109 -0.406652,2.061914 1.554552,2.061914 h 1.426535 l 1.1e-4,1.469715 c 1.1e-4,1.354779 0.01519,1.463875 0.192689,1.395065 0.105902,-0.04106 0.459307,-0.144444 0.785332,-0.229749 z m -6.369526,21.865922 c 0,-0.05032 1.333167,-3.226169 2.962592,-7.057428 2.792865,-6.566846 2.992433,-6.99622 3.483449,-7.494733 0.752514,-0.764003 1.418237,-1.031116 2.576694,-1.033868 0.751341,-0.0018 1.0343,0.04657 1.438749,0.245879 0.818218,0.403204 1.381154,0.962082 1.775106,1.762314 l 0.36223,0.735792 v 4.898798 c 0,5.40972 -0.02392,5.632545 -0.705644,6.573638 -0.421398,0.581721 -1.443835,1.091385 -2.604245,1.298161 -0.975818,0.173884 -9.288931,0.237824 -9.288931,0.07144 z m 9.823329,-1.604108 c 0.688274,-0.258783 1.121455,-0.706378 1.27543,-1.317867 0.08281,-0.328868 0.124283,-2.002034 0.123569,-4.985157 l -0.0011,-4.490151 -0.265664,-0.570592 c -0.65888,-1.415135 -2.513122,-1.679055 -3.599367,-0.51231 -0.181232,0.194663 -1.229812,2.515642 -2.778342,6.149721 -1.367959,3.210377 -2.48722,5.875407 -2.48722,5.922287 0,0.04688 1.621617,0.06643 3.603592,0.04345 3.131339,-0.03631 3.672461,-0.06769 4.129102,-0.239376 z m -0.08067,-34.570318 c -3.991622,-1.84525 -7.274346,-3.3718581 -7.294942,-3.3924538 -0.06062,-0.06062 0.563693,-1.2794238 0.63918,-1.247829 0.275881,0.1154638 14.582534,6.7261108 14.61535,6.7532798 0.08762,0.07255 -0.458545,1.252699 -0.577331,1.247486 -0.06862,-0.0032 -3.390635,-1.515228 -7.382257,-3.360483 z m 7.440764,0.486486 c -0.504384,-0.241795 -0.89986,-0.456834 -0.878835,-0.477858 0.02103,-0.02102 0.276474,-0.128364 0.567663,-0.238524 0.503329,-0.190421 0.550401,-0.245062 0.954646,-1.108075 0.233866,-0.499275 0.381532,-0.907773 0.328146,-0.907773 -0.05338,0 -0.924899,0.298967 -1.936696,0.664378 -1.011797,0.365412 -1.875411,0.625363 -1.919141,0.577677 C 38.463817,11.450186 38.074314,10.47038 37.641981,9.3205321 37.209646,8.1706842 36.809553,7.1199816 36.752884,6.9856307 L 36.649853,6.7413632 35.298078,7.2230545 C 34.554601,7.4879866 33.455903,7.8832403 32.856524,8.101402 32.257145,8.3195583 31.753717,8.4850274 31.737796,8.469105 31.721876,8.4531742 31.403174,7.6231839 31.029576,6.6246601 30.655977,5.6261374 30.313741,4.7705984 30.269052,4.7234573 30.224363,4.6763003 30.003404,5.051579 29.778035,5.5573636 l -0.409767,0.9196183 0.224286,0.5690176 c 0.123358,0.3129556 0.207105,0.5690166 0.186107,0.5690166 -0.04381,0 -1.975986,-0.8944541 -2.029554,-0.9395308 -0.0524,-0.044096 2.542934,-5.6624711 2.615703,-5.6624711 0.03425,0 0.532234,1.2616128 1.106657,2.8035864 0.612084,1.6430784 1.102592,2.8045238 1.184979,2.8058531 0.07732,0.00106 1.182164,-0.3742141 2.455216,-0.8343564 1.27305,-0.4601381 2.339007,-0.8122418 2.368793,-0.7824573 0.02979,0.029796 0.454837,1.111849 0.944559,2.4045904 0.489722,1.2927415 0.896053,2.3592701 0.902956,2.3700679 0.0069,0.010794 1.299361,-0.4408695 2.872127,-1.0037097 1.572767,-0.5628402 2.874206,-1.0109295 2.892092,-0.9957549 0.07764,0.065874 -2.562522,5.6650023 -2.667174,5.6564013 -0.06389,-0.0053 -0.528856,-0.207385 -1.033243,-0.449187 z M 35.050876,10.051413 33.734721,9.4218742 34.709699,9.066705 c 0.536237,-0.1953479 0.994789,-0.3353615 1.019001,-0.3111517 0.103878,0.1038789 0.781468,1.9396957 0.713421,1.9328997 -0.0413,-0.0042 -0.667358,-0.290795 -1.391245,-0.63704 z M 39.980187,8.2002781 C 39.940656,8.0901963 39.815294,7.7584966 39.701612,7.4631667 39.58793,7.1678367 39.509111,6.9120776 39.526459,6.8948163 39.543809,6.8775613 39.887105,6.73959 40.289343,6.5882384 l 0.731341,-0.2751897 0.224782,0.6234728 c 0.333275,0.9244082 0.338034,0.8981911 -0.202015,1.1129336 -0.895739,0.3561754 -0.984969,0.3688311 -1.063264,0.150823 z M 33.174326,5.15977 C 33.149869,5.0879752 33.029561,4.7586567 32.906984,4.4279473 32.784408,4.0972432 32.720533,3.7913157 32.765042,3.7481074 c 0.09591,-0.093096 1.202206,-0.5344262 1.339683,-0.5344262 0.08437,0 0.702542,1.4430455 0.637666,1.4885512 -0.01423,0.00996 -0.362848,0.14637 -0.774724,0.3031058 C 33.44065,5.205889 33.205625,5.2516383 33.174326,5.15977 Z"
     id="path842"
     inkscape:connector-curvature="0" />
</svg>
