<?xml version="1.0" encoding="UTF-8" standalone="no"?>
<svg
   xmlns:dc="http://purl.org/dc/elements/1.1/"
   xmlns:cc="http://creativecommons.org/ns#"
   xmlns:rdf="http://www.w3.org/1999/02/22-rdf-syntax-ns#"
   xmlns:svg="http://www.w3.org/2000/svg"
   xmlns="http://www.w3.org/2000/svg"
   xmlns:sodipodi="http://sodipodi.sourceforge.net/DTD/sodipodi-0.dtd"
   xmlns:inkscape="http://www.inkscape.org/namespaces/inkscape"
   height="50"
   viewBox="0 0 50 50"
   width="50"
   version="1.1"
   id="svg6"
   sodipodi:docname="zeus.svg"
   inkscape:version="0.92.5 (2060ec1f9f, 2020-04-08)">
  <metadata
     id="metadata12">
    <rdf:RDF>
      <cc:Work
         rdf:about="">
        <dc:format>image/svg+xml</dc:format>
        <dc:type
           rdf:resource="http://purl.org/dc/dcmitype/StillImage" />
        <dc:title />
      </cc:Work>
    </rdf:RDF>
  </metadata>
  <defs
     id="defs10" />
  <sodipodi:namedview
     pagecolor="#ffffff"
     bordercolor="#666666"
     borderopacity="1"
     objecttolerance="10"
     gridtolerance="10"
     guidetolerance="10"
     inkscape:pageopacity="0"
     inkscape:pageshadow="2"
     inkscape:window-width="3840"
     inkscape:window-height="2050"
     id="namedview8"
     showgrid="false"
     showguides="false"
     inkscape:guide-bbox="true"
     inkscape:zoom="4.6354778"
     inkscape:cx="-115.56435"
     inkscape:cy="10.517171"
     inkscape:window-x="3348"
     inkscape:window-y="-12"
     inkscape:window-maximized="1"
     inkscape:current-layer="svg6">
    <sodipodi:guide
       position="0,16.666667"
       orientation="0,1"
       id="guide822"
       inkscape:locked="false"
       inkscape:label=""
       inkscape:color="rgb(0,0,255)" />
    <sodipodi:guide
       position="16.666667,0"
       orientation="1,0"
       id="guide824"
       inkscape:locked="false"
       inkscape:label=""
       inkscape:color="rgb(0,0,255)" />
    <inkscape:grid
       type="xygrid"
       id="grid842" />
    <sodipodi:guide
       position="32,5.9999999"
       orientation="1,0"
       id="guide852"
       inkscape:locked="false"
       inkscape:label=""
       inkscape:color="rgb(0,0,255)" />
    <sodipodi:guide
       position="0,32"
       orientation="0,1"
       id="guide854"
       inkscape:locked="false"
       inkscape:label=""
       inkscape:color="rgb(0,0,255)" />
  </sodipodi:namedview>
  <path
     d="m 20.335735,2.7882419 c -0.297837,0.012325 -0.593648,0.03929 -0.886484,0.081933 -3.274706,0.4771289 -6.006063,2.6788388 -7.181701,5.7897833 l -0.281346,0.745318 -0.938803,-0.017769 C 9.953642,9.3662825 9.351717,9.4594094 8.5182567,9.7823778 7.3390793,10.237773 6.1035589,11.269941 5.4955274,12.306586 3.7972636,15.2007 4.5508117,18.821968 7.2457873,20.716334 c 1.0528193,0.740966 2.1793287,1.07997 3.5844347,1.07997 1.536014,0 2.744229,-0.39547 3.507434,-1.149072 0.84458,-0.833461 1.218325,-1.815077 1.169804,-3.072091 -0.02628,-0.682335 -0.06158,-0.852035 -0.277397,-1.310969 -0.284054,-0.605509 -0.840536,-1.189096 -1.389943,-1.46102 -0.313369,-0.155167 -0.487925,-0.183614 -1.108598,-0.183614 -0.643923,0 -0.786739,0.02539 -1.12538,0.205333 -0.686885,0.365428 -0.969406,0.826889 -0.969406,1.57948 0,0.51908 0.151021,0.844643 0.488652,1.050355 0.523123,0.31994 1.097328,0.08101 1.283328,-0.532088 0.13394,-0.441749 0.507084,-0.739228 0.857855,-0.683125 0.624211,0.101588 0.832449,0.628863 0.505433,1.280367 -0.461966,0.917362 -1.164116,1.360738 -2.164875,1.364276 -0.543342,0.002 -0.673538,-0.02733 -1.040484,-0.230012 -0.876927,-0.485216 -1.290553,-1.304469 -1.234955,-2.445233 0.04043,-0.822341 0.276717,-1.368534 0.832188,-1.924005 0.738945,-0.738945 1.667964,-1.067476 2.862809,-1.010868 0.635837,0.02982 0.770558,0.06521 1.357367,0.357357 1.146829,0.57013 2.025471,1.677125 2.350465,2.965475 0.186504,0.735913 0.11959,2.101839 -0.139192,2.853925 l -0.194474,0.566638 0.45805,0.232974 c 0.602477,0.305283 1.909039,0.737752 2.56863,0.849958 l 0.527152,0.08884 -0.132282,0.20632 c -0.07278,0.113217 -0.38649,0.581889 -0.701881,1.047394 -0.315896,0.465504 -0.570588,0.869401 -0.570588,0.903265 0,0.03437 0.24373,0.353424 0.542947,0.710767 0.299217,0.356331 0.542946,0.669652 0.542946,0.696946 0,0.02881 -0.571937,0.831564 -1.272469,1.784813 l -1.271482,1.734468 0.246794,0.0691 c 1.225677,0.338135 1.872198,0.528035 1.955595,0.574535 0.07278,0.03993 -0.0086,0.194829 -0.295166,0.558741 -0.522619,0.667174 -1.029229,1.73048 -1.256674,2.637734 -0.304271,1.21304 -0.386128,2.359846 -0.316883,4.423533 0.03336,1.000254 0.05448,2.01477 0.0464,2.248786 -0.01972,0.605004 -0.202821,1.178955 -0.499511,1.567635 -1.140259,1.491535 -3.807157,1.784221 -7.298188,0.798625 -0.674755,-0.190549 -1.2473884,-0.348474 -1.2645733,-0.348474 -0.017188,0 0.2948346,0.371976 0.6880623,0.822318 1.321204,1.509225 2.422434,2.428562 3.942779,3.287294 0.318424,0.179429 0.600693,0.356576 0.621921,0.389935 0.06317,0.09957 1.100748,0.597375 2.109594,1.012841 2.571647,1.058884 5.144605,1.595308 8.053377,1.678199 4.01921,0.11625 7.571486,-0.669818 11.094866,-2.459054 1.815012,-0.921406 2.910888,-1.693646 4.608135,-3.245833 2.949207,-2.699017 4.875178,-5.946785 5.569644,-9.398898 0.151631,-0.754108 0.179667,-1.133633 0.179667,-2.445234 0,-1.442509 -0.118518,-2.696782 -0.263577,-2.788771 -0.03033,-0.01972 -0.329125,0.05513 -0.670292,0.166833 -0.493809,0.160728 -0.772232,0.202324 -1.392905,0.204345 -1.186759,0.0041 -1.989364,-0.26292 -3.03359,-1.006919 -0.571645,-0.407885 -0.801627,-0.695113 -1.157957,-1.447199 -0.513521,-1.086177 -0.532917,-2.212166 -0.05528,-3.227077 0.269396,-0.573161 1.011673,-1.312525 1.609095,-1.604159 0.416983,-0.203691 0.543294,-0.228038 1.20238,-0.228038 0.698004,0 0.76274,0.01455 1.24088,0.278383 0.91534,0.504929 1.42481,1.468436 1.242854,2.352439 -0.202174,0.977004 -1.053372,1.738637 -1.956583,1.750262 -0.333586,0.0041 -1.121533,-0.188692 -1.264571,-0.308985 -0.16275,-0.136973 -0.287994,-0.534094 -0.235935,-0.743344 0.0839,-0.337124 0.384407,-0.574536 0.725574,-0.574536 0.16275,0 0.362301,0.05136 0.446203,0.113525 0.08441,0.06317 0.290996,0.113478 0.468909,0.1155 0.395754,0.0036 0.579803,-0.181451 0.628831,-0.631792 0.07177,-0.648977 -0.520322,-1.189231 -1.296162,-1.181649 -0.745009,0.0065 -1.411172,0.483123 -1.769019,1.266546 -0.260803,0.571646 -0.220598,1.474911 0.09378,2.103671 0.420015,0.840031 1.303474,1.498445 2.297157,1.712749 0.535253,0.114734 1.564942,0.04955 2.016799,-0.127346 1.64266,-0.642406 2.928018,-2.454521 3.073077,-4.332712 0.199647,-2.582767 -1.158904,-5.431259 -3.266564,-6.850011 -0.612585,-0.411929 -1.459802,-0.835791 -1.490635,-0.745317 -0.116249,0.345716 -0.713308,1.149656 -1.194481,1.609095 -0.653527,0.624717 -1.311135,1.026236 -2.12539,1.297149 -0.721759,0.241091 -2.105748,0.258917 -2.754219,0.03653 -1.853932,-0.63634 -2.948693,-2.035302 -2.948693,-3.772984 0,-1.822595 1.273622,-3.258723 2.909206,-3.277423 0.721759,-0.0091 1.240184,0.201747 1.75421,0.712741 0.55345,0.549912 0.725843,1.021094 0.672267,1.827261 -0.04549,0.675261 -0.246486,1.067682 -0.82824,1.613045 -0.465504,0.437201 -0.7855,0.48562 -1.155983,0.172756 -0.457922,-0.386657 -0.364891,-0.962812 0.209281,-1.28629 0.334093,-0.189032 0.473845,-0.422171 0.473845,-0.794676 0,-0.985091 -1.455507,-1.269839 -2.217197,-0.434357 -0.369977,0.40738 -0.459035,0.691102 -0.459035,1.466943 0,0.652009 0.02431,0.782506 0.208293,1.133277 0.430124,0.814759 1.38932,1.406923 2.405747,1.482738 1.817035,0.135962 3.476611,-1.049897 4.033599,-2.880578 C 41.64647,12.981741 41.61304,12.337699 41.329997,11.220691 40.635016,8.4852826 38.560068,6.4255599 35.71296,5.6431491 35.216624,5.5066812 34.898279,5.4783619 33.835352,5.475329 c -1.133183,-0.00357 -1.366433,0.019451 -2.032594,0.2003967 -0.899673,0.244124 -1.938506,0.7353906 -2.583439,1.2221228 L 28.745474,7.255206 28.475976,6.8603357 C 28.076684,6.2745384 26.898793,5.0748751 26.232126,4.5760115 24.585612,3.3474285 22.420584,2.7019351 20.335727,2.7882378 Z m 7.531162,7.8371861 c 0.02527,-0.0015 0.109797,0.169509 0.184601,0.371177 0.240082,0.642912 1.119378,2.318702 1.607123,3.063206 0.737427,1.125096 1.364505,1.887046 2.281362,2.769028 1.018449,0.979531 1.768742,1.512566 3.002,2.135261 l 0.923997,0.465946 0.266537,0.659433 c 0.479657,1.187265 0.96507,2.663305 0.897343,2.730527 -0.03437,0.03437 -0.348994,-0.164652 -0.705831,-0.447189 -2.995201,-2.369474 -5.676456,-4.059669 -8.216261,-5.17971 -1.062928,-0.469044 -2.559991,-1.014074 -3.328756,-1.214226 -0.186505,-0.04853 -0.333665,-0.125245 -0.333665,-0.172756 0,-0.100579 3.354327,-5.179687 3.42155,-5.180697 z m -5.344569,6.999074 c 0.349721,-0.02249 0.73378,0.0075 1.147099,0.09279 2.381604,0.491282 3.495477,0.820271 4.911198,1.455097 3.112966,1.398029 6.337224,3.927513 9.030681,7.084958 1.018449,1.194339 1.908629,3.529689 2.122427,5.570631 0.31337,2.980038 -0.929508,6.161057 -3.516319,9.000079 -0.62977,0.690928 -1.746984,1.72833 -1.802582,1.674249 -0.01719,-0.01617 -0.0685,-0.464272 -0.1155,-0.999022 -0.07076,-0.815264 -0.364638,-2.555891 -0.51728,-3.057281 -0.03033,-0.101089 -0.192214,0.123997 -0.583421,0.814419 -1.771039,3.126614 -3.625863,5.049901 -6.006962,6.229078 -0.380592,0.188527 -0.79128,0.368445 -0.915112,0.400793 -0.201668,0.05206 -0.218892,0.04259 -0.166832,-0.08983 0.207228,-0.522619 0.364472,-1.070714 0.46101,-1.613045 0.124337,-0.698509 0.229917,-1.83121 0.170782,-1.83121 -0.02123,0 -0.4582,0.274347 -0.978291,0.61501 -1.908012,1.248928 -3.463762,1.888048 -5.306068,2.179684 -0.764721,0.121809 -2.373691,0.10201 -3.172783,-0.03851 -1.397018,-0.246146 -3.030889,-0.900422 -4.283354,-1.716698 l -0.46496,-0.303064 1.132291,-0.08983 c 2.514028,-0.199647 3.887473,-0.917639 4.646635,-2.431414 0.353804,-0.707102 0.425915,-1.157325 0.385985,-2.405747 -0.01972,-0.618145 -0.03222,-1.878365 -0.02665,-2.793706 0.01061,-1.862018 0.154663,-2.82476 0.568614,-3.81642 0.243114,-0.58226 0.766766,-1.353094 1.199418,-1.767045 l 0.287268,-0.273447 0.519254,0.268511 c 1.132172,0.58782 2.276917,1.637314 2.67722,2.455106 0.190043,0.388172 0.162536,0.383442 1.27247,0.218166 1.985849,-0.294163 3.848096,-1.140868 4.897377,-2.228056 l 0.261602,-0.27246 -0.09675,-0.589344 c -0.06167,-0.377559 -0.08159,-1.011807 -0.0543,-1.77198 0.03487,-0.969928 0.07954,-1.306246 0.244819,-1.865762 0.234016,-0.791003 0.539724,-1.429816 0.929919,-1.939799 0.154663,-0.201163 0.279372,-0.374819 0.279372,-0.387961 0,-0.01314 -0.201669,0.0022 -0.442256,0.03257 -1.218601,0.154157 -2.188355,0.02354 -2.450169,-0.327743 l -0.155973,-0.20928 0.201383,-0.357357 c 0.109679,-0.193581 0.186979,-0.357358 0.169794,-0.357358 -0.01719,0 -0.270667,0.05718 -0.557754,0.123398 -0.814759,0.189537 -1.516427,0.183779 -1.784813,-0.01284 -0.269902,-0.198635 -0.321701,-0.536053 -0.137218,-0.893394 0.112712,-0.217842 0.114426,-0.242277 0.01284,-0.203358 -0.969926,0.374021 -1.639485,0.544549 -2.280374,0.581446 l -0.714716,0.04146 -0.236922,-0.240871 c -0.254233,-0.258276 -0.313621,-0.652435 -0.157948,-1.056277 0.04145,-0.108668 0.06118,-0.200397 0.04146,-0.200397 -0.01921,0 -0.197339,0.139713 -0.390921,0.307012 -0.419005,0.360375 -0.921106,0.657727 -1.23397,0.73051 -0.681325,0.158706 -1.329187,-1.185646 -1.057265,-2.194491 0.252464,-0.932904 0.987382,-1.472519 2.036543,-1.539994 z m -6.587421,4.724623 c -0.08971,-0.01285 -0.628516,0.140075 -3.487691,0.968418 -1.83422,0.531716 -3.350071,0.980344 -3.367256,0.998035 -0.01668,0.01719 0.365681,0.403856 0.85292,0.862791 0.487238,0.458428 0.859047,0.853725 0.829227,0.882534 -0.02982,0.02729 -1.197855,0.453904 -2.5913365,0.946702 -1.3939861,0.493303 -2.562502,0.918444 -2.5923209,0.944727 -0.02987,0.02578 0.3765752,0.459976 0.9042506,0.967432 l 0.9575607,0.920047 -0.9713804,0.63278 c -0.5332355,0.347233 -1.7996901,1.16497 -2.8075302,1.813441 -1.009349,0.647967 -1.8333208,1.187407 -1.8272551,1.194483 0.033846,0.03942 9.4482528,-2.315306 9.4482528,-2.362312 0,-0.02628 -0.306143,-0.479221 -0.680163,-1.007906 -0.373516,-0.527672 -0.65569,-0.983574 -0.625869,-1.010867 0.02982,-0.0283 1.10314,-0.438077 2.388963,-0.911163 1.285319,-0.473592 2.344259,-0.868936 2.356389,-0.880561 0.01516,-0.01567 -0.8963,-1.03441 -1.762108,-1.967441 l -0.188551,-0.203357 1.590339,-1.373162 c 0.872885,-0.754107 1.589353,-1.38665 1.589353,-1.400802 6.3e-5,-0.0071 -0.003,-0.01199 -0.01579,-0.01382 z m 1.289251,7.396905 c -0.140068,0.01803 -0.666612,0.169186 -2.634771,0.73742 -1.417237,0.409907 -2.583083,0.754834 -2.598246,0.769997 -0.01516,0.01516 0.273565,0.311553 0.647587,0.665356 0.474602,0.451352 0.642841,0.656487 0.571574,0.697933 -0.0556,0.03185 -0.9576,0.363857 -2.008902,0.739394 -1.051808,0.375538 -1.925458,0.696978 -1.947697,0.71669 -0.02123,0.0187 0.295537,0.347968 0.700894,0.727548 0.716705,0.671216 0.735051,0.697183 0.583421,0.813433 -0.08491,0.06621 -1.03899,0.690589 -2.1135427,1.383033 -1.0745531,0.692444 -1.9460783,1.274112 -1.9309159,1.288264 0.01466,0.01516 1.642881,-0.371147 3.6130626,-0.856869 2.375034,-0.584787 3.575542,-0.913232 3.554819,-0.972367 -0.01719,-0.04954 -0.248555,-0.394191 -0.510369,-0.760126 -0.261815,-0.365933 -0.461003,-0.699054 -0.440281,-0.735445 0.02123,-0.03589 0.840963,-0.358431 1.814429,-0.712741 0.973465,-0.353804 1.789347,-0.657151 1.806531,-0.670292 0.01719,-0.01263 -0.307027,-0.392976 -0.727548,-0.85292 -0.620167,-0.676776 -0.740422,-0.846618 -0.654497,-0.925971 0.05762,-0.05307 0.607681,-0.529228 1.215213,-1.051341 0.607025,-0.521608 1.109585,-0.968522 1.109585,-0.985202 2.53e-4,-0.01314 -0.0037,-0.02181 -0.05035,-0.01579 z"
     id="path2"
     inkscape:connector-curvature="0"
     style="stroke-width:0.50543386" />
</svg>
