<?xml version="1.0" encoding="UTF-8" standalone="no"?>
<svg
   xmlns:dc="http://purl.org/dc/elements/1.1/"
   xmlns:cc="http://creativecommons.org/ns#"
   xmlns:rdf="http://www.w3.org/1999/02/22-rdf-syntax-ns#"
   xmlns:svg="http://www.w3.org/2000/svg"
   xmlns="http://www.w3.org/2000/svg"
   xmlns:sodipodi="http://sodipodi.sourceforge.net/DTD/sodipodi-0.dtd"
   xmlns:inkscape="http://www.inkscape.org/namespaces/inkscape"
   height="50"
   viewBox="0 0 50 50"
   width="50"
   version="1.1"
   id="svg6"
   sodipodi:docname="hermes.svg"
   inkscape:version="0.92.5 (2060ec1f9f, 2020-04-08)">
  <metadata
     id="metadata12">
    <rdf:RDF>
      <cc:Work
         rdf:about="">
        <dc:format>image/svg+xml</dc:format>
        <dc:type
           rdf:resource="http://purl.org/dc/dcmitype/StillImage" />
        <dc:title />
      </cc:Work>
    </rdf:RDF>
  </metadata>
  <defs
     id="defs10" />
  <sodipodi:namedview
     pagecolor="#ffffff"
     bordercolor="#666666"
     borderopacity="1"
     objecttolerance="10"
     gridtolerance="10"
     guidetolerance="10"
     inkscape:pageopacity="0"
     inkscape:pageshadow="2"
     inkscape:window-width="3360"
     inkscape:window-height="1990"
     id="namedview8"
     showgrid="false"
     showguides="false"
     inkscape:guide-bbox="true"
     inkscape:zoom="18.541911"
     inkscape:cx="-12.592986"
     inkscape:cy="33.152953"
     inkscape:window-x="-12"
     inkscape:window-y="-12"
     inkscape:window-maximized="1"
     inkscape:current-layer="svg6">
    <sodipodi:guide
       position="0,16.666667"
       orientation="0,1"
       id="guide822"
       inkscape:locked="false"
       inkscape:label=""
       inkscape:color="rgb(0,0,255)" />
    <sodipodi:guide
       position="16.666667,0"
       orientation="1,0"
       id="guide824"
       inkscape:locked="false"
       inkscape:label=""
       inkscape:color="rgb(0,0,255)" />
    <inkscape:grid
       type="xygrid"
       id="grid842" />
    <sodipodi:guide
       position="32,5.9999999"
       orientation="1,0"
       id="guide852"
       inkscape:locked="false"
       inkscape:label=""
       inkscape:color="rgb(0,0,255)" />
    <sodipodi:guide
       position="0,32"
       orientation="0,1"
       id="guide854"
       inkscape:locked="false"
       inkscape:label=""
       inkscape:color="rgb(0,0,255)" />
  </sodipodi:namedview>
  <path
     style="stroke-width:0.0507626"
     d="m 39.373668,1.3457031 -0.518392,5.9738527 1.160211,0.3147382 0.385709,-0.3887942 c 0.290739,-0.252339 0.677475,-0.3764514 1.160211,-0.3764514 0.581477,0 1.04227,0.2468534 1.38238,0.7405602 0.345593,0.4937069 0.518392,1.1317548 0.518392,1.9161996 0,0.8338158 -0.160113,1.4965488 -0.47828,1.9902558 -0.318165,0.488221 -0.758732,0.734389 -1.32375,0.734389 -0.499194,0 -0.906158,-0.172797 -1.21884,-0.518392 -0.30719,-0.351081 -0.500901,-0.869473 -0.58319,-1.555177 h -1.366952 c 0.08229,1.036784 0.406966,1.847629 0.971986,2.434592 0.565021,0.586962 1.297351,0.879415 2.196996,0.879415 1.009355,0 1.803058,-0.353823 2.379049,-1.061469 0.581476,-0.707647 0.870158,-1.679289 0.870158,-2.9190421 0,-1.2232955 -0.263997,-2.198024 -0.796102,-2.9221273 -0.532107,-0.7241033 -1.264439,-1.0861551 -2.196995,-1.0861551 -0.570506,0 -1.10467,0.1727978 -1.598377,0.5183922 l 0.280797,-3.2677221 h 3.983597 V 1.3457031 Z m -21.525617,0.5369063 -0.259197,0.033942 c -0.560692,0.073997 -1.274794,0.4720559 -1.829801,1.0182704 -0.335645,0.3303234 -0.349854,0.2954171 0.200568,0.4505076 0.365338,0.1029427 1.524568,0.6648831 2.058141,0.9966705 0.762208,0.4739648 1.227171,0.6472844 2.064313,0.7775883 0.58992,0.091774 0.930755,0.097411 0.925699,0.015428 -0.0021,-0.034903 -0.113208,-0.1552116 -0.243768,-0.268453 C 20.532708,4.7059385 19.509259,3.6508126 19.011347,3.101448 18.874864,2.9508606 18.555846,2.615082 18.30473,2.3547165 Z m 12.753065,0.1666259 c -0.05224,-0.00419 -0.109197,0.00967 -0.200568,0.037028 -0.115071,0.03448 -0.259722,0.1146981 -0.320911,0.175883 l -0.111084,0.1110842 0.280795,0.015428 c 0.360952,0.020425 0.456851,0.1067045 0.45668,0.4103937 -4.04e-4,0.4940262 -0.323391,0.7406434 -0.925701,0.7066179 C 29.439867,3.4864261 29.417734,3.4776571 29.227993,3.274245 29.069898,3.1047873 29.03051,3.0219262 29.03051,2.866937 c 0,-0.2928754 0.109047,-0.4105325 0.394966,-0.4289079 0.132084,-0.00848 0.240682,-0.036933 0.240682,-0.064799 0,-0.027916 -0.09005,-0.09561 -0.197482,-0.1481121 -0.243596,-0.1189658 -0.49493,-0.057689 -0.71279,0.1697116 -0.267145,0.2788218 -0.226849,0.9583482 0.07406,1.2466098 l 0.141941,0.1388551 -0.286967,0.2653674 -0.286968,0.2684531 0.0062,0.3054812 c 0.0038,0.1680543 0.02381,0.3555823 0.0432,0.416565 0.04437,0.1398249 0.548918,0.3852469 0.888672,0.4319935 0.136009,0.01872 0.278386,0.070452 0.314738,0.1141698 0.05269,0.063466 0.06672,0.8854544 0.07714,4.0699956 0.007,2.1943789 0.0025,4.0216659 -0.01234,4.0607389 -0.02119,0.05583 -0.05376,0.04561 -0.145027,-0.04011 -0.156182,-0.146701 -0.208704,-0.13703 -0.357938,0.05863 -0.115184,0.150972 -0.130263,0.227177 -0.160454,0.823874 -0.02534,0.501124 -0.01262,0.769253 0.04937,1.117011 0.119349,0.669653 0.116044,0.685059 -0.185141,1.042955 -0.746376,0.886908 -1.007279,1.129126 -1.333008,1.243524 -0.08376,0.02942 -0.292945,0.167813 -0.465936,0.305483 -0.295716,0.235375 -0.320253,0.269833 -0.394966,0.580104 -0.101783,0.422797 -0.280269,1.638536 -0.280795,1.910027 v 0.206742 l 0.367195,0.101827 c 0.476609,0.132677 0.760408,0.142499 0.891757,0.02777 0.173234,-0.151327 1.123453,-1.468055 1.41015,-1.953228 0.149729,-0.253378 0.338272,-0.62222 0.419651,-0.820787 0.141742,-0.34568 0.149942,-0.402016 0.175883,-1.360781 0.02525,-0.932684 0.01949,-1.011238 -0.07097,-1.126267 -0.262173,-0.333293 -0.530862,-1.156389 -0.472107,-1.450264 0.04896,-0.244757 0.102957,-0.179879 0.135771,0.16354 0.028,0.292967 0.2375,0.91186 0.345594,1.024441 0.02806,0.02923 0.04629,-0.10449 0.04629,-0.339424 0,-0.213164 0.01993,-0.442959 0.04629,-0.51222 0.03635,-0.09554 0.03085,-0.13298 -0.02469,-0.154283 -0.07492,-0.02874 -0.09691,-0.268962 -0.0432,-0.469022 0.03714,-0.138351 0.394918,-0.222168 0.938043,-0.222168 0.38553,0 0.401406,-0.0047 0.431992,-0.126512 0.06017,-0.239728 0.0094,-0.274101 -0.444336,-0.290053 l -0.422736,-0.01543 -0.01234,-3.971255 -0.01234,-3.97434 h 0.197482 c 0.108344,0 0.294395,-0.034233 0.416566,-0.077142 0.558451,-0.196405 0.826149,-0.5344225 0.814616,-1.0336988 -0.0074,-0.3195909 -0.0935,-0.4421779 -0.462851,-0.6541615 -0.125638,-0.07214 -0.238247,-0.1390279 -0.249938,-0.1481121 -0.01174,-0.00911 0.02719,-0.069436 0.08948,-0.1357694 C 31.110966,3.2756727 31.218305,2.8964971 31.181258,2.6262573 31.149418,2.39399 31.058648,2.2799365 30.77395,2.1171222 30.70333,2.0767362 30.653389,2.0534272 30.601153,2.0492372 Z M 14.435302,3.0860197 c -0.790921,0.00253 -0.907964,0.047503 -1.80203,0.7251319 -0.515328,0.3905888 -0.765386,0.6195114 -0.734389,0.6695899 0.03741,0.060066 1.031312,0.055821 1.444092,-0.00617 0.211257,-0.031713 0.558442,-0.1126921 0.774503,-0.1820544 l 0.394966,-0.1265123 0.290053,0.2530246 c 0.504204,0.4380518 0.996961,0.689156 1.536662,0.7837597 v 0.00309 c 0.0698,0.012318 0.214316,0.023727 0.32091,0.027771 0.178801,0.00638 0.190087,-0.00261 0.157368,-0.1079984 C 16.75177,4.9141268 16.42126,4.4847847 15.737455,3.7278386 15.174569,3.1047101 15.128652,3.0839975 14.435302,3.0860197 Z m 1.246609,0.3610231 c 6.36e-4,0.023161 0.170453,0.2240696 0.379539,0.4474219 0.426866,0.455993 0.862975,1.0551807 0.913357,1.2558666 0.02375,0.094663 0.07956,0.1427987 0.188225,0.1666262 0.308939,0.067858 0.415821,0.3463095 0.200568,0.5183922 -0.111252,0.089 -0.371406,0.080128 -0.51222,-0.018514 C 16.75098,5.746171 16.738209,5.700119 16.75881,5.5175258 l 0.02468,-0.212911 -0.209826,0.00309 c -0.114805,0.00263 -0.299834,-0.00539 -0.410393,-0.018514 -0.189698,-0.022434 -0.201945,-0.013751 -0.231426,0.129598 -0.04453,0.2164058 -0.142709,0.3887345 -0.296224,0.5183922 l -0.132683,0.111084 h 0.607877 c 0.33504,0 0.975778,-0.02054 1.422492,-0.046285 0.446704,-0.025695 1.452282,-0.083098 2.234024,-0.1265125 0.781744,-0.043364 1.686034,-0.1126855 2.011855,-0.1542833 0.325819,-0.041495 0.69064,-0.076132 0.811531,-0.077142 0.120883,-0.00121 0.289569,-0.032042 0.373365,-0.067885 l 0.151198,-0.064799 -0.126512,-0.07097 C 22.891756,5.3858632 22.577219,5.3642862 21.649593,5.3539855 20.380689,5.3399415 19.849492,5.2805921 19.196488,5.0793611 18.789534,4.9539438 18.606447,4.8637152 17.965306,4.4745702 17.052119,3.9203191 15.677804,3.3026845 15.681911,3.4470428 Z m 14.373042,0.5245636 c 0.733106,0.00174 1.062027,0.1969389 0.965814,0.5708484 -0.03057,0.1187529 -0.09701,0.1961748 -0.240683,0.2746246 -0.334948,0.1828044 -1.40618,0.196479 -1.616891,0.0216 -0.119295,-0.099025 -0.105037,-0.4182769 0.02469,-0.5831912 0.179897,-0.2286831 0.350955,-0.2848911 0.867074,-0.2838814 z M 14.47233,4.3727432 c -0.03744,0.016094 -0.08766,0.058257 -0.166625,0.129598 -0.344328,0.3110799 -1.005597,0.7088313 -1.672433,1.0059278 -0.536788,0.2392035 -0.570903,0.2594472 -0.595533,0.3332519 -0.03917,0.117471 0.593941,0.070987 0.885587,-0.064799 0.642149,-0.2989741 1.751581,-1.2386764 1.632318,-1.3823791 -0.02287,-0.027563 -0.04587,-0.037693 -0.08331,-0.0216 z m -0.51222,0.157369 c -0.03204,0 -0.221318,0.082201 -0.419652,0.1820544 -0.335201,0.1688015 -1.253234,0.497305 -1.758831,0.6294762 -0.231105,0.060417 -0.439476,0.223499 -0.388793,0.3054812 0.05145,0.083235 0.462486,0.053505 0.731303,-0.052456 0.817656,-0.3222866 2.099478,-1.0645553 1.835973,-1.0645558 z m 0.734388,0 c -0.01835,0 -0.231497,0.2005854 -0.475193,0.4474218 -0.297259,0.3011046 -0.587602,0.5379061 -0.885587,0.7158749 -0.244292,0.1459029 -0.444336,0.2856038 -0.444336,0.3116525 0,0.074915 0.642791,0.056085 0.836216,-0.024685 0.231622,-0.096774 0.650363,-0.4933258 0.811531,-0.7683312 0.121391,-0.2072081 0.230469,-0.6819327 0.157369,-0.681933 z M 12.52836,4.6813099 c -0.551899,0 -0.707192,0.015668 -0.808445,0.083313 -0.215487,0.1441057 -0.404224,0.3398329 -0.404224,0.4165652 0,0.059063 0.05176,0.065556 0.265368,0.040114 0.287767,-0.034287 1.502991,-0.410658 1.582948,-0.4906212 0.03115,-0.031198 -0.198455,-0.049371 -0.635647,-0.049371 z m 2.320422,0 c -0.01101,0 -0.03408,0.099376 -0.05246,0.222168 -0.03954,0.2636066 -0.277756,0.6434169 -0.518393,0.8269591 -0.212913,0.1623296 -0.221439,0.231231 -0.01851,0.1604546 0.1813,-0.063204 0.334545,-0.252475 0.552334,-0.6881038 0.159771,-0.31951 0.245959,-0.4151937 0.182053,-0.2036541 -0.06295,0.2084196 -0.279283,0.6094529 -0.431992,0.8022736 -0.08288,0.1045887 -0.151198,0.202121 -0.151198,0.2190824 0,0.016955 0.06937,0.030857 0.154283,0.030857 0.205169,0 0.61917,-0.3843145 0.78376,-0.7282178 0.123008,-0.2569534 0.125308,-0.3363377 0.0062,-0.3363377 -0.03603,0 -0.158994,-0.070483 -0.274624,-0.1542833 -0.11565,-0.08373 -0.220395,-0.151198 -0.231453,-0.151198 z m 0.697361,0.4505075 c -0.0269,0.014832 -0.04407,0.054271 -0.07097,0.1357694 -0.03092,0.093715 -0.144614,0.3031151 -0.253024,0.4628502 -0.10844,0.1597249 -0.184563,0.3092225 -0.169712,0.333252 0.06982,0.1129686 0.435103,-0.1088656 0.635648,-0.3857084 0.194187,-0.2678067 0.191253,-0.4500524 -0.0062,-0.5245635 -0.0718,-0.027098 -0.108868,-0.036431 -0.135768,-0.0216 z m 1.576776,0.3209095 c -0.225008,0.019032 -0.328987,0.1434497 -0.225255,0.2684531 0.04321,0.052091 0.127019,0.07798 0.225255,0.067885 0.136516,-0.013317 0.158737,-0.03853 0.172798,-0.1851401 0.0159,-0.1656185 0.0129,-0.1669489 -0.172798,-0.151198 z m 3.665773,0.4875354 -0.357937,0.030857 c -0.197344,0.017467 -0.804808,0.055951 -1.348437,0.083313 -0.660416,0.033198 -1.01011,0.068881 -1.052214,0.111084 -0.03463,0.034711 -0.07249,0.223593 -0.0864,0.4165651 -0.01393,0.1929724 -0.04927,0.3731701 -0.07714,0.4011368 -0.03383,0.033833 5.62e-4,0.1094944 0.104912,0.2283395 0.144115,0.1640561 0.155239,0.1986571 0.129598,0.4474218 -0.01533,0.1486895 -0.06408,0.3078475 -0.107998,0.3517661 -0.04382,0.043898 -0.08023,0.1080734 -0.08023,0.1450264 0,0.036953 -0.03631,0.081881 -0.08023,0.098741 -0.109687,0.042092 -0.274625,-0.054019 -0.274625,-0.1604547 0,-0.048149 -0.04599,-0.1163649 -0.101826,-0.1511977 -0.05579,-0.034872 -0.101827,-0.110086 -0.101827,-0.1666261 0,-0.05659 -0.0353,-0.1597844 -0.08023,-0.2283393 -0.04458,-0.068604 -0.06961,-0.1621134 -0.05246,-0.2067398 0.04682,-0.1220047 -0.150827,-0.3617602 -0.330168,-0.4011367 -0.266864,-0.05861 -0.361731,0.08937 -0.388794,0.6047907 -0.01967,0.3752421 -0.0083,0.4514874 0.0864,0.604791 0.113564,0.1837441 0.405816,0.3394234 0.641819,0.3394234 0.08146,0 0.117569,0.020003 0.09566,0.055542 -0.0218,0.035234 -0.110418,0.044979 -0.237597,0.024685 -0.181479,-0.029079 -0.199782,-0.022345 -0.16354,0.058628 0.02231,0.049715 0.04843,0.3979075 0.05554,0.7745026 0.01,0.5161069 -0.0041,0.7043076 -0.05554,0.7621596 -0.03962,0.04461 -0.08244,0.268205 -0.101826,0.533821 -0.0442,0.607177 -0.07534,0.769411 -0.132685,0.678847 -0.02443,-0.03862 -0.04593,-0.14683 -0.04629,-0.237597 -9.29e-4,-0.196062 -0.01011,-0.196959 -0.209825,-0.04937 -0.117471,0.08686 -0.222674,0.114169 -0.441251,0.114169 -0.276317,0 -0.296206,0.009 -0.521477,0.240682 -0.167085,0.171861 -0.274324,0.240683 -0.373366,0.240683 -0.08777,0 -0.177677,0.04635 -0.240682,0.126512 -0.06711,0.08531 -0.149986,0.129598 -0.253025,0.129598 -0.0843,0 -0.208285,0.04047 -0.274625,0.09257 -0.07449,0.05866 -0.167701,0.08612 -0.246854,0.07097 -0.145407,-0.02775 -0.124337,-0.114169 0.02777,-0.114169 0.05503,0 0.113546,-0.03524 0.129597,-0.07714 0.01786,-0.04654 0.09444,-0.07406 0.197483,-0.07406 0.163501,0 0.32708,-0.107716 0.32708,-0.212911 0,-0.032 0.07703,-0.03683 0.203654,-0.01543 0.21674,0.03662 0.225449,0.02853 0.654162,-0.453594 0.08508,-0.09561 0.138725,-0.120468 0.175883,-0.08331 0.0767,0.07673 0.419651,0.06609 0.583192,-0.01851 0.16041,-0.08293 0.262281,-0.270544 0.262281,-0.487535 0,-0.08246 0.02141,-0.151198 0.04937,-0.151198 0.02796,0 0.05246,-0.05528 0.05246,-0.123427 0,-0.0681 0.02703,-0.140867 0.05863,-0.160454 0.03855,-0.02397 0.04594,-0.1633025 0.02777,-0.428908 -0.01485,-0.2170927 -0.0045,-0.4151007 0.0216,-0.4412506 0.02954,-0.029451 0.02542,-0.1881445 -0.01234,-0.4165652 C 16.790399,8.5338119 16.759066,8.4619737 16.632298,8.3686828 16.376657,8.1804963 16.326343,8.0282499 16.36693,7.532467 16.39279,7.2169752 16.43198,7.0507785 16.505786,6.94619 c 0.09577,-0.1356153 0.118568,-0.1415183 0.336336,-0.1079984 0.128427,0.019688 0.262768,0.038091 0.29931,0.040114 0.03656,0.00209 0.08017,0.067687 0.09566,0.1450264 0.01555,0.077338 0.06027,0.151886 0.09874,0.1666261 0.05372,0.020607 0.05788,0.056795 0.01852,0.1604547 -0.05595,0.1471345 0.0072,0.2746244 0.135768,0.2746244 0.04841,0 0.06051,0.039065 0.04012,0.1203411 -0.01877,0.074885 -10e-4,0.140256 0.04937,0.1820544 0.04362,0.036246 0.08023,0.1080539 0.08023,0.1604546 0,0.052401 0.03524,0.095656 0.07714,0.095656 0.04191,0 0.07406,-0.025915 0.07406,-0.058628 0,-0.032702 0.0325,-0.094734 0.07097,-0.1388552 0.03844,-0.044081 0.08355,-0.1844688 0.101827,-0.3116524 C 18.013367,7.4688252 18.000327,7.417024 17.860412,7.2239002 17.72674,7.0392979 17.71102,6.9878525 17.752413,6.8690485 c 0.02703,-0.076884 0.03827,-0.1974763 0.02469,-0.2684531 -0.01352,-0.071048 2.7e-4,-0.1446595 0.03086,-0.1635404 0.0306,-0.018881 0.05554,-0.092966 0.05554,-0.1635403 V 6.1439164 l -1.326837,0.027771 c -1.269934,0.025292 -1.329185,0.030726 -1.441006,0.1357694 -0.155413,0.1460039 -0.195034,0.3238552 -0.108,0.4937068 0.08408,0.1640461 0.144172,0.639887 0.154283,1.2064961 0.006,0.3486283 -0.009,0.4236779 -0.104912,0.5430775 -0.06876,0.085658 -0.125994,0.2490951 -0.148112,0.4258221 -0.01972,0.1578067 -0.06695,0.3468555 -0.104912,0.4196508 -0.100938,0.1934165 -0.08458,0.4461465 0.03394,0.5646773 0.05579,0.055823 0.101827,0.1205366 0.101827,0.1419406 0,0.02139 -0.118113,0.161637 -0.259195,0.314738 -0.141083,0.153102 -0.267926,0.342818 -0.283882,0.419651 -0.01596,0.07679 -0.05637,0.138855 -0.08948,0.138855 -0.08939,0 -0.314718,0.261517 -0.351767,0.407308 -0.04641,0.182441 -0.137841,0.278991 -0.311651,0.336338 -0.111646,0.03683 -0.157863,0.08767 -0.169712,0.188226 -0.01366,0.115664 0.01217,0.144824 0.154283,0.194397 0.09267,0.03231 0.287215,0.121355 0.431994,0.197483 l 0.262281,0.138855 1.539749,0.03703 c 1.039089,0.02393 1.700416,0.01717 2.039625,-0.0216 0.276288,-0.03139 0.5124,-0.04915 0.524565,-0.03703 0.0121,0.01212 -0.11187,0.05314 -0.274626,0.08948 -0.346062,0.07714 -1.863077,0.0888 -2.946812,0.02469 -0.397858,-0.02353 -0.722096,-0.02352 -0.722046,0 1.72e-4,0.08358 0.434355,0.310188 0.644905,0.336337 0.309586,0.03847 0.594562,0.192654 0.614048,0.330167 0.01613,0.113504 0.02003,0.11417 0.922614,0.11417 1.38785,0 2.145212,-0.18069 3.881771,-0.916444 1.157148,-0.490251 1.113398,-0.459712 0.863985,-0.53382 -0.235134,-0.06983 -0.289146,-0.06384 -1.150953,0.138855 -0.436648,0.102626 -0.671375,0.136717 -0.728218,0.104912 -0.06259,-0.03502 0.03463,-0.07696 0.388794,-0.160454 0.826682,-0.194901 1.224082,-0.234517 1.56752,-0.163541 0.230783,0.04795 0.331199,0.04711 0.413479,0.0031 0.08672,-0.04636 0.09316,-0.06659 0.03703,-0.101827 -0.03866,-0.02453 -0.111385,-0.03067 -0.160455,-0.01543 -0.0858,0.02671 -1.338322,-0.376221 -1.62306,-0.521478 -0.07616,-0.03885 -0.262387,-0.162409 -0.416565,-0.27771 -0.272269,-0.203907 -0.280797,-0.21692 -0.280797,-0.456679 v -0.246854 h 0.558506 c 0.898104,0 1.048247,-0.131759 0.863987,-0.755988 l -0.07406,-0.2591963 h -0.280795 c -0.284849,-2.921e-4 -0.63983,-0.073891 -0.681933,-0.1419406 -0.01269,-0.020802 0.215183,-0.02932 0.50605,-0.018514 l 0.527649,0.018514 V 8.8037619 c 0,-0.18015 -0.0206,-0.2164436 -0.182054,-0.3116524 -0.12522,-0.073854 -0.172006,-0.1309223 -0.151199,-0.18514 0.0167,-0.043495 0.03086,-0.1254572 0.03086,-0.1789687 0,-0.053611 0.01612,-0.095767 0.03703,-0.095656 0.07644,3.837e-4 0.379677,0.2096868 0.34868,0.2406821 -0.01757,0.017568 -0.05955,0.00524 -0.09257,-0.027771 -0.09653,-0.09646 -0.19131,-0.071427 -0.19131,0.052456 0,0.089121 0.04315,0.1297986 0.200568,0.1789686 0.238254,0.07441 0.542003,0.082064 0.58319,0.015428 0.01594,-0.025857 -0.0059,-0.1446453 -0.04628,-0.2653673 -0.09769,-0.2922803 -0.456891,-1.6169217 -0.539992,-1.9902558 z m -1.43175,0.3270808 c 0.266439,-0.023435 0.537057,0.00411 0.725133,0.089484 0.118619,0.053864 0.215995,0.1226815 0.215995,0.1542834 0,0.03181 -0.01612,0.047834 -0.03703,0.037028 -0.347679,-0.1789658 -0.458801,-0.2019758 -0.80536,-0.1727974 -0.198879,0.016761 -0.415025,0.049522 -0.481363,0.074056 -0.06636,0.024534 -0.19083,0.06064 -0.274624,0.080227 l -0.151199,0.037028 0.120341,-0.086399 C 18.831124,6.3640637 19.0905,6.2907771 19.356939,6.267342 Z m 0.286968,0.4474218 c 0.154848,-0.00233 0.297375,0.016577 0.339423,0.058628 0.03343,0.03351 0.06171,0.1325566 0.06171,0.2190825 0,0.086546 0.02602,0.1833851 0.05863,0.2159967 0.04514,0.045231 0.03718,0.065758 -0.03703,0.089484 -0.05352,0.017164 -0.148801,0.051497 -0.212912,0.077142 -0.06413,0.025644 -0.206469,0.046285 -0.314737,0.046285 -0.165378,1e-7 -0.230878,-0.031651 -0.404223,-0.212911 C 18.903795,6.9669061 18.889894,6.9243574 19.017515,6.884477 19.066375,6.869231 19.165572,6.825414 19.239683,6.785736 19.321693,6.74182 19.489056,6.7171 19.643907,6.714766 Z M 19.477283,6.835106 c -0.103599,0.017729 -0.203835,0.049812 -0.262282,0.09257 -0.07885,0.05763 -0.07303,0.077439 0.0648,0.2283394 0.167105,0.1829465 0.300168,0.2060858 0.487536,0.083313 0.176047,-0.1153108 0.176818,-0.3598995 0,-0.4042225 -0.07752,-0.019476 -0.186453,-0.017729 -0.290053,0 z m 0.07714,0.138855 c 0.05007,-0.00979 0.0864,0.017549 0.0864,0.064799 0,0.047048 -0.04561,0.080227 -0.107999,0.080227 -0.123719,0 -0.105737,-0.1202905 0.0216,-0.1450264 z m -2.650588,0.1789688 c 0.04343,0.02802 0.08234,0.091743 0.126512,0.1974827 0.08757,0.2106509 0.08997,0.4374766 0.0062,0.5214779 -0.05084,0.050956 -0.03679,0.082308 0.0648,0.1604547 0.137139,0.105609 0.0468,0.141696 -0.117255,0.046285 -0.07531,-0.043798 -0.0832,-0.092987 -0.05554,-0.2777101 0.0416,-0.2771054 -0.01246,-0.5971436 -0.09566,-0.5677629 -0.03923,0.013731 -0.05529,0.1160796 -0.04628,0.2838814 0.0079,0.1436014 -0.0082,0.2622819 -0.03394,0.2622819 -0.0682,0 -0.107999,-0.1330912 -0.107999,-0.3579376 0,-0.1458319 0.0259,-0.2124365 0.101827,-0.2530247 0.06543,-0.035014 0.113939,-0.043448 0.15737,-0.015428 z m 5.893625,4.4618752 c -0.140885,-0.04472 -0.502277,0.08454 -1.178725,0.425822 -1.217251,0.614133 -2.625724,1.142885 -3.526919,1.323752 -0.168064,0.03372 -0.663497,0.06065 -1.104669,0.05863 -0.439737,-0.0025 -0.799187,0.01588 -0.799187,0.04011 0,0.07603 0.747143,0.117654 1.595289,0.08948 0.855165,-0.02839 1.484277,-0.131362 2.706131,-0.441251 0.504316,-0.127901 1.983461,-0.59514 2.323508,-0.734389 l 0.101827,-0.0432 -0.101827,0.07406 c -0.317015,0.233277 -2.069096,0.832684 -2.943727,1.005928 -1.31048,0.259638 -1.379805,0.266483 -2.28648,0.271538 -0.727375,0.0043 -1.009052,-0.01362 -1.385465,-0.09257 -0.409737,-0.08592 -0.478817,-0.0887 -0.518392,-0.02468 -0.07204,0.116532 0.02985,0.176907 0.660333,0.39188 0.504921,0.172153 1.103346,0.3115 1.650833,0.385708 0.08376,0.01111 0.632531,0.01531 1.218838,0.0093 1.019673,-0.0113 1.092846,-0.01729 1.675518,-0.172797 0.888825,-0.237225 1.362169,-0.422745 2.382134,-0.928786 0.91028,-0.451611 1.095413,-0.564833 1.095413,-0.675761 0,-0.03237 -0.189313,-0.157594 -0.419651,-0.27771 -0.230329,-0.120127 -0.559291,-0.315367 -0.731303,-0.43508 -0.172024,-0.119702 -0.358547,-0.232472 -0.413479,-0.249939 z m -9.633455,0.549249 c -0.186026,-0.0023 -0.364355,0.01682 -0.428908,0.05554 -0.328859,0.197253 -0.709704,0.642797 -0.709704,0.830045 0,0.0423 0.239011,0.05868 0.84856,0.06171 0.467642,0.0024 1.04632,0.03472 1.283638,0.07097 0.237314,0.03625 0.435245,0.06794 0.441249,0.07097 0.01836,0.0094 0.166626,-0.286708 0.166626,-0.333252 0,-0.05164 -0.866895,-0.585702 -1.123182,-0.69119 -0.09902,-0.04079 -0.292252,-0.06249 -0.478279,-0.0648 z m 5.838084,0.336338 c 0.02495,0.0176 0.0318,0.06487 0.0093,0.126512 -0.02961,0.07714 -0.162441,0.102555 -0.197483,0.03703 -0.0112,-0.02094 0.02059,-0.07557 0.07097,-0.123426 0.04917,-0.04665 0.0917,-0.05814 0.117256,-0.04011 z m 5.29809,0.404222 -0.922614,0.478279 c -1.011345,0.524335 -1.909363,0.855609 -2.854243,1.049127 -0.492854,0.10086 -0.649515,0.107444 -1.502721,0.08331 -0.524828,-0.01465 -0.964011,-0.0119 -0.97507,0.0062 -0.01115,0.01804 0.09095,0.188336 0.228339,0.376452 0.304326,0.416658 0.64117,0.981045 0.82696,1.385464 0.271199,0.590347 0.768288,1.993385 0.722046,2.039627 -0.0099,0.0099 -0.115673,-0.229429 -0.23451,-0.530736 -0.424836,-1.077143 -0.943855,-2.131154 -1.299067,-2.638244 -0.192225,-0.274421 -0.376517,-0.546479 -0.407309,-0.601706 -0.06654,-0.119542 -0.425872,-0.174113 -0.425821,-0.0648 2e-5,0.03658 0.102292,0.195151 0.225253,0.351766 0.609196,0.775999 0.912794,1.437315 1.425579,3.091839 0.08338,0.269019 0.34128,1.336753 0.453593,1.879172 0.04335,0.209398 0.124911,0.595669 0.182055,0.860901 0.228157,1.059504 0.454303,2.610597 0.552334,3.798457 0.114301,1.385365 0.07288,4.751784 -0.06789,5.594316 -0.01172,0.06979 -0.03448,0.377895 -0.05246,0.685017 -0.01799,0.307111 -0.07902,0.931588 -0.135769,1.388552 l -0.104912,0.830044 0.138854,0.262282 c 0.418938,0.780178 1.488465,2.062257 2.567275,3.079495 1.601043,1.509653 1.996977,1.792342 3.218353,2.311166 l 0.506048,0.215997 0.03086,-0.771416 c 0.01686,-0.423544 0.04475,-0.835735 0.06171,-0.919531 0.01686,-0.08376 0.04362,-0.282342 0.05863,-0.438163 0.01493,-0.155817 0.0621,-0.623346 0.104912,-1.039872 0.369392,-3.59508 0.339274,-2.843678 0.364109,-8.914494 0.02171,-5.289162 0.01727,-5.51712 -0.07097,-5.563458 -0.05063,-0.02654 -0.186817,-0.06671 -0.305481,-0.0864 l -0.215997,-0.03394 -0.0031,0.802274 c -5.06e-4,0.442191 -0.02064,1.318869 -0.04628,1.947055 -0.02564,0.628188 -0.0613,1.633754 -0.07714,2.234025 -0.01585,0.600271 -0.03887,1.492403 -0.05246,1.980998 -0.01362,0.488594 -0.03729,1.858977 -0.05246,3.045555 -0.02562,2.012259 -0.09639,3.744451 -0.15737,3.804628 -0.02787,0.02752 0.02565,-8.814002 0.05554,-9.161347 0.01621,-0.188843 0.03202,-0.713134 0.104912,-3.351036 0.05519,-1.995994 0.239048,-3.392635 0.524563,-3.983598 0.08421,-0.174203 0.0887,-0.209181 0.02469,-0.262281 -0.115482,-0.09585 -0.323376,0.0079 -0.481364,0.237597 -0.306678,0.445918 -0.52731,1.411212 -0.651077,2.866585 -0.09207,1.082797 -0.203461,2.207772 -0.231424,2.326594 -0.01534,0.06492 -0.05947,0.438113 -0.09874,0.830045 -0.03932,0.391932 -0.08871,0.728957 -0.108,0.746731 -0.0534,0.04922 0.02006,-1.416315 0.123429,-2.456192 0.03052,-0.307111 0.09018,-0.947861 0.132683,-1.422492 0.13,-1.451264 0.309972,-2.292029 0.592448,-2.792529 0.179322,-0.317744 0.359921,-0.481365 0.533819,-0.481365 0.06606,0 0.120342,-0.01698 0.120342,-0.04011 0,-0.214598 -1.177955,-2.833887 -1.727974,-3.841656 -0.167621,-0.307122 -0.377331,-0.702016 -0.462849,-0.87633 z m -9.090377,0.07097 c -0.231745,-0.04317 -0.39188,0.10637 -0.39188,0.407308 0,0.198354 0.01533,0.229494 0.138856,0.274624 0.225048,0.08219 0.377459,0.06853 0.502963,-0.04937 0.159704,-0.150113 0.162579,-0.420067 0.0031,-0.524564 -0.08971,-0.05878 -0.175776,-0.09361 -0.253025,-0.107998 z m -2.903613,0.259196 c -0.377742,0.03147 -0.4507,0.051 -0.472107,0.132684 -0.01382,0.05301 -0.04042,0.09566 -0.06171,0.09566 -0.09004,0 -0.256111,0.657598 -0.256111,1.018271 10e-7,0.129072 0.023,0.200568 0.0648,0.200568 0.03574,0 0.363027,-0.117231 0.725132,-0.259196 1.107383,-0.434155 1.793737,-0.661305 2.082826,-0.69119 0.256587,-0.02648 0.275332,-0.03726 0.274624,-0.160454 -3.95e-4,-0.07288 -0.01654,-0.157332 -0.03703,-0.188226 -0.06958,-0.104821 -1.639461,-0.204855 -2.320422,-0.148112 z m 2.619733,0.527649 c -0.06905,-0.02585 -0.153994,-0.02371 -0.209826,0.0062 -0.05193,0.02777 -0.150833,0.04937 -0.219083,0.04937 -0.172274,0 -0.986271,0.257937 -1.533577,0.48445 -0.251269,0.104003 -0.672811,0.275954 -0.938043,0.382623 -0.399556,0.160664 -0.485733,0.214222 -0.496792,0.311652 -0.02809,0.247613 -0.130018,0.53127 -0.425822,1.17564 -0.327355,0.713097 -0.865456,2.064306 -1.055298,2.647502 -0.063618,0.195437 -0.1731435,0.48816 -0.2406826,0.651076 -0.183967,0.443786 -0.1387537,0.631229 0.3085666,1.26821 1.04336,1.485702 1.664657,2.249404 2.178482,2.678359 0.256449,0.214084 0.586225,0.499243 0.731303,0.635648 0.145076,0.136411 0.454724,0.357944 0.688105,0.490621 0.364215,0.207057 0.524858,0.262516 1.132438,0.388795 0.855946,0.177908 0.773052,0.166462 0.80536,0.114168 0.02246,-0.03634 -0.250008,-0.158352 -1.073813,-0.472107 -0.08746,-0.03332 -0.114169,-0.08096 -0.114169,-0.212911 0,-0.170684 0.0013,-0.174817 0.265368,-0.200568 0.16134,-0.01564 0.336779,0.0024 0.444336,0.0432 0.334169,0.126786 0.923485,0.28301 0.953471,0.253025 0.01646,-0.01647 0.0081,-0.0909 -0.01852,-0.166625 -0.07444,-0.211672 -0.665175,-0.425555 -1.289809,-0.465936 l -0.484448,-0.03086 0.394965,-0.04012 c 0.372223,-0.03726 0.426417,-0.03069 0.922614,0.138856 0.592957,0.202537 0.586277,0.202687 0.586277,0.123425 0,-0.07465 -0.119402,-0.169548 -0.413479,-0.323995 -0.129999,-0.06828 -0.242914,-0.146034 -0.253025,-0.172797 -0.0096,-0.02675 -0.265012,-0.07087 -0.567763,-0.09874 -0.302739,-0.02785 -0.564912,-0.06671 -0.583191,-0.0864 -0.01834,-0.01977 0.249627,-0.01918 0.598619,0 0.511613,0.02814 0.651411,0.05194 0.712789,0.123427 0.118107,0.137432 0.503891,0.370162 0.558507,0.336339 0.02695,-0.01665 0.04973,-0.105341 0.04937,-0.194398 -5.54e-4,-0.15182 -0.02739,-0.174691 -0.438165,-0.388794 -0.40131,-0.209142 -0.477834,-0.231276 -0.901014,-0.25611 -0.377903,-0.02221 -0.441551,-0.03722 -0.342509,-0.08023 l 0.123426,-0.05246 -0.163541,-0.06789 c -0.160199,-0.06636 -0.16629,-0.06187 -0.428907,0.197483 l -0.265368,0.262282 -0.132683,-0.101827 c -0.176496,-0.138825 -0.485548,-0.635717 -0.845474,-1.360779 -0.63803,-1.285281 -0.722485,-1.435527 -0.928785,-1.601462 -0.112009,-0.09008 -0.276364,-0.22652 -0.364109,-0.30548 -0.155395,-0.139786 -0.157566,-0.144371 -0.03394,-0.120341 0.111121,0.02165 0.200077,-0.05931 0.71896,-0.666505 0.879053,-1.028649 1.221777,-1.506335 1.626147,-2.267966 0.133857,-0.252109 0.243234,-0.417628 0.243768,-0.37028 0.0018,0.157565 -0.339344,0.831757 -0.663418,1.314494 -0.297692,0.443455 -1.466265,1.847175 -1.687862,2.027284 -0.09439,0.07673 -0.08991,0.0853 0.138856,0.228339 0.281749,0.176162 0.351733,0.283817 1.070726,1.647747 0.544974,1.0338 0.771753,1.422493 0.833131,1.422493 0.01763,0 0.14041,-0.102692 0.271539,-0.22834 0.145287,-0.139278 0.284743,-0.228339 0.357936,-0.228339 0.10684,0 0.137224,-0.05661 0.283883,-0.496793 0.137511,-0.412619 0.156727,-0.519612 0.111083,-0.638733 -0.03343,-0.08732 -0.05554,-0.597812 -0.05554,-1.314494 0,-0.943426 -0.01282,-1.18826 -0.07097,-1.252782 -0.03976,-0.04408 -0.17786,-0.282493 -0.305481,-0.530734 -0.127629,-0.248239 -0.308256,-0.545635 -0.401136,-0.660333 -0.340317,-0.420182 -0.253437,-0.552013 0.09566,-0.145027 0.248836,0.290099 0.433367,0.599346 0.580104,0.975072 0.05998,0.153556 0.142273,0.316802 0.182056,0.361022 0.05694,0.06326 0.07915,0.345734 0.09874,1.320667 0.01363,0.681677 0.03745,1.296078 0.05246,1.36695 0.03493,0.164622 -0.146944,0.753853 -0.286967,0.931872 -0.102881,0.130724 -0.104428,0.142695 -0.01852,0.237597 0.121552,0.134225 0.656332,0.143328 0.706619,0.01234 0.02937,-0.07637 0.0036,-2.193948 -0.04937,-4.100852 -0.01096,-0.390871 -0.02059,-0.902101 -0.0216,-1.13244 -0.0016,-0.34166 -0.01672,-0.416566 -0.08023,-0.416566 -0.247724,0 -0.813604,-0.43738 -0.987414,-0.76216 -0.0324,-0.06078 -0.07186,-0.09785 -0.0864,-0.08331 -0.01457,0.01458 -0.08041,-0.03607 -0.145027,-0.111085 -0.110817,-0.128553 -0.141552,-0.134737 -0.552334,-0.132683 -0.239608,0.001 -0.435079,-0.01465 -0.435079,-0.03394 0,-0.07402 0.513708,-0.102776 0.76216,-0.0432 0.218202,0.05235 0.300245,0.110783 0.570848,0.410393 0.324398,0.359169 0.640032,0.613511 0.830045,0.672677 0.10702,0.03336 0.108407,0.03093 0.0864,-0.663419 -0.02257,-0.710968 -0.104691,-1.374108 -0.262283,-2.141454 -0.07328,-0.356796 -0.105923,-0.432875 -0.203653,-0.469021 z m 0.435078,0.02468 -0.175883,0.03394 0.04628,0.240682 c 0.02612,0.13201 0.09243,0.421552 0.145027,0.644904 0.05264,0.223363 0.123844,0.690878 0.157368,1.039871 0.09162,0.954401 0.148673,6.368575 0.07406,6.955094 l -0.02777,0.228339 0.453594,0.243768 0.450507,0.240682 -0.02777,0.191312 c -0.01605,0.104037 -0.04805,0.211297 -0.07097,0.240683 -0.02275,0.02938 -0.02783,0.101493 -0.01234,0.160454 0.01978,0.07562 -0.004,0.125834 -0.08023,0.166626 -0.08896,0.04762 -0.103288,0.08608 -0.07714,0.225254 0.01739,0.09301 0.01021,0.184722 -0.01543,0.200568 -0.02567,0.01585 -0.152195,-0.0045 -0.280796,-0.0432 l -0.231424,-0.07097 -0.03703,0.160454 c -0.02812,0.128083 -0.01115,0.175938 0.08023,0.249939 0.121491,0.09842 0.106159,0.243768 -0.02468,0.243768 -0.05907,0 -0.07714,0.05728 -0.07714,0.243768 0,0.134931 0.01439,0.261247 0.03086,0.27771 0.01648,0.01648 0.198596,-0.07386 0.407308,-0.200569 0.351466,-0.21337 0.411891,-0.234454 0.808446,-0.259197 0.260426,-0.01626 0.429939,-0.04909 0.431992,-0.08331 0.02692,-0.451965 -0.108628,-3.16485 -0.225253,-4.495818 -0.06555,-0.748041 -0.233703,-2.773198 -0.262282,-3.172067 -0.03639,-0.50714 -0.08819,-1.043358 -0.151198,-1.549004 -0.07404,-0.594091 -0.419395,-1.657914 -0.601705,-1.851401 -0.165349,-0.175546 -0.501985,-0.300649 -0.706618,-0.262282 z m 15.564109,0.169712 c -0.02988,0.0059 -0.212403,0.02345 -0.404224,0.04011 -0.191822,0.01666 -0.44603,0.05641 -0.564676,0.0864 -0.200268,0.05065 -0.215997,0.06639 -0.215997,0.225254 v 0.169712 l 0.37028,0.0062 c 0.202412,0.0022 0.505166,0.04092 0.672676,0.08948 0.333605,0.0968 0.354401,0.09605 0.428907,-0.0432 0.03954,-0.07385 0.02582,-0.126243 -0.06788,-0.237596 -0.06629,-0.0788 -0.129934,-0.19102 -0.141941,-0.246854 -0.01212,-0.05583 -0.04725,-0.09553 -0.07714,-0.08948 z M 16.25893,14.086419 c -0.01036,0.01036 0.06242,0.202062 0.160454,0.428908 0.09808,0.226856 0.23196,0.660681 0.29931,0.962729 0.107628,0.483002 0.328663,2.432132 0.407309,3.594802 0.0151,0.223362 0.06083,0.782858 0.101827,1.243525 0.09207,1.035849 0.279924,4.454589 0.299309,5.467802 0.0079,0.412518 0.0378,0.795513 0.06789,0.851645 0.03022,0.05614 0.04246,0.167333 0.02777,0.243767 -0.03175,0.166106 -0.03443,0.164713 0.215997,0.03703 0.109526,-0.05589 0.277247,-0.101826 0.373366,-0.101826 h 0.172797 l -0.03086,-2.755502 c -0.01818,-1.51463 -0.04567,-2.865844 -0.05863,-3.005441 l -0.0216,-0.25611 0.04628,0.25611 c 0.160546,0.875165 0.261746,5.530536 0.154283,7.063095 l -0.06171,0.870158 -0.32708,0.601704 c -0.179656,0.330708 -0.373745,0.725854 -0.431995,0.879416 -0.137234,0.361815 -0.24694,0.885162 -0.212911,1.015185 0.03737,0.142976 0.197176,0.131067 0.592448,-0.04629 0.658112,-0.295274 1.297362,-0.46858 1.657005,-0.450507 l 0.330166,0.01543 0.06171,-0.607877 c 0.135519,-1.362043 0.15895,-1.944892 0.138854,-3.351035 -0.02074,-1.453233 -0.05131,-1.985182 -0.197483,-3.428177 -0.112747,-1.113136 -0.439031,-3.018074 -0.660333,-3.857085 -0.04051,-0.153554 -0.113706,-0.461656 -0.160454,-0.685018 -0.25768,-1.231346 -0.628076,-2.39405 -0.993585,-3.113439 -0.272512,-0.53635 -0.374869,-0.698108 -0.765245,-1.209581 -0.0768,-0.100591 -0.138856,-0.227891 -0.138856,-0.280796 0,-0.05282 -0.02987,-0.103774 -0.0648,-0.11417 -0.0349,-0.01044 -0.26507,-0.08007 -0.512219,-0.154283 -0.24716,-0.07425 -0.458595,-0.124471 -0.469022,-0.11417 z m -1.968656,0.0864 c 0.0058,0.01162 -8.77e-4,0.03972 -0.0216,0.08948 -0.198031,0.475247 -0.534846,0.865265 -1.033699,1.194154 -0.302366,0.199326 -0.576133,0.322224 -0.364109,0.163539 0.665978,-0.498449 0.854342,-0.686374 1.150955,-1.154039 0.129916,-0.204762 0.251062,-0.328009 0.268453,-0.293138 z m 15.912789,0.410394 c -0.14029,-0.0068 -0.246302,0.0053 -0.296224,0.03703 -0.03452,0.0219 -0.07779,0.114301 -0.09566,0.203654 l -0.03086,0.16354 0.398051,0.0031 c 0.219869,0.002 0.503831,0.02058 0.629477,0.0432 0.299956,0.05401 0.375881,0.0435 0.394965,-0.05554 0.02651,-0.137634 -0.123532,-0.23362 -0.493706,-0.317824 -0.190917,-0.04341 -0.365761,-0.07033 -0.506049,-0.07714 z m -0.253026,0.49062 -0.03394,0.135771 c -0.02403,0.09607 -0.0079,0.164443 0.05554,0.23451 0.07483,0.08269 0.156495,0.101826 0.487536,0.101826 0.231641,0 0.398051,0.01989 0.398051,0.04937 0,0.02866 -0.144029,0.05246 -0.330166,0.05246 H 30.19689 v 0.759073 c 0,0.418788 0.02175,0.76216 0.04629,0.76216 0.06204,0 0.430068,-0.488876 0.552335,-0.734389 0.05567,-0.111687 0.114404,-0.273225 0.132683,-0.357937 0.01825,-0.08468 0.0916,-0.219147 0.160454,-0.29931 0.08653,-0.100672 0.123427,-0.206909 0.123427,-0.342509 0,-0.249596 -0.09285,-0.292066 -0.768331,-0.333253 z m 0.0432,0.521478 c -0.07732,-0.04139 -0.10717,-0.03723 -0.123427,0.01234 -0.05939,0.18132 -0.08012,3.942708 -0.101827,18.00487 -0.01766,11.404402 -0.0089,15.370569 0.03394,15.422168 0.03228,0.03894 0.125182,0.0636 0.212912,0.05554 l 0.157368,-0.01543 0.01234,-15.835648 c 0.0085,-10.522967 -0.0032,-15.854278 -0.03703,-15.888103 -0.02978,-0.02979 -0.05246,-0.392713 -0.05246,-0.876329 0,-0.775719 -0.0057,-0.828023 -0.101826,-0.879416 z M 12.682643,16.02731 c 0.03416,-0.04704 0.05296,-0.01065 0.05246,0.114171 -0.0019,0.396916 -0.607278,1.678707 -1.033699,2.187737 -0.114533,0.136715 -0.349313,0.417531 -0.521477,0.623305 -0.172155,0.205764 -0.359327,0.430112 -0.416566,0.499879 -0.05722,0.07013 -0.107462,0.105105 -0.107997,0.07714 -6.16e-4,-0.02793 0.240357,-0.35748 0.533819,-0.734389 0.774483,-0.994746 1.107885,-1.586655 1.345352,-2.379049 0.06323,-0.211007 0.113954,-0.341751 0.148112,-0.388795 z m 12.521639,2.934471 c 0.0106,0.01061 -0.03556,0.234337 -0.104912,0.496792 -0.234426,0.886422 -0.294395,1.314514 -0.317824,2.267966 -0.02205,0.897184 -0.07145,1.155026 -0.13577,0.709702 -0.07163,-0.495702 0.0056,-1.56925 0.163541,-2.280308 0.137674,-0.619988 0.343478,-1.24564 0.394965,-1.194152 z m -13.431911,4.196508 c -0.07303,0 -0.06817,0.100163 0.09874,1.370035 0.09828,0.747799 0.108817,0.998879 0.0864,2.335851 -0.01384,0.823623 -0.05237,1.705044 -0.0864,1.956313 -0.07187,0.530434 -0.03157,3.084933 0.06789,4.289079 l 0.06171,0.734389 0.373366,0.01543 0.376451,0.01543 -0.03394,-0.700446 c -0.0999,-2.089519 -0.0827,-5.815361 0.02468,-5.427689 0.0222,0.0799 0.05042,1.085469 0.0648,2.234022 0.01444,1.148566 0.04253,2.526101 0.06171,3.064068 0.04022,1.124746 -0.02983,1.012602 0.647992,1.03987 l 0.398051,0.01543 0.203653,0.240682 c 0.111343,0.131905 0.244026,0.240681 0.296225,0.240681 0.08825,0 0.09428,-0.036 0.0648,-0.484449 -0.02787,-0.425099 -0.02363,-0.481365 0.04937,-0.481365 0.111175,0 0.130418,0.109965 0.15737,0.941131 0.01269,0.39087 0.06166,0.936557 0.107998,1.215752 0.102047,0.614405 0.07558,0.90259 -0.123427,1.382379 -0.491419,1.184822 -0.606437,1.828499 -0.518392,2.888185 0.03398,0.409317 0.110227,0.872065 0.206741,1.237353 0.08482,0.321075 0.190032,0.736255 0.231424,0.922614 0.0735,0.330556 0.472761,1.454301 0.614048,1.727974 0.03898,0.07539 0.07097,0.205752 0.07097,0.290053 0,0.126195 0.04648,0.187781 0.268453,0.351766 0.148215,0.109495 0.358127,0.315313 0.465935,0.456679 0.107806,0.141338 0.209761,0.249129 0.22834,0.237596 0.01867,-0.0115 0.03601,-0.110129 0.04011,-0.215996 0.007,-0.210853 0.364103,-0.962534 0.524565,-1.107755 0.09413,-0.08469 0.09565,-0.200372 0.09565,-3.193667 v -3.10418 l 0.175885,-0.509136 c 0.209823,-0.603866 0.479311,-1.789821 0.512219,-2.252537 0.01292,-0.181473 0.04649,-0.611482 0.07406,-0.956557 l 0.05246,-0.62639 -0.169712,-0.234512 c -0.297042,-0.418708 -0.360085,-0.604493 -0.367195,-1.064555 -0.0099,-0.652692 0.118313,-1.213118 0.404222,-1.777345 0.08441,-0.166528 0.128566,-0.339661 0.126512,-0.478278 -0.0036,-0.262344 -0.06984,-0.686988 -0.114168,-0.731303 -0.01759,-0.01759 -0.176076,0.104291 -0.354853,0.271538 -0.333302,0.311468 -0.570472,0.4136 -0.743646,0.32091 -0.244303,-0.13075 -0.175491,-1.101399 0.111085,-1.567519 0.0955,-0.155324 0.100969,-0.201012 0.04937,-0.478279 -0.0312,-0.167862 -0.06894,-0.315789 -0.08331,-0.330166 -0.03372,-0.03372 -0.384197,0.207708 -0.536905,0.37028 -0.06443,0.06857 -0.142812,0.124144 -0.172799,0.123427 -0.03004,-7.68e-4 -0.1053,-0.103868 -0.169711,-0.231426 -0.147715,-0.292764 -0.224514,-0.918908 -0.20674,-1.706374 0.0072,-0.326891 0.0035,-0.603305 -0.0093,-0.614048 -0.0128,-0.01071 -0.297522,-0.06947 -0.632562,-0.132683 -0.335027,-0.06323 -0.660352,-0.13663 -0.722046,-0.160454 -0.121166,-0.04677 -0.09385,-0.106215 -0.34868,0.765244 -0.147991,0.506232 -0.235115,1.382895 -0.206739,2.058141 0.02512,0.597211 0.04284,0.704329 0.206739,1.135526 0.166563,0.438263 0.182053,0.519578 0.182053,1.01827 0,0.298186 0.02292,0.666003 0.04937,0.817701 0.02656,0.151708 0.05691,0.391139 0.07097,0.530736 0.0755,0.753664 0.14284,1.166605 0.259197,1.638489 0.152361,0.617707 0.156498,0.709401 0.02777,0.465936 -0.162915,-0.308111 -0.310984,-0.810063 -0.357938,-1.212667 -0.163294,-1.400712 -0.201815,-1.817813 -0.219082,-2.314251 -0.01616,-0.46496 -0.04063,-0.603737 -0.148112,-0.836217 -0.268011,-0.580623 -0.309966,-0.820479 -0.274625,-1.638489 0.03433,-0.79418 0.163486,-1.532206 0.37028,-2.141453 0.0667,-0.196486 0.120169,-0.371638 0.120342,-0.388795 2e-4,-0.01716 -0.194845,-0.151987 -0.435079,-0.299309 -0.240243,-0.147327 -0.51078,-0.347712 -0.59862,-0.444337 -0.233984,-0.257376 -0.972135,-0.876328 -1.046041,-0.876328 z m 2.937556,1.06764 c -0.12947,0 -0.148112,0.01707 -0.148112,0.151198 0,0.123355 0.02159,0.152229 0.114168,0.154283 0.06282,0.0013 0.241403,0.05739 0.394966,0.123426 0.399308,0.171803 0.456679,0.166284 0.456679,-0.04629 0,-0.17216 -0.0077,-0.179289 -0.336338,-0.280795 -0.18442,-0.05694 -0.400601,-0.101827 -0.481363,-0.101827 z m 2.619731,1.089241 -0.354851,0.0031 c -0.300417,0.0024 -0.402337,0.03042 -0.663419,0.169712 -0.169851,0.09062 -0.393927,0.233017 -0.496792,0.317824 -0.164263,0.135565 -0.184646,0.177159 -0.172797,0.351766 0.0075,0.109165 0.03653,0.200527 0.0648,0.200568 0.02829,4e-5 0.172118,-0.08191 0.320909,-0.182054 0.439769,-0.296164 0.764378,-0.428371 1.064555,-0.428907 h 0.268454 l -0.01543,-0.215997 z m -0.178968,0.48445 c -0.221091,0 -0.622963,0.174292 -1.070728,0.465936 -0.379154,0.246928 -0.401136,0.271935 -0.401136,0.447422 0,0.1918 0.09296,0.757491 0.13577,0.826958 0.0134,0.02172 0.195631,-0.119938 0.404222,-0.314739 0.338381,-0.316004 0.570995,-0.46207 1.055299,-0.660331 0.144668,-0.05924 0.143228,-0.06233 0.107998,-0.373366 -0.04344,-0.38436 -0.04827,-0.39188 -0.231425,-0.39188 z m -4.48039,0.265368 c 0.01101,0.105326 0.01122,0.267774 0,0.357937 -0.01082,0.09011 -0.01869,0.0041 -0.01851,-0.191312 2.07e-4,-0.195442 0.0075,-0.271939 0.01851,-0.166625 z m 4.650102,0.617132 c -0.04976,0.0045 -0.116449,0.02481 -0.219083,0.06171 -0.382186,0.137432 -0.415867,0.190117 -0.345594,0.567763 0.03221,0.173026 0.06283,0.314738 0.06788,0.314738 0.0055,0 0.163624,-0.143868 0.34868,-0.320909 0.340921,-0.326153 0.403136,-0.472995 0.259195,-0.592448 -0.03009,-0.02494 -0.06133,-0.03534 -0.111083,-0.03086 z m 0.907185,0.234511 c -0.131628,0 -0.767911,0.351795 -0.993585,0.549249 -0.109283,0.09561 -0.487535,0.660474 -0.487535,0.728218 0,0.02436 0.143298,-0.0641 0.317824,-0.197482 0.546123,-0.417425 0.840023,-0.5839 1.079984,-0.610963 l 0.225253,-0.02777 V 27.1388 c 0,-0.20903 -0.0082,-0.222169 -0.141941,-0.222169 z m 0.02469,0.558507 c -0.179846,0 -0.579548,0.219176 -0.971984,0.533819 -0.195437,0.156696 -0.421928,0.320137 -0.499878,0.361024 -0.07797,0.0409 -0.164917,0.134402 -0.194397,0.209825 -0.0829,0.211853 -0.05853,0.724136 0.04011,0.83313 0.04593,0.05068 0.106536,0.09257 0.132683,0.09257 0.02618,0 0.194979,-0.148695 0.376451,-0.330166 0.181473,-0.181485 0.366569,-0.330167 0.410394,-0.330167 0.04383,0 0.183573,-0.06733 0.311652,-0.148112 0.128084,-0.08081 0.283249,-0.161306 0.342509,-0.178969 0.124297,-0.03713 0.168824,-0.232325 0.169712,-0.728218 5.22e-4,-0.297474 -0.0076,-0.314737 -0.117256,-0.314737 z m -0.0031,1.150953 c -0.0172,-0.01793 -0.04943,-0.0061 -0.114169,0.01851 -0.07344,0.02792 -0.193947,0.09511 -0.268453,0.148112 -0.135299,0.09636 -0.134254,0.0953 -0.0864,0.506049 0.02637,0.22608 0.05366,0.40611 0.06171,0.398053 0.0077,-0.0077 0.105222,-0.17542 0.219082,-0.37028 0.142205,-0.243293 0.206739,-0.41266 0.206739,-0.543078 0,-0.09203 -0.0013,-0.139434 -0.01851,-0.15737 z m 1.52432,2.459278 c -0.215153,-0.02534 -0.622107,0.0575 -1.076898,0.225253 -1.315926,0.485411 -1.187982,0.416863 -1.187982,0.632563 0,0.106361 0.02729,0.201377 0.06171,0.21291 0.0886,0.02953 0.37197,-0.02979 0.725131,-0.151198 0.702821,-0.241592 1.320469,-0.298216 1.49655,-0.138855 0.05589,0.05059 0.11023,0.08235 0.120341,0.07097 0.05752,-0.06514 0.06518,-0.713402 0.0093,-0.789931 -0.02392,-0.0327 -0.07639,-0.05326 -0.148112,-0.06171 z m -0.209826,0.76216 -0.428907,0.07406 c -0.235398,0.04109 -0.595099,0.13009 -0.799188,0.200568 -0.204078,0.07042 -0.497324,0.1338 -0.651076,0.138854 -0.254404,0.0089 -0.277589,0.02104 -0.27771,0.126514 -1.01e-4,0.136544 0.197622,0.533409 0.37028,0.743646 0.09421,0.114745 0.159087,0.146995 0.293139,0.141941 0.639,-0.02383 1.35623,0.0055 1.490377,0.06171 0.08473,0.03552 0.165141,0.05545 0.175884,0.04629 0.03234,-0.02736 0.153273,-0.843479 0.154283,-1.036785 7.68e-4,-0.137825 -0.0375,-0.217901 -0.163541,-0.339424 z m 0.330167,1.465691 c -0.01326,0 -0.02716,0.01555 -0.04937,0.04937 -0.10178,0.15507 -0.05896,0.494707 0.09874,0.76216 0.08373,0.142052 0.154283,0.267525 0.154283,0.280795 0,0.08196 0.866663,1.263045 1.246611,1.697118 0.293401,0.33521 0.864769,0.894937 1.249694,1.228096 0.805004,0.696711 2.207716,1.687092 3.060982,2.159967 l 0.453595,0.253026 0.101826,-0.129599 c 0.07353,-0.09346 0.104388,-0.207037 0.104913,-0.407308 v -0.27771 l -0.30547,-0.123425 c -1.418866,-0.567155 -1.684973,-0.741248 -3.178238,-2.076654 -1.089774,-0.974575 -2.312283,-2.398384 -2.89127,-3.366465 -0.02025,-0.03383 -0.03302,-0.04937 -0.04629,-0.04937 z m -1.385464,0.04937 0.03086,0.41348 c 0.01746,0.226735 0.05778,0.443099 0.08948,0.481363 0.07107,0.08563 0.231451,0.05325 0.592448,-0.117254 0.32545,-0.153747 0.430339,-0.295172 0.385708,-0.518392 -0.04424,-0.221255 -0.142474,-0.259197 -0.657247,-0.259197 z m 1.172553,0.706619 -0.169712,0.104912 c -0.09287,0.05739 -0.289183,0.139445 -0.438164,0.182054 -0.148973,0.04251 -0.299796,0.08658 -0.336338,0.09874 -0.04034,0.01352 0.236622,0.353594 0.706618,0.863987 0.426087,0.462716 0.829722,0.919271 0.894844,1.015186 0.06517,0.09593 0.13723,0.175883 0.160454,0.175883 0.0232,0 0.100408,0.08806 0.172797,0.197483 0.171497,0.259143 0.834285,1.0516 1.252781,1.496548 0.381654,0.405784 1.364865,1.100495 2.53642,1.792773 0.433871,0.256388 0.874854,0.518481 0.981242,0.583192 0.106407,0.06469 0.265795,0.143069 0.354852,0.175883 0.309441,0.113897 0.330006,0.100059 0.34868,-0.256112 0.03064,-0.583773 0.04115,-0.569568 -0.64799,-0.950385 C 24.086643,38.769761 22.588926,37.639247 21.578613,36.587112 21.063606,36.050794 20.149296,34.8778 19.967894,34.5228 19.920044,34.42917 19.834189,34.288688 19.779668,34.211149 Z m -0.786846,0.870158 c -0.09065,-0.0068 0.275582,1.066037 0.586278,1.718717 0.175255,0.368073 0.178549,0.338637 -0.07714,1.120097 -0.367869,1.124171 -0.395904,1.288598 -0.388794,2.462363 0.0058,1.024278 0.01359,1.086237 0.160455,1.598375 0.132031,0.460416 0.426272,1.83088 0.499878,2.320422 0.01628,0.108205 0.09056,0.208982 0.222168,0.314738 0.107385,0.08629 0.234511,0.227952 0.283882,0.311653 0.04945,0.08364 0.102246,0.15143 0.117254,0.151198 0.01491,-2.32e-4 0.105925,-0.154293 0.203654,-0.342509 0.09771,-0.188228 0.297309,-0.469742 0.441251,-0.623305 0.219386,-0.234044 0.267044,-0.317976 0.296224,-0.530736 0.01915,-0.139602 0.08795,-0.610204 0.154284,-1.042955 0.06633,-0.432751 0.14504,-0.94626 0.172798,-1.141696 0.159438,-1.122173 0.268074,-1.855902 0.308566,-2.07974 0.130193,-0.719378 0.131414,-0.705522 -0.219083,-1.086155 -0.413164,-0.448684 -0.755319,-0.849252 -1.351523,-1.576777 -0.691126,-0.843371 -1.341299,-1.568635 -1.41015,-1.57369 z m -3.138124,2.033454 c 0.04042,-0.04043 0.167828,0.102435 0.253025,0.280797 0.123178,0.26144 0.05994,0.253879 -0.117254,-0.01852 -0.08623,-0.132504 -0.14762,-0.250433 -0.135771,-0.262282 z m 6.09728,6.606415 -0.34868,0.01543 -0.361024,0.379537 c -0.361218,0.378301 -0.66746,0.883278 -0.74056,1.22501 l -0.03394,0.169712 -0.160454,-0.256111 c -0.269109,-0.430532 -0.304075,-0.46615 -0.715875,-0.749817 -0.376363,-0.259254 -0.705307,-0.420962 -0.755989,-0.37028 -0.01238,0.01238 0.137857,0.209333 0.333251,0.435078 0.509444,0.588579 0.771418,1.151402 0.771418,1.653918 0,0.147771 0.01522,0.301717 0.03086,0.342509 0.02198,0.05724 0.0682,0.06534 0.212911,0.03394 0.103014,-0.02239 0.393637,-0.07977 0.644905,-0.126514 0.669199,-0.124531 0.64873,-0.116632 0.617133,-0.271537 -0.01504,-0.07404 -0.0035,-0.347259 0.02469,-0.607877 0.03828,-0.354686 0.09186,-0.558254 0.212911,-0.811531 0.156412,-0.32724 0.167787,-0.338704 0.394965,-0.382624 0.213711,-0.0413 0.251983,-0.03296 0.416565,0.09257 0.1127,0.08596 0.187372,0.186937 0.197483,0.271538 0.0093,0.07996 0.04773,0.135771 0.09257,0.135771 0.05776,0 0.07937,-0.0713 0.08948,-0.302397 0.01027,-0.240013 -0.01157,-0.347126 -0.101828,-0.502963 -0.170213,-0.293832 -0.395345,-0.394978 -0.820787,-0.373366 z m -4.378562,0.09874 c -0.168194,0.0068 -0.296866,0.03221 -0.311653,0.07714 -0.01638,0.04986 0.01141,0.05196 0.123427,0.0093 0.244131,-0.09309 0.559816,-0.01188 0.796101,0.203656 0.115694,0.105522 0.24507,0.206369 0.286968,0.222168 0.115695,0.04345 0.305481,0.04154 0.305481,-0.0031 0,-0.02175 -0.07886,-0.12221 -0.175883,-0.222168 -0.134837,-0.138832 -0.245094,-0.196719 -0.469022,-0.243768 -0.176974,-0.03721 -0.387227,-0.05 -0.555419,-0.0432 z m 4.57913,0.09257 c 0.04029,0 0.07406,0.03216 0.07406,0.07406 0,0.07653 -0.109029,0.103881 -0.16971,0.0432 -0.04737,-0.04733 0.01085,-0.117256 0.09565,-0.117256 z m -4.551359,0.104912 c -0.352384,0.0061 -0.559993,0.105143 -0.759075,0.367195 -0.259341,0.341369 -0.35212,0.644585 -0.351766,1.138611 9.5e-5,0.230339 -0.01968,0.419651 -0.0432,0.419651 -0.02352,0 -0.08555,-0.08661 -0.138854,-0.191312 -0.272038,-0.534815 -0.477683,-0.767897 -1.024443,-1.160211 -0.393112,-0.28208 -0.744047,-0.400814 -1.079984,-0.367195 l -0.175883,0.01852 0.271539,0.141941 c 0.149548,0.07853 0.356869,0.202903 0.459765,0.27771 0.212014,0.154131 0.67534,0.656246 0.768331,0.830045 0.110647,0.206714 0.200034,0.621347 0.200568,0.941128 3e-4,0.172215 0.01389,0.347755 0.03086,0.39188 0.03703,0.0965 0.05563,0.09557 0.731303,0.0031 0.293148,-0.04008 0.546399,-0.07317 0.564678,-0.07406 0.01833,-8.88e-4 0.02316,-0.224573 0.0093,-0.496793 -0.02278,-0.445582 -0.01359,-0.526691 0.104914,-0.836216 0.07236,-0.189095 0.132683,-0.385108 0.132683,-0.43508 0,-0.141481 0.233847,-0.585953 0.342509,-0.651075 0.05371,-0.0322 0.192178,-0.05656 0.308566,-0.05246 0.116367,0.0043 0.212923,-0.006 0.212912,-0.02468 -6e-5,-0.09165 -0.358812,-0.24479 -0.564677,-0.240683 z m -5.041981,0.197483 c -0.523476,0 -0.5886,0.01081 -0.635648,0.09874 -0.06887,0.128666 -0.01798,0.253089 0.117256,0.283881 0.05974,0.01363 0.267414,0.03095 0.462849,0.04011 0.195435,0.0087 0.466007,0.01963 0.598621,0.02469 0.274374,0.01131 0.29308,-0.02783 0.138854,-0.280796 L 13.04058,44.072944 Z m 10.148761,0 c 0.04191,0 0.07714,0.03524 0.07714,0.07714 0,0.0418 -0.0083,0.07303 -0.01543,0.07097 -0.152647,-0.04823 -0.193821,-0.148112 -0.06171,-0.148112 z m -9.303288,0.0031 c -0.09182,-0.0018 -0.07723,0.08899 0.0432,0.283883 l 0.104913,0.169712 h 0.490621 l 0.490621,-0.0031 -0.330167,-0.175883 C 13.810332,44.191162 13.485362,44.07903 13.305939,44.076028 Z m 8.152333,0.05246 c 0.0335,0.01353 0.05863,0.04998 0.05863,0.09874 0,0.05588 -0.01866,0.09874 -0.0432,0.09874 -0.06656,0 -0.161896,-0.131242 -0.123426,-0.169712 0.03476,-0.03473 0.0745,-0.0413 0.107997,-0.02777 z m -3.699715,0.120341 c -0.161688,0.03821 -0.302395,0.194958 -0.302395,0.376451 0,0.08988 0.03941,0.104495 0.317824,0.120341 0.174495,0.0099 0.369194,0.02272 0.431994,0.02777 0.06281,0.0054 0.114168,-0.01021 0.114168,-0.03394 0,-0.08645 -0.303038,-0.454259 -0.39805,-0.48445 -0.05426,-0.01722 -0.109644,-0.01891 -0.163541,-0.0062 z m 0.836216,0.07714 c -0.245296,0 -0.260681,0.03219 -0.169712,0.293139 0.05063,0.145166 0.06844,0.152314 0.342509,0.15737 0.408933,0.0082 0.445237,-0.03255 0.231426,-0.259197 -0.153717,-0.162912 -0.210019,-0.191312 -0.404223,-0.191312 z m -1.515063,0.01543 c 0.01611,0.01643 0.02142,0.06936 0.0093,0.120341 -0.021,0.08898 -0.02395,0.09001 -0.06171,0.0031 -0.03978,-0.09174 -0.003,-0.178864 0.05246,-0.123427 z m -2.147624,0.104913 c 0.0206,-0.0206 0.06613,-0.0079 0.09874,0.02469 0.07673,0.07669 0.03309,0.117192 -0.06171,0.05863 -0.03984,-0.02484 -0.05763,-0.06271 -0.03703,-0.08331 z m 6.279333,0.13577 c 0.06383,0 0.158853,0.18057 0.117256,0.222168 -0.07746,0.0775 -0.166627,0.0075 -0.166627,-0.129599 0,-0.05119 0.02242,-0.09257 0.04937,-0.09257 z m -8.436214,0.02777 c -0.656499,-0.03555 -0.69835,-0.0164 -0.493707,0.243767 0.103152,0.13075 0.119161,0.132684 0.712788,0.132684 0.345963,0 0.604791,-0.01892 0.604791,-0.04629 0,-0.02636 -0.05137,-0.104136 -0.11417,-0.172797 -0.104911,-0.114682 -0.161833,-0.127683 -0.709702,-0.157368 z m 1.718716,0.0062 c -0.08056,-0.01368 -0.20555,-0.0067 -0.450508,0.0093 l -0.493706,0.03086 0.132683,0.169712 c 0.127043,0.161983 0.142641,0.168539 0.39188,0.138854 0.142905,-0.01697 0.373157,-0.04566 0.509135,-0.06171 l 0.246854,-0.02777 -0.148112,-0.141941 C 14.609856,44.66352 14.57448,44.629791 14.49392,44.616114 Z m 5.162321,0.08331 c 0.04176,-0.04176 0.185141,0.02254 0.185141,0.08331 0,0.02888 -0.03078,0.05246 -0.07097,0.05246 -0.08079,0 -0.158596,-0.09134 -0.114171,-0.13577 z m -2.184652,0.141941 c -0.05058,0.0061 -0.0648,0.02222 -0.0648,0.05246 0,0.158628 0.134383,0.246188 0.481365,0.314739 0.443927,0.08773 0.685017,0.09991 0.685017,0.03086 0,-0.02931 -0.03453,-0.121264 -0.07714,-0.203654 -0.06139,-0.118742 -0.110958,-0.150914 -0.240681,-0.151197 -0.09003,-2.06e-4 -0.317601,-0.01308 -0.50605,-0.03086 -0.140329,-0.01328 -0.227129,-0.01845 -0.27771,-0.01234 z m 1.456436,0.0432 c -0.195851,0 -0.354964,0.01921 -0.354853,0.04011 1.1e-4,0.02094 0.0465,0.112891 0.101827,0.203654 0.0981,0.160868 0.109426,0.163539 0.456679,0.163539 0.195851,0 0.354964,-0.01613 0.354851,-0.03703 -1.1e-4,-0.02094 -0.0465,-0.112891 -0.101826,-0.203654 -0.0981,-0.160868 -0.109423,-0.166626 -0.456678,-0.166626 z m -3.455948,0.05246 c 0.02796,0 0.06296,0.02141 0.08023,0.04937 0.01727,0.02796 0.0094,0.05246 -0.01852,0.05246 -0.02787,0 -0.06604,-0.02459 -0.08331,-0.05246 -0.01727,-0.02796 -0.0063,-0.04937 0.0216,-0.04937 z M 14.6513,45.041843 c -0.201433,0.0016 -0.45134,0.01774 -0.555421,0.03703 l -0.191312,0.03394 0.129597,0.166626 c 0.145722,0.185729 0.204765,0.192342 0.73439,0.104913 0.362888,-0.05992 0.388966,-0.08239 0.299309,-0.249939 -0.04476,-0.08378 -0.104658,-0.09463 -0.416563,-0.09257 z m 6.072594,0.01543 c 0.01393,-0.01464 0.04754,-0.01038 0.09874,0.0093 0.04454,0.0169 0.06778,0.06225 0.05246,0.101826 -0.03691,0.09614 -0.09958,0.09323 -0.138855,-0.0093 -0.02009,-0.05235 -0.02627,-0.08719 -0.01234,-0.101827 z m -3.955828,0.04937 c 0.01863,-0.01863 0.05072,-0.01409 0.08948,0.02469 0.04582,0.04582 0.04822,0.07212 0.0031,0.117256 -0.04512,0.04512 -0.06714,0.03836 -0.09257,-0.02777 -0.02149,-0.05604 -0.01863,-0.09554 0,-0.11417 z m -2.993097,0.02777 -0.644904,0.01543 -0.64799,0.01543 0.19131,0.206741 c 0.188348,0.205949 0.192582,0.207515 0.493707,0.188224 0.536098,-0.03433 0.836387,-0.07266 0.836216,-0.107997 -1.42e-4,-0.01894 -0.05146,-0.09804 -0.114169,-0.175883 z m 6.149736,0.05246 c 0.06007,-0.06005 0.194912,0.02796 0.151197,0.09874 -0.01918,0.03109 -0.0556,0.05554 -0.08023,0.05554 -0.07081,0 -0.119835,-0.105418 -0.07097,-0.154283 z m -2.267966,0.08949 c -0.02957,0.0049 -0.01492,0.03319 0.01234,0.0864 0.03016,0.05889 0.123912,0.180775 0.209825,0.271538 0.155504,0.164298 0.158571,0.163541 0.654162,0.163541 0.273722,0 0.497682,-0.01613 0.496792,-0.03703 -8.05e-4,-0.02093 -0.03077,-0.07404 -0.0648,-0.117255 -0.128971,-0.163632 -0.318301,-0.249152 -0.543078,-0.24994 -0.126406,-4.09e-4 -0.358971,-0.03342 -0.518392,-0.07097 -0.144018,-0.0339 -0.217285,-0.05117 -0.246853,-0.04628 z m 1.601461,0.117254 c -0.152583,0 -0.277709,0.01908 -0.277709,0.0432 0,0.02415 0.04706,0.105364 0.104912,0.17897 0.08535,0.108505 0.147834,0.132683 0.330166,0.132683 0.239553,0 0.279218,-0.05724 0.172799,-0.256112 -0.04211,-0.07876 -0.107856,-0.09874 -0.330168,-0.09874 z m -4.008281,0.01234 c -0.01534,-0.01967 -0.794134,0.136093 -0.84856,0.169712 -0.02758,0.01704 0.02558,0.109052 0.117256,0.203654 0.184482,0.190294 0.226355,0.200083 0.598619,0.11417 0.198104,-0.04572 0.259197,-0.08346 0.259197,-0.15737 0,-0.07636 -0.07058,-0.258377 -0.126512,-0.330166 z m 0.632561,0.175883 c 0.05579,0.01463 0.101828,0.04634 0.101828,0.07097 0,0.02465 -0.046,0.04629 -0.101828,0.04629 -0.05588,0 -0.101827,-0.0317 -0.101827,-0.07097 0,-0.04689 0.0359,-0.06355 0.101827,-0.04629 z m 4.995697,0.01543 c 0.08135,0 0.127501,0.09321 0.09257,0.188225 -0.04596,0.124926 -0.163541,0.05645 -0.163541,-0.09566 0,-0.05119 0.03139,-0.09257 0.07097,-0.09257 z m -7.060008,0.04628 c -0.21795,0.0058 -0.454798,0.01971 -0.524565,0.02777 -0.06981,0.0082 -0.161756,0.01655 -0.203653,0.0216 -0.04781,0.0054 0.01082,0.08472 0.154283,0.21291 l 0.22834,0.203655 0.354851,-0.03086 c 0.465535,-0.04035 0.685019,-0.07951 0.685019,-0.123427 0,-0.01959 -0.06593,-0.100212 -0.148112,-0.178968 -0.140451,-0.134447 -0.173676,-0.142795 -0.546163,-0.132684 z m 6.371904,0.18514 c 0.04905,-0.03029 0.107997,0.01409 0.107997,0.08023 0,0.02322 -0.02003,0.0432 -0.04628,0.0432 -0.0688,0 -0.114211,-0.09102 -0.06171,-0.123426 z m -0.573934,0.0216 c -0.09812,0 -0.144757,0.08504 -0.0648,0.117255 0.110827,0.04473 0.138856,0.03814 0.138856,-0.04011 0,-0.04191 -0.03377,-0.07714 -0.07406,-0.07714 z m -0.830045,0.04937 c -0.275652,0 -0.515353,0.01547 -0.533822,0.03394 -0.03671,0.03671 0.280137,0.194075 0.601707,0.29931 0.111677,0.03654 0.343885,0.06892 0.518392,0.07097 0.283443,0.003 0.317824,-0.009 0.317824,-0.09874 0,-0.191258 -0.338805,-0.305481 -0.904101,-0.30548 z m -3.499148,0.07714 c -0.06949,0.01747 -0.191076,0.04247 -0.271539,0.05863 -0.175317,0.03507 -0.176434,0.03407 -0.03703,0.194397 0.19805,0.227781 0.536371,0.123093 0.469021,-0.145026 -0.03017,-0.120195 -0.0531,-0.134951 -0.160455,-0.107998 z m 1.280552,0.08023 c 0.0411,-0.0039 0.08948,0.02083 0.111085,0.07714 0.01672,0.04373 0.0092,0.09783 -0.01543,0.120341 -0.07064,0.06464 -0.169712,0.002 -0.169712,-0.104912 0,-0.05841 0.03296,-0.08865 0.07406,-0.09257 z m -1.888428,0.0432 -0.438165,0.06172 c -0.241324,0.03488 -0.438165,0.08438 -0.438165,0.107997 0,0.02362 0.11338,0.09575 0.253024,0.160454 0.222424,0.102993 0.288069,0.110289 0.521478,0.06788 0.394354,-0.07166 0.416636,-0.09653 0.246853,-0.259195 z m 1.286724,0.101827 c 0.06531,-0.06532 0.248722,0.07016 0.200568,0.148112 -0.0492,0.07966 -0.107807,0.07468 -0.185141,-0.01851 -0.0416,-0.05006 -0.04663,-0.09839 -0.01543,-0.129598 z m 5.443117,0.169712 c -0.118596,0.0042 -0.35836,0.05283 -0.888673,0.151198 -0.635859,0.117954 -0.711604,0.144717 -0.65416,0.237597 0.01886,0.03049 0.113721,0.04476 0.219082,0.03086 0.103014,-0.01363 0.485604,-0.05202 0.848558,-0.08331 0.362945,-0.0313 0.667704,-0.06386 0.675761,-0.07097 0.008,-0.0074 -0.01465,-0.07487 -0.04937,-0.151198 -0.03579,-0.07854 -0.0326,-0.118325 -0.151197,-0.11417 z m -5.955339,0.03703 c -0.09814,0 -0.144756,0.08504 -0.0648,0.117254 0.110843,0.04473 0.138855,0.03814 0.138855,-0.04011 0,-0.04191 -0.03377,-0.07714 -0.07406,-0.07714 z m -0.527648,0.135769 c -0.266438,0.05318 -0.27713,0.135887 -0.0216,0.169712 0.230118,0.0304 0.516239,0.02067 0.555419,-0.01852 0.01554,-0.01553 -0.04911,-0.06535 -0.145026,-0.111083 -0.132647,-0.0633 -0.225211,-0.07272 -0.388793,-0.04011 z m 2.12911,0.182053 c -0.03959,-0.0088 -0.113319,-0.0033 -0.246853,0.01234 -0.160543,0.01878 -0.392809,0.05645 -0.518392,0.08331 -0.125599,0.02675 -0.375515,0.04303 -0.555421,0.03703 -0.214634,-0.0078 -0.335726,0.0103 -0.348681,0.04937 -0.01456,0.04371 0.171469,0.05863 0.69119,0.05863 0.856315,0 1.024442,-0.02807 1.024442,-0.16354 0,-0.04523 -0.0067,-0.06837 -0.04629,-0.07714 z m 4.520503,0.0864 c -0.367872,-0.0014 -1.664497,0.124523 -1.718717,0.166626 -0.04302,0.03335 -0.06703,0.285704 -0.07714,0.817702 l -0.01234,0.768331 -0.13577,0.01543 c -0.132384,0.0153 -0.671138,-0.186397 -1.08924,-0.410394 -0.493137,-0.264204 -0.918782,-0.593215 -1.132441,-0.870158 -0.206108,-0.267623 -0.240418,-0.289235 -0.382622,-0.262283 -0.0855,0.01626 -0.491411,0.04355 -0.904101,0.06171 -0.41269,0.01828 -0.763527,0.05134 -0.777587,0.07406 -0.05215,0.08415 -0.0607,0.943875 -0.01234,1.175638 0.03546,0.169841 0.09666,0.278163 0.209826,0.373366 0.150951,0.126973 0.183253,0.134909 0.567763,0.111084 0.50895,-0.03152 0.935492,0.02268 1.187982,0.154283 0.176597,0.09206 0.309225,0.104775 1.43175,0.117256 1.222783,0.01365 2.019133,-0.04617 2.354364,-0.172797 0.23269,-0.08789 0.6282,-0.06423 0.965814,0.05554 0.167519,0.05944 0.454166,0.141564 0.635648,0.182056 0.202846,0.04514 0.62856,0.07414 1.107754,0.07714 0.698761,0.0038 0.824489,-0.01 1.206497,-0.126512 0.281128,-0.08576 0.425821,-0.154585 0.425821,-0.203655 0,-0.09696 -0.193206,-0.166541 -0.447421,-0.16354 -0.112777,0.0016 -0.515032,-0.103809 -0.907187,-0.234511 -0.387892,-0.12928 -0.800892,-0.244577 -0.916443,-0.25611 -0.448452,-0.04461 -1.078084,-0.580037 -1.302152,-1.107755 -0.126896,-0.298821 -0.1608,-0.342045 -0.27771,-0.342509 z m -1.083069,0.441251 c 0.04806,0.03029 0.0822,0.0739 0.07714,0.09874 -0.01465,0.06623 -0.131843,0.07753 -0.219083,0.0216 -0.06125,-0.03931 -0.06444,-0.05898 -0.01234,-0.111085 0.04766,-0.04752 0.08957,-0.05005 0.154283,-0.0093 z m 0.737474,0.02777 c 0.05007,-0.0098 0.08331,0.01446 0.08331,0.06171 0,0.04705 -0.04262,0.08023 -0.104913,0.08023 -0.123734,0 -0.105752,-0.1172 0.0216,-0.141941 z m -4.721071,0.05554 c 0.04391,-0.04389 0.190483,0.08834 0.157369,0.141941 -0.01525,0.02473 -0.04998,0.04629 -0.07714,0.04629 -0.06018,0 -0.122536,-0.145917 -0.08023,-0.188226 z m -0.614048,0.111085 c 0.0202,-0.0043 0.04875,0.0029 0.08948,0.02469 0.05624,0.03008 0.101827,0.07481 0.101827,0.09874 0,0.06635 -0.129039,0.101689 -0.203655,0.05554 -0.03627,-0.02251 -0.05151,-0.07748 -0.03394,-0.123427 0.01276,-0.03327 0.02609,-0.05124 0.04629,-0.05554 z m 4.967925,0.25611 c 0.02495,0.01542 0.04629,0.06154 0.04629,0.101826 0,0.07471 -0.05974,0.09761 -0.11417,0.0432 -0.0458,-0.04582 0.01559,-0.177335 0.06789,-0.145026 z m 0.817701,0.02469 c 0.07026,0 0.09516,0.02784 0.08331,0.107999 -0.02151,0.146106 -0.125889,0.174738 -0.191311,0.05246 -0.06063,-0.113278 -0.02838,-0.160456 0.107997,-0.160456 z m -1.382379,0.104912 c 0.0164,-0.0017 0.03354,0.0089 0.05863,0.03394 0.07571,0.07569 -0.0018,0.179559 -0.09257,0.123426 -0.03891,-0.02405 -0.04511,-0.06303 -0.01543,-0.111084 0.0183,-0.02961 0.03297,-0.04457 0.04937,-0.04629 z m -2.915955,0.04629 c 0.04029,0 0.07406,0.03524 0.07406,0.07714 0,0.07653 -0.105944,0.103882 -0.166627,0.0432 -0.04736,-0.04732 0.0078,-0.120341 0.09257,-0.120341 z m -0.814617,0.04937 c 0.101554,0 0.126512,0.02808 0.126512,0.129598 0,0.08925 -0.02715,0.126514 -0.09257,0.126514 -0.117638,0 -0.160454,-0.04279 -0.160454,-0.160456 0,-0.06542 0.03727,-0.09566 0.126512,-0.09566 z m -0.712789,0.166627 c 0.01743,-0.01747 0.07,0.0053 0.117256,0.05246 0.07939,0.07871 0.07754,0.0864 0,0.0864 -0.09252,0 -0.167227,-0.08888 -0.117256,-0.138855 z m 5.125294,0.222168 c 0.04579,0.02074 0.08011,0.06388 0.07097,0.111085 -0.02168,0.111663 -0.116858,0.127438 -0.194397,0.03394 -0.04392,-0.05281 -0.04864,-0.09637 -0.01543,-0.129597 0.03532,-0.03534 0.09307,-0.03617 0.138855,-0.01543 z m 1.095412,0.01851 c 0.05638,0 0.101827,0.03483 0.101827,0.07714 0,0.07724 -0.107922,0.101902 -0.169711,0.04011 -0.0644,-0.06435 -0.03326,-0.117254 0.06788,-0.117254 z m -3.804628,0.05246 c 0.02626,0 0.04937,0.03216 0.04937,0.07406 0,0.07855 -0.06011,0.100344 -0.117255,0.0432 -0.0406,-0.04056 0.0039,-0.117256 0.06788,-0.117256 z m -0.891758,0.04937 c 0.07895,0 0.129598,0.02979 0.129598,0.07714 0,0.04736 -0.05065,0.07406 -0.129598,0.07406 -0.07893,0 -0.126512,-0.02671 -0.126512,-0.07406 0,-0.04736 0.04757,-0.07714 0.126512,-0.07714 z m 2.860414,0.04011 c 0.07453,-0.07454 0.218244,0.03971 0.178969,0.14194 -0.03592,0.09345 -0.09183,0.09146 -0.172798,-0.0062 -0.04754,-0.05757 -0.04786,-0.09408 -0.0062,-0.135769 z m 2.434591,0.145025 c 0.06496,-0.04013 0.180205,0.05229 0.141941,0.114171 -0.05037,0.08157 -0.182054,0.07069 -0.182054,-0.01543 0,-0.04019 0.01781,-0.085 0.04011,-0.09874 z m 0.728218,0.03086 c 0.03124,0.0045 0.06762,0.03318 0.08331,0.08023 0.01101,0.03311 -0.01441,0.05863 -0.05863,0.05863 -0.04422,0 -0.08331,-0.03601 -0.08331,-0.08023 0,-0.04482 0.02739,-0.0631 0.05863,-0.05863 z m -4.424847,0.01234 c 0.08754,0.02781 0.09713,0.04736 0.04937,0.104912 -0.06972,0.084 -0.09835,0.0893 -0.200568,0.02469 -0.110437,-0.06985 0.01132,-0.174024 0.151197,-0.129598 z m -1.012099,0.126512 c 0.02796,0 0.04937,0.02449 0.04937,0.05246 0,0.02796 -0.0215,0.04937 -0.04937,0.04937 -0.02796,0 -0.05246,-0.02141 -0.05246,-0.04937 0,-0.02796 0.02459,-0.05246 0.05246,-0.05246 z m 6.523101,0.05246 c 0.04477,0 0.06664,0.0215 0.04937,0.04937 -0.01725,0.02796 -0.03863,0.05246 -0.04937,0.05246 -0.01071,0 -0.03519,-0.02449 -0.05246,-0.05246 -0.01725,-0.02796 0.0072,-0.04937 0.05246,-0.04937 z m -0.641818,0.03394 c 0.03095,-0.03094 0.07566,-0.03543 0.117255,0.0062 0.04785,0.04782 0.04463,0.0788 -0.0216,0.145026 -0.07921,0.07888 -0.08854,0.0797 -0.120341,-0.0031 -0.02308,-0.06014 -0.0063,-0.117177 0.02469,-0.148112 z"
     id="path840"
     inkscape:connector-curvature="0" />
</svg>
