<?xml version="1.0" encoding="UTF-8" standalone="no"?>
<svg
   xmlns:dc="http://purl.org/dc/elements/1.1/"
   xmlns:cc="http://creativecommons.org/ns#"
   xmlns:rdf="http://www.w3.org/1999/02/22-rdf-syntax-ns#"
   xmlns:svg="http://www.w3.org/2000/svg"
   xmlns="http://www.w3.org/2000/svg"
   xmlns:sodipodi="http://sodipodi.sourceforge.net/DTD/sodipodi-0.dtd"
   xmlns:inkscape="http://www.inkscape.org/namespaces/inkscape"
   height="50"
   viewBox="0 0 50 50"
   width="50"
   version="1.1"
   id="svg6"
   sodipodi:docname="kubera_i.svg"
   inkscape:version="0.92.5 (2060ec1f9f, 2020-04-08)"
   inkscape:export-filename="/home/hamhec/workspace/web/skills/dist/assets/languages/de_b2.svg.png"
   inkscape:export-xdpi="99.921013"
   inkscape:export-ydpi="99.921013">
  <metadata
     id="metadata12">
    <rdf:RDF>
      <cc:Work
         rdf:about="">
        <dc:format>image/svg+xml</dc:format>
        <dc:type
           rdf:resource="http://purl.org/dc/dcmitype/StillImage" />
        <dc:title />
      </cc:Work>
    </rdf:RDF>
  </metadata>
  <defs
     id="defs10" />
  <sodipodi:namedview
     pagecolor="#ffffff"
     bordercolor="#666666"
     borderopacity="1"
     objecttolerance="10"
     gridtolerance="10"
     guidetolerance="10"
     inkscape:pageopacity="0"
     inkscape:pageshadow="2"
     inkscape:window-width="3840"
     inkscape:window-height="2050"
     id="namedview8"
     showgrid="false"
     showguides="true"
     inkscape:guide-bbox="true"
     inkscape:zoom="15.999999"
     inkscape:cx="-16.141529"
     inkscape:cy="22.162556"
     inkscape:window-x="3348"
     inkscape:window-y="-12"
     inkscape:window-maximized="1"
     inkscape:current-layer="svg6">
    <sodipodi:guide
       position="0,16.666667"
       orientation="0,1"
       id="guide822"
       inkscape:locked="false"
       inkscape:label=""
       inkscape:color="rgb(0,0,255)" />
    <sodipodi:guide
       position="16.666667,0"
       orientation="1,0"
       id="guide824"
       inkscape:locked="false"
       inkscape:label=""
       inkscape:color="rgb(0,0,255)" />
    <sodipodi:guide
       position="0,32"
       orientation="0,1"
       id="guide821"
       inkscape:locked="false"
       inkscape:label=""
       inkscape:color="rgb(0,0,255)" />
    <sodipodi:guide
       position="32,0"
       orientation="1,0"
       id="guide823"
       inkscape:locked="false"
       inkscape:label=""
       inkscape:color="rgb(0,0,255)" />
    <sodipodi:guide
       position="25.333333,0"
       orientation="1,0"
       id="guide825"
       inkscape:locked="false"
       inkscape:label=""
       inkscape:color="rgb(0,0,255)" />
    <sodipodi:guide
       position="0,25.333333"
       orientation="0,1"
       id="guide827"
       inkscape:locked="false"
       inkscape:label=""
       inkscape:color="rgb(0,0,255)" />
  </sodipodi:namedview>
  <path
     style="stroke-width:0.0871233"
     d="M 43.700432,1.3085937 39.419859,5.5891663 40.565989,6.7352959 43.700432,3.600853 46.853871,6.7521818 48,5.6060522 Z m -24.963675,1.80679 c -1.378796,-0.1118849 -2.472498,0.8050486 -3.554479,2.9845807 -1.074912,2.1653037 -1.17554,3.5401024 -0.424258,5.7918596 0.334415,1.002334 1.429632,3.200189 1.783572,3.579808 0.519595,0.557304 1.708337,0.60311 3.358181,0.126644 1.816867,-0.524708 2.298125,-0.505933 4.39033,0.168859 0.503137,0.162273 1.0139,0.297945 1.135576,0.301836 0.126505,0.0043 0.577131,-0.209949 1.053258,-0.500245 2.19573,-1.338733 3.751323,-2.887654 4.514864,-4.495867 C 32.152455,8.6324267 32.082246,7.1230333 30.780616,6.4693432 30.309732,6.2328961 29.364924,6.1478096 27.774928,6.2012798 24.908307,6.2977885 24.025885,6.065699 21.860646,4.6351136 20.132345,3.4932199 19.482156,3.1758973 18.736757,3.1153837 Z M 10.074296,13.565638 c -0.196347,-0.01717 -0.3332864,0.02429 -0.5107974,0.11609 -0.46958,0.242824 -0.6459606,0.852603 -0.390486,1.346649 0.1006129,0.194583 0.2574079,0.29184 0.7176497,0.443255 0.3244007,0.106719 0.7862287,0.289605 1.0258177,0.407372 0.521708,0.256388 1.695728,1.002423 1.697031,1.078586 6.14e-4,0.02971 -0.242968,0.101596 -0.542459,0.160416 -1.055478,0.207222 -3.3234762,0.957745 -3.5354819,1.169348 -0.4833001,0.4824 -0.2313016,1.403625 0.428479,1.568277 0.2564266,0.06398 0.5335,0.0041 1.6991429,-0.363047 1.626198,-0.512135 2.275338,-0.650844 2.843161,-0.612114 l 0.411594,0.02744 -1.357204,1.175681 c -3.783755,3.276367 -6.5145463,6.917912 -7.5543235,10.074542 -0.5230904,1.587882 -0.6246575,2.238935 -0.6142242,3.909083 0.00884,1.348996 0.033413,1.569669 0.2722851,2.482226 0.595537,2.275101 2.1208135,4.675656 4.2784616,6.731136 2.627789,2.503345 6.076782,3.890071 10.773196,4.32912 1.450462,0.135608 4.872522,0.04451 6.186568,-0.164637 7.353182,-1.170391 11.57864,-4.997143 11.862336,-10.739425 0.125618,-2.542809 -0.497117,-5.166758 -1.897551,-7.995468 -1.600154,-3.232129 -4.01272,-6.179814 -8.02713,-9.804368 -1.520952,-1.373245 -1.323592,-1.274463 -3.047902,-1.523951 -0.370503,-0.0536 -1.076357,-0.211884 -1.568277,-0.352493 -1.175958,-0.33671 -1.843745,-0.336645 -3.187212,-0.0022 -1.300115,0.323725 -1.923859,0.39013 -2.629977,0.278618 -0.75831,-0.119788 -1.895956,-0.702828 -3.38562,-1.732915 -1.623863,-1.122865 -2.243924,-1.478564 -3.083786,-1.770906 -0.411798,-0.143342 -0.666942,-0.219229 -0.863291,-0.236403 z m 12.47234,10.321499 c 1.539744,-0.005 2.677667,0.23921 3.858425,0.829519 0.585912,0.292929 0.846405,0.649447 0.846405,1.160905 0,0.497672 -0.255757,0.865188 -0.726094,1.044813 -0.426828,0.163008 -0.690666,0.118744 -1.384642,-0.230069 -0.531357,-0.267083 -1.708424,-0.508048 -2.480114,-0.508688 -2.103253,-0.0018 -4.08557,1.078066 -5.224072,2.847383 -0.160387,0.249267 -0.291282,0.494367 -0.291282,0.54457 0,0.06196 0.997199,0.09287 3.09856,0.09287 2.534111,0 3.141575,0.02124 3.341295,0.124533 0.740688,0.382997 0.742761,1.560499 0.0042,1.996757 -0.212358,0.125405 -0.654613,0.14353 -3.691677,0.14353 h -3.448942 v 0.479138 0.479136 h 3.453164 c 3.32329,0 3.463454,0.0063 3.740224,0.177302 0.187306,0.11577 0.340275,0.312549 0.436923,0.565677 0.140528,0.367307 0.13997,0.411858 -0.0042,0.789416 -0.282863,0.740621 -0.240902,0.732048 -3.8141,0.732425 -2.058595,2.59e-4 -3.115446,0.02997 -3.115446,0.08865 0,0.315467 0.982666,1.527438 1.661149,2.049525 1.207572,0.929196 2.30748,1.299699 3.87109,1.300213 1.111846,3.8e-4 1.631482,-0.111579 2.815722,-0.605781 0.58517,-0.244239 0.904029,-0.239143 1.304434,0.02321 0.45963,0.30116 0.592103,1.054846 0.276507,1.572498 -0.222857,0.365533 -1.164638,0.816746 -2.313366,1.108137 -0.519934,0.13191 -1.166687,0.2198 -1.796236,0.244845 -1.13081,0.04496 -1.327132,0.02664 -2.32181,-0.217405 -2.583356,-0.63384 -4.779434,-2.465516 -5.817188,-4.854693 l -0.289172,-0.664882 -1.287549,-0.04433 c -0.767714,-0.02594 -1.361632,-0.087 -1.471182,-0.149862 -0.486573,-0.279105 -0.665257,-1.126349 -0.341939,-1.618935 0.271906,-0.41421 0.546205,-0.496022 1.654817,-0.496022 h 1.00682 v -0.479137 -0.479138 h -1.015264 c -0.864562,0 -1.055266,-0.02722 -1.298103,-0.177301 -0.52755,-0.326043 -0.677326,-1.089622 -0.320831,-1.63371 0.25267,-0.385614 0.53131,-0.453808 1.846894,-0.453808 1.091174,0 1.2324,-0.01847 1.276995,-0.154084 0.02761,-0.08386 0.224017,-0.506644 0.434812,-0.941388 1.036112,-2.136925 3.111521,-3.820267 5.496357,-4.455764 0.713864,-0.190179 1.044692,-0.227476 2.028417,-0.23007 z"
     id="path1119"
     inkscape:connector-curvature="0" />
</svg>
