<?xml version="1.0" encoding="UTF-8" standalone="no"?>
<svg
   xmlns:dc="http://purl.org/dc/elements/1.1/"
   xmlns:cc="http://creativecommons.org/ns#"
   xmlns:rdf="http://www.w3.org/1999/02/22-rdf-syntax-ns#"
   xmlns:svg="http://www.w3.org/2000/svg"
   xmlns="http://www.w3.org/2000/svg"
   xmlns:sodipodi="http://sodipodi.sourceforge.net/DTD/sodipodi-0.dtd"
   xmlns:inkscape="http://www.inkscape.org/namespaces/inkscape"
   height="50"
   viewBox="0 0 50 50"
   width="50"
   version="1.1"
   id="svg6"
   sodipodi:docname="kubera_iv.svg"
   inkscape:version="0.92.5 (2060ec1f9f, 2020-04-08)"
   inkscape:export-filename="/home/hamhec/workspace/web/skills/dist/assets/languages/de_b2.svg.png"
   inkscape:export-xdpi="99.921013"
   inkscape:export-ydpi="99.921013">
  <metadata
     id="metadata12">
    <rdf:RDF>
      <cc:Work
         rdf:about="">
        <dc:format>image/svg+xml</dc:format>
        <dc:type
           rdf:resource="http://purl.org/dc/dcmitype/StillImage" />
        <dc:title />
      </cc:Work>
    </rdf:RDF>
  </metadata>
  <defs
     id="defs10" />
  <sodipodi:namedview
     pagecolor="#ffffff"
     bordercolor="#666666"
     borderopacity="1"
     objecttolerance="10"
     gridtolerance="10"
     guidetolerance="10"
     inkscape:pageopacity="0"
     inkscape:pageshadow="2"
     inkscape:window-width="3840"
     inkscape:window-height="2050"
     id="namedview8"
     showgrid="false"
     showguides="true"
     inkscape:guide-bbox="true"
     inkscape:zoom="5.6568542"
     inkscape:cx="-124.92873"
     inkscape:cy="44.591204"
     inkscape:window-x="3348"
     inkscape:window-y="-12"
     inkscape:window-maximized="1"
     inkscape:current-layer="svg6">
    <sodipodi:guide
       position="0,16.666667"
       orientation="0,1"
       id="guide822"
       inkscape:locked="false"
       inkscape:label=""
       inkscape:color="rgb(0,0,255)" />
    <sodipodi:guide
       position="16.666667,0"
       orientation="1,0"
       id="guide824"
       inkscape:locked="false"
       inkscape:label=""
       inkscape:color="rgb(0,0,255)" />
    <sodipodi:guide
       position="0,32"
       orientation="0,1"
       id="guide821"
       inkscape:locked="false"
       inkscape:label=""
       inkscape:color="rgb(0,0,255)" />
    <sodipodi:guide
       position="32,0"
       orientation="1,0"
       id="guide823"
       inkscape:locked="false"
       inkscape:label=""
       inkscape:color="rgb(0,0,255)" />
    <sodipodi:guide
       position="25.333333,0"
       orientation="1,0"
       id="guide825"
       inkscape:locked="false"
       inkscape:label=""
       inkscape:color="rgb(0,0,255)" />
    <sodipodi:guide
       position="0,25.333333"
       orientation="0,1"
       id="guide827"
       inkscape:locked="false"
       inkscape:label=""
       inkscape:color="rgb(0,0,255)" />
  </sodipodi:namedview>
  <path
     style="stroke-width:0.08489215"
     d="M 42.734895,1.3268229 41.492659,5.152251 H 37.46979 l 3.253671,2.3631273 -1.242237,3.8254277 3.253671,-2.363127 3.253671,2.363127 L 44.74633,7.5153783 48,5.152251 H 43.977132 Z M 18.369386,3.0585489 C 17.0259,2.9495293 15.960207,3.8429808 14.905935,5.9666969 13.858551,8.076549 13.7605,9.4161401 14.492542,11.610231 c 0.325851,0.976666 1.39302,3.118236 1.737895,3.488132 0.50629,0.543033 1.664589,0.587665 3.272181,0.123402 1.770339,-0.511271 2.239273,-0.492977 4.277898,0.164534 0.490252,0.158118 0.987935,0.290315 1.106495,0.294106 0.123265,0.0042 0.562351,-0.204572 1.026285,-0.487434 2.139498,-1.304449 3.655255,-2.813704 4.399241,-4.380732 C 31.441519,8.4343049 31.373109,6.9635659 30.104812,6.3266162 29.645987,6.0962243 28.725375,6.0133168 27.176097,6.0654177 24.382889,6.1594549 23.523064,5.933309 21.413275,4.5393598 19.729235,3.426709 19.095696,3.1175128 18.369386,3.0585489 Z M 9.9287646,13.241181 c -0.1913192,-0.01673 -0.3247517,0.02367 -0.4977168,0.113116 -0.4575545,0.236606 -0.629418,0.83077 -0.380486,1.312164 0.098036,0.189599 0.250816,0.284366 0.6992713,0.431902 0.3160929,0.103986 0.7660939,0.282189 0.9995479,0.39694 0.508347,0.249823 1.652301,0.976752 1.653571,1.050964 5.98e-4,0.02895 -0.236746,0.09899 -0.528567,0.156309 -1.028449,0.201914 -3.2383649,0.933218 -3.4449413,1.139401 -0.4709231,0.470047 -0.2253781,1.36768 0.417506,1.528115 0.2498598,0.06234 0.5198375,0.004 1.6556293,-0.35375 1.584552,-0.499019 2.217068,-0.634176 2.77035,-0.596437 l 0.401053,0.02674 -1.322447,1.145572 c -3.6868559,3.192462 -6.3477138,6.74075 -7.3608632,9.816541 -0.5096945,1.547218 -0.6086606,2.181598 -0.5984944,3.808975 0.00861,1.31445 0.032557,1.529471 0.265312,2.418658 0.5802858,2.216838 2.0665013,4.555917 4.1688937,6.558758 2.5604929,2.439235 5.9211609,3.790449 10.4973039,4.218254 1.413316,0.132136 4.74774,0.04337 6.028135,-0.160421 7.164873,-1.140418 11.28212,-4.86917 11.558551,-10.464397 0.122401,-2.47769 -0.484387,-5.034442 -1.848957,-7.790711 -1.559175,-3.149356 -3.909957,-6.021553 -7.821561,-9.553286 -1.482002,-1.338077 -1.289696,-1.241824 -2.969848,-1.484924 -0.361015,-0.05223 -1.048792,-0.206457 -1.528115,-0.343466 -1.145843,-0.328086 -1.796528,-0.328023 -3.10559,-0.0021 -1.26682,0.315435 -1.874591,0.380139 -2.562625,0.271483 -0.73889,-0.11672 -1.847403,-0.684829 -3.298917,-1.688536 C 12.192483,14.102925 11.5883,13.756336 10.769947,13.47148 10.368695,13.331809 10.120085,13.257865 9.9287646,13.241131 Z M 22.081697,23.298354 c 1.500313,-0.0048 2.609095,0.233084 3.759614,0.808276 0.570908,0.285428 0.824729,0.632815 0.824729,1.131175 0,0.484927 -0.249207,0.843032 -0.707498,1.018057 -0.415898,0.158833 -0.67298,0.115703 -1.349183,-0.224178 -0.51775,-0.260242 -1.664673,-0.495037 -2.416601,-0.49566 -2.04939,-0.0018 -3.980941,1.050457 -5.090288,2.774463 -0.156278,0.242884 -0.283821,0.481707 -0.283821,0.530625 0,0.06037 0.971661,0.0905 3.019208,0.0905 2.469214,0 3.061122,0.02069 3.255727,0.121344 0.72172,0.373189 0.72374,1.520535 0.0041,1.945622 -0.20692,0.122192 -0.637848,0.139854 -3.597136,0.139854 h -3.360617 v 0.466867 0.466866 h 3.36473 c 3.238184,0 3.374758,0.0061 3.644441,0.172761 0.182509,0.112806 0.331561,0.304545 0.425733,0.551191 0.13693,0.3579 0.136385,0.401311 -0.0041,0.7692 -0.275618,0.721654 -0.234733,0.7133 -3.716424,0.713668 -2.005876,2.53e-4 -3.035661,0.0292 -3.035661,0.08638 0,0.307389 0.9575,1.488322 1.618608,1.997039 1.176647,0.9054 2.248387,1.266415 3.771954,1.266916 1.083373,3.69e-4 1.589702,-0.108722 2.743614,-0.590268 0.570184,-0.237984 0.880877,-0.233019 1.271029,0.02262 0.447859,0.293447 0.576939,1.027832 0.269426,1.532228 -0.21715,0.356171 -1.134814,0.795829 -2.254124,1.079758 -0.506619,0.128532 -1.136808,0.214171 -1.750235,0.238574 -1.101851,0.04381 -1.293145,0.02596 -2.262351,-0.211837 -2.517198,-0.617608 -4.657036,-2.402376 -5.668214,-4.730368 l -0.281766,-0.647855 -1.254576,-0.0432 c -0.748054,-0.02527 -1.326762,-0.08477 -1.433507,-0.146024 -0.474112,-0.271958 -0.64822,-1.097504 -0.333182,-1.577475 0.264943,-0.403603 0.532218,-0.48332 1.612438,-0.48332 h 0.981037 v -0.466866 -0.466868 h -0.989264 c -0.842421,0 -1.028241,-0.02653 -1.264859,-0.172761 -0.514041,-0.317693 -0.659981,-1.061717 -0.312616,-1.591871 0.246199,-0.375739 0.517704,-0.442187 1.799597,-0.442187 1.06323,0 1.200839,-0.018 1.244292,-0.150138 0.0269,-0.08171 0.218281,-0.493669 0.423677,-0.91728 1.009578,-2.0822 3.031838,-3.722433 5.355599,-4.341655 0.695583,-0.185309 1.017939,-0.221651 1.976471,-0.224178 z"
     id="path1119"
     inkscape:connector-curvature="0" />
</svg>
