<?xml version="1.0" encoding="UTF-8" standalone="no"?>
<svg
   xmlns:dc="http://purl.org/dc/elements/1.1/"
   xmlns:cc="http://creativecommons.org/ns#"
   xmlns:rdf="http://www.w3.org/1999/02/22-rdf-syntax-ns#"
   xmlns:svg="http://www.w3.org/2000/svg"
   xmlns="http://www.w3.org/2000/svg"
   xmlns:sodipodi="http://sodipodi.sourceforge.net/DTD/sodipodi-0.dtd"
   xmlns:inkscape="http://www.inkscape.org/namespaces/inkscape"
   height="50"
   viewBox="0 0 50 50"
   width="50"
   version="1.1"
   id="svg6"
   sodipodi:docname="moneta_i.svg"
   inkscape:version="0.92.5 (2060ec1f9f, 2020-04-08)"
   inkscape:export-filename="/home/hamhec/workspace/web/skills/dist/assets/languages/de_b2.svg.png"
   inkscape:export-xdpi="99.921013"
   inkscape:export-ydpi="99.921013">
  <metadata
     id="metadata12">
    <rdf:RDF>
      <cc:Work
         rdf:about="">
        <dc:format>image/svg+xml</dc:format>
        <dc:type
           rdf:resource="http://purl.org/dc/dcmitype/StillImage" />
        <dc:title />
      </cc:Work>
    </rdf:RDF>
  </metadata>
  <defs
     id="defs10" />
  <sodipodi:namedview
     pagecolor="#ffffff"
     bordercolor="#666666"
     borderopacity="1"
     objecttolerance="10"
     gridtolerance="10"
     guidetolerance="10"
     inkscape:pageopacity="0"
     inkscape:pageshadow="2"
     inkscape:window-width="3840"
     inkscape:window-height="2050"
     id="namedview8"
     showgrid="false"
     showguides="true"
     inkscape:guide-bbox="true"
     inkscape:zoom="11.313708"
     inkscape:cx="-97.346366"
     inkscape:cy="22.634777"
     inkscape:window-x="3348"
     inkscape:window-y="-12"
     inkscape:window-maximized="1"
     inkscape:current-layer="svg6">
    <sodipodi:guide
       position="0,16.666667"
       orientation="0,1"
       id="guide822"
       inkscape:locked="false"
       inkscape:label=""
       inkscape:color="rgb(0,0,255)" />
    <sodipodi:guide
       position="16.666667,0"
       orientation="1,0"
       id="guide824"
       inkscape:locked="false"
       inkscape:label=""
       inkscape:color="rgb(0,0,255)" />
    <sodipodi:guide
       position="0,32"
       orientation="0,1"
       id="guide821"
       inkscape:locked="false"
       inkscape:label=""
       inkscape:color="rgb(0,0,255)" />
    <sodipodi:guide
       position="32,0"
       orientation="1,0"
       id="guide823"
       inkscape:locked="false"
       inkscape:label=""
       inkscape:color="rgb(0,0,255)" />
    <sodipodi:guide
       position="25.333333,0"
       orientation="1,0"
       id="guide825"
       inkscape:locked="false"
       inkscape:label=""
       inkscape:color="rgb(0,0,255)" />
    <sodipodi:guide
       position="0,25.333333"
       orientation="0,1"
       id="guide827"
       inkscape:locked="false"
       inkscape:label=""
       inkscape:color="rgb(0,0,255)" />
  </sodipodi:namedview>
  <path
     style="stroke-width:0.08065346"
     d="M 42.185547 1.2890625 L 41.392578 3.7324219 L 38.822266 3.7324219 L 40.900391 5.2421875 L 40.107422 7.6855469 L 42.185547 6.1757812 L 44.263672 7.6855469 L 43.470703 5.2421875 L 45.548828 3.7324219 L 42.978516 3.7324219 L 42.185547 1.2890625 z M 20.904297 6.7382812 C 20.000531 6.7382812 19.455225 6.8568774 18.685547 7.2207031 C 17.461175 7.7994741 16.603368 8.7686968 15.996094 10.259766 L 15.90625 10.480469 L 13.486328 10.480469 L 11.066406 10.480469 L 11.044922 11.871094 L 11.023438 13.265625 L 8.21875 13.285156 L 5.4179688 13.306641 L 5.4179688 30.646484 L 5.4179688 47.986328 L 20.902344 47.986328 L 36.386719 47.986328 L 36.386719 30.646484 L 36.386719 13.306641 L 33.585938 13.285156 L 30.783203 13.265625 L 30.759766 11.871094 L 30.738281 10.480469 L 28.320312 10.480469 L 25.898438 10.480469 L 25.808594 10.259766 C 25.201316 8.7687 24.345478 7.7994741 23.121094 7.2207031 C 22.35143 6.8568777 21.808063 6.7382813 20.904297 6.7382812 z M 20.904297 9.5175781 C 21.491888 9.5175781 22.077656 9.7495353 22.541016 10.212891 C 23.085405 10.757288 23.242188 11.230247 23.242188 12.337891 L 23.242188 13.224609 L 25.580078 13.224609 L 27.919922 13.224609 L 27.919922 14.634766 L 27.919922 16.046875 L 20.904297 16.046875 L 13.884766 16.046875 L 13.884766 14.634766 L 13.884766 13.224609 L 16.224609 13.224609 L 18.564453 13.224609 L 18.564453 12.337891 C 18.564453 11.230247 18.721224 10.757288 19.265625 10.212891 C 19.728984 9.7495353 20.316706 9.5175781 20.904297 9.5175781 z M 8.2402344 16.046875 L 9.6503906 16.046875 L 11.0625 16.046875 L 11.0625 17.458984 L 11.0625 18.869141 L 20.904297 18.869141 L 30.742188 18.869141 L 30.742188 17.458984 L 30.742188 16.046875 L 32.154297 16.046875 L 33.564453 16.046875 L 33.564453 30.603516 L 33.564453 45.162109 L 20.904297 45.162109 L 8.2402344 45.162109 L 8.2402344 30.603516 L 8.2402344 16.046875 z M 19.53125 22.660156 L 19.53125 23.830078 L 19.53125 25 L 18.583984 25 C 16.973805 25.0021 16.047022 25.340532 15.121094 26.263672 C 13.45139 27.928331 13.477808 30.573797 15.183594 32.244141 C 16.008729 33.052117 16.89196 33.373227 18.464844 33.443359 L 19.535156 33.492188 L 19.513672 34.871094 L 19.492188 36.251953 L 18.28125 36.232422 C 17.377542 36.218582 16.909079 36.17093 16.431641 36.048828 C 16.079838 35.958788 15.767851 35.913639 15.738281 35.947266 C 15.673751 36.020726 14.853516 38.338061 14.853516 38.447266 C 14.853516 38.523836 15.429728 38.713081 16.185547 38.884766 C 16.407345 38.935156 17.2406 38.99858 18.039062 39.025391 L 19.492188 39.074219 L 19.515625 40.222656 L 19.535156 41.371094 L 20.904297 41.371094 L 22.269531 41.371094 L 22.292969 40.222656 L 22.314453 39.074219 L 23.525391 39.023438 C 24.343254 38.990327 24.848207 38.933021 25.085938 38.84375 C 27.128093 38.076879 28.325647 35.870251 27.798828 33.847656 C 27.431008 32.435532 26.443792 31.378683 24.980469 30.828125 C 24.772553 30.749905 24.224886 30.68549 23.484375 30.654297 L 22.314453 30.603516 L 22.292969 29.212891 L 22.269531 27.822266 L 23.353516 27.822266 C 24.373614 27.822266 25.343725 27.943181 25.835938 28.132812 C 25.995338 28.194202 26.061662 28.190718 26.089844 28.117188 C 26.530588 26.968622 26.957002 25.617099 26.898438 25.558594 C 26.793737 25.453893 25.710826 25.18584 24.978516 25.083984 C 24.637937 25.036624 23.889869 25 23.316406 25 L 22.273438 25 L 22.273438 23.830078 L 22.273438 22.660156 L 20.904297 22.660156 L 19.53125 22.660156 z M 19.535156 27.822266 L 19.513672 29.212891 L 19.492188 30.603516 L 18.685547 30.623047 C 17.823311 30.642727 17.487392 30.555147 17.125 30.216797 C 16.465809 29.601324 16.607103 28.452938 17.396484 28.005859 C 17.676501 27.84727 17.833722 27.825375 18.626953 27.824219 L 19.535156 27.822266 z M 22.273438 33.466797 L 23.169922 33.466797 C 23.832661 33.466797 24.137295 33.50164 24.34375 33.599609 C 25.34488 34.07486 25.344185 35.58169 24.341797 36.105469 C 24.070465 36.247224 22.447622 36.361216 22.335938 36.246094 C 22.302647 36.211794 22.273437 35.57289 22.273438 34.826172 L 22.273438 33.466797 z "
     id="path866" />
</svg>
