<?xml version="1.0" encoding="UTF-8" standalone="no"?>
<svg
   xmlns:dc="http://purl.org/dc/elements/1.1/"
   xmlns:cc="http://creativecommons.org/ns#"
   xmlns:rdf="http://www.w3.org/1999/02/22-rdf-syntax-ns#"
   xmlns:svg="http://www.w3.org/2000/svg"
   xmlns="http://www.w3.org/2000/svg"
   xmlns:sodipodi="http://sodipodi.sourceforge.net/DTD/sodipodi-0.dtd"
   xmlns:inkscape="http://www.inkscape.org/namespaces/inkscape"
   height="50"
   viewBox="0 0 50 50"
   width="50"
   version="1.1"
   id="svg6"
   sodipodi:docname="phoebe.svg"
   inkscape:version="0.92.5 (2060ec1f9f, 2020-04-08)"
   inkscape:export-filename="/home/hamhec/workspace/web/skills/dist/assets/languages/de_b2.svg.png"
   inkscape:export-xdpi="99.921013"
   inkscape:export-ydpi="99.921013">
  <metadata
     id="metadata12">
    <rdf:RDF>
      <cc:Work
         rdf:about="">
        <dc:format>image/svg+xml</dc:format>
        <dc:type
           rdf:resource="http://purl.org/dc/dcmitype/StillImage" />
        <dc:title />
      </cc:Work>
    </rdf:RDF>
  </metadata>
  <defs
     id="defs10" />
  <sodipodi:namedview
     pagecolor="#ffffff"
     bordercolor="#666666"
     borderopacity="1"
     objecttolerance="10"
     gridtolerance="10"
     guidetolerance="10"
     inkscape:pageopacity="0"
     inkscape:pageshadow="2"
     inkscape:window-width="3360"
     inkscape:window-height="1990"
     id="namedview8"
     showgrid="false"
     showguides="true"
     inkscape:guide-bbox="true"
     inkscape:zoom="11.313708"
     inkscape:cx="-49.463851"
     inkscape:cy="12.709937"
     inkscape:window-x="-12"
     inkscape:window-y="-12"
     inkscape:window-maximized="1"
     inkscape:current-layer="svg6">
    <sodipodi:guide
       position="0,16.666667"
       orientation="0,1"
       id="guide822"
       inkscape:locked="false"
       inkscape:label=""
       inkscape:color="rgb(0,0,255)" />
    <sodipodi:guide
       position="16.666667,0"
       orientation="1,0"
       id="guide824"
       inkscape:locked="false"
       inkscape:label=""
       inkscape:color="rgb(0,0,255)" />
    <sodipodi:guide
       position="0,32"
       orientation="0,1"
       id="guide821"
       inkscape:locked="false"
       inkscape:label=""
       inkscape:color="rgb(0,0,255)" />
    <sodipodi:guide
       position="32,0"
       orientation="1,0"
       id="guide823"
       inkscape:locked="false"
       inkscape:label=""
       inkscape:color="rgb(0,0,255)" />
    <sodipodi:guide
       position="25.333333,0"
       orientation="1,0"
       id="guide825"
       inkscape:locked="false"
       inkscape:label=""
       inkscape:color="rgb(0,0,255)" />
    <sodipodi:guide
       position="0,25.333333"
       orientation="0,1"
       id="guide827"
       inkscape:locked="false"
       inkscape:label=""
       inkscape:color="rgb(0,0,255)" />
  </sodipodi:namedview>
  <path
     style="stroke-width:0.1652876"
     d="M 45.085938 1.1035156 C 44.519965 1.1035156 44.064019 1.2910156 43.716797 1.6660156 C 43.373047 2.0410156 43.201172 2.5486111 43.201172 3.1875 C 43.201172 3.5659722 43.282119 3.9021267 43.445312 4.1972656 C 43.608507 4.4889323 43.832466 4.718099 44.117188 4.8847656 C 43.790799 5.0514323 43.532769 5.2990451 43.341797 5.6289062 C 43.154297 5.9552951 43.060547 6.327474 43.060547 6.7441406 C 43.060547 7.3969184 43.243273 7.9201389 43.611328 8.3125 C 43.982856 8.7013889 44.474826 8.8945312 45.085938 8.8945312 C 45.697048 8.8945312 46.186631 8.7013889 46.554688 8.3125 C 46.926215 7.9201389 47.111328 7.3969184 47.111328 6.7441406 C 47.111328 6.3309462 47.017144 5.9635417 46.826172 5.640625 C 46.6352 5.3142361 46.370009 5.0642361 46.033203 4.890625 C 46.317926 4.7239583 46.544271 4.4924045 46.710938 4.1972656 C 46.881076 3.9021267 46.966797 3.5659722 46.966797 3.1875 C 46.966797 2.5416666 46.792535 2.031684 46.445312 1.6601562 C 46.101562 1.2886285 45.648438 1.1035156 45.085938 1.1035156 z M 45.085938 1.8945312 C 45.367187 1.8945313 45.598742 2.0167101 45.779297 2.2597656 C 45.959852 2.5028212 46.048828 2.8177083 46.048828 3.203125 C 46.048828 3.5920139 45.962673 3.9045139 45.789062 4.140625 C 45.615451 4.3767361 45.381076 4.4941406 45.085938 4.4941406 C 44.797743 4.4941406 44.565755 4.3771702 44.388672 4.1445312 C 44.211589 3.9118924 44.123047 3.5989583 44.123047 3.203125 C 44.123047 2.8107639 44.209202 2.4934896 44.382812 2.2539062 C 44.556424 2.0143229 44.790798 1.8945312 45.085938 1.8945312 z M 22.890625 4.6328125 C 22.736943 4.626638 22.554365 4.6707509 22.263672 4.7617188 C 21.889941 4.8786709 21.36061 5.1367927 21.087891 5.3339844 C 20.458244 5.7892519 20.035698 5.8894183 18.605469 5.9257812 C 17.619477 5.9508679 17.366434 6.0215567 16.869141 6.4121094 C 16.524421 6.6828235 15.968964 6.9175211 15.509766 6.9863281 C 15.083029 7.0503274 14.652793 7.2016493 14.552734 7.3222656 C 14.4526 7.4428977 14.134874 7.5903256 13.845703 7.6503906 C 13.494607 7.7233594 13.003741 8.0981546 12.369141 8.7773438 C 11.846479 9.3367102 11.418017 9.8381801 11.417969 9.8925781 C 11.417904 9.9469766 11.133113 10.10359 10.785156 10.240234 C 10.136744 10.494936 8.8343459 11.984242 8.4121094 12.955078 C 8.2986979 13.2158 7.8261122 13.848384 7.3613281 14.359375 C 6.8965602 14.870366 6.310177 15.685043 6.0566406 16.169922 C 5.293911 17.628612 4.8152859 18.310326 4.4296875 18.486328 C 4.2284774 18.578174 3.8877312 18.919315 3.6738281 19.246094 C 3.1871874 19.989543 2.1226058 22.985687 2.0703125 23.759766 C 2.0487796 24.077934 1.9827606 25.03104 1.9238281 25.876953 C 1.8205841 27.358456 1.833465 27.432975 2.2382812 27.914062 C 2.73292 28.501923 2.7640808 28.824426 2.3691406 29.261719 C 1.9975302 29.673155 2.0176842 31.926643 2.4023438 33.001953 C 2.5459497 33.403484 2.6175461 33.873706 2.5625 34.046875 C 2.5073566 34.220514 2.5710142 34.487628 2.703125 34.640625 C 2.8348797 34.793182 3.0323239 35.289604 3.1425781 35.744141 C 3.2528324 36.198676 3.6685679 37.053627 4.0664062 37.644531 C 4.4795603 38.258149 4.8331503 39.003242 4.890625 39.380859 C 4.9459951 39.744488 5.0216804 40.189279 5.0585938 40.371094 C 5.1319022 40.731871 6.3941707 41.763255 7.6992188 42.527344 C 8.5867737 43.047012 11.366473 44.274204 11.707031 44.296875 C 11.820703 44.304485 11.914062 44.372646 11.914062 44.447266 C 11.914062 44.521952 12.197375 44.628234 12.542969 44.683594 C 12.888561 44.73885 13.353605 44.923445 13.576172 45.09375 C 13.816286 45.277427 14.114404 45.363781 14.310547 45.306641 C 14.974551 45.113476 15.014204 44.906549 14.519531 44.214844 C 14.352591 43.982614 14.356725 43.857954 14.535156 43.572266 C 14.721357 43.274722 14.720021 43.231024 14.533203 43.302734 C 14.393744 43.356243 14.299057 43.256599 14.279297 43.037109 C 14.261817 42.844142 14.197929 42.443891 14.136719 42.148438 C 14.047786 41.718456 14.077533 41.611328 14.291016 41.611328 C 14.43775 41.611328 14.558594 41.698645 14.558594 41.804688 C 14.558594 41.910738 14.606253 41.950368 14.664062 41.892578 C 14.721846 41.834827 14.644872 41.599251 14.494141 41.369141 C 14.343387 41.139032 14.267552 40.951172 14.326172 40.951172 C 14.384952 40.951172 14.340696 40.838633 14.226562 40.701172 C 14.080866 40.525512 13.957414 40.500472 13.814453 40.619141 C 13.662955 40.744857 13.616409 40.692062 13.630859 40.414062 C 13.643666 40.159926 13.768418 40.024221 14.021484 39.988281 C 14.356605 39.940684 14.475259 40.096054 14.412109 40.496094 C 14.401253 40.564413 14.467594 40.619141 14.558594 40.619141 C 14.786652 40.619141 14.766087 40.232886 14.525391 39.992188 C 14.416441 39.88307 14.388091 39.792969 14.462891 39.792969 C 14.537682 39.792969 14.498696 39.663054 14.376953 39.503906 C 14.255193 39.345194 14.221291 39.270531 14.300781 39.337891 C 14.380324 39.405252 14.547856 39.376421 14.671875 39.273438 C 14.84965 39.12586 14.874892 39.141357 14.794922 39.349609 C 14.722325 39.538773 14.817342 39.644466 15.128906 39.722656 C 15.368366 39.782753 15.538409 39.912146 15.505859 40.009766 C 15.4733 40.107406 15.692826 40.403408 15.994141 40.667969 C 16.639962 41.234994 16.7641 42.080991 16.222656 42.222656 C 16.034576 42.271826 15.940368 42.400121 15.992188 42.535156 C 16.047412 42.679054 15.905479 42.830347 15.613281 42.941406 C 15.24093 43.082988 15.196879 43.148927 15.390625 43.271484 C 15.570007 43.384832 15.576135 43.426034 15.416016 43.427734 C 15.297068 43.429127 15.246554 43.504713 15.302734 43.595703 C 15.453481 43.839615 15.919589 43.79879 15.794922 43.552734 C 15.737294 43.439179 15.796413 43.477075 15.925781 43.634766 C 16.055157 43.792448 16.210261 43.87177 16.269531 43.8125 C 16.32878 43.753237 16.376953 43.792395 16.376953 43.898438 C 16.376953 44.004499 16.47475 44.091797 16.59375 44.091797 C 16.976256 44.091797 17.411091 44.518551 17.431641 44.916016 C 17.442715 45.128447 17.5457 45.334367 17.662109 45.373047 C 17.778494 45.411871 17.853695 45.344896 17.828125 45.222656 C 17.795792 45.068134 18.032611 44.975459 18.607422 44.917969 C 19.416535 44.837049 19.435547 44.822505 19.435547 44.285156 C 19.435547 43.934333 19.539704 43.679622 19.724609 43.576172 C 19.883692 43.487144 20.013672 43.305608 20.013672 43.173828 C 20.013672 43.041937 20.086744 42.933594 20.177734 42.933594 C 20.268733 42.933594 20.325394 43.026974 20.302734 43.140625 C 20.257288 43.367707 20.629048 43.339775 21.314453 43.066406 C 21.562488 42.967485 21.661156 42.862229 21.542969 42.818359 C 21.429282 42.776167 21.335938 42.610322 21.335938 42.451172 C 21.335938 42.012034 21.145247 41.913591 20.912109 42.232422 C 20.755874 42.44592 20.751736 42.548489 20.894531 42.636719 C 21.038994 42.726007 21.038788 42.801055 20.894531 42.945312 C 20.64901 43.190835 20.364739 43.012173 20.164062 42.484375 C 20.038467 42.153872 20.067003 42.019537 20.298828 41.839844 C 20.459933 41.715023 20.721713 41.642947 20.880859 41.679688 C 21.331527 41.783594 21.223285 41.549572 20.587891 41.042969 C 20.137646 40.684003 20.047622 40.528371 20.189453 40.357422 C 20.324452 40.195537 20.323149 39.983416 20.183594 39.560547 C 19.947123 38.844057 20.140375 38.423661 20.886719 38.027344 C 21.312648 37.801169 21.358483 37.731007 21.117188 37.679688 C 20.95132 37.644408 20.672319 37.744651 20.498047 37.902344 C 20.162753 38.205743 19.1875 38.36859 19.1875 38.121094 C 19.1875 38.040789 19.25811 37.974609 19.34375 37.974609 C 19.43025 37.974609 19.469054 37.824869 19.433594 37.640625 C 19.395228 37.440883 19.437724 37.347496 19.539062 37.410156 C 19.63248 37.467889 19.818904 37.357689 19.953125 37.166016 C 20.087373 36.974406 20.296367 36.818359 20.416016 36.818359 C 20.542475 36.818359 20.677574 36.537589 20.740234 36.146484 C 20.799409 35.776316 21.021104 35.299211 21.234375 35.085938 C 21.835926 34.484447 21.868596 33.918006 21.333984 33.345703 C 21.084269 33.078373 20.844511 32.672172 20.800781 32.443359 C 20.67934 31.808124 21.222157 30.90468 21.873047 30.658203 C 22.184212 30.540355 22.277662 30.041016 21.988281 30.041016 C 21.891961 30.041016 21.857882 30.116211 21.914062 30.207031 C 22.029983 30.39467 21.963283 30.411914 21.623047 30.28125 C 21.384307 30.189632 21.417579 29.380859 21.660156 29.380859 C 21.72587 29.380859 21.860878 29.200105 21.960938 28.980469 C 22.104995 28.664488 22.094372 28.563588 21.908203 28.492188 C 21.776926 28.44174 21.714961 28.288465 21.769531 28.146484 C 21.839083 27.965124 21.763285 27.892578 21.503906 27.892578 C 21.279171 27.892578 21.106154 28.018403 21.052734 28.222656 C 20.972903 28.527893 20.801036 28.630042 20.457031 28.570312 C 20.382081 28.557355 20.366338 28.621764 20.423828 28.714844 C 20.481304 28.807982 20.455404 28.884766 20.365234 28.884766 C 20.275088 28.884766 20.153993 29.034961 20.095703 29.21875 C 20.028919 29.429157 19.519536 29.773605 18.720703 30.148438 C 18.022928 30.475849 17.287804 30.892113 17.087891 31.074219 C 16.683673 31.44242 16.117366 31.354042 16.273438 30.947266 C 16.325896 30.810881 16.302956 30.527752 16.222656 30.316406 C 16.137076 30.092289 16.138159 29.833897 16.224609 29.697266 C 16.306037 29.568576 16.3733 29.531031 16.375 29.613281 C 16.376393 29.695565 16.525218 29.627447 16.707031 29.462891 C 16.888807 29.298353 17.039062 29.206976 17.039062 29.259766 C 17.039062 29.43653 18.681284 28.779602 19.03125 28.462891 C 19.221454 28.290794 19.363183 28.222167 19.345703 28.310547 C 19.2762 28.66177 19.360716 28.898228 19.521484 28.798828 C 19.614913 28.741159 19.671574 28.570155 19.646484 28.417969 C 19.616775 28.238066 19.69705 28.15771 19.876953 28.1875 C 20.029189 28.212606 20.202126 28.15575 20.259766 28.0625 C 20.317449 27.969089 20.438307 27.892578 20.529297 27.892578 C 20.620117 27.892578 20.651889 27.962205 20.599609 28.046875 C 20.547305 28.1315 20.579425 28.247698 20.671875 28.304688 C 20.764261 28.361822 20.839844 28.290108 20.839844 28.146484 C 20.839844 28.002797 21.026629 27.800881 21.253906 27.697266 C 21.61447 27.532987 21.765671 27.172404 21.681641 26.683594 C 21.64774 26.48643 22.323387 25.578125 22.503906 25.578125 C 22.763545 25.578125 22.675414 26.006651 22.324219 26.453125 C 21.944237 26.936134 22.115323 27.154919 22.748047 26.996094 C 23.163389 26.891864 23.434835 26.281972 23.263672 25.835938 C 23.207481 25.688829 23.250333 25.625908 23.375 25.673828 C 23.493754 25.719403 23.589269 25.60397 23.605469 25.398438 C 23.644502 24.880371 24.08381 24.473592 24.90625 24.193359 C 25.696663 23.924021 25.772921 23.984049 25.369141 24.560547 C 25.070191 24.987753 25.126675 25.140134 25.527344 24.986328 C 25.676692 24.929017 25.798828 24.742397 25.798828 24.570312 C 25.798828 24.398259 25.874197 24.255859 25.966797 24.255859 C 26.142345 24.255859 26.033357 24.942859 25.777344 25.443359 C 25.590899 25.807878 25.780337 26.282437 26.068359 26.171875 C 26.205243 26.119353 26.294922 26.196388 26.294922 26.365234 C 26.294922 26.594387 26.339232 26.579915 26.542969 26.289062 C 26.724779 26.029633 26.750371 25.82413 26.636719 25.525391 C 26.551239 25.300626 26.523552 25.074104 26.576172 25.021484 C 26.62876 24.968882 26.568017 24.799805 26.441406 24.646484 C 26.262512 24.429917 26.257523 24.352908 26.417969 24.298828 C 26.531574 24.260588 26.622441 24.104663 26.619141 23.953125 C 26.614332 23.701683 26.595363 23.702921 26.396484 23.964844 C 26.276743 24.122594 26.132352 24.206571 26.076172 24.150391 C 26.019961 24.09418 26.121947 23.862104 26.300781 23.634766 C 26.479576 23.407407 26.625 23.118325 26.625 22.994141 C 26.625 22.870021 26.69481 22.769531 26.78125 22.769531 C 27.031955 22.769531 27.25177 23.281335 27.15625 23.646484 C 27.087653 23.908826 27.127769 23.95854 27.345703 23.875 C 27.576728 23.786311 27.59498 23.822532 27.455078 24.083984 C 27.362298 24.25717 27.328053 24.501662 27.376953 24.628906 C 27.42585 24.756174 27.386206 25.065832 27.291016 25.316406 C 27.059999 25.923922 27.200989 26.099365 27.746094 25.884766 C 29.218709 25.305031 29.715672 25.459631 28.615234 26.154297 C 28.141837 26.453151 27.947266 26.688779 27.947266 26.966797 C 27.947266 27.609128 28.503546 27.610873 29.070312 26.970703 C 29.339277 26.666878 29.610195 26.46957 29.671875 26.53125 C 29.733495 26.592828 29.85301 26.534115 29.9375 26.400391 C 30.066546 26.196492 30.09205 26.204659 30.09375 26.447266 C 30.095143 26.606351 30.20742 26.736328 30.34375 26.736328 C 30.480142 26.736328 30.591797 26.661313 30.591797 26.570312 C 30.591797 26.479496 30.671238 26.404297 30.767578 26.404297 C 30.864458 26.404297 30.900599 26.472278 30.849609 26.554688 C 30.79866 26.637108 30.905947 26.666731 31.087891 26.619141 C 31.270241 26.57146 31.417969 26.393315 31.417969 26.222656 C 31.417969 26.031322 31.759545 25.6855 32.3125 25.318359 C 32.844117 24.965384 33.293302 24.517948 33.417969 24.216797 L 33.628906 23.710938 L 33.845703 24.341797 C 34.037319 24.895301 34.031777 25.009357 33.791016 25.275391 C 33.479811 25.619288 33.53624 25.644975 34.123047 25.421875 C 34.417026 25.310168 34.555916 25.321708 34.603516 25.462891 C 34.6403 25.571979 34.723642 25.376378 34.789062 25.029297 C 34.879743 24.548759 35.043982 24.319673 35.476562 24.064453 C 35.921647 23.801867 36.025978 23.651512 35.955078 23.369141 C 35.892794 23.121013 35.989158 22.888503 36.267578 22.626953 C 36.757275 22.166848 36.93277 22.368184 36.664062 23.080078 C 36.461266 23.617343 36.598266 24.081588 36.998047 24.214844 C 37.241125 24.295875 37.903696 23.629009 37.822266 23.384766 C 37.787344 23.280016 37.962161 23.021819 38.210938 22.8125 C 38.556575 22.52166 38.661856 22.287893 38.660156 21.816406 C 38.658526 21.477063 38.669347 21.012431 38.685547 20.785156 C 38.711918 20.403482 38.724157 20.397733 38.855469 20.703125 C 38.970081 20.969706 38.999966 20.97962 39.009766 20.755859 C 39.023755 20.42202 39.489087 19.922487 39.677734 20.039062 C 39.833936 20.135604 40.34375 18.944568 40.34375 18.482422 C 40.34375 18.309981 40.499658 17.80849 40.689453 17.369141 C 40.938168 16.793 41.008586 16.376778 40.941406 15.875 C 40.87303 15.363959 40.901823 15.200672 41.050781 15.257812 C 41.162365 15.300635 41.34564 15.188197 41.457031 15.009766 C 41.620556 14.747841 41.612722 14.640065 41.421875 14.449219 C 41.291704 14.319213 41.220442 14.178156 41.263672 14.134766 C 41.373262 14.025191 40.907527 13.65736 40.164062 13.265625 C 39.819003 13.083796 38.904983 12.338585 38.132812 11.611328 C 36.641141 10.206403 34.536981 8.5546875 34.240234 8.5546875 C 34.142153 8.5546875 34.0625 8.4862067 34.0625 8.4023438 C 34.0625 8.3184794 33.811096 8.165802 33.503906 8.0644531 C 33.196733 7.9630709 32.821784 7.7420609 32.669922 7.5742188 C 32.518025 7.4063601 32.04446 7.1725506 31.617188 7.0546875 C 31.189932 6.9368237 30.355241 6.6424319 29.763672 6.4003906 C 28.578545 5.9154966 27.569029 5.6718918 26.996094 5.7304688 C 26.469157 5.7843575 23.811531 5.1115344 23.337891 4.8046875 C 23.168955 4.6952548 23.044307 4.638987 22.890625 4.6328125 z M 45.076172 5.2851562 C 45.409505 5.2851562 45.677951 5.4177518 45.882812 5.6816406 C 46.087673 5.9420573 46.189453 6.2886285 46.189453 6.7226562 C 46.189453 7.1601563 46.095269 7.501085 45.904297 7.7441406 C 45.713325 7.9871962 45.440104 8.109375 45.085938 8.109375 C 44.73177 8.109375 44.458116 7.9871962 44.263672 7.7441406 C 44.072699 7.501085 43.976562 7.1601562 43.976562 6.7226562 C 43.976563 6.2921007 44.073133 5.9455296 44.267578 5.6816406 C 44.465495 5.4177518 44.735894 5.2851562 45.076172 5.2851562 z M 27.828125 6.3046875 C 27.871534 6.2613565 27.949986 6.3402626 28.003906 6.4804688 C 28.11562 6.7717919 28.02039 6.8242505 27.857422 6.5605469 C 27.797362 6.4636657 27.784745 6.3480755 27.828125 6.3046875 z M 26.318359 6.7519531 C 26.380913 6.7214166 26.450818 6.803724 26.525391 6.9980469 C 26.683131 7.4093069 26.641364 7.8925781 26.449219 7.8925781 C 26.352889 7.8925781 26.319277 7.9638412 26.373047 8.0507812 C 26.426782 8.1377222 26.579484 8.1663944 26.712891 8.1152344 C 26.881213 8.0506522 26.955078 8.1348441 26.955078 8.3886719 C 26.955078 8.657278 27.025191 8.7274667 27.220703 8.6523438 C 27.411238 8.5792618 27.461068 8.622027 27.392578 8.8007812 C 27.309459 9.0174032 27.451709 9.115362 27.794922 9.078125 C 27.848107 9.0723614 27.99236 9.3235377 28.115234 9.6367188 C 28.238116 9.9498992 28.437324 10.207031 28.556641 10.207031 C 28.676088 10.207031 28.773438 10.311551 28.773438 10.439453 C 28.773438 10.590387 28.658216 10.642117 28.443359 10.585938 C 28.213466 10.525808 28.113281 10.57978 28.113281 10.765625 C 28.113281 10.912534 28.023179 11.033203 27.914062 11.033203 C 27.759771 11.033203 27.759771 11.078131 27.914062 11.232422 C 28.181493 11.499882 28.165293 11.968508 27.884766 12.076172 C 27.759489 12.124256 27.576142 12.083945 27.476562 11.984375 L 27.476562 11.982422 C 27.345488 11.851446 27.176607 11.857204 26.863281 12 C 26.520694 12.156523 26.443327 12.154336 26.498047 11.990234 C 26.536045 11.87624 26.420064 11.409086 26.238281 10.953125 C 25.884675 10.066137 25.856338 9.6035048 26.050781 7.8515625 C 26.126763 7.1668446 26.214103 6.8028473 26.318359 6.7519531 z M 22.521484 6.7636719 C 22.783687 6.7794128 22.896868 6.9890733 22.876953 7.3925781 C 22.861347 7.7083811 22.77589 7.9900652 22.6875 8.0195312 C 22.599122 8.048981 22.545529 8.2006916 22.568359 8.3554688 C 22.591189 8.5102438 22.578093 8.5433418 22.539062 8.4296875 C 22.446534 8.1605752 22.394799 8.1681125 21.998047 8.5078125 C 21.644308 8.8106961 21.526311 9.9345683 21.828125 10.121094 C 21.996506 10.225099 21.950057 11.133928 21.767578 11.316406 C 21.709795 11.374205 21.82527 11.593746 22.023438 11.804688 C 22.221579 12.015628 22.346271 12.225984 22.300781 12.271484 C 22.255238 12.317026 21.799297 11.918002 21.287109 11.384766 C 20.774902 10.851531 20.401664 10.367857 20.458984 10.310547 C 20.516393 10.253071 20.397641 10.207031 20.195312 10.207031 C 19.992956 10.207031 19.871558 10.276648 19.923828 10.361328 C 19.976127 10.445954 19.930577 10.569036 19.824219 10.634766 C 19.703289 10.709397 19.67634 10.681659 19.75 10.5625 C 19.814937 10.457478 19.776427 10.371094 19.666016 10.371094 C 19.540529 10.371094 19.57725 10.250724 19.761719 10.046875 C 19.976625 9.8093186 20.028082 9.5775818 19.951172 9.1933594 C 19.810592 8.4904519 20.135142 8.0225295 21.269531 7.296875 C 21.847904 6.9269004 22.259282 6.7479309 22.521484 6.7636719 z M 24.46875 6.859375 C 24.556858 6.8680461 24.667669 6.9125073 24.806641 6.984375 C 25.254569 7.2160061 25.262876 7.2446504 25.076172 7.8769531 C 24.838615 8.6815505 24.715533 8.8198325 24.570312 8.4414062 C 24.474791 8.1925327 24.436 8.1849891 24.304688 8.3925781 C 24.19525 8.5656011 24.150137 8.4371929 24.148438 7.9472656 C 24.145429 7.1258101 24.204426 6.8333618 24.46875 6.859375 z M 28.496094 8.7539062 C 28.530158 8.7582168 28.579337 8.7902724 28.638672 8.8496094 C 28.747232 8.9571923 28.795007 9.0819553 28.748047 9.1289062 C 28.637728 9.2392252 28.443359 9.0448406 28.443359 8.8242188 C 28.443359 8.7724106 28.462029 8.7495957 28.496094 8.7539062 z M 23.660156 9.3808594 C 23.756476 9.3808594 23.788602 9.4539349 23.732422 9.5449219 C 23.676208 9.6357311 23.596801 9.7109375 23.556641 9.7109375 C 23.516511 9.7109375 23.484375 9.6359089 23.484375 9.5449219 C 23.484375 9.4540963 23.563836 9.3808594 23.660156 9.3808594 z M 21.21875 9.4414062 C 21.188781 9.4546011 21.169922 9.4869908 21.169922 9.5351562 C 21.169922 9.6313573 21.244947 9.7109375 21.335938 9.7109375 C 21.426753 9.7109375 21.5 9.6788249 21.5 9.6386719 C 21.5 9.5986518 21.426938 9.5190696 21.335938 9.4628906 C 21.29053 9.4348017 21.248719 9.4282114 21.21875 9.4414062 z M 23.697266 9.9375 C 23.727212 9.9243052 23.768953 9.9308949 23.814453 9.9589844 C 23.905266 10.015178 23.980469 10.094616 23.980469 10.134766 C 23.980469 10.174756 23.905443 10.207031 23.814453 10.207031 C 23.723638 10.207031 23.650391 10.12758 23.650391 10.03125 C 23.650391 9.9830845 23.667319 9.9506948 23.697266 9.9375 z M 29.164062 10.130859 C 29.18928 10.105627 29.21025 10.152003 29.234375 10.265625 C 29.270131 10.434374 29.228705 10.644182 29.140625 10.732422 C 29.036995 10.835909 29.012709 10.727402 29.074219 10.425781 C 29.109505 10.252807 29.138845 10.156091 29.164062 10.130859 z M 35.714844 10.207031 C 35.805675 10.207031 35.880859 10.318757 35.880859 10.455078 C 35.880859 10.591446 35.805844 10.703125 35.714844 10.703125 C 35.62403 10.703125 35.550781 10.591398 35.550781 10.455078 C 35.550781 10.318694 35.623844 10.207031 35.714844 10.207031 z M 30.205078 10.238281 C 30.253098 10.230854 30.261719 10.29565 30.261719 10.429688 C 30.261719 10.828433 29.826177 11.264007 29.673828 11.017578 C 29.611561 10.916795 29.717316 10.677215 29.910156 10.484375 C 30.068724 10.325808 30.157059 10.245709 30.205078 10.238281 z M 26.941406 10.404297 C 26.843634 10.436823 26.770844 10.516141 26.777344 10.582031 C 26.785504 10.647941 26.789062 10.814853 26.789062 10.951172 C 26.789063 11.087558 26.864078 11.199219 26.955078 11.199219 C 27.045909 11.199219 27.119141 11.006321 27.119141 10.771484 C 27.119141 10.536647 27.039186 10.371757 26.941406 10.404297 z M 19.265625 10.865234 C 19.354525 10.850236 19.435547 10.911072 19.435547 11.060547 C 19.435547 11.166592 19.335132 11.287325 19.212891 11.328125 C 19.073839 11.374461 19.011105 11.299296 19.046875 11.126953 C 19.078963 10.972062 19.176725 10.880233 19.265625 10.865234 z M 27.378906 11.199219 C 27.338892 11.199219 27.259305 11.272451 27.203125 11.363281 C 27.146944 11.454095 27.179051 11.529297 27.275391 11.529297 C 27.371582 11.529297 27.451172 11.454271 27.451172 11.363281 C 27.451172 11.272307 27.419066 11.199219 27.378906 11.199219 z M 30.603516 11.447266 L 31 11.931641 C 31.218295 12.198712 31.384187 12.473506 31.367188 12.541016 C 31.350155 12.60843 31.474711 12.76596 31.644531 12.892578 C 32.244793 13.340344 32.546723 15.105689 31.986328 14.890625 C 31.855531 14.840468 31.748047 14.690539 31.748047 14.558594 C 31.748047 14.419209 31.82871 14.36902 31.939453 14.4375 C 32.057953 14.51068 32.085059 14.481955 32.011719 14.363281 C 31.930883 14.232621 31.800005 14.222749 31.595703 14.332031 C 31.431357 14.419941 31.248716 14.445982 31.191406 14.388672 C 31.133952 14.331205 31.087891 14.370522 31.087891 14.476562 C 31.087891 14.582622 31.145547 14.669922 31.216797 14.669922 C 31.287887 14.669922 31.33079 14.875008 31.3125 15.125 C 31.29419 15.375008 31.271519 15.689857 31.261719 15.826172 C 31.246565 16.027417 31.200601 16.019939 31.019531 15.78125 C 30.819026 15.516959 30.785159 15.512681 30.693359 15.751953 C 30.637185 15.89841 30.591797 16.210328 30.591797 16.445312 C 30.591797 16.680314 30.549034 16.830284 30.496094 16.777344 C 30.382702 16.663934 29.804058 17.200907 29.394531 17.800781 C 29.229629 18.042386 29.106198 18.532224 29.105469 18.945312 C 29.104434 19.623819 29.127901 19.661231 29.511719 19.587891 C 29.932797 19.507396 29.929606 19.624472 29.494141 20.134766 C 29.372825 20.276936 29.172561 20.687713 29.048828 21.044922 C 28.869306 21.56321 28.738435 21.697994 28.400391 21.710938 C 28.042614 21.724859 27.982066 21.660407 28.009766 21.296875 C 28.027743 21.060322 28.086532 20.791842 28.138672 20.701172 C 28.190814 20.61049 28.281554 20.336218 28.339844 20.091797 C 28.453337 19.61708 28.168037 19.274112 27.951172 19.625 C 27.852089 19.785891 27.795504 19.78369 27.691406 19.615234 C 27.613695 19.489517 27.639923 19.373987 27.753906 19.335938 C 28.081252 19.22685 27.97906 18.328126 27.603516 18.015625 C 27.21842 17.695174 26.883916 17.019507 26.941406 16.677734 C 26.962141 16.554436 26.907733 16.498654 26.820312 16.552734 C 26.372776 16.829325 26.306838 15.053636 26.751953 14.710938 C 26.960813 14.550107 26.977701 14.45817 26.824219 14.304688 C 26.5533 14.03378 26.575553 13.84375 26.878906 13.84375 C 27.018124 13.84375 27.176069 13.727597 27.230469 13.585938 C 27.287929 13.435904 27.43584 13.368961 27.583984 13.425781 C 27.724059 13.479529 27.899486 13.429232 27.972656 13.3125 C 28.045826 13.195771 28.060089 13.479579 28.005859 13.943359 C 27.917511 14.699337 27.944169 14.79503 28.25 14.875 C 28.675462 14.98629 28.772639 14.892758 28.787109 14.353516 C 28.797296 13.979789 28.814721 13.965961 28.925781 14.25 C 29.040562 14.543587 29.062226 14.532756 29.164062 14.126953 C 29.276828 13.677678 29.653294 13.525632 29.853516 13.849609 C 29.98838 14.067836 29.472083 14.877437 29.275391 14.755859 C 29.19506 14.706155 29.105472 14.833175 29.076172 15.039062 C 29.040181 15.292547 28.927959 15.396961 28.728516 15.363281 C 28.485145 15.322158 28.452322 15.390889 28.544922 15.759766 C 28.623927 16.07457 28.602488 16.172424 28.46875 16.089844 C 28.364518 16.025456 28.279297 15.865341 28.279297 15.734375 C 28.279297 15.603296 28.185917 15.496223 28.072266 15.496094 C 27.753338 15.495755 27.900422 17.340751 28.240234 17.603516 C 28.671667 17.937112 28.884766 17.844558 28.884766 17.322266 C 28.884766 17.05348 28.835941 16.862841 28.775391 16.900391 C 28.591398 17.014159 28.651914 16.421521 28.84375 16.232422 C 29.139834 15.940597 29.602464 15.815513 29.558594 16.039062 C 29.536947 16.149388 29.722665 16.264159 29.972656 16.292969 C 30.222662 16.321623 30.427734 16.264939 30.427734 16.167969 C 30.427734 16.070982 30.372847 16.000269 30.304688 16.011719 C 29.949917 16.067734 29.767831 15.962749 29.769531 15.703125 C 29.771684 15.455962 29.794663 15.450212 29.931641 15.662109 C 30.019778 15.798419 30.09205 15.828246 30.09375 15.728516 C 30.095142 15.628785 30.244636 15.376524 30.423828 15.169922 C 30.690973 14.861873 30.715323 14.732093 30.560547 14.443359 C 30.348452 14.047868 30.277174 12.68545 30.46875 12.685547 C 30.536921 12.685579 30.596309 12.40732 30.599609 12.066406 L 30.603516 11.447266 z M 33.689453 11.613281 C 33.849571 11.643881 34.008982 11.675141 34.044922 11.681641 C 34.080928 11.688603 33.911246 11.880163 33.666016 12.107422 C 33.17258 12.564661 33.070312 12.604134 33.070312 12.34375 C 33.070313 11.963834 33.413038 11.560501 33.689453 11.613281 z M 23.03125 12.646484 C 23.071587 12.64761 23.12328 12.669663 23.189453 12.705078 C 23.534167 12.889562 23.557988 13.041642 23.287109 13.3125 C 23.163572 13.436046 23.101661 13.989383 23.119141 14.806641 C 23.144865 16.016737 23.117438 16.133526 22.710938 16.503906 C 22.347126 16.835396 22.293289 16.848545 22.386719 16.589844 C 22.448248 16.419232 22.423158 16.188211 22.330078 16.076172 C 22.211372 15.933148 22.266493 15.633503 22.515625 15.070312 C 22.720058 14.608133 22.876313 13.903814 22.882812 13.408203 C 22.891179 12.828776 22.91024 12.643107 23.03125 12.646484 z M 21.669922 12.851562 C 21.762852 12.851563 21.804792 13.0368 21.763672 13.263672 C 21.720316 13.502734 21.794558 13.782844 21.941406 13.929688 C 22.137957 14.12617 22.151876 14.235352 22.001953 14.416016 C 21.894967 14.544096 21.844802 14.875826 21.888672 15.154297 C 21.973426 15.692086 21.88554 15.829674 21.724609 15.410156 C 21.64999 15.215555 21.574745 15.20129 21.398438 15.347656 C 21.21652 15.498628 21.166901 15.464728 21.150391 15.185547 C 21.139071 14.992591 21.11253 14.742557 21.09375 14.628906 C 21.074871 14.515285 21.160154 14.256028 21.28125 14.054688 C 21.40246 13.853348 21.5 13.499998 21.5 13.269531 C 21.5 13.039067 21.577142 12.851562 21.669922 12.851562 z M 26.523438 12.919922 C 26.582694 12.933647 26.625 13.02575 26.625 13.162109 C 26.625 13.343923 26.549984 13.539523 26.458984 13.595703 C 26.36817 13.651898 26.294922 13.549001 26.294922 13.367188 C 26.294922 13.185356 26.367984 12.989774 26.458984 12.933594 C 26.481688 12.919545 26.503685 12.915347 26.523438 12.919922 z M 22.074219 13.257812 C 22.084184 13.261518 22.094011 13.278228 22.105469 13.306641 C 22.151279 13.42028 22.151279 13.6051 22.105469 13.71875 C 22.059639 13.832387 22.023438 13.738995 22.023438 13.511719 C 22.023437 13.341347 22.044323 13.246696 22.074219 13.257812 z M 24.130859 13.347656 C 24.213259 13.347656 24.240949 13.49592 24.193359 13.677734 C 24.145921 13.859516 24.077759 14.007812 24.042969 14.007812 C 24.008179 14.007812 23.980469 13.859548 23.980469 13.677734 C 23.980469 13.495937 24.048449 13.347656 24.130859 13.347656 z M 28.464844 13.943359 C 28.509623 13.927067 28.54915 14.004173 28.5625 14.181641 C 28.575791 14.35957 28.524496 14.503906 28.447266 14.503906 C 28.370026 14.503906 28.322197 14.39545 28.341797 14.261719 C 28.370065 14.06911 28.420065 13.959652 28.464844 13.943359 z M 27.09375 15.382812 C 27.047329 15.366118 26.993872 15.390893 26.927734 15.457031 C 26.827694 15.557021 26.794909 15.76809 26.855469 15.925781 C 26.93548 16.134308 27.016161 16.163527 27.148438 16.03125 C 27.248488 15.931246 27.281253 15.720191 27.220703 15.5625 C 27.180699 15.458244 27.140171 15.399507 27.09375 15.382812 z M 32.259766 15.992188 C 32.342013 15.992188 32.410156 16.140452 32.410156 16.322266 C 32.410156 16.504042 32.380493 16.652344 32.345703 16.652344 C 32.310894 16.652344 32.244856 16.504079 32.197266 16.322266 C 32.149647 16.140473 32.177356 15.992188 32.259766 15.992188 z M 33.449219 16.054688 C 33.479165 16.041495 33.520906 16.046129 33.566406 16.074219 C 33.65722 16.13043 33.732422 16.20986 33.732422 16.25 C 33.732422 16.29013 33.657406 16.322266 33.566406 16.322266 C 33.475592 16.322266 33.402344 16.242804 33.402344 16.146484 C 33.402344 16.098324 33.419273 16.06788 33.449219 16.054688 z M 34.0625 16.15625 C 34.153314 16.15625 34.228516 16.261919 34.228516 16.390625 C 34.228516 16.519403 34.319942 16.658589 34.433594 16.699219 C 34.54751 16.739747 34.596559 16.820456 34.542969 16.878906 C 34.48938 16.937367 34.322767 16.848462 34.171875 16.681641 C 33.859654 16.336597 33.821948 16.15625 34.0625 16.15625 z M 33.332031 16.884766 C 33.35092 16.879155 33.372799 16.883047 33.394531 16.896484 C 33.481461 16.950202 33.510164 17.102921 33.458984 17.236328 C 33.3279 17.578064 33.236328 17.537774 33.236328 17.138672 C 33.236328 16.998358 33.275365 16.901597 33.332031 16.884766 z M 22.591797 17.074219 C 22.639628 17.065564 22.702647 17.073765 22.78125 17.103516 C 23.151289 17.243642 23.562517 17.644531 23.335938 17.644531 C 23.241407 17.644531 23.211571 17.768707 23.269531 17.919922 C 23.33736 18.097214 23.309933 18.154081 23.193359 18.082031 C 23.085882 18.015573 22.989411 18.123997 22.957031 18.345703 C 22.912659 18.650185 22.881526 18.667601 22.791016 18.445312 C 22.729836 18.295003 22.718515 18.024075 22.765625 17.84375 C 22.812917 17.663426 22.770625 17.46728 22.671875 17.40625 C 22.452816 17.270905 22.448303 17.100184 22.591797 17.074219 z M 34.291016 17.160156 C 34.422677 17.13254 34.563101 17.18913 34.65625 17.339844 C 34.729445 17.458034 34.702171 17.485139 34.583984 17.412109 C 34.461488 17.336454 34.392578 17.426125 34.392578 17.662109 C 34.392578 17.86441 34.340804 17.977522 34.277344 17.914062 C 34.213894 17.850614 34.068253 17.968386 33.953125 18.175781 C 33.837968 18.382779 33.734409 18.479662 33.724609 18.388672 C 33.714409 18.297764 33.680981 18.093066 33.650391 17.933594 C 33.619799 17.774089 33.657965 17.681246 33.734375 17.728516 C 33.810759 17.77571 33.920396 17.665565 33.978516 17.482422 C 34.036403 17.300025 34.159354 17.187772 34.291016 17.160156 z M 42.539062 17.541016 C 42.521686 17.558397 42.509859 17.616617 42.505859 17.712891 C 42.498739 17.88707 42.536917 17.984587 42.591797 17.929688 C 42.646697 17.874772 42.653219 17.732598 42.605469 17.613281 C 42.579084 17.547371 42.556439 17.523634 42.539062 17.541016 z M 31.208984 17.574219 C 31.28465 17.594743 31.299573 17.68614 31.273438 17.851562 C 31.26262 17.91988 31.331414 17.974609 31.427734 17.974609 C 31.523904 17.974609 31.549775 18.06799 31.484375 18.181641 C 31.418975 18.295311 31.427806 18.332632 31.503906 18.263672 C 31.656368 18.125249 32.410156 18.760434 32.410156 19.027344 C 32.410156 19.119545 32.253964 19.02583 32.0625 18.820312 L 31.712891 18.447266 L 31.480469 18.894531 C 31.306284 19.230246 31.297885 19.399073 31.4375 19.568359 C 31.568378 19.7276 31.570227 19.792969 31.441406 19.792969 C 31.080497 19.792969 30.750594 19.040156 30.863281 18.476562 L 30.972656 17.935547 L 30.53125 18.222656 C 30.130631 18.485821 30.099453 18.488224 30.195312 18.238281 C 30.253337 18.087097 30.51565 17.852133 30.777344 17.716797 C 30.996233 17.603665 31.133318 17.553695 31.208984 17.574219 z M 25.480469 17.853516 C 25.781504 17.830833 25.803094 17.902212 25.714844 18.673828 C 25.661666 19.138613 25.575591 19.586699 25.525391 19.667969 C 25.475098 19.749236 25.53548 19.801986 25.658203 19.785156 C 26.270706 19.701065 26.624747 19.809567 26.623047 20.082031 C 26.621103 20.304964 26.586832 20.32131 26.478516 20.150391 C 26.376412 19.989186 26.315266 20.048303 26.253906 20.369141 C 26.198387 20.659462 26.250007 20.841121 26.404297 20.900391 C 26.606138 20.977974 26.607445 21.028134 26.40625 21.259766 C 26.277829 21.40763 26.143192 21.625131 26.107422 21.742188 C 26.008858 22.065116 25.632812 21.631894 25.632812 21.195312 C 25.632812 21.002617 25.441204 20.678231 25.207031 20.474609 C 24.801082 20.121583 24.794934 20.08476 25.048828 19.697266 C 25.286814 19.334744 25.286932 19.280289 25.060547 19.193359 C 24.920998 19.139819 24.806641 19.025893 24.806641 18.939453 C 24.806641 18.852843 24.880843 18.827272 24.970703 18.882812 C 25.064613 18.940838 25.092146 18.873402 25.035156 18.724609 C 24.980605 18.582364 25.016977 18.368826 25.117188 18.248047 C 25.217324 18.127205 25.267373 17.993935 25.226562 17.953125 C 25.185795 17.912315 25.299174 17.866476 25.480469 17.853516 z M 33.261719 17.974609 C 33.345594 17.974609 33.334108 18.124003 33.236328 18.306641 C 33.13906 18.488417 33.031707 18.636719 32.998047 18.636719 C 32.964387 18.636719 32.975848 18.488456 33.023438 18.306641 C 33.070986 18.12485 33.178179 17.974609 33.261719 17.974609 z M 30.089844 18.636719 C 30.177924 18.636719 30.20854 18.748451 30.15625 18.884766 C 30.10395 19.021142 30.031874 19.132812 29.996094 19.132812 C 29.960454 19.132812 29.929688 19.021096 29.929688 18.884766 C 29.929688 18.748371 30.001764 18.636719 30.089844 18.636719 z M 17.650391 18.826172 C 17.65835 18.838386 17.614261 18.937998 17.521484 19.132812 C 17.280579 19.638783 17.203125 19.731485 17.203125 19.521484 C 17.203125 19.432793 17.319605 19.215519 17.460938 19.039062 C 17.582106 18.887842 17.642431 18.813958 17.650391 18.826172 z M 23.126953 19.109375 C 23.145266 19.124947 23.154297 19.15704 23.154297 19.207031 C 23.154297 19.383174 23.227113 19.436912 23.359375 19.357422 C 23.52445 19.258365 23.524994 19.286033 23.361328 19.488281 C 23.248219 19.627726 23.197194 19.781178 23.246094 19.830078 C 23.294939 19.878939 23.041781 20.151848 22.683594 20.435547 C 22.325422 20.719231 21.986691 20.951172 21.931641 20.951172 C 21.719278 20.951172 21.843935 20.439469 22.078125 20.349609 C 22.213947 20.297476 22.288671 20.195257 22.244141 20.123047 C 22.199554 20.050905 22.385838 19.754474 22.658203 19.462891 C 22.928118 19.173908 23.072016 19.06266 23.126953 19.109375 z M 24.638672 19.628906 C 24.708459 19.628906 24.765625 19.82997 24.765625 20.076172 C 24.765625 20.322374 24.840994 20.549138 24.933594 20.580078 C 25.168335 20.658323 24.980969 21.28125 24.722656 21.28125 C 24.49616 21.28125 24.325393 21.611621 24.208984 22.273438 C 24.16899 22.500714 24.10251 22.778926 24.0625 22.892578 C 24.022527 23.006267 23.798341 23.099609 23.5625 23.099609 C 23.212626 23.099609 23.141344 23.02995 23.183594 22.726562 C 23.228636 22.402673 23.167078 22.357706 22.699219 22.378906 C 22.108297 22.405701 22.098107 22.39469 22.308594 21.980469 C 22.388799 21.822615 22.518816 21.478742 22.597656 21.214844 C 22.703473 20.860784 22.907554 20.677687 23.376953 20.515625 C 23.969004 20.311074 24.017836 20.318139 24.097656 20.623047 C 24.144769 20.803275 24.257636 20.951172 24.347656 20.951172 C 24.437846 20.951172 24.467169 20.833077 24.412109 20.689453 C 24.294409 20.382781 24.455289 19.628906 24.638672 19.628906 z M 32.501953 19.708984 C 32.546885 19.717548 32.574219 19.74208 32.574219 19.78125 C 32.574219 19.859659 32.462487 19.965298 32.326172 20.017578 C 32.189779 20.069888 32.080078 20.049043 32.080078 19.970703 C 32.080078 19.892295 32.189842 19.786665 32.326172 19.734375 C 32.394359 19.70822 32.457021 19.700421 32.501953 19.708984 z M 41.527344 20.041016 C 41.495576 20.040187 41.457411 20.049774 41.414062 20.066406 C 41.219461 20.141027 41.205211 20.214331 41.351562 20.390625 C 41.606391 20.697526 41.666016 20.680231 41.666016 20.294922 C 41.666016 20.127045 41.622647 20.043502 41.527344 20.041016 z M 31.675781 20.619141 C 31.715911 20.619141 31.748047 20.694156 31.748047 20.785156 C 31.748047 20.87597 31.670539 20.951172 31.574219 20.951172 C 31.477899 20.951172 31.44382 20.875996 31.5 20.785156 C 31.556211 20.69434 31.635621 20.619141 31.675781 20.619141 z M 39.619141 20.675781 C 39.577599 20.680052 39.515362 20.717323 39.433594 20.785156 C 39.297202 20.898325 39.1875 21.045118 39.1875 21.111328 C 39.1875 21.334641 40.068294 21.200022 40.146484 20.964844 C 40.199763 20.804587 40.139101 20.764537 39.953125 20.835938 C 39.804398 20.892925 39.681641 20.859006 39.681641 20.759766 C 39.681641 20.70026 39.660682 20.671511 39.619141 20.675781 z M 41.353516 20.712891 C 41.272194 20.66265 41.163631 20.728243 41.113281 20.859375 C 41.052231 21.019018 41.101925 21.067219 41.261719 21.005859 C 41.539313 20.899311 41.5585 20.839502 41.353516 20.712891 z M 42.599609 21.119141 C 42.474024 21.109708 42.318537 21.160878 42.244141 21.28125 C 42.187589 21.372855 42.25629 21.564884 42.398438 21.707031 C 42.540684 21.849195 42.658203 22.039196 42.658203 22.128906 C 42.658203 22.218756 42.733079 22.245793 42.824219 22.189453 C 42.924119 22.127672 42.932153 21.977003 42.845703 21.808594 C 42.766603 21.655032 42.734581 21.435918 42.775391 21.322266 C 42.819379 21.199635 42.725195 21.128573 42.599609 21.119141 z M 42.259766 22.107422 C 42.1308 22.107422 42.045543 22.236525 42.070312 22.396484 C 42.094922 22.555566 42.061824 22.722088 41.996094 22.767578 C 41.930314 22.81304 41.823556 23.01811 41.759766 23.222656 C 41.567395 23.83906 41.968689 23.650642 42.242188 22.996094 C 42.552105 22.254375 42.555639 22.107422 42.259766 22.107422 z M 28.046875 22.4375 C 28.284848 22.4375 28.309747 22.511926 28.341797 23.347656 C 28.352369 23.622968 28.445538 23.826391 28.550781 23.806641 C 28.663541 23.785497 28.704647 23.903186 28.654297 24.095703 C 28.607757 24.273659 28.471504 24.420637 28.353516 24.421875 C 28.234941 24.422221 28.025085 24.464541 27.886719 24.517578 C 27.669293 24.600989 27.661206 24.543778 27.828125 24.101562 C 27.977536 23.705099 27.976722 23.514993 27.822266 23.267578 C 27.58981 22.895351 27.713278 22.4375 28.046875 22.4375 z M 41.160156 23.263672 C 41.063986 23.263672 41.041055 23.357052 41.109375 23.470703 C 41.206962 23.632672 41.180877 23.634266 40.988281 23.478516 C 40.78833 23.316862 40.73851 23.340654 40.71875 23.603516 C 40.691811 23.961169 40.702964 23.96865 41.074219 23.826172 C 41.365585 23.71438 41.434253 23.263672 41.160156 23.263672 z M 34.154297 23.595703 C 34.194417 23.595703 34.228516 23.668766 34.228516 23.759766 C 34.228516 23.850578 34.149074 23.925781 34.052734 23.925781 C 33.956404 23.925781 33.924289 23.850766 33.980469 23.759766 C 34.036682 23.66895 34.114137 23.595703 34.154297 23.595703 z M 21.75 23.810547 C 21.82892 23.799816 21.778136 23.875921 21.589844 24.083984 C 21.229828 24.481744 21.147962 24.507342 21.271484 24.185547 C 21.321122 24.056206 21.481906 23.906119 21.628906 23.849609 C 21.683791 23.82855 21.723693 23.814124 21.75 23.810547 z M 41.496094 24.009766 C 41.309831 23.976866 40.894531 24.395804 40.894531 24.669922 C 40.894531 24.805934 40.952838 24.916016 41.023438 24.916016 C 41.227414 24.916016 41.662218 24.217304 41.560547 24.052734 C 41.54516 24.02784 41.522703 24.014466 41.496094 24.009766 z M 29.820312 24.427734 C 29.871455 24.459215 29.840142 24.576825 29.681641 24.751953 C 29.517148 24.933744 29.453422 25.082031 29.539062 25.082031 C 29.62478 25.082031 29.711702 25.305387 29.732422 25.578125 C 29.776101 26.151285 29.683983 26.207164 29.441406 25.753906 C 29.213752 25.328592 29.223121 24.862818 29.466797 24.619141 C 29.635588 24.450369 29.76917 24.396254 29.820312 24.427734 z M 28.767578 24.751953 C 28.855658 24.751953 28.886274 24.86367 28.833984 25 C 28.781682 25.136394 28.709598 25.248047 28.673828 25.248047 C 28.638188 25.248047 28.607422 25.136331 28.607422 25 C 28.607422 24.863607 28.679498 24.751953 28.767578 24.751953 z M 35.714844 24.916016 C 35.624028 24.916016 35.550781 24.991031 35.550781 25.082031 C 35.550781 25.172862 35.623844 25.248047 35.714844 25.248047 C 35.805675 25.248047 35.880859 25.173021 35.880859 25.082031 C 35.880859 24.991217 35.805844 24.916016 35.714844 24.916016 z M 18.683594 24.927734 C 18.692559 24.95088 18.658215 25.005907 18.583984 25.097656 C 18.480142 25.226075 18.355541 25.480296 18.306641 25.662109 C 18.250851 25.869845 18.229417 25.811343 18.248047 25.507812 C 18.264351 25.242102 18.389076 24.989843 18.525391 24.945312 C 18.622852 24.91349 18.674629 24.904589 18.683594 24.927734 z M 39.826172 25.425781 C 39.815684 25.405956 39.751633 25.453785 39.626953 25.556641 C 39.475652 25.681401 39.351562 25.849867 39.351562 25.929688 C 39.351563 26.182171 39.49819 26.085783 39.703125 25.701172 C 39.793008 25.532548 39.83666 25.445607 39.826172 25.425781 z M 24.509766 25.587891 C 24.427132 25.582195 24.310007 25.645071 24.177734 25.777344 C 24.068598 25.886432 23.980469 26.034732 23.980469 26.107422 C 23.980469 26.266084 24.036714 26.269985 24.378906 26.138672 C 24.522655 26.083479 24.640625 25.935205 24.640625 25.808594 C 24.640625 25.667203 24.5924 25.593586 24.509766 25.587891 z M 36.273438 25.857422 C 36.203362 25.875664 36.120252 25.923545 36.029297 26.005859 C 35.856461 26.162237 35.714844 26.391431 35.714844 26.513672 C 35.714844 26.863198 36.342741 26.772534 36.458984 26.40625 C 36.581745 26.019432 36.483665 25.802696 36.273438 25.857422 z M 32.386719 25.943359 C 32.007935 25.870421 31.878482 26.345279 32.191406 26.658203 C 32.359279 26.826075 32.512243 26.864545 32.613281 26.763672 C 32.843795 26.533141 32.697177 26.003089 32.386719 25.943359 z M 33.283203 25.970703 C 33.265828 25.988085 33.254 26.046304 33.25 26.142578 C 33.24272 26.316759 33.281037 26.414275 33.335938 26.359375 C 33.390838 26.30446 33.397359 26.162287 33.349609 26.042969 C 33.323219 25.977059 33.300578 25.953322 33.283203 25.970703 z M 24.326172 26.503906 C 24.204265 26.489718 24.097769 26.5116 24.003906 26.566406 C 23.761618 26.707877 23.768071 26.725669 24.050781 26.730469 C 24.352013 26.735228 24.348674 26.756065 24.003906 27.123047 C 23.782693 27.358514 23.680681 27.617788 23.744141 27.783203 C 23.809113 27.952487 23.748814 28.09295 23.583984 28.15625 C 23.32444 28.255869 23.209682 29.049525 23.423828 29.263672 C 23.63323 29.473091 24.697266 27.689405 24.697266 27.128906 C 24.697266 27.002589 24.815058 26.89894 24.958984 26.898438 C 25.104839 26.89787 25.010698 26.789323 24.748047 26.652344 C 24.58575 26.567669 24.448079 26.518094 24.326172 26.503906 z M 27.195312 26.679688 L 26.917969 27.101562 C 26.765963 27.333599 26.688281 27.56914 26.744141 27.625 C 27.037327 27.91817 27.408564 27.549573 27.292969 27.080078 L 27.195312 26.679688 z M 20.949219 26.802734 C 21.009296 26.82299 21.024169 26.942226 20.947266 27.142578 C 20.893451 27.282856 20.770798 27.396484 20.673828 27.396484 C 20.551345 27.396484 20.553735 27.291765 20.681641 27.052734 C 20.784188 26.861069 20.889141 26.782479 20.949219 26.802734 z M 39.609375 26.900391 C 39.569377 26.900391 39.489774 26.975406 39.433594 27.066406 C 39.377397 27.157219 39.411473 27.230469 39.507812 27.230469 C 39.604019 27.230469 39.681641 27.157396 39.681641 27.066406 C 39.681641 26.97559 39.649535 26.900391 39.609375 26.900391 z M 30.519531 26.978516 C 30.364958 26.980323 30.261719 27.08336 30.261719 27.257812 C 30.261719 27.442828 30.712696 27.434719 30.828125 27.248047 C 30.878387 27.166612 30.816395 27.060449 30.689453 27.011719 C 30.628866 26.988466 30.571056 26.977913 30.519531 26.978516 z M 23.199219 27.066406 C 23.146245 27.066406 22.809582 27.362935 22.453125 27.726562 C 21.88546 28.305762 21.866608 28.493184 22.382812 28.402344 C 22.458913 28.388973 22.46906 28.612344 22.40625 28.898438 C 22.318526 29.297656 22.343671 29.400397 22.515625 29.341797 C 22.642362 29.298634 22.740234 29.033628 22.740234 28.730469 C 22.740234 28.393294 22.863602 28.09314 23.074219 27.919922 C 23.368617 27.677735 23.458697 27.066406 23.199219 27.066406 z M 36.71875 27.396484 C 36.630385 27.396484 36.368268 27.482332 36.136719 27.587891 C 35.709833 27.782416 35.635353 27.985206 35.816406 28.457031 C 35.937459 28.772521 36.06567 28.784229 36.408203 28.511719 C 36.711985 28.26992 36.955417 27.396484 36.71875 27.396484 z M 41.996094 27.5625 C 41.90528 27.5625 41.832031 27.676679 41.832031 27.818359 C 41.832031 27.959476 41.905094 28.030789 41.996094 27.974609 C 42.086925 27.91843 42.162109 27.802287 42.162109 27.716797 C 42.162109 27.631152 42.087094 27.5625 41.996094 27.5625 z M 28.980469 27.921875 C 28.954269 27.917646 28.95434 27.940047 28.984375 27.990234 C 29.044165 28.090175 28.909714 28.270644 28.685547 28.390625 C 28.461378 28.510593 28.277344 28.745658 28.277344 28.912109 C 28.277344 29.078586 28.352359 29.214844 28.443359 29.214844 C 28.534172 29.214844 28.607422 29.103127 28.607422 28.966797 C 28.607422 28.830406 28.754986 28.71875 28.933594 28.71875 C 29.112219 28.71875 29.344814 28.550249 29.451172 28.345703 C 29.557542 28.141174 29.585872 28.030296 29.513672 28.097656 C 29.441545 28.165034 29.268295 28.126524 29.128906 28.013672 C 29.058944 27.956922 29.006668 27.926104 28.980469 27.921875 z M 38.701172 28.552734 C 38.604965 28.552734 38.525391 28.62775 38.525391 28.71875 C 38.525392 28.80958 38.557496 28.884766 38.597656 28.884766 C 38.637668 28.884766 38.717258 28.80975 38.773438 28.71875 C 38.829619 28.627936 38.797512 28.552734 38.701172 28.552734 z M 33.054688 28.613281 C 33.002127 28.614252 32.942689 28.624288 32.878906 28.644531 C 32.493662 28.766816 31.740849 29.571616 31.546875 30.068359 C 31.464616 30.279103 31.503545 30.371094 31.671875 30.371094 C 31.805366 30.371094 31.914062 30.296078 31.914062 30.205078 C 31.914062 30.114247 31.994327 30.041016 32.091797 30.041016 C 32.189198 30.041016 32.377332 29.931262 32.511719 29.796875 C 32.646063 29.662548 32.912269 29.44314 33.101562 29.310547 C 33.50193 29.030109 33.42261 28.606484 33.054688 28.613281 z M 34.847656 28.761719 C 34.829612 28.744862 34.749395 28.749216 34.603516 28.769531 C 34.401319 28.797672 34.184084 28.872577 34.121094 28.935547 C 33.945693 29.110845 34.443873 29.065666 34.724609 28.880859 C 34.823018 28.816098 34.865701 28.778575 34.847656 28.761719 z M 25.132812 28.882812 C 24.821381 28.882812 24.310547 29.293367 24.310547 29.542969 C 24.310547 29.619954 24.356922 29.804332 24.414062 29.953125 C 24.505893 30.192381 24.561309 30.184144 24.894531 29.871094 C 25.407626 29.389067 25.529273 28.882812 25.132812 28.882812 z M 27.886719 28.962891 C 27.852734 28.946256 27.793354 28.953455 27.712891 28.984375 C 27.569002 29.039614 27.451172 29.157384 27.451172 29.246094 C 27.451172 29.463332 27.827746 29.327171 27.910156 29.080078 C 27.930289 29.019688 27.920704 28.979526 27.886719 28.962891 z M 25.724609 29.048828 C 25.684596 29.048828 25.606961 29.124024 25.550781 29.214844 C 25.494599 29.305658 25.526707 29.378906 25.623047 29.378906 C 25.719253 29.378906 25.798828 29.305844 25.798828 29.214844 C 25.798828 29.12403 25.764749 29.048828 25.724609 29.048828 z M 39.226562 29.267578 C 39.201002 29.293193 39.193806 29.405424 39.191406 29.619141 C 39.187733 29.974691 39.23605 30.056918 39.369141 29.923828 C 39.499738 29.793092 39.502093 29.656228 39.375 29.4375 C 39.297228 29.303738 39.252123 29.241963 39.226562 29.267578 z M 15.158203 29.380859 C 15.387744 29.380859 15.394583 29.422327 15.205078 29.669922 C 15.083273 29.829022 14.961287 29.989464 14.935547 30.027344 C 14.909827 30.065229 14.888672 29.935249 14.888672 29.738281 C 14.888672 29.5181 14.993354 29.380859 15.158203 29.380859 z M 30.705078 29.583984 C 30.676018 29.598979 30.635837 29.642772 30.591797 29.710938 C 30.503567 29.84729 30.431641 30.032047 30.431641 30.123047 C 30.431641 30.213894 30.503717 30.177331 30.591797 30.041016 C 30.680028 29.904663 30.751953 29.717953 30.751953 29.626953 C 30.751953 29.581539 30.734138 29.56899 30.705078 29.583984 z M 38.701172 29.710938 C 38.604965 29.710937 38.525391 29.78416 38.525391 29.875 C 38.525392 29.965813 38.557496 30.041016 38.597656 30.041016 C 38.637668 30.041016 38.717258 29.96599 38.773438 29.875 C 38.829619 29.784185 38.797512 29.710938 38.701172 29.710938 z M 23.111328 29.777344 C 23.069737 29.735737 22.941119 29.814534 22.826172 29.953125 C 22.695662 30.110188 22.683371 30.205078 22.792969 30.205078 C 22.992804 30.205078 23.225959 29.891975 23.111328 29.777344 z M 25.894531 29.777344 C 25.789007 29.782789 25.565228 29.917194 25.306641 30.175781 C 24.725174 30.757331 24.145878 31.003965 24.142578 30.671875 C 24.1408 30.52194 24.103221 30.51173 24.019531 30.638672 C 23.95273 30.740054 23.748221 30.871411 23.566406 30.931641 C 22.925346 31.144119 21.996094 32.167347 21.996094 32.660156 C 21.996094 32.836627 22.050702 32.847722 22.222656 32.705078 C 22.405144 32.553683 22.431787 32.595853 22.367188 32.933594 C 22.323328 33.16299 22.222548 33.391876 22.142578 33.441406 C 21.909133 33.585662 21.973946 33.841797 22.244141 33.841797 C 22.380537 33.841797 22.496347 33.748417 22.498047 33.634766 C 22.500962 33.514486 22.570003 33.545778 22.664062 33.707031 C 22.872799 34.064798 23.538231 33.889333 24.628906 33.189453 C 25.570875 32.584979 25.857819 32.101298 25.75 31.300781 C 25.705302 30.969985 25.735466 30.657612 25.816406 30.607422 C 25.897527 30.557345 25.962891 30.442383 25.962891 30.351562 C 25.962891 30.260742 25.871464 30.242387 25.757812 30.310547 C 25.621161 30.392743 25.628902 30.33808 25.78125 30.150391 C 25.988944 29.894463 26.000056 29.771899 25.894531 29.777344 z M 35.949219 29.955078 C 35.649915 29.952227 34.888672 30.391906 34.888672 30.611328 C 34.888672 30.752133 34.959122 30.867188 35.044922 30.867188 C 35.261771 30.867187 36.148396 30.087848 36.046875 29.986328 C 36.026541 29.965969 35.991976 29.955485 35.949219 29.955078 z M 36.376953 30.867188 C 36.286139 30.867188 36.210938 30.978904 36.210938 31.115234 C 36.210938 31.251626 36.285953 31.363281 36.376953 31.363281 C 36.467784 31.363281 36.541016 31.251549 36.541016 31.115234 C 36.541016 30.978858 36.467793 30.867188 36.376953 30.867188 z M 30.28125 31.527344 C 30.190344 31.527344 30.069852 31.602359 30.013672 31.693359 C 29.957504 31.784174 29.985172 31.859375 30.076172 31.859375 C 30.167079 31.859375 30.28757 31.784359 30.34375 31.693359 C 30.399917 31.602544 30.37225 31.527344 30.28125 31.527344 z M 16.939453 31.910156 C 17.010175 31.879123 17.037109 31.955996 17.037109 32.15625 C 17.037109 32.555337 16.952218 32.618436 16.78125 32.341797 C 16.720055 32.24297 16.752327 32.077737 16.853516 31.976562 C 16.887275 31.942798 16.915879 31.920501 16.939453 31.910156 z M 19.298828 31.939453 C 19.334043 31.960299 19.351562 32.011576 19.351562 32.091797 C 19.351562 32.230319 19.204314 32.422731 19.023438 32.519531 C 18.612975 32.739198 18.136791 33.622628 18.355469 33.757812 C 18.456425 33.820177 18.454856 34.007014 18.353516 34.273438 C 18.148645 34.81236 18.154635 34.879771 18.386719 34.736328 C 18.504899 34.663149 18.532004 34.690407 18.458984 34.808594 C 18.306768 35.054808 18.311176 35.057268 17.826172 34.675781 C 17.244207 34.217925 16.95879 33.473158 17.195312 33.03125 C 17.428141 32.596192 17.989319 32.226177 18.525391 32.154297 C 18.752666 32.123827 19.03088 32.03998 19.144531 31.96875 C 19.210272 31.927535 19.263613 31.918607 19.298828 31.939453 z M 34.486328 32.685547 C 34.344575 32.685547 34.228516 32.758789 34.228516 32.849609 C 34.228516 32.940422 34.297342 33.015625 34.382812 33.015625 C 34.468362 33.015625 34.584445 32.940609 34.640625 32.849609 C 34.696757 32.758644 34.628008 32.685547 34.486328 32.685547 z M 35.708984 33.201172 C 35.645658 33.202928 35.559418 33.215675 35.447266 33.234375 C 34.68753 33.361144 34.116445 33.6308 34.007812 33.914062 C 33.882678 34.240144 34.049454 35.171454 34.287109 35.472656 C 34.405258 35.62258 34.484581 35.636064 34.525391 35.513672 C 34.559001 35.412851 34.689328 35.330078 34.816406 35.330078 C 34.943466 35.330078 35.096177 35.12696 35.154297 34.876953 C 35.212387 34.62696 35.357064 34.342594 35.476562 34.246094 C 35.595997 34.149567 35.745444 33.864955 35.808594 33.613281 C 35.889803 33.289668 35.898962 33.195902 35.708984 33.201172 z M 28.525391 33.384766 C 28.180332 33.413325 28.111328 33.503666 28.111328 33.933594 C 28.111328 34.21679 28.167495 34.503433 28.234375 34.570312 C 28.401261 34.737201 28.939453 34.042321 28.939453 33.660156 C 28.939453 33.430077 28.831611 33.359356 28.525391 33.384766 z M 20.685547 33.511719 C 20.780577 33.511719 20.813993 33.586734 20.757812 33.677734 C 20.701632 33.768548 20.780762 33.84375 20.933594 33.84375 C 21.161894 33.84375 21.172945 33.88814 21.003906 34.091797 C 20.890736 34.22819 20.854195 34.337891 20.921875 34.337891 C 20.989546 34.337891 20.952697 34.450105 20.839844 34.585938 C 20.727569 34.721821 20.67308 34.975927 20.71875 35.150391 C 20.828666 35.570685 20.178709 35.766427 19.902344 35.396484 C 19.728333 35.163558 19.632175 35.171423 18.951172 35.472656 C 18.534845 35.656818 18.195312 35.886412 18.195312 35.982422 C 18.195312 36.078479 18.114548 36.15625 18.017578 36.15625 C 17.771521 36.15625 18.013489 35.462247 18.34375 35.21875 C 18.489624 35.111213 18.840234 34.979851 19.125 34.925781 C 19.487867 34.85694 19.773284 34.630596 20.078125 34.169922 C 20.317365 33.808415 20.590517 33.511719 20.685547 33.511719 z M 32.636719 33.570312 C 32.322749 33.551563 31.748047 33.914071 31.748047 34.179688 C 31.748047 34.335778 31.63633 34.556738 31.5 34.669922 C 31.363606 34.783089 31.251953 35.017992 31.251953 35.191406 C 31.251953 35.490186 31.278131 35.486094 31.748047 35.138672 C 32.205983 34.800122 32.315012 34.622165 32.263672 34.296875 C 32.252973 34.228721 32.300981 34.181909 32.369141 34.193359 C 32.857525 34.270486 33.136095 33.840927 32.751953 33.603516 C 32.720142 33.583855 32.681572 33.572991 32.636719 33.570312 z M 14.523438 33.769531 C 14.54698 33.774178 14.570364 33.789118 14.595703 33.814453 C 14.681863 33.90172 14.719161 34.110549 14.675781 34.279297 C 14.632381 34.448157 14.589575 34.490095 14.578125 34.371094 C 14.567586 34.252207 14.490613 34.195254 14.408203 34.246094 C 14.325793 34.297043 14.298436 34.185997 14.347656 33.998047 C 14.390472 33.834285 14.45281 33.75559 14.523438 33.769531 z M 16.503906 33.84375 C 16.902771 33.84375 16.881647 35.088788 16.472656 35.705078 C 16.209858 36.100894 16.204848 36.147804 16.4375 36.058594 C 16.75211 35.937879 16.795036 36.169809 16.509766 36.455078 C 16.265994 36.698995 15.820772 36.719791 15.96875 36.480469 C 16.02795 36.385208 16.032106 36.192455 15.978516 36.052734 C 15.895477 35.836369 15.770072 35.858895 15.136719 36.212891 C 14.517777 36.558855 14.392578 36.585466 14.392578 36.365234 C 14.392578 36.219702 14.515611 35.965083 14.666016 35.798828 C 14.864835 35.579139 14.881815 35.496094 14.724609 35.496094 C 14.600691 35.496094 14.668692 35.355352 14.884766 35.167969 C 15.26961 34.834087 15.738633 34.878555 15.400391 35.216797 C 15.119681 35.497516 15.187667 35.857732 15.509766 35.794922 C 15.668855 35.763902 15.801388 35.590446 15.804688 35.410156 C 15.807946 35.229847 15.85411 35.008789 15.90625 34.917969 C 15.958478 34.827158 16.049645 34.546883 16.109375 34.296875 C 16.176045 34.01792 16.328326 33.843766 16.503906 33.84375 z M 35.642578 34.337891 C 35.602565 34.337891 35.522977 34.412906 35.466797 34.503906 C 35.4106 34.594721 35.444676 34.667969 35.541016 34.667969 C 35.637206 34.667969 35.714844 34.594906 35.714844 34.503906 C 35.714844 34.413091 35.682738 34.337891 35.642578 34.337891 z M 13.193359 34.455078 C 13.256523 34.435661 13.328504 34.437129 13.412109 34.458984 C 13.80501 34.561792 13.804479 34.650377 13.410156 35.123047 L 13.412109 35.123047 C 13.032558 35.57813 12.90625 35.593522 12.90625 35.179688 C 12.90625 34.75765 13.003868 34.513331 13.193359 34.455078 z M 27.083984 34.724609 C 26.541377 34.783226 25.886549 35.386615 25.992188 35.941406 C 26.031189 36.146226 26.254709 36.270544 26.708984 36.339844 C 27.204868 36.415443 27.25497 36.447194 26.910156 36.464844 C 26.430525 36.489372 26.272931 36.731752 26.076172 37.757812 C 25.997261 38.16933 26.038528 38.299302 26.259766 38.357422 C 27.162733 38.594768 27.715447 38.389551 28.095703 37.675781 C 28.292854 37.305726 28.204912 36.322946 27.974609 36.322266 C 27.913567 36.322089 27.844603 36.044162 27.820312 35.705078 C 27.79598 35.366007 27.677254 34.989739 27.556641 34.869141 C 27.432633 34.745133 27.264854 34.70507 27.083984 34.724609 z M 30.921875 34.916016 C 30.831043 34.972211 30.757812 35.088338 30.757812 35.173828 C 30.757812 35.259473 30.830885 35.330078 30.921875 35.330078 C 31.012688 35.330078 31.087891 35.213931 31.087891 35.072266 C 31.087891 34.931149 31.012875 34.859836 30.921875 34.916016 z M 24.384766 35.166016 C 24.243038 35.166016 24.16776 35.232043 24.21875 35.314453 C 24.2697 35.396713 24.173318 35.428966 24.003906 35.384766 C 23.673182 35.2981 23.383419 35.744984 23.660156 35.916016 C 23.748716 35.970674 23.778852 36.083309 23.726562 36.167969 C 23.673643 36.252596 23.676242 36.397281 23.732422 36.488281 C 23.891196 36.745133 24.147344 36.682404 24.246094 36.363281 C 24.295328 36.204197 24.403921 35.944963 24.488281 35.787109 C 24.711165 35.369714 24.677692 35.166016 24.384766 35.166016 z M 22.470703 35.185547 C 22.402489 35.173359 22.322926 35.173962 22.232422 35.191406 C 21.943105 35.24715 21.601278 36.084224 21.761719 36.34375 C 21.806548 36.416287 22.025773 36.392356 22.248047 36.291016 C 22.879499 36.003367 22.948199 35.270862 22.470703 35.185547 z M 19.253906 35.880859 C 19.391994 35.880859 19.447135 35.981576 19.390625 36.128906 C 19.323695 36.303121 19.361495 36.337378 19.515625 36.242188 C 19.656812 36.154773 19.693134 36.170534 19.621094 36.287109 C 19.55975 36.386482 19.625898 36.532008 19.767578 36.611328 C 19.983877 36.732332 19.957505 36.792066 19.605469 36.980469 C 19.332536 37.126568 19.1875 37.345159 19.1875 37.607422 C 19.1875 37.89778 19.118063 37.984666 18.939453 37.916016 C 18.803076 37.863738 18.691406 37.892389 18.691406 37.980469 C 18.691406 38.068539 18.518709 38.140625 18.308594 38.140625 C 18.098463 38.140625 17.76742 38.288888 17.572266 38.470703 C 17.163209 38.851738 16.873047 38.897931 16.873047 38.582031 C 16.873047 38.461511 16.689303 38.191344 16.464844 37.980469 C 16.071163 37.610671 16.047339 37.231308 16.425781 37.357422 C 16.526937 37.391146 16.785545 37.227601 17 36.994141 L 17.388672 36.570312 L 17.138672 36.984375 C 16.794698 37.551061 17.011417 37.892988 17.5 37.550781 C 17.700044 37.410654 17.865234 37.184329 17.865234 37.048828 C 17.865234 36.741362 18.680843 35.966615 18.876953 36.087891 C 18.956275 36.137108 19.021484 36.110417 19.021484 36.029297 C 19.021484 35.948195 19.126165 35.880859 19.253906 35.880859 z M 17.046875 36.15625 C 17.143195 36.15625 17.177274 36.231276 17.121094 36.322266 C 17.0649 36.41308 16.985473 36.488281 16.945312 36.488281 C 16.905183 36.488281 16.873047 36.413266 16.873047 36.322266 C 16.873047 36.231452 16.950555 36.15625 17.046875 36.15625 z M 10.664062 36.177734 C 10.765423 36.177793 10.757812 36.2568 10.757812 36.414062 C 10.757812 36.555822 10.824663 36.629765 10.908203 36.578125 C 11.070977 36.477504 11.583984 36.911653 11.583984 37.150391 C 11.583984 37.229447 11.509119 37.340144 11.417969 37.396484 C 11.307116 37.464935 11.306905 37.603073 11.417969 37.810547 C 11.514139 37.990242 11.521517 38.159771 11.435547 38.212891 C 11.353933 38.26334 11.245489 38.192474 11.193359 38.056641 C 11.037384 37.650189 10.757812 37.776623 10.757812 38.253906 C 10.757812 38.63633 10.728402 38.663819 10.550781 38.443359 C 10.326807 38.16543 9.6896103 37.882705 9.8417969 38.128906 C 9.8927955 38.211428 9.8156435 38.397256 9.671875 38.541016 C 9.4336715 38.779109 9.4432472 38.800781 9.7714844 38.800781 C 10.025763 38.800781 10.102826 38.876295 10.035156 39.052734 C 9.9612487 39.245371 10.034415 39.284053 10.351562 39.226562 C 10.588274 39.183665 10.721876 39.220037 10.666016 39.310547 C 10.612427 39.397327 10.504141 39.429279 10.425781 39.380859 C 10.347438 39.332459 10.233062 39.376362 10.169922 39.478516 C 10.088453 39.610436 10.008196 39.598764 9.8964844 39.439453 C 9.7742819 39.265084 9.721496 39.26127 9.65625 39.421875 C 9.6101409 39.535562 9.3105547 39.626953 8.9902344 39.626953 C 8.5403613 39.626953 8.4304052 39.570387 8.5039062 39.378906 C 8.6196166 39.07741 8.4260599 39.056636 8.1230469 39.337891 C 7.968754 39.481098 7.9331876 39.484137 8.0097656 39.347656 C 8.0898579 39.205013 7.9639032 39.177131 7.5507812 39.244141 C 6.9314308 39.344632 6.8770972 39.207715 7.2597656 38.511719 C 7.3722856 38.307175 7.4053834 38.138419 7.3339844 38.136719 C 7.2627493 38.135408 7.295682 38.077259 7.4082031 38.005859 C 7.5678209 37.903879 7.5707924 37.763383 7.4160156 37.353516 C 7.3077036 37.066223 7.2808439 36.772752 7.3574219 36.701172 C 7.4338885 36.629594 7.5295145 36.663196 7.5703125 36.777344 C 7.6110791 36.891749 7.7108746 36.944061 7.7910156 36.894531 C 7.8711079 36.844988 8.2185423 36.775201 8.5625 36.738281 C 8.9064579 36.701451 9.5123665 36.555562 9.9101562 36.414062 C 10.351698 36.257052 10.562702 36.177676 10.664062 36.177734 z M 10.519531 36.322266 C 10.479363 36.322266 10.39993 36.397461 10.34375 36.488281 C 10.287566 36.579097 10.319686 36.652344 10.416016 36.652344 C 10.512213 36.652344 10.591797 36.579281 10.591797 36.488281 C 10.591797 36.397451 10.559681 36.322266 10.519531 36.322266 z M 19.425781 36.486328 C 19.256608 36.434073 18.890281 36.609794 18.660156 36.902344 C 18.474406 37.138536 18.25072 37.267222 18.140625 37.201172 C 18.02761 37.133304 18.038947 37.198112 18.167969 37.357422 C 18.292129 37.510629 18.332626 37.723453 18.259766 37.84375 C 18.188464 37.961372 18.442569 37.763945 18.824219 37.404297 C 19.205882 37.044668 19.517578 36.691341 19.517578 36.619141 C 19.517578 36.546994 19.482172 36.503747 19.425781 36.486328 z M 23.572266 36.882812 C 23.428258 36.903871 23.312753 36.972666 23.314453 37.035156 C 23.317633 37.097631 23.325531 37.278353 23.332031 37.4375 C 23.342367 37.666741 23.36482 37.675031 23.4375 37.478516 C 23.487982 37.342163 23.597951 37.145435 23.681641 37.039062 C 23.785529 36.907103 23.750858 36.856572 23.572266 36.882812 z M 20.785156 36.988281 C 20.657408 37.0014 20.503917 37.091363 20.445312 37.244141 C 20.375761 37.425323 20.427387 37.486309 20.619141 37.449219 C 20.77039 37.419883 20.925171 37.303104 20.962891 37.189453 C 21.013484 37.037471 20.912905 36.975162 20.785156 36.988281 z M 14.46875 37.148438 C 14.52202 37.148438 14.531194 37.332809 14.490234 37.558594 C 14.449261 37.784398 14.497103 38.019048 14.595703 38.080078 C 14.702233 38.145807 14.727503 38.113992 14.658203 38.001953 C 14.582701 37.879893 14.631705 37.848649 14.796875 37.912109 C 14.937364 37.966037 15.011297 38.076773 14.960938 38.158203 C 14.743733 38.509639 13.732422 38.152563 13.732422 37.724609 C 13.732422 37.518284 14.205078 37.148438 14.46875 37.148438 z M 22.203125 38.169922 C 21.842113 38.131825 21.732972 38.401065 21.701172 39.132812 L 21.664062 40 L 22.201172 39.892578 C 23.366175 39.659572 23.638532 38.71156 22.65625 38.304688 C 22.473452 38.228971 22.323462 38.182621 22.203125 38.169922 z M 5.8671875 38.490234 C 5.9966611 38.421983 6.2829691 38.579729 6.5078125 38.888672 L 6.8046875 39.296875 L 6 39.296875 C 5.55636 39.296875 5.1440595 39.249526 5.0859375 39.191406 C 4.9136106 39.019079 5.1335217 38.800781 5.4785156 38.800781 C 5.654939 38.800781 5.7988281 38.727719 5.7988281 38.636719 C 5.7988281 38.560451 5.8240296 38.512985 5.8671875 38.490234 z M 11.943359 38.673828 C 12.026014 38.73379 12.080712 38.923963 12.123047 39.255859 C 12.229707 40.091427 12.003664 40.28015 11.669922 39.634766 C 11.457183 39.223295 11.440754 39.057453 11.59375 38.873047 C 11.749758 38.685072 11.860705 38.613866 11.943359 38.673828 z M 14.402344 38.800781 C 14.498684 38.800781 14.532742 38.875797 14.476562 38.966797 C 14.420366 39.057761 14.340941 39.132812 14.300781 39.132812 C 14.260631 39.132813 14.228516 39.057787 14.228516 38.966797 C 14.228516 38.875982 14.306004 38.800781 14.402344 38.800781 z M 31.841797 39.132812 C 31.700042 39.132812 31.583984 39.205875 31.583984 39.296875 C 31.583984 39.387688 31.652811 39.462891 31.738281 39.462891 C 31.82383 39.462891 31.939914 39.387875 31.996094 39.296875 C 32.052225 39.206045 31.983462 39.132812 31.841797 39.132812 z M 15.169922 40.195312 C 15.120118 40.188308 15.066547 40.210802 15.011719 40.265625 C 14.894652 40.382762 14.907021 40.594406 15.050781 40.941406 C 15.313255 41.575147 15.523029 41.593835 15.474609 40.978516 C 15.437259 40.503688 15.319333 40.216325 15.169922 40.195312 z M 12.65625 40.320312 C 13.163328 40.301242 13.226294 40.343493 13.177734 40.666016 C 13.105688 41.145048 12.552031 41.2239 12.285156 40.792969 C 12.005343 40.341076 12.002545 40.344923 12.65625 40.320312 z M 30.095703 40.619141 C 30.004704 40.619141 29.949976 40.712521 29.972656 40.826172 C 29.995388 40.939837 29.915385 41.013371 29.794922 40.988281 C 29.674191 40.963183 29.625167 41.021511 29.685547 41.119141 C 29.762451 41.243475 29.863761 41.239183 30.027344 41.103516 C 30.298182 40.878814 30.334912 40.619141 30.095703 40.619141 z M 21.5625 40.785156 C 21.342804 40.785156 21.331479 40.830148 21.5 41.033203 C 21.613216 41.169597 21.735201 41.28125 21.769531 41.28125 C 21.804011 41.28125 21.832031 41.169518 21.832031 41.033203 C 21.832031 40.896811 21.709982 40.785156 21.5625 40.785156 z M 15.146484 41.941406 C 15.106471 41.941406 15.028836 42.016582 14.972656 42.107422 C 14.916475 42.198237 14.948582 42.273438 15.044922 42.273438 C 15.14113 42.273438 15.220703 42.198422 15.220703 42.107422 C 15.220703 42.016608 15.186644 41.941406 15.146484 41.941406 z M 26.652344 42.28125 C 26.424733 42.291779 26.371519 42.517066 26.666016 42.851562 C 26.915018 43.134366 26.966827 43.140747 27.285156 42.927734 C 27.499835 42.784144 27.490615 42.729457 27.212891 42.517578 C 26.988244 42.346192 26.78891 42.274932 26.652344 42.28125 z M 19.341797 43.144531 C 19.557567 43.128261 19.633476 43.197952 19.572266 43.357422 C 19.459226 43.651949 19.021484 43.672454 19.021484 43.382812 C 19.021484 43.265821 19.165148 43.157491 19.341797 43.144531 z M 23.519531 44.273438 C 23.454115 44.273342 23.395226 44.290321 23.357422 44.328125 C 23.295827 44.389761 23.354558 44.50926 23.488281 44.59375 C 23.808246 44.796285 23.980469 44.791953 23.980469 44.582031 C 23.980469 44.422227 23.71578 44.273723 23.519531 44.273438 z M 21.943359 44.4375 C 21.883137 44.433833 21.806143 44.439757 21.707031 44.451172 C 21.343729 44.492991 21.262052 44.579163 21.294922 44.884766 C 21.31742 45.094682 21.26877 45.225971 21.1875 45.175781 C 21.020727 45.072651 20.811327 45.494921 20.957031 45.640625 C 21.008904 45.692415 21.133336 45.681458 21.234375 45.617188 C 21.33532 45.552913 21.45451 45.494175 21.5 45.484375 C 21.876144 45.407877 22.0957 45.175182 22.125 44.820312 C 22.147791 44.544933 22.124025 44.4485 21.943359 44.4375 z M 19.667969 45.433594 C 19.610548 45.431247 19.545987 45.440969 19.486328 45.464844 C 19.354508 45.517624 19.39339 45.556453 19.585938 45.564453 C 19.760134 45.571733 19.857614 45.533396 19.802734 45.478516 C 19.775269 45.451066 19.725389 45.43594 19.667969 45.433594 z "
     id="path1040" />
</svg>
