<?xml version="1.0" encoding="UTF-8" standalone="no"?>
<svg
   xmlns:dc="http://purl.org/dc/elements/1.1/"
   xmlns:cc="http://creativecommons.org/ns#"
   xmlns:rdf="http://www.w3.org/1999/02/22-rdf-syntax-ns#"
   xmlns:svg="http://www.w3.org/2000/svg"
   xmlns="http://www.w3.org/2000/svg"
   xmlns:sodipodi="http://sodipodi.sourceforge.net/DTD/sodipodi-0.dtd"
   xmlns:inkscape="http://www.inkscape.org/namespaces/inkscape"
   id="svg951"
   version="1.1"
   viewBox="0 0 27.081752 26.688241"
   height="26.688242mm"
   width="27.081753mm"
   sodipodi:docname="bad.svg"
   inkscape:version="0.92.4 5da689c313, 2019-01-14">
  <sodipodi:namedview
     pagecolor="#ffffff"
     bordercolor="#666666"
     borderopacity="1"
     objecttolerance="10"
     gridtolerance="10"
     guidetolerance="10"
     inkscape:pageopacity="0"
     inkscape:pageshadow="2"
     inkscape:window-width="1920"
     inkscape:window-height="1147"
     id="namedview10"
     showgrid="false"
     inkscape:zoom="2.3396695"
     inkscape:cx="-74.480656"
     inkscape:cy="50.434473"
     inkscape:window-x="0"
     inkscape:window-y="0"
     inkscape:window-maximized="1"
     inkscape:current-layer="svg951" />
  <defs
     id="defs945" />
  <metadata
     id="metadata948">
    <rdf:RDF>
      <cc:Work
         rdf:about="">
        <dc:format>image/svg+xml</dc:format>
        <dc:type
           rdf:resource="http://purl.org/dc/dcmitype/StillImage" />
        <dc:title />
      </cc:Work>
    </rdf:RDF>
  </metadata>
  <g
     transform="translate(-31.896132,-231.31002)"
     id="layer1">
    <path
       d="m 51.349609,242.53516 c -1.231985,0 -2.240235,1.00629 -2.240234,2.23828 -10e-7,1.23198 1.008249,2.24023 2.240234,2.24023 1.231985,0 2.238282,-1.00825 2.238282,-2.24023 0,-1.23199 -1.006297,-2.23828 -2.238282,-2.23828 z m 0,0.84765 c 0.773537,0 1.390626,0.61709 1.390625,1.39063 10e-7,0.77353 -0.617088,1.39258 -1.390625,1.39258 -0.773537,0 -1.392578,-0.61905 -1.392578,-1.39258 0,-0.77354 0.619041,-1.39063 1.392578,-1.39063 z"
       id="path1959"
       inkscape:connector-curvature="0" />
    <path
       d="m 45.4375,231.41016 c -7.41445,0 -13.441406,5.93116 -13.441406,13.24414 0,7.31298 6.026956,13.24414 13.441406,13.24414 7.41445,0 13.439453,-5.93116 13.439453,-13.24414 0,-7.31298 -6.025003,-13.24414 -13.439453,-13.24414 z m 0,0.87304 c 6.949718,0 12.566406,5.53724 12.566406,12.3711 0,6.83386 -5.616688,12.37109 -12.566406,12.37109 -6.949718,0 -12.568359,-5.53723 -12.568359,-12.37109 0,-6.83386 5.618641,-12.3711 12.568359,-12.3711 z"
       id="ellipse1975"
       inkscape:connector-curvature="0" />
    <path
       d="m 47.085938,248.90625 c -4.875537,-0.61945 -8.337891,1.72852 -8.337891,1.72852 a 0.46306713,0.46306713 0 1 0 0.523437,0.76367 c 0,0 5.583916,-3.89722 12.625,0.11718 a 0.46306713,0.46306713 0 1 0 0.458985,-0.80273 c -1.863316,-1.06235 -3.644353,-1.60016 -5.269531,-1.80664 z"
       id="path1985"
       inkscape:connector-curvature="0" />
    <path
       d="m 39.707031,242.53516 c -1.231984,0 -2.240234,1.00629 -2.240234,2.23828 0,1.23198 1.00825,2.24023 2.240234,2.24023 1.231985,0 2.240235,-1.00825 2.240235,-2.24023 0,-1.23199 -1.00825,-2.23828 -2.240235,-2.23828 z m 0,0.84765 c 0.773537,0 1.392578,0.61709 1.392578,1.39063 0,0.77353 -0.619041,1.39258 -1.392578,1.39258 -0.773537,0 -1.390625,-0.61905 -1.390625,-1.39258 0,-0.77354 0.617088,-1.39063 1.390625,-1.39063 z"
       id="circle1989"
       inkscape:connector-curvature="0" />
  </g>
</svg>
