<?xml version="1.0" encoding="UTF-8" standalone="no"?>
<svg
   xmlns:dc="http://purl.org/dc/elements/1.1/"
   xmlns:cc="http://creativecommons.org/ns#"
   xmlns:rdf="http://www.w3.org/1999/02/22-rdf-syntax-ns#"
   xmlns:svg="http://www.w3.org/2000/svg"
   xmlns="http://www.w3.org/2000/svg"
   xmlns:sodipodi="http://sodipodi.sourceforge.net/DTD/sodipodi-0.dtd"
   xmlns:inkscape="http://www.inkscape.org/namespaces/inkscape"
   id="svg951"
   version="1.1"
   viewBox="0 0 27.081752 26.688241"
   height="26.688242mm"
   width="27.081753mm"
   sodipodi:docname="good.svg"
   inkscape:version="0.92.4 5da689c313, 2019-01-14">
  <sodipodi:namedview
     pagecolor="#ffffff"
     bordercolor="#666666"
     borderopacity="1"
     objecttolerance="10"
     gridtolerance="10"
     guidetolerance="10"
     inkscape:pageopacity="0"
     inkscape:pageshadow="2"
     inkscape:window-width="1920"
     inkscape:window-height="1147"
     id="namedview10"
     showgrid="false"
     inkscape:zoom="2.3396695"
     inkscape:cx="-55.460876"
     inkscape:cy="50.434473"
     inkscape:window-x="0"
     inkscape:window-y="0"
     inkscape:window-maximized="1"
     inkscape:current-layer="svg951" />
  <defs
     id="defs945" />
  <metadata
     id="metadata948">
    <rdf:RDF>
      <cc:Work
         rdf:about="">
        <dc:format>image/svg+xml</dc:format>
        <dc:type
           rdf:resource="http://purl.org/dc/dcmitype/StillImage" />
        <dc:title />
      </cc:Work>
    </rdf:RDF>
  </metadata>
  <g
     transform="translate(-78.803217,-294.94543)"
     id="layer1">
    <path
       d="m 98.255859,306.16992 c -1.231984,0 -2.240234,1.00825 -2.240234,2.24024 0,1.23198 1.00825,2.24023 2.240234,2.24023 1.231985,0 2.240231,-1.00825 2.240231,-2.24023 0,-1.23199 -1.008246,-2.24024 -2.240231,-2.24024 z m 0,0.84766 c 0.773537,0 1.392578,0.61904 1.392579,1.39258 0,0.77353 -0.619042,1.39062 -1.392579,1.39062 -0.773536,0 -1.390625,-0.61709 -1.390625,-1.39062 0,-0.77354 0.617089,-1.39258 1.390625,-1.39258 z"
       id="circle2063"
       inkscape:connector-curvature="0" />
    <path
       d="m 92.34375,295.04492 c -7.41445,0 -13.441406,5.93116 -13.441406,13.24414 0,7.31298 6.026956,13.24414 13.441406,13.24414 7.41445,0 13.44141,-5.93116 13.44141,-13.24414 0,-7.31298 -6.02696,-13.24414 -13.44141,-13.24414 z m 0,0.87305 c 6.949718,0 12.56836,5.53723 12.56836,12.37109 0,6.83386 -5.618642,12.3711 -12.56836,12.3711 -6.949718,0 -12.568359,-5.53724 -12.568359,-12.3711 0,-6.83386 5.618641,-12.37109 12.568359,-12.37109 z"
       id="ellipse2065"
       inkscape:connector-curvature="0" />
    <path
       d="m 99.009766,312.43945 a 0.46306713,0.46306713 0 0 0 -0.205078,0.0625 c -7.041085,4.01439 -12.625,0.11914 -12.625,0.11914 a 0.46347676,0.46347676 0 1 0 -0.525391,0.76368 c 0,0 6.156114,4.17126 13.609375,-0.0781 a 0.46306713,0.46306713 0 0 0 -0.253906,-0.86719 z"
       id="path2067"
       inkscape:connector-curvature="0" />
    <path
       d="m 86.615234,306.16992 c -1.231984,0 -2.240234,1.00825 -2.240234,2.24024 0,1.23198 1.00825,2.24023 2.240234,2.24023 1.231985,0 2.238282,-1.00825 2.238282,-2.24023 0,-1.23199 -1.006297,-2.24024 -2.238282,-2.24024 z m 0,0.84766 c 0.773537,0 1.390625,0.61904 1.390625,1.39258 0,0.77353 -0.617088,1.39062 -1.390625,1.39062 -0.773536,0 -1.392578,-0.61709 -1.392578,-1.39062 0,-0.77354 0.619042,-1.39258 1.392578,-1.39258 z"
       id="circle2069"
       inkscape:connector-curvature="0" />
  </g>
</svg>
