<?xml version="1.0" encoding="UTF-8" standalone="no"?>
<svg
   xmlns:dc="http://purl.org/dc/elements/1.1/"
   xmlns:cc="http://creativecommons.org/ns#"
   xmlns:rdf="http://www.w3.org/1999/02/22-rdf-syntax-ns#"
   xmlns:svg="http://www.w3.org/2000/svg"
   xmlns="http://www.w3.org/2000/svg"
   xmlns:sodipodi="http://sodipodi.sourceforge.net/DTD/sodipodi-0.dtd"
   xmlns:inkscape="http://www.inkscape.org/namespaces/inkscape"
   id="svg951"
   version="1.1"
   viewBox="0 0 27.081752 26.688241"
   height="26.688242mm"
   width="27.081753mm"
   sodipodi:docname="great.svg"
   inkscape:version="0.92.4 5da689c313, 2019-01-14">
  <sodipodi:namedview
     pagecolor="#ffffff"
     bordercolor="#666666"
     borderopacity="1"
     objecttolerance="10"
     gridtolerance="10"
     guidetolerance="10"
     inkscape:pageopacity="0"
     inkscape:pageshadow="2"
     inkscape:window-width="1920"
     inkscape:window-height="1147"
     id="namedview10"
     showgrid="false"
     inkscape:zoom="2.3396695"
     inkscape:cx="-93.714142"
     inkscape:cy="50.434473"
     inkscape:window-x="0"
     inkscape:window-y="0"
     inkscape:window-maximized="1"
     inkscape:current-layer="svg951" />
  <defs
     id="defs945" />
  <metadata
     id="metadata948">
    <rdf:RDF>
      <cc:Work
         rdf:about="">
        <dc:format>image/svg+xml</dc:format>
        <dc:type
           rdf:resource="http://purl.org/dc/dcmitype/StillImage" />
        <dc:title />
      </cc:Work>
    </rdf:RDF>
  </metadata>
  <g
     transform="translate(-92.382136,-307.3446)"
     id="layer1">
    <path
       d="m 98.734375,324.39258 v 0.46289 c -0.0023,2.18801 1.421925,4.18083 3.654295,5.23828 2.23247,1.05731 4.95024,1.05792 7.1836,0.002 2.23345,-1.05582 3.66015,-3.04636 3.66015,-5.23437 v -0.46289 h -0.46289 z m 1.078125,0.92773 12.3418,0.004 c -0.19115,1.59942 -1.1917,3.08891 -2.97852,3.93359 -1.96749,0.93027 -4.42399,0.92945 -6.39062,-0.002 -1.78579,-0.84591 -2.78315,-2.3361 -2.97266,-3.93555 z"
       id="path4611-9"
       inkscape:connector-curvature="0" />
    <path
       d="m 111.83398,318.56836 c -1.23198,0 -2.23828,1.00825 -2.23828,2.24023 0,1.23199 1.0063,2.24024 2.23828,2.24024 1.23199,0 2.24024,-1.00825 2.24024,-2.24024 0,-1.23198 -1.00825,-2.24023 -2.24024,-2.24023 z m 0,0.84961 c 0.77354,0 1.39258,0.61709 1.39258,1.39062 0,0.77354 -0.61904,1.39258 -1.39258,1.39258 -0.77353,0 -1.39062,-0.61904 -1.39062,-1.39258 0,-0.77353 0.61709,-1.39062 1.39062,-1.39062 z"
       id="circle2087"
       inkscape:connector-curvature="0" />
    <path
       d="m 105.92383,307.44531 c -7.414452,0 -13.441408,5.93116 -13.441408,13.24414 0,7.31298 6.026956,13.24414 13.441408,13.24414 7.41445,0 13.43945,-5.93116 13.43945,-13.24414 0,-7.31298 -6.025,-13.24414 -13.43945,-13.24414 z m 0,0.87305 c 6.94972,0 12.5664,5.53723 12.5664,12.37109 0,6.83386 -5.61668,12.3711 -12.5664,12.3711 -6.94972,0 -12.568361,-5.53724 -12.568361,-12.3711 0,-6.83386 5.618641,-12.37109 12.568361,-12.37109 z"
       id="ellipse2089"
       inkscape:connector-curvature="0" />
    <path
       d="m 100.19336,318.56836 c -1.231985,0 -2.240235,1.00825 -2.240235,2.24023 0,1.23199 1.00825,2.24024 2.240235,2.24024 1.23198,0 2.24023,-1.00825 2.24023,-2.24024 0,-1.23198 -1.00825,-2.24023 -2.24023,-2.24023 z m 0,0.84961 c 0.77354,0 1.39062,0.61709 1.39062,1.39062 0,0.77354 -0.61708,1.39258 -1.39062,1.39258 -0.773537,0 -1.392579,-0.61904 -1.392579,-1.39258 0,-0.77353 0.619042,-1.39062 1.392579,-1.39062 z"
       id="circle2093"
       inkscape:connector-curvature="0" />
  </g>
</svg>
