<?xml version="1.0" encoding="UTF-8" standalone="no"?>
<svg
   xmlns:dc="http://purl.org/dc/elements/1.1/"
   xmlns:cc="http://creativecommons.org/ns#"
   xmlns:rdf="http://www.w3.org/1999/02/22-rdf-syntax-ns#"
   xmlns:svg="http://www.w3.org/2000/svg"
   xmlns="http://www.w3.org/2000/svg"
   xmlns:sodipodi="http://sodipodi.sourceforge.net/DTD/sodipodi-0.dtd"
   xmlns:inkscape="http://www.inkscape.org/namespaces/inkscape"
   height="50"
   viewBox="0 0 33.333333 33.333333"
   width="50"
   version="1.1"
   id="svg6"
   sodipodi:docname="kubera_vii.svg"
   inkscape:version="0.92.5 (2060ec1f9f, 2020-04-08)"
   inkscape:export-filename="/home/hamhec/workspace/web/skills/dist/assets/languages/de_b2.svg.png"
   inkscape:export-xdpi="99.921013"
   inkscape:export-ydpi="99.921013">
  <metadata
     id="metadata12">
    <rdf:RDF>
      <cc:Work
         rdf:about="">
        <dc:format>image/svg+xml</dc:format>
        <dc:type
           rdf:resource="http://purl.org/dc/dcmitype/StillImage" />
        <dc:title />
      </cc:Work>
    </rdf:RDF>
  </metadata>
  <defs
     id="defs10" />
  <sodipodi:namedview
     pagecolor="#ffffff"
     bordercolor="#666666"
     borderopacity="1"
     objecttolerance="10"
     gridtolerance="10"
     guidetolerance="10"
     inkscape:pageopacity="0"
     inkscape:pageshadow="2"
     inkscape:window-width="3840"
     inkscape:window-height="2050"
     id="namedview8"
     showgrid="false"
     showguides="true"
     inkscape:guide-bbox="true"
     inkscape:zoom="4"
     inkscape:cx="-32.378203"
     inkscape:cy="53.474884"
     inkscape:window-x="3348"
     inkscape:window-y="-12"
     inkscape:window-maximized="1"
     inkscape:current-layer="svg6">
    <sodipodi:guide
       position="0,16.666667"
       orientation="0,1"
       id="guide822"
       inkscape:locked="false"
       inkscape:label=""
       inkscape:color="rgb(0,0,255)" />
    <sodipodi:guide
       position="16.666667,0"
       orientation="1,0"
       id="guide824"
       inkscape:locked="false"
       inkscape:label=""
       inkscape:color="rgb(0,0,255)" />
    <sodipodi:guide
       position="0,32"
       orientation="0,1"
       id="guide821"
       inkscape:locked="false"
       inkscape:label=""
       inkscape:color="rgb(0,0,255)" />
    <sodipodi:guide
       position="32,0"
       orientation="1,0"
       id="guide823"
       inkscape:locked="false"
       inkscape:label=""
       inkscape:color="rgb(0,0,255)" />
    <sodipodi:guide
       position="25.333333,0"
       orientation="1,0"
       id="guide825"
       inkscape:locked="false"
       inkscape:label=""
       inkscape:color="rgb(0,0,255)" />
    <sodipodi:guide
       position="0,25.333333"
       orientation="0,1"
       id="guide827"
       inkscape:locked="false"
       inkscape:label=""
       inkscape:color="rgb(0,0,255)" />
  </sodipodi:namedview>
  <path
     d="m 28.203929,1.9179688 -0.569595,1.7544038 h -1.845639 l 1.493032,1.084944 -0.570829,1.7556368 1.493031,-1.0849441 1.493031,1.0849441 -0.570829,-1.7556368 1.493031,-1.084944 h -1.845638 z m -13.23755,1.0837111 c -0.805362,-0.065352 -1.444198,0.4702327 -2.076189,1.7433079 -0.627861,1.2647642 -0.686638,2.0677906 -0.247811,3.3830525 0.195334,0.5854683 0.835055,1.8692461 1.041793,2.0909827 0.303498,0.325525 0.997848,0.35228 1.96153,0.07397 1.06124,-0.3064846 1.342346,-0.2955181 2.564413,0.09863 0.293884,0.09478 0.592224,0.174031 0.663295,0.176304 0.07389,0.0025 0.337105,-0.122632 0.615213,-0.292196 C 20.771159,9.4937764 21.679789,8.5890438 22.125776,7.6496789 22.802552,6.224211 22.761543,5.3425672 22.001254,4.9607436 21.726208,4.8226338 21.174342,4.7729343 20.245617,4.8041665 18.571211,4.8605377 18.055783,4.7249731 16.791057,3.8893614 15.781548,3.2223758 15.401769,3.0370262 14.966379,3.0016799 Z M 25.67527,5.1456773 25.105674,6.9000811 H 23.260036 L 24.753067,7.9850253 24.182239,9.740662 25.67527,8.6557179 27.1683,9.740662 26.597472,7.9850253 28.091736,6.9000811 H 26.244865 Z M 28.091736,6.9000811 29.584767,7.9850253 29.013938,9.740662 30.506969,8.6557179 32,9.740662 31.429171,7.9850253 32.922203,6.9000811 H 31.076564 L 30.506969,5.1456773 29.937374,6.9000811 Z M 28.203929,8.3561257 27.6331,10.111762 h -1.844405 l 1.493032,1.083711 -0.570829,1.755637 1.493031,-1.084944 1.493031,1.084944 -0.570829,-1.755637 1.493031,-1.083711 H 28.774757 Z M 9.906594,9.1057234 c -0.1146875,-0.01003 -0.1946744,0.01419 -0.2983594,0.067808 -0.274284,0.1418346 -0.3773087,0.49801 -0.2280848,0.7865846 0.058768,0.113657 0.1503532,0.170466 0.4191826,0.258907 0.1894838,0.06234 0.4592396,0.16916 0.5991856,0.237948 0.304731,0.149758 0.990482,0.58552 0.991244,0.630008 3.58e-4,0.01735 -0.14192,0.05934 -0.316853,0.0937 -0.61651,0.121039 -1.9412589,0.559423 -2.0650924,0.683021 -0.2822979,0.281772 -0.1351043,0.819864 0.2502766,0.916038 0.1497801,0.03737 0.3116199,0.0024 0.9924778,-0.212057 0.94987,-0.299141 1.329035,-0.380161 1.660704,-0.357539 l 0.240414,0.01603 -0.79275,0.68672 c -2.210109,1.913742 -3.8051773,4.040786 -4.4125161,5.884588 -0.3055396,0.92749 -0.3648655,1.307773 -0.3587713,2.283315 0.00516,0.787955 0.019517,0.916851 0.159043,1.449879 0.347856,1.328898 1.2387773,2.731074 2.4990699,3.931689 1.5349045,1.462216 3.5494775,2.272209 6.2926755,2.52866 0.847221,0.07921 2.846063,0.026 3.613604,-0.09617 4.295029,-0.68363 6.763138,-2.918855 6.928847,-6.272949 0.07337,-1.485267 -0.290369,-3.017928 -1.108369,-4.670191 -0.934657,-1.887902 -2.343849,-3.609659 -4.688685,-5.726778 -0.888395,-0.802119 -0.773116,-0.74442 -1.780294,-0.890147 -0.216413,-0.03131 -0.628705,-0.123763 -0.916038,-0.205893 -0.686883,-0.196674 -1.07694,-0.196636 -1.861666,-0.0013 -0.759403,0.18909 -1.123735,0.227877 -1.536182,0.162742 C 13.746725,11.220408 13.08222,10.879851 12.2121,10.278172 11.263594,9.6223013 10.901413,9.4145362 10.410846,9.2437775 10.170313,9.1600511 10.021282,9.1157247 9.906594,9.1056937 Z m 7.285153,6.0288366 c 0.899372,-0.0029 1.564038,0.139724 2.253724,0.484526 0.342235,0.171102 0.494389,0.379345 0.494389,0.67809 0,0.290693 -0.149388,0.505361 -0.424114,0.610281 -0.249313,0.09521 -0.403422,0.06936 -0.808776,-0.134385 -0.310369,-0.156004 -0.997899,-0.296753 -1.448647,-0.297127 -1.22852,-0.0011 -2.386401,0.629703 -3.051405,1.66317 -0.09368,0.145598 -0.170139,0.288762 -0.170139,0.318086 0,0.03619 0.582469,0.05425 1.809884,0.05425 1.480186,0 1.835008,0.0124 1.951666,0.07274 0.432639,0.223711 0.43385,0.911495 0.0025,1.166316 -0.12404,0.07325 -0.382363,0.08384 -2.156326,0.08384 h -2.014544 v 0.279867 0.279866 h 2.01701 c 1.94115,0 2.02302,0.0037 2.184683,0.103562 0.109406,0.06762 0.198756,0.182562 0.255208,0.330415 0.08208,0.214545 0.08176,0.240568 -0.0025,0.461102 -0.165221,0.4326 -0.140712,0.427592 -2.227834,0.427812 -1.202435,1.52e-4 -1.819746,0.0175 -1.819746,0.05178 0,0.184266 0.573979,0.892184 0.970284,1.197138 0.705349,0.542748 1.347811,0.75916 2.261122,0.75946 0.649435,2.22e-4 0.952957,-0.06517 1.644677,-0.353839 0.341801,-0.142661 0.528048,-0.139685 0.761926,0.01356 0.268473,0.175909 0.345851,0.61614 0.16151,0.918503 -0.130172,0.21351 -0.680272,0.477065 -1.351249,0.647268 -0.303696,0.07705 -0.681467,0.128386 -1.04919,0.143015 -0.660511,0.02626 -0.775184,0.01556 -1.35618,-0.126987 C 14.570729,24.59664 13.28799,23.52675 12.681833,22.13122 l -0.168907,-0.388361 -0.752063,-0.02589 c -0.448426,-0.01515 -0.795336,-0.05082 -0.859325,-0.08754 -0.28421,-0.163026 -0.38858,-0.657905 -0.199728,-0.945627 0.158821,-0.241942 0.319041,-0.289729 0.966586,-0.289729 h 0.588089 V 20.114207 19.83434 h -0.593021 c -0.504994,0 -0.616386,-0.0159 -0.758228,-0.103562 -0.308145,-0.190444 -0.39563,-0.636454 -0.187399,-0.954258 0.147586,-0.225239 0.310341,-0.265072 1.07878,-0.265072 0.63736,0 0.71985,-0.01079 0.745898,-0.09 0.01613,-0.04898 0.13085,-0.295933 0.253976,-0.549869 0.605198,-1.248188 1.817455,-2.231436 3.210448,-2.602633 0.416972,-0.111084 0.61021,-0.13287 1.184809,-0.134385 z"
     id="path1119"
     inkscape:connector-curvature="0" />
</svg>
