<?xml version="1.0" encoding="UTF-8" standalone="no"?>
<svg
   xmlns:dc="http://purl.org/dc/elements/1.1/"
   xmlns:cc="http://creativecommons.org/ns#"
   xmlns:rdf="http://www.w3.org/1999/02/22-rdf-syntax-ns#"
   xmlns:svg="http://www.w3.org/2000/svg"
   xmlns="http://www.w3.org/2000/svg"
   xmlns:sodipodi="http://sodipodi.sourceforge.net/DTD/sodipodi-0.dtd"
   xmlns:inkscape="http://www.inkscape.org/namespaces/inkscape"
   height="50"
   viewBox="0 0 33.333333 33.333333"
   width="50"
   version="1.1"
   id="svg6"
   sodipodi:docname="kubera_vi.svg"
   inkscape:version="0.92.5 (2060ec1f9f, 2020-04-08)"
   inkscape:export-filename="/home/hamhec/workspace/web/skills/dist/assets/languages/de_b2.svg.png"
   inkscape:export-xdpi="99.921013"
   inkscape:export-ydpi="99.921013">
  <metadata
     id="metadata12">
    <rdf:RDF>
      <cc:Work
         rdf:about="">
        <dc:format>image/svg+xml</dc:format>
        <dc:type
           rdf:resource="http://purl.org/dc/dcmitype/StillImage" />
        <dc:title />
      </cc:Work>
    </rdf:RDF>
  </metadata>
  <defs
     id="defs10" />
  <sodipodi:namedview
     pagecolor="#ffffff"
     bordercolor="#666666"
     borderopacity="1"
     objecttolerance="10"
     gridtolerance="10"
     guidetolerance="10"
     inkscape:pageopacity="0"
     inkscape:pageshadow="2"
     inkscape:window-width="3840"
     inkscape:window-height="2050"
     id="namedview8"
     showgrid="false"
     showguides="true"
     inkscape:guide-bbox="true"
     inkscape:zoom="5.6568542"
     inkscape:cx="-33.270011"
     inkscape:cy="44.591204"
     inkscape:window-x="3348"
     inkscape:window-y="-12"
     inkscape:window-maximized="1"
     inkscape:current-layer="svg6">
    <sodipodi:guide
       position="0,16.666667"
       orientation="0,1"
       id="guide822"
       inkscape:locked="false"
       inkscape:label=""
       inkscape:color="rgb(0,0,255)" />
    <sodipodi:guide
       position="16.666667,0"
       orientation="1,0"
       id="guide824"
       inkscape:locked="false"
       inkscape:label=""
       inkscape:color="rgb(0,0,255)" />
    <sodipodi:guide
       position="0,32"
       orientation="0,1"
       id="guide821"
       inkscape:locked="false"
       inkscape:label=""
       inkscape:color="rgb(0,0,255)" />
    <sodipodi:guide
       position="32,0"
       orientation="1,0"
       id="guide823"
       inkscape:locked="false"
       inkscape:label=""
       inkscape:color="rgb(0,0,255)" />
    <sodipodi:guide
       position="25.333333,0"
       orientation="1,0"
       id="guide825"
       inkscape:locked="false"
       inkscape:label=""
       inkscape:color="rgb(0,0,255)" />
    <sodipodi:guide
       position="0,25.333333"
       orientation="0,1"
       id="guide827"
       inkscape:locked="false"
       inkscape:label=""
       inkscape:color="rgb(0,0,255)" />
  </sodipodi:namedview>
  <path
     d="M 27.133582,1.9179688 26.59219,3.5855035 h -1.754252 l 1.419104,1.0312232 -0.542564,1.6687066 1.419104,-1.0312231 1.419104,1.0312231 -0.542564,-1.6687066 1.419103,-1.0312232 H 27.674974 Z M 14.551487,2.9480201 c -0.765484,-0.062117 -1.372689,0.4469492 -1.973386,1.6569882 -0.596773,1.2021396 -0.65264,1.9654043 -0.235541,3.2155412 0.185662,0.5564789 0.793708,1.7766906 0.990208,1.9874483 0.288471,0.3094062 0.94844,0.3348362 1.864405,0.070311 1.008694,-0.2913092 1.27588,-0.2808857 2.437437,0.093748 0.279333,0.090092 0.5629,0.1654142 0.630452,0.1675742 0.07023,0.0024 0.320413,-0.11656 0.584751,-0.2777277 1.219031,-0.7432415 2.082671,-1.6031763 2.506575,-2.4960287 0.643265,-1.354886 0.604286,-2.1928754 -0.118356,-2.555793 -0.261427,-0.1312714 -0.785969,-0.17851 -1.668707,-0.1488243 -1.591499,0.05358 -2.081405,-0.075272 -3.283508,-0.8695086 -0.959524,-0.6339599 -1.320498,-0.810132 -1.73433,-0.8437286 z m 10.178642,2.0378377 -0.541393,1.6675348 h -1.754251 l 1.419104,1.0312232 -0.542564,1.6687066 1.419104,-1.0312232 1.419103,1.0312232 -0.542564,-1.6687066 1.420276,-1.0312232 h -1.755423 z m 2.296815,1.6675348 1.419103,1.0312232 -0.542564,1.6687066 1.419104,-1.0312232 1.419104,1.0312232 -0.542564,-1.6687066 1.419104,-1.0312232 H 29.863979 L 29.322587,4.9858578 28.781195,6.6533926 Z M 9.7422368,8.7498227 C 9.633228,8.740289 9.5572016,8.7633104 9.4586506,8.8142736 9.1979478,8.9490853 9.1000243,9.2876247 9.2418594,9.5619106 c 0.055859,0.108029 0.1429085,0.1620246 0.3984269,0.2460872 0.1801015,0.059248 0.4365007,0.1607838 0.5695167,0.2261662 0.289643,0.142342 0.941439,0.556528 0.942163,0.598812 3.4e-4,0.01649 -0.134893,0.0564 -0.301164,0.08906 -0.585984,0.115046 -1.8451378,0.531723 -1.9628398,0.649202 -0.2683199,0.26782 -0.1284146,0.779268 0.2378842,0.87068 0.1423637,0.03552 0.2961901,0.0023 0.9433356,-0.201557 0.902837,-0.284329 1.263228,-0.361337 1.578474,-0.339835 l 0.22851,0.01523 -0.753496,0.652718 c -2.1006767,1.818983 -3.6167653,3.840707 -4.1940319,5.593214 -0.2904108,0.881565 -0.3467992,1.243018 -0.3410067,2.170256 0.00491,0.74894 0.01855,0.871453 0.151168,1.378089 0.3306319,1.263098 1.1774394,2.595845 2.3753287,3.737012 1.4589039,1.389814 3.3737259,2.159701 5.9810949,2.403454 0.805271,0.07529 2.70514,0.02471 3.434676,-0.0914 4.082361,-0.649781 6.428263,-2.774329 6.585766,-5.962345 0.06974,-1.411725 -0.275991,-2.868496 -1.053488,-4.438948 -0.888377,-1.794422 -2.227793,-3.430927 -4.456525,-5.443217 -0.844406,-0.762402 -0.734835,-0.70756 -1.692143,-0.846072 -0.205697,-0.02976 -0.597575,-0.117634 -0.870681,-0.195698 -0.652871,-0.186935 -1.023615,-0.186899 -1.769485,-0.0012 -0.721802,0.179726 -1.068094,0.216593 -1.460118,0.154684 -0.421001,-0.0665 -1.052603,-0.390198 -1.879639,-0.9620848 C 11.032045,9.2408224 10.687798,9.0433447 10.221521,8.8810411 9.9928977,8.8014604 9.8512462,8.7593289 9.7422368,8.7497945 Z m 6.9244292,5.7303193 c 0.85484,-0.0028 1.486596,0.132806 2.142132,0.460535 0.325289,0.16263 0.469909,0.360562 0.469909,0.644515 0,0.276299 -0.141991,0.480338 -0.403114,0.580062 -0.236968,0.0905 -0.383446,0.06593 -0.76873,-0.12773 -0.295,-0.14828 -0.948488,-0.28206 -1.376917,-0.282415 -1.16769,-10e-4 -2.268238,0.598524 -2.900315,1.580818 -0.08904,0.138389 -0.161715,0.274464 -0.161715,0.302336 0,0.0344 0.553628,0.05156 1.720268,0.05156 1.406895,0 1.744148,0.01179 1.85503,0.06914 0.411217,0.212633 0.412368,0.866362 0.0023,1.108565 -0.117898,0.06962 -0.36343,0.07969 -2.049556,0.07969 h -1.914794 v 0.266009 0.266009 h 1.917137 c 1.845035,0 1.922851,0.0035 2.076509,0.09843 0.103989,0.06427 0.188915,0.173523 0.242572,0.314055 0.07802,0.203922 0.07771,0.228657 -0.0023,0.43827 -0.15704,0.41118 -0.133745,0.406421 -2.117523,0.40663 -1.142897,1.44e-4 -1.729642,0.01664 -1.729642,0.04922 0,0.175142 0.545559,0.848007 0.922241,1.137861 0.670423,0.515874 1.281074,0.721571 2.149163,0.721856 0.617278,2.11e-4 0.905771,-0.06195 1.563241,-0.336319 0.324876,-0.135597 0.501901,-0.132768 0.724199,0.01289 0.255179,0.167198 0.328726,0.585632 0.153512,0.873024 -0.123726,0.202937 -0.646587,0.453443 -1.284341,0.615218 -0.288659,0.07323 -0.647725,0.122029 -0.99724,0.135934 -0.627806,0.02496 -0.7368,0.01479 -1.289029,-0.1207 -1.434235,-0.351897 -2.65346,-1.368812 -3.229603,-2.695242 l -0.160543,-0.369131 -0.714825,-0.02461 c -0.426222,-0.0144 -0.755956,-0.0483 -0.816776,-0.0832 -0.270137,-0.154954 -0.369339,-0.625329 -0.189839,-0.898804 0.150958,-0.229963 0.303244,-0.275384 0.918726,-0.275384 h 0.55897 V 19.213219 18.94721 h -0.563657 c -0.47999,0 -0.585866,-0.01511 -0.720685,-0.09843 -0.292887,-0.181013 -0.37604,-0.604939 -0.17812,-0.907008 0.140278,-0.214086 0.294974,-0.251946 1.025364,-0.251946 0.605802,0 0.684208,-0.01025 0.708966,-0.08554 0.01533,-0.04656 0.124371,-0.28128 0.2414,-0.522643 0.575232,-1.186384 1.727464,-2.120946 3.051483,-2.473764 0.396326,-0.105584 0.579996,-0.12629 1.126143,-0.12773 z"
     id="path1119"
     inkscape:connector-curvature="0" />
</svg>
