<?xml version="1.0" encoding="UTF-8" standalone="no"?>
<svg
   xmlns:dc="http://purl.org/dc/elements/1.1/"
   xmlns:cc="http://creativecommons.org/ns#"
   xmlns:rdf="http://www.w3.org/1999/02/22-rdf-syntax-ns#"
   xmlns:svg="http://www.w3.org/2000/svg"
   xmlns="http://www.w3.org/2000/svg"
   xmlns:sodipodi="http://sodipodi.sourceforge.net/DTD/sodipodi-0.dtd"
   xmlns:inkscape="http://www.inkscape.org/namespaces/inkscape"
   height="50"
   viewBox="0 0 33.333333 33.333333"
   width="50"
   version="1.1"
   id="svg6"
   sodipodi:docname="kubera_vii.svg"
   style="fill:#000000"
   inkscape:version="0.92.2 5c3e80d, 2017-08-06"
   inkscape:export-filename="/home/hamhec/workspace/web/skills/dist/assets/languages/de_b2.svg.png"
   inkscape:export-xdpi="99.921013"
   inkscape:export-ydpi="99.921013">
  <metadata
     id="metadata12">
    <rdf:RDF>
      <cc:Work
         rdf:about="">
        <dc:format>image/svg+xml</dc:format>
        <dc:type
           rdf:resource="http://purl.org/dc/dcmitype/StillImage" />
        <dc:title></dc:title>
      </cc:Work>
    </rdf:RDF>
  </metadata>
  <defs
     id="defs10" />
  <sodipodi:namedview
     pagecolor="#ffffff"
     bordercolor="#666666"
     borderopacity="1"
     objecttolerance="10"
     gridtolerance="10"
     guidetolerance="10"
     inkscape:pageopacity="0"
     inkscape:pageshadow="2"
     inkscape:window-width="1920"
     inkscape:window-height="1148"
     id="namedview8"
     showgrid="false"
     showguides="true"
     inkscape:guide-bbox="true"
     inkscape:zoom="4"
     inkscape:cx="26.621797"
     inkscape:cy="53.474884"
     inkscape:window-x="0"
     inkscape:window-y="0"
     inkscape:window-maximized="1"
     inkscape:current-layer="svg6">
    <sodipodi:guide
       position="0,16.666667"
       orientation="0,1"
       id="guide822"
       inkscape:locked="false"
       inkscape:label=""
       inkscape:color="rgb(0,0,255)" />
    <sodipodi:guide
       position="16.666667,0"
       orientation="1,0"
       id="guide824"
       inkscape:locked="false"
       inkscape:label=""
       inkscape:color="rgb(0,0,255)" />
    <sodipodi:guide
       position="0,32"
       orientation="0,1"
       id="guide821"
       inkscape:locked="false"
       inkscape:label=""
       inkscape:color="rgb(0,0,255)" />
    <sodipodi:guide
       position="32,0"
       orientation="1,0"
       id="guide823"
       inkscape:locked="false"
       inkscape:label=""
       inkscape:color="rgb(0,0,255)" />
    <sodipodi:guide
       position="25.333333,0"
       orientation="1,0"
       id="guide825"
       inkscape:locked="false"
       inkscape:label=""
       inkscape:color="rgb(0,0,255)" />
    <sodipodi:guide
       position="0,25.333333"
       orientation="0,1"
       id="guide827"
       inkscape:locked="false"
       inkscape:label=""
       inkscape:color="rgb(0,0,255)" />
  </sodipodi:namedview>
  <path
     style="fill:#000000;stroke-width:0.05374514"
     d="M 13.845044,29.870637 C 10.947892,29.599794 8.8203892,28.745098 7.199343,27.20082 5.8683202,25.932823 4.9270336,24.452223 4.5596552,23.048745 4.4122983,22.485802 4.3973341,22.349186 4.3918795,21.517009 4.3854433,20.486718 4.4481962,20.08526 4.7708833,19.105718 5.4123072,17.158437 7.0966534,14.912057 9.4307987,12.890912 l 0.8379133,-0.725561 -0.25415,-0.01738 C 9.6642799,12.124079 9.2639642,12.210485 8.2607855,12.526414 7.5417168,12.752888 7.3703047,12.789429 7.2121189,12.749959 6.8051095,12.648388 6.6500695,12.079943 6.9482105,11.782357 7.0789941,11.651822 8.4777982,11.189599 9.1289086,11.061767 9.3136598,11.025483 9.4645002,10.980824 9.4641221,10.962497 9.4633176,10.915513 8.7386172,10.455043 8.416783,10.296881 8.2689836,10.224232 7.9843265,10.110955 7.7842088,10.045121 7.5002918,9.9517156 7.4028799,9.8916256 7.3408108,9.7715905 7.1832123,9.4668202 7.2922979,9.091316 7.5819753,8.9415214 c 0.2190079,-0.113253 0.3399683,-0.1026735 0.8480341,0.074177 0.5180982,0.1803424 0.8996604,0.3995192 1.9013986,1.0921996 0.918953,0.635446 1.621602,0.99486 2.089393,1.068755 0.435594,0.06879 0.820624,0.02808 1.622647,-0.171621 0.828766,-0.206369 1.24049,-0.206111 1.965922,0.0016 0.303459,0.08674 0.738739,0.184767 0.967297,0.217833 1.063703,0.153906 0.94193,0.09301 1.880184,0.940145 2.476433,2.235937 3.964781,4.053553 4.951893,6.047408 0.863908,1.744991 1.248213,3.364308 1.170721,4.932931 -0.175008,3.542333 -2.782442,5.902505 -7.318517,6.624502 -0.810616,0.129022 -2.921135,0.185178 -3.815904,0.101523 z m 3.112459,-4.266446 c 0.708634,-0.179755 1.289469,-0.457952 1.426946,-0.683444 0.194687,-0.319333 0.112883,-0.784396 -0.170656,-0.970177 -0.247005,-0.161847 -0.443727,-0.165467 -0.80471,-0.0148 -0.730541,0.304867 -1.050823,0.373751 -1.736705,0.373517 -0.964569,-3.17e-4 -1.643749,-0.228183 -2.388683,-0.801391 -0.418547,-0.322068 -1.024137,-1.069633 -1.024137,-1.26424 0,-0.0362 0.651472,-0.05487 1.921391,-0.05503 2.204255,-2.33e-4 2.177979,0.0048 2.352473,-0.452079 0.08895,-0.23291 0.08909,-0.259532 0.0024,-0.486118 -0.05962,-0.156151 -0.153391,-0.277924 -0.268937,-0.349341 -0.170736,-0.105522 -0.257327,-0.109633 -2.307418,-0.109633 h -2.130016 v -0.295599 -0.295598 h 2.128082 c 1.873522,0 2.145878,-0.01054 2.276879,-0.0879 0.455594,-0.269122 0.45372,-0.995334 -0.0032,-1.231599 -0.123205,-0.06372 -0.497953,-0.07788 -2.06121,-0.07788 -1.2963,0 -1.910619,-0.0181 -1.910619,-0.05632 0,-0.03097 0.08096,-0.182145 0.1799,-0.335914 0.702326,-1.091467 1.925349,-1.758298 3.222816,-1.757188 0.476045,3.95e-4 1.201639,0.149489 1.529426,0.314248 0.428104,0.215178 0.591109,0.242202 0.854414,0.141645 0.290144,-0.110808 0.447477,-0.33737 0.447477,-0.644377 0,-0.315511 -0.16035,-0.535653 -0.521791,-0.716357 -0.728393,-0.364153 -1.430196,-0.515146 -2.380043,-0.512073 -0.606846,0.0016 -0.811702,0.02534 -1.252075,0.142659 -1.471171,0.392029 -2.751589,1.429714 -3.390752,2.747953 -0.130036,0.268188 -0.25036,0.529941 -0.267392,0.581672 -0.02751,0.08366 -0.114621,0.09406 -0.7877512,0.09406 -0.8115649,0 -0.9836368,0.04232 -1.1395055,0.2802 -0.219917,0.33564 -0.1271553,0.807518 0.1982833,1.008649 0.1498026,0.09258 0.2674161,0.108523 0.8007521,0.108523 h 0.6251643 v 0.295598 0.295599 H 9.7575486 c -0.6838868,0 -0.85299,0.05077 -1.0207255,0.306291 -0.1994498,0.303869 -0.088771,0.827036 0.2113891,0.999212 0.06758,0.03878 0.4340494,0.07587 0.9076413,0.09187 l 0.7943245,0.02687 0.178138,0.410123 c 0.640176,1.47385 1.994466,2.60445 3.588102,2.995457 0.613603,0.150551 0.735143,0.161935 1.432723,0.134203 0.38836,-0.01545 0.787421,-0.06991 1.108161,-0.151283 z M 16.666667,10.227298 c -1.290652,-0.4162697 -1.588141,-0.427694 -2.708941,-0.104009 -1.017765,0.293925 -1.750092,0.266643 -2.070623,-0.07715 -0.21834,-0.2341815 -0.893844,-1.5902975 -1.10014,-2.2086235 -0.463455,-1.3890773 -0.401338,-2.2369827 0.26176,-3.5727281 0.667459,-1.3445227 1.341249,-1.9106752 2.191809,-1.841655 0.459826,0.03733 0.861622,0.2326044 1.927787,0.9370226 1.335705,0.882508 1.879774,1.0267594 3.648152,0.9672245 0.980846,-0.032985 1.563724,0.018745 1.854206,0.1646059 0.802957,0.4032522 0.846015,1.3350294 0.131258,2.8404974 -0.471017,0.9920843 -1.430156,1.9472329 -2.784671,2.7730782 -0.293716,0.179079 -0.571816,0.311054 -0.649855,0.308383 -0.07506,-0.0024 -0.390364,-0.08657 -0.700742,-0.186674 z"
     id="path1119"
     inkscape:connector-curvature="0" />
  <path
     inkscape:connector-curvature="0"
     style="fill:#000000;fill-opacity:1;stroke-width:0.01690015"
     d="m 27.221554,1.2785446 1.57675,4.852738 -4.127982,-2.999167 h 5.102462 l -4.127979,2.999167 z"
     id="path6" />
  <path
     inkscape:connector-curvature="0"
     style="fill:#000000;fill-opacity:1;stroke-width:0.01690015"
     d="m 29.653692,4.6872616 1.57675,4.8527383 -4.127981,-2.9991663 h 5.102461 l -4.127978,2.9991663 z"
     id="path6-6" />
  <path
     inkscape:connector-curvature="0"
     style="fill:#000000;fill-opacity:1;stroke-width:0.01690015"
     d="M 24.551232,4.6872616 26.127982,9.5399999 22,6.5408336 h 5.102461 l -4.127978,2.9991663 z"
     id="path6-6-3" />
  <path
     inkscape:connector-curvature="0"
     style="fill:#000000;fill-opacity:1;stroke-width:0.01690015"
     d="m 27.221554,8.078595 1.57675,4.852738 -4.127982,-2.999167 h 5.102462 l -4.127979,2.999167 z"
     id="path6-3" />
</svg>
