<?xml version="1.0" encoding="UTF-8" standalone="no"?>
<svg
   xmlns:dc="http://purl.org/dc/elements/1.1/"
   xmlns:cc="http://creativecommons.org/ns#"
   xmlns:rdf="http://www.w3.org/1999/02/22-rdf-syntax-ns#"
   xmlns:svg="http://www.w3.org/2000/svg"
   xmlns="http://www.w3.org/2000/svg"
   xmlns:sodipodi="http://sodipodi.sourceforge.net/DTD/sodipodi-0.dtd"
   xmlns:inkscape="http://www.inkscape.org/namespaces/inkscape"
   height="50"
   viewBox="0 0 50 50"
   width="50"
   version="1.1"
   id="svg6"
   sodipodi:docname="kubera_v.svg"
   inkscape:version="0.92.5 (2060ec1f9f, 2020-04-08)"
   inkscape:export-filename="/home/hamhec/workspace/web/skills/dist/assets/languages/de_b2.svg.png"
   inkscape:export-xdpi="99.921013"
   inkscape:export-ydpi="99.921013">
  <metadata
     id="metadata12">
    <rdf:RDF>
      <cc:Work
         rdf:about="">
        <dc:format>image/svg+xml</dc:format>
        <dc:type
           rdf:resource="http://purl.org/dc/dcmitype/StillImage" />
        <dc:title />
      </cc:Work>
    </rdf:RDF>
  </metadata>
  <defs
     id="defs10" />
  <sodipodi:namedview
     pagecolor="#ffffff"
     bordercolor="#666666"
     borderopacity="1"
     objecttolerance="10"
     gridtolerance="10"
     guidetolerance="10"
     inkscape:pageopacity="0"
     inkscape:pageshadow="2"
     inkscape:window-width="3840"
     inkscape:window-height="2050"
     id="namedview8"
     showgrid="false"
     showguides="true"
     inkscape:guide-bbox="true"
     inkscape:zoom="5.6568542"
     inkscape:cx="-112.64275"
     inkscape:cy="44.591204"
     inkscape:window-x="3348"
     inkscape:window-y="-12"
     inkscape:window-maximized="1"
     inkscape:current-layer="svg6">
    <sodipodi:guide
       position="0,16.666667"
       orientation="0,1"
       id="guide822"
       inkscape:locked="false"
       inkscape:label=""
       inkscape:color="rgb(0,0,255)" />
    <sodipodi:guide
       position="16.666667,0"
       orientation="1,0"
       id="guide824"
       inkscape:locked="false"
       inkscape:label=""
       inkscape:color="rgb(0,0,255)" />
    <sodipodi:guide
       position="0,32"
       orientation="0,1"
       id="guide821"
       inkscape:locked="false"
       inkscape:label=""
       inkscape:color="rgb(0,0,255)" />
    <sodipodi:guide
       position="32,0"
       orientation="1,0"
       id="guide823"
       inkscape:locked="false"
       inkscape:label=""
       inkscape:color="rgb(0,0,255)" />
    <sodipodi:guide
       position="25.333333,0"
       orientation="1,0"
       id="guide825"
       inkscape:locked="false"
       inkscape:label=""
       inkscape:color="rgb(0,0,255)" />
    <sodipodi:guide
       position="0,25.333333"
       orientation="0,1"
       id="guide827"
       inkscape:locked="false"
       inkscape:label=""
       inkscape:color="rgb(0,0,255)" />
  </sodipodi:namedview>
  <path
     style="stroke-width:0.08993537"
     d="m 43.703281,1.8164062 -1.006635,3.1005234 h -3.261759 l 2.638604,1.9174002 -1.008813,3.1027021 2.638603,-1.9174001 2.638604,1.9174001 -1.008814,-3.1027021 2.640784,-1.9174002 H 44.709917 Z M 19.199777,2.8317568 c -1.423299,-0.1154962 -2.552302,0.831033 -3.669206,3.0809137 -1.109607,2.2351929 -1.213483,3.6543657 -0.437952,5.9788025 0.345209,1.034686 1.475777,3.303481 1.84114,3.695353 0.536366,0.575293 1.763477,0.622576 3.466572,0.130732 1.875511,-0.541644 2.372302,-0.522263 4.532037,0.174309 0.519377,0.167511 1.046626,0.307562 1.172229,0.311578 0.130588,0.0045 0.595759,-0.216726 1.087254,-0.516391 2.266601,-1.381943 3.872404,-2.980859 4.660589,-4.64098 C 33.048492,8.5268727 32.976017,6.9687608 31.632375,6.2939716 31.146291,6.0498927 30.170988,5.9620599 28.529672,6.0172559 25.570526,6.1168796 24.659622,5.877299 22.424496,4.4005388 20.64041,3.2217883 19.969235,2.8942236 19.199777,2.8317568 Z m 24.531829,5.6737617 -1.008813,3.1027025 h -3.261759 l 2.638603,1.9174 -1.006635,3.100523 2.638604,-1.9174 2.638605,1.9174 L 45.361397,13.523442 48,11.608221 H 44.74042 Z M 10.25772,13.619313 c -0.202685,-0.01773 -0.3440448,0.02508 -0.5272852,0.119836 -0.4847367,0.250662 -0.6668102,0.880124 -0.4030897,1.390116 0.1038603,0.200863 0.2657162,0.301259 0.7408129,0.457561 0.334871,0.110163 0.811606,0.298953 1.058928,0.420521 0.538547,0.264664 1.750461,1.034778 1.751806,1.113399 6.34e-4,0.03067 -0.250811,0.104876 -0.559967,0.165594 -1.089547,0.21391 -3.4307485,0.988658 -3.6495971,1.207091 -0.4988995,0.49797 -0.2387672,1.44893 0.4423089,1.618896 0.2647034,0.06604 0.5507198,0.0042 1.7539862,-0.374765 1.678686,-0.528665 2.348779,-0.671851 2.934929,-0.631871 l 0.424879,0.02832 -1.40101,1.213627 c -3.905883,3.382118 -6.7248157,7.141201 -7.7981536,10.399717 -0.5399742,1.639134 -0.6448196,2.311201 -0.6340495,4.035257 0.00913,1.392537 0.034491,1.620333 0.2810736,2.562344 0.614759,2.348534 2.1892668,4.826572 4.416557,6.948396 2.7126055,2.584145 6.2729215,4.015631 11.1209215,4.468851 1.497278,0.139985 5.029791,0.04595 6.386251,-0.169952 7.59052,-1.208167 11.952362,-5.158435 12.245215,-11.086059 0.129672,-2.624884 -0.513163,-5.333526 -1.958799,-8.253538 -1.651801,-3.336451 -4.142237,-6.379278 -8.28622,-10.120822 -1.570044,-1.417569 -1.366313,-1.315598 -3.146279,-1.573139 -0.382461,-0.05533 -1.111098,-0.218723 -1.618896,-0.363871 -1.213914,-0.347577 -1.903255,-0.34751 -3.290085,-0.0022 -1.342078,0.334174 -1.985956,0.402722 -2.714864,0.287611 -0.782786,-0.123654 -1.957152,-0.725513 -3.494898,-1.788848 -1.676275,-1.159108 -2.316351,-1.526287 -3.18332,-1.828066 -0.42509,-0.147968 -0.688469,-0.226305 -0.891155,-0.244033 z m 12.874907,10.654644 c 1.589443,-0.0051 2.764094,0.246931 3.982963,0.856294 0.604824,0.302384 0.873724,0.670409 0.873724,1.198375 0,0.513735 -0.264012,0.893114 -0.749529,1.078537 -0.440606,0.168269 -0.71296,0.122576 -1.429335,-0.237496 -0.548507,-0.275703 -1.763566,-0.524445 -2.560164,-0.525106 -2.17114,-0.0019 -4.21744,1.112862 -5.392689,2.939287 -0.165563,0.257312 -0.300683,0.510323 -0.300683,0.562148 0,0.06396 1.029385,0.09587 3.198572,0.09587 2.615904,0 3.242975,0.02192 3.449142,0.128553 0.764595,0.395359 0.766734,1.610866 0.0043,2.061206 -0.219212,0.129452 -0.675741,0.148162 -3.810832,0.148162 h -3.560263 v 0.494603 0.494602 h 3.56462 c 3.430557,0 3.575244,0.0065 3.860948,0.183024 0.193351,0.119507 0.351258,0.322637 0.451025,0.583936 0.145064,0.379162 0.144487,0.425151 -0.0044,0.814895 -0.291993,0.764526 -0.248678,0.755676 -3.937207,0.756066 -2.125041,2.67e-4 -3.216003,0.03093 -3.216003,0.09151 0,0.325649 1.014383,1.576739 1.714766,2.115677 1.246548,0.959188 2.381958,1.341649 3.996036,1.34218 1.147734,3.92e-4 1.684142,-0.11518 2.906605,-0.625334 0.604057,-0.252122 0.933208,-0.246862 1.346537,0.02396 0.474466,0.31088 0.611214,1.088892 0.285432,1.623253 -0.23005,0.377331 -1.20223,0.843108 -2.388035,1.143904 -0.536716,0.136168 -1.204344,0.226894 -1.854213,0.252748 -1.167308,0.04641 -1.369967,0.0275 -2.39675,-0.224422 -2.666739,-0.654299 -4.933699,-2.545095 -6.004949,-5.011388 L 14.86374,35.95266 13.534633,35.9069 c -0.792493,-0.02677 -1.405582,-0.0898 -1.518668,-0.1547 -0.502278,-0.288114 -0.686729,-1.162704 -0.352976,-1.671189 0.280683,-0.42758 0.563836,-0.512032 1.70823,-0.512032 h 1.039317 v -0.494602 -0.494603 h -1.048033 c -0.892467,0 -1.089327,-0.0281 -1.340002,-0.183024 -0.544578,-0.336566 -0.699189,-1.124792 -0.331187,-1.686441 0.260825,-0.39806 0.548459,-0.468456 1.906507,-0.468456 1.126393,0 1.272177,-0.01907 1.318212,-0.159057 0.0285,-0.08657 0.231248,-0.522996 0.448846,-0.971773 1.069555,-2.205898 3.211952,-3.943573 5.673762,-4.599582 0.736905,-0.196317 1.078412,-0.234818 2.093888,-0.237496 z"
     id="path1119"
     inkscape:connector-curvature="0" />
</svg>
