<?xml version="1.0" encoding="UTF-8" standalone="no"?>
<svg
   xmlns:dc="http://purl.org/dc/elements/1.1/"
   xmlns:cc="http://creativecommons.org/ns#"
   xmlns:rdf="http://www.w3.org/1999/02/22-rdf-syntax-ns#"
   xmlns:svg="http://www.w3.org/2000/svg"
   xmlns="http://www.w3.org/2000/svg"
   xmlns:sodipodi="http://sodipodi.sourceforge.net/DTD/sodipodi-0.dtd"
   xmlns:inkscape="http://www.inkscape.org/namespaces/inkscape"
   height="50"
   viewBox="0 0 50 50"
   width="50"
   version="1.1"
   id="svg6"
   sodipodi:docname="liberalitas_ii.svg"
   inkscape:version="0.92.5 (2060ec1f9f, 2020-04-08)"
   inkscape:export-filename="/home/hamhec/workspace/web/skills/dist/assets/languages/de_b2.svg.png"
   inkscape:export-xdpi="99.921013"
   inkscape:export-ydpi="99.921013">
  <metadata
     id="metadata12">
    <rdf:RDF>
      <cc:Work
         rdf:about="">
        <dc:format>image/svg+xml</dc:format>
        <dc:type
           rdf:resource="http://purl.org/dc/dcmitype/StillImage" />
        <dc:title />
      </cc:Work>
    </rdf:RDF>
  </metadata>
  <defs
     id="defs10" />
  <sodipodi:namedview
     pagecolor="#ffffff"
     bordercolor="#666666"
     borderopacity="1"
     objecttolerance="10"
     gridtolerance="10"
     guidetolerance="10"
     inkscape:pageopacity="0"
     inkscape:pageshadow="2"
     inkscape:window-width="3840"
     inkscape:window-height="2050"
     id="namedview8"
     showgrid="false"
     showguides="true"
     inkscape:guide-bbox="true"
     inkscape:zoom="7.9999999"
     inkscape:cx="-59.694616"
     inkscape:cy="16.726071"
     inkscape:window-x="3348"
     inkscape:window-y="-12"
     inkscape:window-maximized="1"
     inkscape:current-layer="svg6">
    <sodipodi:guide
       position="0,16.666667"
       orientation="0,1"
       id="guide822"
       inkscape:locked="false"
       inkscape:label=""
       inkscape:color="rgb(0,0,255)" />
    <sodipodi:guide
       position="16.666667,0"
       orientation="1,0"
       id="guide824"
       inkscape:locked="false"
       inkscape:label=""
       inkscape:color="rgb(0,0,255)" />
    <sodipodi:guide
       position="0,32"
       orientation="0,1"
       id="guide821"
       inkscape:locked="false"
       inkscape:label=""
       inkscape:color="rgb(0,0,255)" />
    <sodipodi:guide
       position="32,0"
       orientation="1,0"
       id="guide823"
       inkscape:locked="false"
       inkscape:label=""
       inkscape:color="rgb(0,0,255)" />
    <sodipodi:guide
       position="25.333333,0"
       orientation="1,0"
       id="guide825"
       inkscape:locked="false"
       inkscape:label=""
       inkscape:color="rgb(0,0,255)" />
    <sodipodi:guide
       position="0,25.333333"
       orientation="0,1"
       id="guide827"
       inkscape:locked="false"
       inkscape:label=""
       inkscape:color="rgb(0,0,255)" />
  </sodipodi:namedview>
  <path
     style="stroke-width:0.23983958"
     d="m 43.756605,1.8164062 -0.994143,3.0620452 h -3.22128 L 42.14704,6.7720563 41.150746,9.8362532 43.756605,7.9426485 46.362463,9.8362532 45.366168,6.7720563 47.974179,4.8784514 H 44.750747 Z M 14.358388,6.4019427 C 13.954381,6.4188378 13.546196,6.4589762 13.136152,6.5224449 10.81058,6.8824101 8.9845844,7.8258502 7.2401549,9.5694273 3.0058338,13.801376 3.008822,20.225351 7.2466104,24.466503 c 1.5148079,1.516003 3.0258836,2.379614 5.0481786,2.885596 3.324122,0.831701 6.907479,-0.118594 9.532579,-2.528393 4.642217,-4.261487 4.709473,-11.138274 0.150628,-15.4866757 -2.136494,-2.037872 -4.79156,-3.0533571 -7.619608,-2.9350876 z m 29.42619,2.0205625 -0.996294,3.0641968 h -3.22128 l 2.605858,1.893605 -0.994143,3.062045 2.605859,-1.893604 2.605859,1.893604 L 45.394142,13.378155 48,11.486702 H 44.780872 Z M 13.312601,8.7452788 h 1.370712 1.370712 l -0.161387,0.9511061 c -0.147046,0.8703821 -0.110657,0.9611021 0.432516,1.0974301 0.694572,0.174325 1.724066,1.206273 1.949554,1.953856 0.139578,0.462727 0.03874,0.545561 -0.858578,0.723012 -0.886451,0.175304 -1.082607,0.133172 -1.557921,-0.342139 -0.930406,-0.930407 -2.965213,-0.566078 -2.965213,0.5315 0,0.786913 0.399885,1.095698 2.188405,1.691334 1.048441,0.349162 2.223518,0.90154 2.612314,1.228691 1.972732,1.659945 1.313607,5.451455 -1.125403,6.470534 -0.699657,0.292347 -0.769454,0.404688 -0.641245,1.045787 l 0.144173,0.718708 h -1.377167 -1.375016 l 0.105436,-0.720861 c 0.09104,-0.620255 -0.01293,-0.789315 -0.746682,-1.222235 -0.96759,-0.570896 -1.456325,-1.173233 -1.867784,-2.3003 -0.319267,-0.874546 -0.292437,-0.908949 0.886551,-1.1211 0.757942,-0.136388 0.870252,-0.08382 1.142619,0.531501 0.546045,1.233607 2.164602,1.599726 3.260013,0.738075 0.699837,-0.550492 0.858434,-1.654605 0.303407,-2.115242 -0.180935,-0.150164 -1.121884,-0.542408 -2.089421,-0.871489 -2.024624,-0.688619 -3.00202,-1.505759 -3.350389,-2.799523 -0.454909,-1.689389 0.602078,-3.806082 2.087269,-4.178841 0.503047,-0.126257 0.544934,-0.238338 0.410998,-1.0759127 z M 45.200478,19.812109 c -0.753318,0.147675 -1.67388,1.549586 -4.61351,6.315603 l -3.769995,6.113331 -1.467545,-0.802631 c -4.895085,-2.671754 -5.725937,-3.062556 -6.225225,-2.93724 -0.287846,0.07225 -2.194782,1.962266 -4.239093,4.20036 -2.0443,2.238095 -3.853068,4.078385 -4.019607,4.088466 -0.166533,0.01014 -1.934283,-0.799784 -3.92923,-1.798924 -2.439958,-1.222011 -3.794723,-1.772992 -4.135805,-1.682727 -0.42411,0.112222 -5.7171035,4.413424 -8.480338,6.89014 -0.8599843,0.770806 -0.9887815,1.497527 -0.3830246,2.166887 0.8087234,0.893624 1.4775114,0.564139 5.2289323,-2.564974 1.9737523,-1.64634 3.6747423,-2.993187 3.7786023,-2.993187 0.10386,0 0.18936,2.535699 0.18936,5.635626 0,4.850087 0.04978,5.637779 0.359355,5.637779 0.309551,0 0.359355,-0.787692 0.359355,-5.637779 0,-3.099927 0.08181,-5.639606 0.180752,-5.644234 0.09892,-0.0047 1.816169,0.777609 3.817336,1.738675 l 3.638734,1.74728 0.07962,3.838854 c 0.06622,3.216035 0.137464,3.836701 0.438972,3.836701 0.303897,0 0.368464,-0.664193 0.423909,-4.279977 l 0.06671,-4.282129 3.247103,-3.513929 c 1.786388,-1.932892 3.349824,-3.549569 3.473042,-3.593545 0.135917,-0.04851 0.22379,3.040071 0.22379,7.854156 0,6.89317 0.04682,7.935927 0.359355,7.935927 0.312632,0 0.359354,-1.052915 0.359354,-8.034911 0,-4.419045 0.05735,-8.03491 0.126958,-8.03491 0.06963,0 1.579727,0.76403 3.354693,1.697789 l 3.225584,1.69779 0.06455,6.276869 c 0.05489,5.39119 0.114916,6.27687 0.42391,6.27687 0.308893,0 0.368828,-0.880469 0.423909,-6.225226 0.05862,-5.691411 0.102396,-6.267165 0.512135,-6.715842 0.359448,-0.393621 6.005297,-9.409885 8.004783,-12.783986 0.54499,-0.919673 0.409496,-1.832784 -0.33138,-2.229288 -0.282779,-0.15134 -0.514943,-0.24289 -0.766049,-0.193664 z"
     id="path833"
     inkscape:connector-curvature="0" />
</svg>
