<?xml version="1.0" encoding="UTF-8" standalone="no"?>
<svg
   xmlns:dc="http://purl.org/dc/elements/1.1/"
   xmlns:cc="http://creativecommons.org/ns#"
   xmlns:rdf="http://www.w3.org/1999/02/22-rdf-syntax-ns#"
   xmlns:svg="http://www.w3.org/2000/svg"
   xmlns="http://www.w3.org/2000/svg"
   xmlns:sodipodi="http://sodipodi.sourceforge.net/DTD/sodipodi-0.dtd"
   xmlns:inkscape="http://www.inkscape.org/namespaces/inkscape"
   height="50"
   viewBox="0 0 50 50"
   width="50"
   version="1.1"
   id="svg6"
   sodipodi:docname="liberalitas_i.svg"
   inkscape:version="0.92.5 (2060ec1f9f, 2020-04-08)"
   inkscape:export-filename="/home/hamhec/workspace/web/skills/dist/assets/languages/de_b2.svg.png"
   inkscape:export-xdpi="99.921013"
   inkscape:export-ydpi="99.921013">
  <metadata
     id="metadata12">
    <rdf:RDF>
      <cc:Work
         rdf:about="">
        <dc:format>image/svg+xml</dc:format>
        <dc:type
           rdf:resource="http://purl.org/dc/dcmitype/StillImage" />
        <dc:title />
      </cc:Work>
    </rdf:RDF>
  </metadata>
  <defs
     id="defs10" />
  <sodipodi:namedview
     pagecolor="#ffffff"
     bordercolor="#666666"
     borderopacity="1"
     objecttolerance="10"
     gridtolerance="10"
     guidetolerance="10"
     inkscape:pageopacity="0"
     inkscape:pageshadow="2"
     inkscape:window-width="3840"
     inkscape:window-height="2050"
     id="namedview8"
     showgrid="false"
     showguides="true"
     inkscape:guide-bbox="true"
     inkscape:zoom="7.9999999"
     inkscape:cx="-68.819616"
     inkscape:cy="16.726071"
     inkscape:window-x="3348"
     inkscape:window-y="-12"
     inkscape:window-maximized="1"
     inkscape:current-layer="svg6">
    <sodipodi:guide
       position="0,16.666667"
       orientation="0,1"
       id="guide822"
       inkscape:locked="false"
       inkscape:label=""
       inkscape:color="rgb(0,0,255)" />
    <sodipodi:guide
       position="16.666667,0"
       orientation="1,0"
       id="guide824"
       inkscape:locked="false"
       inkscape:label=""
       inkscape:color="rgb(0,0,255)" />
    <sodipodi:guide
       position="0,32"
       orientation="0,1"
       id="guide821"
       inkscape:locked="false"
       inkscape:label=""
       inkscape:color="rgb(0,0,255)" />
    <sodipodi:guide
       position="32,0"
       orientation="1,0"
       id="guide823"
       inkscape:locked="false"
       inkscape:label=""
       inkscape:color="rgb(0,0,255)" />
    <sodipodi:guide
       position="25.333333,0"
       orientation="1,0"
       id="guide825"
       inkscape:locked="false"
       inkscape:label=""
       inkscape:color="rgb(0,0,255)" />
    <sodipodi:guide
       position="0,25.333333"
       orientation="0,1"
       id="guide827"
       inkscape:locked="false"
       inkscape:label=""
       inkscape:color="rgb(0,0,255)" />
  </sodipodi:namedview>
  <path
     style="stroke-width:0.03450359"
     d="M 42.791228,1.3268229 41.562283,5.1113215 H 37.582456 L 40.801315,7.449165 39.572369,11.233664 42.791228,8.8958201 46.010087,11.233664 44.781142,7.449165 48,5.1113215 H 44.020173 Z M 13.770635,6.4277573 C 13.388622,6.4437326 13.00266,6.4816858 12.614938,6.5416992 10.415973,6.8820676 8.6893858,7.7741461 7.0399245,9.4228014 3.0361235,13.42436 3.038949,19.498608 7.0460286,23.508868 c 1.4323405,1.433471 2.8611515,2.250065 4.7733514,2.728502 3.143154,0.786422 6.53143,-0.112138 9.013618,-2.390746 4.38949,-4.029488 4.453084,-10.531897 0.142427,-14.6435678 -2.020181,-1.9269285 -4.530703,-2.8871297 -7.20479,-2.7752989 z m -0.988853,2.2157629 h 1.296089 1.29609 l -0.152602,0.899327 c -0.139041,0.8229978 -0.104633,0.9087788 0.40897,1.0376848 0.656758,0.164835 1.630206,1.140603 1.843418,1.847486 0.13198,0.437536 0.03663,0.515861 -0.811836,0.683652 -0.838192,0.16576 -1.023669,0.125922 -1.473107,-0.323513 -0.879753,-0.879755 -2.803784,-0.535261 -2.803784,0.502564 0,0.744073 0.378115,1.036048 2.069266,1.599257 0.991364,0.330153 2.102468,0.852459 2.470098,1.1618 1.865335,1.569576 1.242093,5.154673 -1.064136,6.118273 -0.661566,0.27643 -0.727563,0.382656 -0.606334,0.988853 l 0.136324,0.679581 h -1.302193 -1.300159 l 0.0997,-0.681617 c 0.08608,-0.586488 -0.01223,-0.746344 -0.706032,-1.155695 -0.914914,-0.539816 -1.377041,-1.109361 -1.7661,-2.17507 -0.301886,-0.826935 -0.276517,-0.859465 0.838286,-1.060066 0.716679,-0.128963 0.822875,-0.07926 1.080414,0.502565 0.516318,1.166448 2.046759,1.512636 3.082535,0.697893 0.661737,-0.520522 0.811701,-1.564526 0.28689,-2.000086 -0.171085,-0.141989 -1.060808,-0.512879 -1.975672,-0.824044 -1.914402,-0.65113 -2.838587,-1.423784 -3.167991,-2.647115 -0.430143,-1.597417 0.5693,-3.598875 1.973636,-3.951341 0.475661,-0.119383 0.515268,-0.225363 0.388624,-1.0173392 z M 42.933656,19.107863 c -0.712307,0.139635 -1.582753,1.465225 -4.362347,5.971776 l -3.564753,5.780516 -1.387651,-0.758935 c -4.628593,-2.526301 -5.414212,-2.895828 -5.886319,-2.777334 -0.272175,0.06832 -2.075295,1.855439 -4.008312,3.971689 -1.933007,2.116251 -3.643304,3.856354 -3.800777,3.865886 -0.157466,0.0096 -1.828979,-0.756243 -3.715319,-1.700989 -2.307125,-1.155484 -3.588135,-1.676468 -3.910649,-1.591117 -0.401021,0.106112 -5.4058591,4.173152 -8.0186607,6.515034 -0.813166,0.728843 -0.9349514,1.416001 -0.3621724,2.04892 0.7646958,0.844974 1.3970744,0.533427 4.9442648,-2.425335 1.8663003,-1.556711 3.4746863,-2.830235 3.5728913,-2.830235 0.09821,0 0.179052,2.397654 0.179052,5.328817 0,4.586045 0.04707,5.330854 0.339791,5.330854 0.292699,0 0.339791,-0.744809 0.339791,-5.330854 0,-2.931163 0.07736,-5.33258 0.170913,-5.336957 0.09354,-0.0045 1.717294,0.735276 3.609516,1.64402 l 3.440638,1.652157 0.07529,3.629863 c 0.06262,3.040952 0.12998,3.627829 0.415074,3.627829 0.287353,0 0.348405,-0.628034 0.400831,-4.046972 l 0.06308,-4.049006 3.070328,-3.322628 c 1.689136,-1.827664 3.167457,-3.356328 3.283967,-3.397909 0.128517,-0.04587 0.211606,2.874567 0.211606,7.426569 0,6.517899 0.04427,7.503888 0.339791,7.503888 0.295613,0 0.339792,-0.995594 0.339792,-7.597483 0,-4.178469 0.05422,-7.597483 0.120045,-7.597483 0.06584,0 1.493726,0.722436 3.172061,1.60536 l 3.049981,1.60536 0.06104,5.935152 c 0.0519,5.097689 0.108661,5.935152 0.400832,5.935152 0.292077,0 0.348749,-0.832536 0.400832,-5.88632 0.05543,-5.381566 0.09682,-5.925976 0.484253,-6.350226 0.33988,-0.372192 5.678364,-8.897603 7.568996,-12.088014 0.515321,-0.869606 0.387203,-1.733007 -0.31334,-2.107925 -0.267384,-0.1431 -0.486908,-0.229666 -0.724344,-0.18312 z"
     id="path6"
     inkscape:connector-curvature="0" />
</svg>
