<?xml version="1.0" encoding="UTF-8" standalone="no"?>
<svg
   xmlns:dc="http://purl.org/dc/elements/1.1/"
   xmlns:cc="http://creativecommons.org/ns#"
   xmlns:rdf="http://www.w3.org/1999/02/22-rdf-syntax-ns#"
   xmlns:svg="http://www.w3.org/2000/svg"
   xmlns="http://www.w3.org/2000/svg"
   xmlns:sodipodi="http://sodipodi.sourceforge.net/DTD/sodipodi-0.dtd"
   xmlns:inkscape="http://www.inkscape.org/namespaces/inkscape"
   id="svg951"
   version="1.1"
   viewBox="0 0 27.081752 26.688241"
   height="26.688242mm"
   width="27.081753mm"
   sodipodi:docname="awfulv2.svg"
   inkscape:version="0.92.4 5da689c313, 2019-01-14">
  <sodipodi:namedview
     pagecolor="#ffffff"
     bordercolor="#666666"
     borderopacity="1"
     objecttolerance="10"
     gridtolerance="10"
     guidetolerance="10"
     inkscape:pageopacity="0"
     inkscape:pageshadow="2"
     inkscape:window-width="1920"
     inkscape:window-height="1147"
     id="namedview13"
     showgrid="false"
     inkscape:zoom="1.6543962"
     inkscape:cx="-109.30821"
     inkscape:cy="98.97575"
     inkscape:window-x="0"
     inkscape:window-y="0"
     inkscape:window-maximized="1"
     inkscape:current-layer="svg951" />
  <defs
     id="defs945" />
  <metadata
     id="metadata948">
    <rdf:RDF>
      <cc:Work
         rdf:about="">
        <dc:format>image/svg+xml</dc:format>
        <dc:type
           rdf:resource="http://purl.org/dc/dcmitype/StillImage" />
        <dc:title />
      </cc:Work>
    </rdf:RDF>
  </metadata>
  <path
     d="m 17.140625,10.646484 a 0.46306713,0.46306713 0 0 0 -0.318359,0.796875 l 4.853515,4.789063 a 0.4633612,0.4633612 0 1 0 0.650391,-0.660156 l -4.853516,-4.78711 a 0.46306713,0.46306713 0 0 0 -0.332031,-0.138672 z"
     id="path1757"
     inkscape:connector-curvature="0" />
  <path
     d="m 21.996094,10.646484 a 0.46306713,0.46306713 0 0 0 -0.320313,0.138672 l -4.853515,4.78711 a 0.46336085,0.46336085 0 1 0 0.65039,0.660156 l 4.853516,-4.789063 a 0.46306713,0.46306713 0 0 0 -0.330078,-0.796875 z"
     id="path1759"
     inkscape:connector-curvature="0" />
  <path
     d="m 5.4980469,10.646484 a 0.46306713,0.46306713 0 0 0 -0.3164063,0.796875 l 4.8535154,4.789063 a 0.4633612,0.4633612 0 1 0 0.650391,-0.660156 L 5.8320312,10.785156 A 0.46306713,0.46306713 0 0 0 5.4980469,10.646484 Z"
     id="path1761"
     inkscape:connector-curvature="0" />
  <path
     d="m 10.353516,10.646484 a 0.46306713,0.46306713 0 0 0 -0.31836,0.138672 l -4.8535154,4.78711 a 0.46336106,0.46336106 0 1 0 0.6503906,0.660156 l 4.8535158,-4.789063 a 0.46306713,0.46306713 0 0 0 -0.332031,-0.796875 z"
     id="path1763"
     inkscape:connector-curvature="0" />
  <path
     d="M 15.189453,17.597656 C 10.313916,16.978211 6.8515625,19.324219 6.8515625,19.324219 A 0.46306713,0.46306713 0 1 0 7.375,20.087891 c 0,0 5.585868,-3.895261 12.626953,0.11914 a 0.46306713,0.46306713 0 1 0 0.457031,-0.804687 c -1.863315,-1.06235 -3.644352,-1.598206 -5.269531,-1.804688 z"
     id="path1765"
     inkscape:connector-curvature="0" />
  <path
     d="m 15.414267,0.30447647 c -1.366999,-0.06429 -3.767743,-0.0082 -5.033203,0.117187 C 6.9400763,0.76270952 4.3975798,1.6048995 3.0373128,3.0368975 c -0.365669,0.384958 -0.635513,0.812421 -0.751953,1.261719 -0.05826,0.224486 -0.0582,0.437019 -0.04297,1.392578 0.08909,5.5696295 -0.176077,10.2013395 1.609375,13.7832035 0.975913,1.957819 1.608219,2.546757 3.0273434,3.697266 0.7033757,0.570235 1.8640888,1.250615 3.0566405,1.835937 1.1925523,0.585323 2.3718923,1.067024 3.2207033,1.183594 1.101983,0.151339 2.336886,-0.147579 3.720703,-0.832031 0.563651,-0.278789 1.706174,-0.848334 2.833985,-1.480469 1.12781,-0.632135 2.219908,-1.285758 2.798828,-1.90625 1.443812,-1.547494 1.970315,-3.342015 2.189453,-5.439453 0.219137,-2.097437 0.155408,-4.528245 0.40625,-7.5332035 0.06627,-0.793917 0.118788,-1.819732 0.146484,-2.695312 0.01385,-0.437791 0.02187,-0.835969 0.02149,-1.152344 -3.82e-4,-0.316376 0.0095,-0.489527 -0.03711,-0.710938 -0.243971,-1.159037 -1.384943,-2.13141 -2.9043,-2.802734 C 20.581623,0.86495852 18.337456,0.44196347 15.414267,0.30447647 Z m -2.257813,25.88671853 0.03125,0.0059 h 0.0332 z M 15.369345,1.2693195 c 2.852895,0.134181 4.985047,0.549783 6.574219,1.251953 1.348369,0.595774 2.219894,1.510218 2.347656,2.117188 -0.01142,-0.05427 0.01526,0.213873 0.01563,0.513672 3.61e-4,0.299799 -0.0059,0.692745 -0.01953,1.123047 -0.02722,0.860603 -0.08049,1.877313 -0.144531,2.644531 -0.255511,3.0608835 -0.193464,5.5144145 -0.402344,7.5136725 -0.20888,1.999258 -0.663363,3.515225 -1.9375,4.880859 -0.367985,0.394409 -1.461434,1.103558 -2.5625,1.720703 -1.101067,0.617146 -2.231578,1.182279 -2.791016,1.458985 -1.277812,0.63202 -2.33165,0.856237 -3.162109,0.742187 -0.581956,-0.07992 -1.778889,-0.53279 -2.925781,-1.095703 C 9.2146395,23.577501 8.0710366,22.895529 7.4865323,22.421664 6.0761369,21.278231 5.655875,20.93214 4.7150478,19.044711 3.0989798,15.802654 3.2968858,11.280297 3.2072348,5.6755695 c -0.01517,-0.951541 -0.008,-1.058717 0.01172,-1.134765 0.05776,-0.222876 0.243241,-0.54898 0.519531,-0.839844 1.062074,-1.118081 3.4125687,-1.990692 6.7382822,-2.320313 1.169441,-0.115906 3.607437,-0.171772 4.892578,-0.111328 z"
     id="path828-4-5-1"
     inkscape:connector-curvature="0" />
</svg>
