<?xml version="1.0" encoding="UTF-8" standalone="no"?>
<svg
   xmlns:dc="http://purl.org/dc/elements/1.1/"
   xmlns:cc="http://creativecommons.org/ns#"
   xmlns:rdf="http://www.w3.org/1999/02/22-rdf-syntax-ns#"
   xmlns:svg="http://www.w3.org/2000/svg"
   xmlns="http://www.w3.org/2000/svg"
   xmlns:sodipodi="http://sodipodi.sourceforge.net/DTD/sodipodi-0.dtd"
   xmlns:inkscape="http://www.inkscape.org/namespaces/inkscape"
   id="svg951"
   version="1.1"
   viewBox="0 0 27.081752 26.688241"
   height="26.688242mm"
   width="27.081753mm"
   sodipodi:docname="awful2.svg"
   inkscape:version="0.92.4 5da689c313, 2019-01-14">
  <sodipodi:namedview
     pagecolor="#ffffff"
     bordercolor="#666666"
     borderopacity="1"
     objecttolerance="10"
     gridtolerance="10"
     guidetolerance="10"
     inkscape:pageopacity="0"
     inkscape:pageshadow="2"
     inkscape:window-width="1920"
     inkscape:window-height="1147"
     id="namedview13"
     showgrid="false"
     inkscape:zoom="3.3087924"
     inkscape:cx="-66.086434"
     inkscape:cy="64.527323"
     inkscape:window-x="0"
     inkscape:window-y="0"
     inkscape:window-maximized="1"
     inkscape:current-layer="svg951" />
  <defs
     id="defs945" />
  <metadata
     id="metadata948">
    <rdf:RDF>
      <cc:Work
         rdf:about="">
        <dc:format>image/svg+xml</dc:format>
        <dc:type
           rdf:resource="http://purl.org/dc/dcmitype/StillImage" />
        <dc:title />
      </cc:Work>
    </rdf:RDF>
  </metadata>
  <path
     d="m 20.644531,14.476562 c -0.142343,-0.0014 -0.252211,0.03954 -0.359375,0.0918 -0.214328,0.104516 -0.427026,0.273351 -0.691406,0.525391 -3.155936,3.008643 -6.115044,2.924924 -8.353516,2.158203 C 10.120999,16.868593 9.1924318,16.302297 8.5546875,15.84375 8.2358154,15.614477 7.989955,15.411628 7.828125,15.273438 7.74721,15.204342 7.6878514,15.15336 7.6464844,15.117188 c -0.020684,-0.01809 -0.030331,-0.02966 -0.060547,-0.05274 -0.00755,-0.0058 -0.01596,-0.01232 -0.037109,-0.02539 -0.010574,-0.0065 -0.05234,-0.02717 -0.052734,-0.02734 -3.946e-4,-1.72e-4 -0.1970606,-0.02932 -0.1972657,-0.0293 -2.051e-4,2e-5 -0.357407,0.366974 -0.3574219,0.367187 -1.48e-5,2.14e-4 0.031074,0.185137 0.03125,0.185547 3.7e-5,8.6e-5 0.00323,0.0065 0.00391,0.0078 0.00164,0.0037 0.00422,0.0041 0.00586,0.0078 1.7449628,3.906679 3.7098302,5.723698 5.6835942,6.189453 1.975618,0.466194 3.830562,-0.451572 5.269531,-1.699218 1.438968,-1.247647 2.502418,-2.833722 2.984375,-3.931641 0.120489,-0.27448 0.204807,-0.517401 0.248047,-0.738281 0.04324,-0.22088 0.09342,-0.44313 -0.101563,-0.691406 -0.09749,-0.124139 -0.279532,-0.201767 -0.421875,-0.203126 z m -0.376953,1.09375 c -0.02882,0.07936 -0.03571,0.128527 -0.07617,0.220704 -0.419617,0.955906 -1.446742,2.496702 -2.777344,3.65039 -1.330601,1.153688 -2.924585,1.912356 -4.564453,1.525391 -1.327018,-0.313141 -2.759308,-1.750438 -4.1582028,-4.164063 0.6396602,0.416641 1.3259748,0.870627 2.2910158,1.201172 2.436546,0.834565 5.814602,0.853475 9.160156,-2.335937 0.05924,-0.05648 0.07346,-0.05348 0.125,-0.09766 z"
     id="path889-8-4"
     inkscape:connector-curvature="0" />
  <path
     d="m 19.183594,7.2519531 c -0.406965,-0.069748 -0.806225,-0.043003 -1.164063,0.097656 -0.447264,0.1758029 -0.83318,0.4551707 -1.189453,0.8945312 -0.356273,0.4393605 -0.693195,1.0344042 -1.111328,1.8906257 -0.138992,0.28462 -0.233333,0.499379 -0.28125,0.6875 -0.02396,0.09406 -0.04475,0.180923 -0.01758,0.310546 0.01358,0.06481 0.04553,0.146492 0.115234,0.212891 0.0697,0.0664 0.167331,0.101185 0.242188,0.107422 0.149713,0.01247 0.232321,-0.03224 0.318359,-0.07617 0.08604,-0.04393 0.171178,-0.100959 0.267578,-0.171875 0.192802,-0.141831 0.428848,-0.344152 0.720703,-0.611328 0.910238,-0.8332719 1.834725,-1.179128 2.664063,-1.0683597 0.156814,0.020932 0.83443,0.2219852 1.345703,0.4257813 0.498533,0.1987034 0.798603,0.3121584 1.042969,0.3574224 0.122183,0.02263 0.244044,0.0369 0.388672,-0.02539 0.144627,-0.06229 0.243626,-0.222156 0.269531,-0.3300783 C 22.83855,9.7715095 22.7736,9.7183286 22.74805,9.6738308 22.72249,9.6293328 22.69883,9.5988138 22.67188,9.5664089 22.617974,9.501596 22.552034,9.435679 22.472656,9.359375 22.313901,9.2067669 22.100046,9.0200105 21.861328,8.8222656 21.383892,8.4267759 20.814793,7.9913782 20.402344,7.734375 20.006075,7.4874554 19.590559,7.3217014 19.183594,7.2519531 Z m -0.921875,0.7128907 c 0.447466,-0.1758899 1.128433,-0.080831 1.791015,0.3320312 0.358391,0.2233188 0.92627,0.653738 1.386719,1.0351562 0.02962,0.024538 0.04551,0.040341 0.07422,0.064453 -0.07945,-0.030462 -0.08109,-0.023583 -0.173828,-0.060547 C 20.791818,9.1174916 20.187063,8.916009 19.835938,8.8691406 18.763617,8.7259189 17.645301,9.1841217 16.636719,10.107422 c -0.117355,0.107431 -0.178645,0.150905 -0.275391,0.234375 0.381985,-0.772625 0.696968,-1.3296151 0.982422,-1.6816408 0.299693,-0.3695849 0.563334,-0.5559184 0.917969,-0.6953124 z"
     id="path1130-9-6-8"
     inkscape:connector-curvature="0" />
  <path
     d="M 8.9785156,7.2519531 C 8.5715497,7.3217013 8.1540857,7.487456 7.7578125,7.734375 7.3453695,7.9913778 6.7762628,8.426776 6.2988281,8.8222656 6.0601108,9.0200104 5.8462552,9.206767 5.6875,9.359375 5.6081224,9.435679 5.5421824,9.501596 5.4882812,9.5664062 c -0.02695,0.032405 -0.050616,0.062924 -0.076172,0.1074219 -0.025556,0.044498 -0.090505,0.097679 -0.046875,0.2792969 0.02591,0.107921 0.124906,0.267787 0.2695312,0.330078 0.1446252,0.06229 0.2664886,0.04802 0.3886719,0.02539 C 6.2678042,10.26333 6.5678781,10.149875 7.0664062,9.9511719 7.5776803,9.7473756 8.2552949,9.5463223 8.4121094,9.5253906 9.2414481,9.4146223 10.165934,9.7604783 11.076172,10.59375 c 0.291853,0.267176 0.527902,0.469496 0.720703,0.611328 0.0964,0.07092 0.18154,0.127946 0.267578,0.171875 0.08604,0.04393 0.168647,0.08864 0.318359,0.07617 0.07486,-0.0062 0.172486,-0.04102 0.242188,-0.107422 0.0697,-0.0664 0.103602,-0.148079 0.117188,-0.212891 0.02717,-0.129623 0.0044,-0.216486 -0.01953,-0.310546 -0.04792,-0.188122 -0.140305,-0.40288 -0.279297,-0.6875 C 12.025227,9.2785448 11.686351,8.6835012 11.330078,8.2441406 10.973805,7.8047801 10.587889,7.5254123 10.140625,7.3496094 9.7827872,7.2089502 9.3854815,7.182205 8.9785156,7.2519531 Z m 0.9199219,0.7128907 c 0.3546355,0.139394 0.6182765,0.3257275 0.9179685,0.6953124 0.285062,0.3515428 0.599213,0.9088067 0.980469,1.6796878 -0.09604,-0.08292 -0.157176,-0.125991 -0.273437,-0.232422 C 10.514855,9.1841218 9.39654,8.725919 8.3242188,8.8691406 7.9730932,8.916009 7.3702916,9.1174918 6.8222656,9.3359375 c -0.093816,0.037393 -0.095566,0.03176 -0.1757812,0.0625 0.029074,-0.024421 0.044208,-0.041547 0.074219,-0.066406 C 7.181151,8.9506129 7.7490349,8.5201942 8.1074219,8.296875 8.7700155,7.884011 9.4509732,7.7889541 9.8984375,7.9648438 Z"
     id="path1209-4"
     inkscape:connector-curvature="0" />
  <path
     d="M 15.414062,0.46484375 C 14.047064,0.40054976 11.646319,0.45465477 10.380859,0.58007812 6.9398724,0.92112368 4.3993289,1.7652668 3.0390625,3.1972656 2.6733934,3.582223 2.4015959,4.0096864 2.2851562,4.4589844 c -0.058263,0.224486 -0.058201,0.4370189 -0.042969,1.3925781 0.089089,5.5696285 -0.1760769,10.2013385 1.609375,13.7832035 0.9759136,1.957818 1.6082202,2.546748 3.0273437,3.697265 0.7033758,0.570236 1.8640897,1.248663 3.0566407,1.833985 1.1925514,0.585321 2.3718904,1.068978 3.2207034,1.185546 1.101985,0.151346 2.33689,-0.147574 3.720703,-0.832031 0.563654,-0.278788 1.708126,-0.850285 2.835938,-1.482422 1.127812,-0.632136 2.217953,-1.283807 2.796875,-1.904297 1.443807,-1.547492 1.970315,-3.342016 2.189453,-5.439453 0.219137,-2.097437 0.155409,-4.528245 0.40625,-7.5332028 0.06654,-0.7940452 0.118844,-1.8197027 0.146484,-2.6953124 0.01382,-0.4378049 0.02191,-0.8379143 0.02148,-1.1542969 -4.24e-4,-0.3163827 0.0095,-0.489572 -0.03711,-0.7109375 C 24.992355,3.4405765 23.851385,2.4701523 22.332031,1.7988281 20.581412,1.0253269 18.337259,0.6023308 15.414062,0.46484375 Z M 13.15625,26.351562 l 0.03125,0.0059 h 0.0332 z M 15.369141,1.4296875 c 2.852903,0.1341809 4.985037,0.5497823 6.574218,1.2519531 1.348367,0.5957738 2.21989,1.5102124 2.347657,2.1171875 -0.01142,-0.054229 0.01718,0.2138801 0.01758,0.5136719 4.01e-4,0.2997918 -0.0079,0.6908065 -0.02148,1.1210938 -0.02717,0.8605744 -0.08025,1.8793955 -0.144531,2.6464843 -0.255509,3.0608829 -0.193464,5.5144139 -0.402344,7.5136719 -0.20888,1.999258 -0.663367,3.513274 -1.9375,4.878906 -0.367988,0.394411 -1.461432,1.10551 -2.5625,1.722656 -1.101068,0.617147 -2.231579,1.182283 -2.791015,1.458985 -1.277805,0.632023 -2.331653,0.856242 -3.16211,0.742187 C 12.705151,25.316563 11.50822,24.863692 10.361328,24.300781 9.2144364,23.73787 8.0708324,23.055896 7.4863281,22.582031 6.0759316,21.438589 5.6556702,21.092507 4.7148438,19.205078 3.0987756,15.963021 3.296682,11.440665 3.2070312,5.8359375 3.1918633,4.8843967 3.1990127,4.7772198 3.21875,4.7011719 3.2765103,4.4782959 3.4619904,4.1521927 3.7382812,3.8613281 4.8003549,2.743247 7.1508494,1.8706361 10.476562,1.5410156 11.646003,1.425109 14.083999,1.3692435 15.369141,1.4296875 Z"
     id="path828-4-5-1-4"
     inkscape:connector-curvature="0" />
</svg>
