<?xml version="1.0" encoding="UTF-8" standalone="no"?>
<svg
   xmlns:dc="http://purl.org/dc/elements/1.1/"
   xmlns:cc="http://creativecommons.org/ns#"
   xmlns:rdf="http://www.w3.org/1999/02/22-rdf-syntax-ns#"
   xmlns:svg="http://www.w3.org/2000/svg"
   xmlns="http://www.w3.org/2000/svg"
   xmlns:sodipodi="http://sodipodi.sourceforge.net/DTD/sodipodi-0.dtd"
   xmlns:inkscape="http://www.inkscape.org/namespaces/inkscape"
   id="svg951"
   version="1.1"
   viewBox="0 0 27.081752 26.688241"
   height="26.688242mm"
   width="27.081753mm"
   sodipodi:docname="badv2.svg"
   inkscape:version="0.92.4 5da689c313, 2019-01-14">
  <sodipodi:namedview
     pagecolor="#ffffff"
     bordercolor="#666666"
     borderopacity="1"
     objecttolerance="10"
     gridtolerance="10"
     guidetolerance="10"
     inkscape:pageopacity="0"
     inkscape:pageshadow="2"
     inkscape:window-width="1920"
     inkscape:window-height="1147"
     id="namedview10"
     showgrid="false"
     inkscape:zoom="2.3396695"
     inkscape:cx="-153.55165"
     inkscape:cy="50.434472"
     inkscape:window-x="0"
     inkscape:window-y="0"
     inkscape:window-maximized="1"
     inkscape:current-layer="layer1" />
  <defs
     id="defs945" />
  <metadata
     id="metadata948">
    <rdf:RDF>
      <cc:Work
         rdf:about="">
        <dc:format>image/svg+xml</dc:format>
        <dc:type
           rdf:resource="http://purl.org/dc/dcmitype/StillImage" />
        <dc:title />
      </cc:Work>
    </rdf:RDF>
  </metadata>
  <g
     transform="translate(-31.896132,-231.31002)"
     id="layer1">
    <path
       d="m 51.349609,242.53516 c -1.231985,0 -2.240235,1.00629 -2.240234,2.23828 -10e-7,1.23198 1.008249,2.24023 2.240234,2.24023 1.231985,0 2.238282,-1.00825 2.238282,-2.24023 0,-1.23199 -1.006297,-2.23828 -2.238282,-2.23828 z m 0,0.84765 c 0.773537,0 1.390626,0.61709 1.390625,1.39063 10e-7,0.77353 -0.617088,1.39258 -1.390625,1.39258 -0.773537,0 -1.392578,-0.61905 -1.392578,-1.39258 0,-0.77354 0.619041,-1.39063 1.392578,-1.39063 z"
       id="path1959"
       inkscape:connector-curvature="0" />
    <path
       d="m 47.085938,248.90625 c -4.875537,-0.61945 -8.337891,1.72852 -8.337891,1.72852 a 0.46306713,0.46306713 0 1 0 0.523437,0.76367 c 0,0 5.583916,-3.89722 12.625,0.11718 a 0.46306713,0.46306713 0 1 0 0.458985,-0.80273 c -1.863316,-1.06235 -3.644353,-1.60016 -5.269531,-1.80664 z"
       id="path1985"
       inkscape:connector-curvature="0" />
    <path
       d="m 39.707031,242.53516 c -1.231984,0 -2.240234,1.00629 -2.240234,2.23828 0,1.23198 1.00825,2.24023 2.240234,2.24023 1.231985,0 2.240235,-1.00825 2.240235,-2.24023 0,-1.23199 -1.00825,-2.23828 -2.240235,-2.23828 z m 0,0.84765 c 0.773537,0 1.392578,0.61709 1.392578,1.39063 0,0.77353 -0.619041,1.39258 -1.392578,1.39258 -0.773537,0 -1.390625,-0.61905 -1.390625,-1.39258 0,-0.77354 0.617088,-1.39063 1.390625,-1.39063 z"
       id="circle1989"
       inkscape:connector-curvature="0" />
    <path
       style="stroke-width:1"
       d="m 47.352816,231.70494 c -1.366999,-0.0643 -3.767743,-0.008 -5.033203,0.11718 -3.440988,0.34105 -5.983484,1.18324 -7.343751,2.61524 -0.365669,0.38496 -0.635513,0.81242 -0.751953,1.26172 -0.05826,0.22448 -0.0582,0.43702 -0.04297,1.39257 0.08909,5.56963 -0.176077,10.20134 1.609375,13.78321 0.975913,1.95782 1.608219,2.54676 3.027343,3.69726 0.703376,0.57024 1.864089,1.25062 3.056641,1.83594 1.192552,0.58532 2.371892,1.06703 3.220703,1.1836 1.101983,0.15133 2.336886,-0.14758 3.720703,-0.83204 0.563651,-0.27878 1.706174,-0.84833 2.833985,-1.48046 1.12781,-0.63214 2.219908,-1.28576 2.798828,-1.90625 1.443812,-1.5475 1.970315,-3.34202 2.189453,-5.43946 0.219137,-2.09743 0.155408,-4.52824 0.40625,-7.5332 0.06627,-0.79392 0.118788,-1.81973 0.146484,-2.69531 0.01385,-0.43779 0.02187,-0.83597 0.02149,-1.15235 -3.7e-4,-0.31637 0.0095,-0.48952 -0.03711,-0.71093 -0.24397,-1.15904 -1.384942,-2.13141 -2.904299,-2.80274 -1.750612,-0.7735 -3.994779,-1.1965 -6.917968,-1.33398 z m -2.257813,25.88672 0.03125,0.006 h 0.0332 z m 2.212891,-24.92188 c 2.852895,0.13418 4.985047,0.54978 6.574219,1.25195 1.348369,0.59578 2.219894,1.51022 2.347656,2.11719 -0.01142,-0.0543 0.01526,0.21387 0.01563,0.51367 3.7e-4,0.2998 -0.0059,0.69275 -0.01953,1.12305 -0.02722,0.8606 -0.08049,1.87731 -0.144531,2.64453 -0.255511,3.06088 -0.193464,5.51442 -0.402344,7.51367 -0.20888,1.99926 -0.663363,3.51523 -1.9375,4.88086 -0.367985,0.39441 -1.461434,1.10356 -2.5625,1.72071 -1.101067,0.61714 -2.231578,1.18227 -2.791016,1.45898 -1.277812,0.63202 -2.33165,0.85624 -3.162109,0.74219 -0.581956,-0.0799 -1.778889,-0.53279 -2.925781,-1.09571 -1.1469,-0.56291 -2.290502,-1.24488 -2.875007,-1.71875 -1.410395,-1.14343 -1.830657,-1.48952 -2.771484,-3.37695 -1.616068,-3.24206 -1.418162,-7.76441 -1.507813,-13.36914 -0.01517,-0.95154 -0.008,-1.05872 0.01172,-1.13476 0.05776,-0.22288 0.243241,-0.54898 0.519531,-0.83985 1.062074,-1.11808 3.412569,-1.99069 6.738282,-2.32031 1.169441,-0.11591 3.607437,-0.17177 4.892577,-0.11133 z"
       id="path828-4-5-1"
       inkscape:connector-curvature="0" />
  </g>
</svg>
