<?xml version="1.0" encoding="UTF-8" standalone="no"?>
<svg
   xmlns:dc="http://purl.org/dc/elements/1.1/"
   xmlns:cc="http://creativecommons.org/ns#"
   xmlns:rdf="http://www.w3.org/1999/02/22-rdf-syntax-ns#"
   xmlns:svg="http://www.w3.org/2000/svg"
   xmlns="http://www.w3.org/2000/svg"
   xmlns:sodipodi="http://sodipodi.sourceforge.net/DTD/sodipodi-0.dtd"
   xmlns:inkscape="http://www.inkscape.org/namespaces/inkscape"
   id="svg951"
   version="1.1"
   viewBox="0 0 27.081752 26.688241"
   height="26.688242mm"
   width="27.081753mm"
   sodipodi:docname="bad2.svg"
   inkscape:version="0.92.4 5da689c313, 2019-01-14">
  <sodipodi:namedview
     pagecolor="#ffffff"
     bordercolor="#666666"
     borderopacity="1"
     objecttolerance="10"
     gridtolerance="10"
     guidetolerance="10"
     inkscape:pageopacity="0"
     inkscape:pageshadow="2"
     inkscape:window-width="1920"
     inkscape:window-height="1147"
     id="namedview10"
     showgrid="false"
     inkscape:zoom="3.3087924"
     inkscape:cx="-14.128161"
     inkscape:cy="69.538473"
     inkscape:window-x="0"
     inkscape:window-y="0"
     inkscape:window-maximized="1"
     inkscape:current-layer="layer1" />
  <defs
     id="defs945" />
  <metadata
     id="metadata948">
    <rdf:RDF>
      <cc:Work
         rdf:about="">
        <dc:format>image/svg+xml</dc:format>
        <dc:type
           rdf:resource="http://purl.org/dc/dcmitype/StillImage" />
        <dc:title />
      </cc:Work>
    </rdf:RDF>
  </metadata>
  <g
     transform="translate(-31.896132,-231.31002)"
     id="layer1">
    <path
       d="M 38.025391,246.24414 A 0.43660613,0.43660613 0 0 0 37.75,247.02344 c 0.0069,0.006 0.01454,0.006 0.02148,0.0117 l -0.002,0.002 c 0,0 1.175778,0.70539 2.695313,1.4707 0.227974,0.0905 0.447049,0.2337 0.675781,0.30664 0.618023,0.28762 1.102769,0.58297 1.824219,0.83008 1.460529,0.50025 3.089204,0.85318 4.701172,0.76758 1.611968,-0.0856 3.215506,-0.62583 4.53125,-1.89844 0.619246,-0.59894 0.984686,-0.95718 1.189453,-1.21875 0.05119,-0.0654 0.09415,-0.12337 0.134765,-0.21094 0.02031,-0.0438 0.04209,-0.0969 0.05078,-0.17968 0.0087,-0.0828 -0.0053,-0.21232 -0.08203,-0.32227 -0.07668,-0.10995 -0.190952,-0.16675 -0.269531,-0.1875 -0.07858,-0.0207 -0.133251,-0.0186 -0.179687,-0.0156 -0.09287,0.006 -0.157174,0.0239 -0.228516,0.0449 -0.285368,0.084 -0.663261,0.25403 -1.191406,0.4707 -0.528146,0.21667 -1.187366,0.47656 -1.94336,0.72461 -2.225064,0.73007 -5.256347,1.31902 -8.236328,0.37695 -0.232591,-0.1091 -0.479462,-0.20651 -0.691406,-0.31445 -0.823438,-0.3319 -1.646718,-0.70992 -2.433594,-1.33008 -0.001,-7.3e-4 -0.04492,-0.0273 -0.04492,-0.0273 a 0.43660613,0.43660613 0 0 0 -0.246093,-0.0801 z m 13.640625,1.56445 c -0.04007,0.039 -0.03383,0.0372 -0.07617,0.0781 -1.152197,1.11442 -2.516828,1.5772 -3.96875,1.6543 -0.603741,0.0321 -1.203211,-0.21205 -1.81836,-0.30079 1.527141,-0.12816 2.978665,-0.40719 4.148438,-0.79101 0.672844,-0.22077 1.220763,-0.44106 1.714844,-0.64063 z"
       id="path889-4-7-7-5-4"
       inkscape:connector-curvature="0" />
    <path
       d="m 51.158203,238.40234 c -0.406965,-0.0697 -0.804273,-0.043 -1.162109,0.0977 -0.447264,0.1758 -0.833181,0.45517 -1.189453,0.89453 -0.356273,0.43936 -0.695149,1.0344 -1.113282,1.89063 -0.138992,0.28462 -0.231379,0.49938 -0.279297,0.6875 -0.02396,0.0941 -0.0467,0.18092 -0.01953,0.31054 0.01358,0.0648 0.04748,0.14649 0.117188,0.21289 0.0697,0.0664 0.167331,0.10119 0.242187,0.10743 0.149713,0.0125 0.232323,-0.0342 0.31836,-0.0781 0.08604,-0.0439 0.171177,-0.099 0.267578,-0.16992 0.04439,-0.0326 0.116943,-0.10158 0.166015,-0.14063 v 0.0371 l 0.554688,-0.50781 c 0.910238,-0.83327 1.834725,-1.17913 2.664062,-1.06836 0.15682,0.0209 0.834429,0.22003 1.345703,0.42383 0.498534,0.1987 0.798602,0.31411 1.042969,0.35937 0.122184,0.0226 0.244045,0.0369 0.388672,-0.0254 0.144627,-0.0623 0.243626,-0.22215 0.269531,-0.33007 0.04363,-0.18162 -0.02132,-0.2348 -0.04687,-0.2793 -0.02556,-0.0445 -0.04922,-0.075 -0.07617,-0.10742 -0.0539,-0.0648 -0.119841,-0.13268 -0.199219,-0.20899 -0.158756,-0.15261 -0.37261,-0.33741 -0.611328,-0.53515 -0.477437,-0.39549 -1.046536,-0.83089 -1.458985,-1.08789 -0.39627,-0.24693 -0.813738,-0.41268 -1.220703,-0.48243 z m -0.919922,0.71289 c 0.447468,-0.17588 1.128436,-0.0808 1.791016,0.33204 0.358391,0.22331 0.92627,0.65178 1.386719,1.0332 0.03123,0.0259 0.04791,0.043 0.07813,0.0684 -0.08153,-0.0312 -0.08402,-0.0244 -0.179688,-0.0625 -0.548028,-0.21845 -1.150831,-0.41993 -1.501953,-0.4668 -0.883743,-0.11804 -1.785657,0.25663 -2.644531,0.87891 V 240.75 l -0.554688,0.50586 c -0.116094,0.10628 -0.177504,0.14959 -0.273437,0.23242 0.380796,-0.76978 0.695654,-1.3265 0.980468,-1.67773 0.299693,-0.36959 0.563333,-0.55592 0.917969,-0.69532 z"
       id="path1130-9-6-8-7-9"
       inkscape:connector-curvature="0" />
    <path
       d="m 40.953125,238.40234 c -0.406966,0.0697 -0.822476,0.2355 -1.21875,0.48243 -0.412443,0.257 -0.981549,0.6924 -1.458984,1.08789 -0.238718,0.19774 -0.452573,0.38254 -0.611329,0.53515 -0.07938,0.0763 -0.145317,0.14418 -0.199218,0.20899 -0.02695,0.0324 -0.05062,0.0629 -0.07617,0.10742 -0.02556,0.0445 -0.0905,0.0977 -0.04687,0.2793 0.02591,0.10792 0.124907,0.26778 0.269531,0.33007 0.144625,0.0623 0.266488,0.048 0.388672,0.0254 0.244368,-0.0453 0.54444,-0.16067 1.042969,-0.35937 0.511273,-0.2038 1.188883,-0.4029 1.345703,-0.42383 0.829336,-0.11077 1.753825,0.23509 2.664062,1.06836 l 0.554688,0.50781 v -0.0371 c 0.04907,0.0391 0.121629,0.10798 0.166016,0.14063 0.0964,0.0709 0.18154,0.12599 0.267578,0.16992 0.08604,0.0439 0.168647,0.0906 0.318359,0.0781 0.07486,-0.006 0.172483,-0.041 0.242187,-0.10743 0.0697,-0.0664 0.101649,-0.14807 0.115235,-0.21289 0.02717,-0.12962 0.0064,-0.21648 -0.01758,-0.31054 -0.04792,-0.18812 -0.142258,-0.40288 -0.28125,-0.6875 -0.418133,-0.85623 -0.755056,-1.45127 -1.111328,-1.89063 -0.356273,-0.43936 -0.744144,-0.71873 -1.191407,-0.89453 -0.357836,-0.14066 -0.755143,-0.1674 -1.162109,-0.0977 z m 0.921875,0.71289 c 0.354636,0.1394 0.618276,0.32573 0.917969,0.69532 0.284815,0.35123 0.599672,0.90795 0.980469,1.67773 -0.09606,-0.0829 -0.157147,-0.12596 -0.273438,-0.23242 L 42.945312,240.75 v 0.14844 c -0.858874,-0.62228 -1.760789,-0.99695 -2.644531,-0.87891 -0.351122,0.0469 -0.955879,0.24835 -1.503906,0.4668 -0.09492,0.0378 -0.09674,0.0315 -0.177734,0.0625 0.03016,-0.0254 0.04695,-0.0425 0.07813,-0.0684 0.460448,-0.38142 1.028331,-0.80989 1.386718,-1.0332 0.662592,-0.41288 1.343547,-0.50792 1.791016,-0.33204 z"
       id="path1209-4-82-3"
       inkscape:connector-curvature="0" />
    <path
       d="m 47.390625,231.61523 c -1.367001,-0.0643 -3.767747,-0.0102 -5.033203,0.11524 -3.440987,0.34105 -5.983492,1.18323 -7.34375,2.61523 -0.365671,0.38496 -0.635513,0.81243 -0.751953,1.26172 -0.05826,0.22449 -0.0582,0.43897 -0.04297,1.39453 0.08909,5.56963 -0.176066,10.20134 1.609375,13.78321 0.975913,1.95781 1.608218,2.54675 3.027344,3.69726 0.703375,0.57024 1.86409,1.24866 3.05664,1.83399 1.192551,0.58532 2.369941,1.06897 3.21875,1.18554 1.101981,0.15134 2.338844,-0.14758 3.722657,-0.83203 0.56365,-0.27879 1.706172,-0.85029 2.833984,-1.48242 1.127812,-0.63213 2.217953,-1.28576 2.796875,-1.90625 1.443812,-1.54749 1.97227,-3.34006 2.191406,-5.4375 0.219137,-2.09744 0.155409,-4.52825 0.40625,-7.5332 0.06601,-0.79379 0.11872,-1.81976 0.146485,-2.69532 0.01388,-0.43777 0.02183,-0.83792 0.02148,-1.15429 -3.43e-4,-0.31638 0.0096,-0.48935 -0.03711,-0.71094 -0.243963,-1.15904 -1.384944,-2.12946 -2.904297,-2.80078 -1.750617,-0.7735 -3.994772,-1.1965 -6.917969,-1.33399 z m -2.259766,25.88672 0.0332,0.004 h 0.0332 z m 2.214844,-24.92187 c 2.852901,0.13418 4.983083,0.54979 6.572266,1.25195 1.348367,0.59578 2.221852,1.51023 2.349609,2.11719 -0.01147,-0.0545 0.0153,0.21387 0.01563,0.51367 3.25e-4,0.2998 -0.0059,0.69078 -0.01953,1.12109 -0.02729,0.86063 -0.08072,1.87913 -0.144531,2.64649 -0.25551,3.06088 -0.195419,5.51441 -0.404297,7.51367 -0.208879,1.99926 -0.66141,3.51327 -1.935547,4.87891 -0.367988,0.39441 -1.461432,1.10551 -2.5625,1.72265 -1.101068,0.61715 -2.231575,1.18228 -2.791016,1.45899 -1.277807,0.63201 -2.331651,0.85428 -3.162109,0.74023 -0.58196,-0.0799 -1.77889,-0.53279 -2.925781,-1.0957 -1.146892,-0.56291 -2.290496,-1.24293 -2.875,-1.7168 -1.410396,-1.14343 -1.830658,-1.49148 -2.771485,-3.3789 -1.616059,-3.24206 -1.418162,-7.76246 -1.507812,-13.36719 -0.01517,-0.95154 -0.008,-1.05871 0.01172,-1.13477 v -0.002 c 0.05776,-0.22287 0.243243,-0.54703 0.519532,-0.83789 1.062062,-1.11808 3.412566,-1.99069 6.738281,-2.32031 1.169444,-0.11591 3.607437,-0.17178 4.892578,-0.11133 z"
       id="path828-4-5-1-4-4-5"
       inkscape:connector-curvature="0" />
  </g>
</svg>
