<?xml version="1.0" encoding="UTF-8" standalone="no"?>
<svg
   xmlns:dc="http://purl.org/dc/elements/1.1/"
   xmlns:cc="http://creativecommons.org/ns#"
   xmlns:rdf="http://www.w3.org/1999/02/22-rdf-syntax-ns#"
   xmlns:svg="http://www.w3.org/2000/svg"
   xmlns="http://www.w3.org/2000/svg"
   xmlns:sodipodi="http://sodipodi.sourceforge.net/DTD/sodipodi-0.dtd"
   xmlns:inkscape="http://www.inkscape.org/namespaces/inkscape"
   id="svg951"
   version="1.1"
   viewBox="0 0 27.081752 26.688241"
   height="26.688242mm"
   width="27.081753mm"
   sodipodi:docname="good2.svg"
   inkscape:version="0.92.4 5da689c313, 2019-01-14">
  <sodipodi:namedview
     pagecolor="#ffffff"
     bordercolor="#666666"
     borderopacity="1"
     objecttolerance="10"
     gridtolerance="10"
     guidetolerance="10"
     inkscape:pageopacity="0"
     inkscape:pageshadow="2"
     inkscape:window-width="1920"
     inkscape:window-height="1147"
     id="namedview10"
     showgrid="false"
     inkscape:zoom="3.3087924"
     inkscape:cx="-44.065466"
     inkscape:cy="63.814418"
     inkscape:window-x="0"
     inkscape:window-y="0"
     inkscape:window-maximized="1"
     inkscape:current-layer="layer1" />
  <defs
     id="defs945" />
  <metadata
     id="metadata948">
    <rdf:RDF>
      <cc:Work
         rdf:about="">
        <dc:format>image/svg+xml</dc:format>
        <dc:type
           rdf:resource="http://purl.org/dc/dcmitype/StillImage" />
        <dc:title />
      </cc:Work>
    </rdf:RDF>
  </metadata>
  <g
     transform="translate(-78.803217,-294.94543)"
     id="layer1">
    <path
       d="m 94.574219,309.97266 c -1.611968,-0.0856 -3.242595,0.26927 -4.703125,0.76953 -0.722874,0.24759 -1.209135,0.54188 -1.828125,0.83008 -0.222763,0.0711 -0.436154,0.21106 -0.658203,0.29882 -1.526779,0.76782 -2.708985,1.47657 -2.708985,1.47657 l 0.002,0.004 c -0.0069,0.005 -0.01454,0.006 -0.02148,0.0117 a 0.43671957,0.43671957 0 0 0 0.523438,0.69922 c 0,0 0.06775,-0.0412 0.07031,-0.043 0.78567,-0.61545 1.606005,-0.9971 2.427734,-1.32617 0.204355,-0.10383 0.440672,-0.19787 0.664063,-0.30274 2.982396,-0.94548 6.017208,-0.35373 8.244141,0.37696 0.755993,0.24805 1.415213,0.50794 1.943359,0.72461 0.528145,0.21667 0.904085,0.38665 1.189453,0.4707 0.07134,0.021 0.135642,0.039 0.228516,0.0449 0.04644,0.003 0.103065,0.003 0.181645,-0.0176 0.0786,-0.0208 0.19284,-0.0756 0.26953,-0.18554 0.0767,-0.10995 0.0907,-0.24146 0.082,-0.32422 -0.009,-0.0828 -0.0305,-0.13395 -0.0508,-0.17774 -0.0406,-0.0876 -0.0836,-0.14554 -0.13477,-0.21093 -0.20476,-0.26157 -0.57216,-0.62176 -1.191405,-1.22071 -1.315744,-1.2726 -2.917329,-1.81284 -4.529297,-1.89843 z m -0.04687,0.87304 c 1.451922,0.0771 2.816553,0.53988 3.96875,1.6543 0.04123,0.0399 0.03514,0.0382 0.07422,0.0762 -0.493774,-0.19942 -1.040755,-0.41813 -1.71289,-0.63867 -1.167786,-0.38317 -2.616468,-0.66424 -4.140625,-0.79297 0.612488,-0.0879 1.209436,-0.33075 1.810547,-0.29883 z"
       id="path889-4-7-7-5-4-2"
       inkscape:connector-curvature="0" />
    <path
       d="m 98.066406,302.11719 c -0.406965,-0.0697 -0.804273,-0.043 -1.162109,0.0976 -0.447263,0.17581 -0.833181,0.45517 -1.189453,0.89454 -0.356273,0.43936 -0.695149,1.0344 -1.113282,1.89062 -0.138991,0.28462 -0.233332,0.49938 -0.28125,0.6875 -0.02396,0.0941 -0.04475,0.18092 -0.01758,0.31055 0.01358,0.0648 0.04748,0.14649 0.117188,0.21289 0.0697,0.0664 0.165378,0.10119 0.240234,0.10742 0.149713,0.0125 0.232323,-0.0322 0.31836,-0.0762 0.08604,-0.0439 0.171177,-0.10096 0.267578,-0.17188 0.04439,-0.0326 0.116943,-0.10157 0.166015,-0.14062 v 0.0371 l 0.554688,-0.50782 c 0.910238,-0.83326 1.834725,-1.17913 2.664062,-1.06836 0.156819,0.0209 0.834426,0.22199 1.345703,0.42579 0.49854,0.1987 0.7986,0.31216 1.04297,0.35742 0.12218,0.0226 0.246,0.0369 0.39063,-0.0254 0.14462,-0.0623 0.24167,-0.22216 0.26757,-0.33008 0.0436,-0.18162 -0.0213,-0.2348 -0.0469,-0.2793 -0.0256,-0.0445 -0.0492,-0.075 -0.0762,-0.10742 -0.0539,-0.0648 -0.11984,-0.13073 -0.19922,-0.20703 -0.15876,-0.15261 -0.37066,-0.33937 -0.60938,-0.53711 -0.47743,-0.39549 -1.048487,-0.82894 -1.460936,-1.08594 -0.39627,-0.24692 -0.811785,-0.41462 -1.21875,-0.48437 z m -0.919922,0.71289 c 0.447468,-0.17589 1.126483,-0.0808 1.789063,0.33203 0.358391,0.22332 0.928222,0.65374 1.388673,1.03516 0.03,0.0249 0.0451,0.042 0.0742,0.0664 -0.0803,-0.0308 -0.0818,-0.025 -0.17578,-0.0625 -0.548034,-0.21844 -1.152789,-0.41993 -1.50391,-0.46679 -0.883546,-0.11802 -1.785823,0.25691 -2.644531,0.8789 v -0.14844 l -0.554688,0.50782 c -0.116944,0.10705 -0.178908,0.14915 -0.27539,0.23242 0.381538,-0.77156 0.699161,-1.32796 0.984375,-1.67969 0.299692,-0.36958 0.563332,-0.55592 0.917968,-0.69531 z"
       id="path1130-9-6-8-7-9-0"
       inkscape:connector-curvature="0" />
    <path
       d="m 87.861328,302.11719 c -0.406966,0.0697 -0.824429,0.23745 -1.220703,0.48437 -0.412443,0.257 -0.98155,0.69045 -1.458984,1.08594 -0.238718,0.19774 -0.452573,0.3845 -0.611329,0.53711 -0.07938,0.0763 -0.143364,0.14222 -0.197265,0.20703 -0.02695,0.0324 -0.05257,0.0629 -0.07813,0.10742 -0.02556,0.0445 -0.08855,0.0977 -0.04492,0.2793 0.02591,0.10792 0.122953,0.26779 0.267578,0.33008 0.144625,0.0623 0.266488,0.048 0.388672,0.0254 0.244368,-0.0453 0.54444,-0.15872 1.042969,-0.35742 0.511273,-0.2038 1.188884,-0.40485 1.345703,-0.42579 0.829337,-0.11077 1.755777,0.2351 2.666016,1.06836 l 0.552734,0.50782 v -0.0371 c 0.04916,0.0391 0.121559,0.10792 0.166016,0.14062 0.0964,0.0709 0.18154,0.12795 0.267578,0.17188 0.08604,0.0439 0.168647,0.0886 0.318359,0.0762 0.07486,-0.006 0.172483,-0.041 0.242187,-0.10742 0.0697,-0.0664 0.103603,-0.14808 0.117188,-0.21289 0.02717,-0.12963 0.0044,-0.21649 -0.01953,-0.31055 -0.04792,-0.18812 -0.140305,-0.40288 -0.279297,-0.6875 -0.418133,-0.85622 -0.757009,-1.45126 -1.113281,-1.89062 -0.356273,-0.43937 -0.74219,-0.71873 -1.189453,-0.89454 -0.357837,-0.14065 -0.755144,-0.1674 -1.16211,-0.0976 z m 0.919922,0.71289 c 0.354637,0.13939 0.618276,0.32573 0.917969,0.69531 0.28546,0.35203 0.602377,0.90898 0.984375,1.68164 -0.09693,-0.0836 -0.159708,-0.12668 -0.277344,-0.23437 l -0.552734,-0.50782 v 0.15039 c -0.859223,-0.62287 -1.760378,-0.99895 -2.644532,-0.88085 -0.351121,0.0469 -0.955879,0.24835 -1.503906,0.46679 -0.09399,0.0375 -0.09544,0.0317 -0.175781,0.0625 0.02907,-0.0244 0.04421,-0.0415 0.07422,-0.0664 0.460447,-0.38142 1.028331,-0.81184 1.386718,-1.03516 0.662592,-0.41287 1.343548,-0.50792 1.791015,-0.33203 z"
       id="path1209-4-82-3-2"
       inkscape:connector-curvature="0" />
    <path
       d="m 94.296875,295.33008 c -1.367,-0.0643 -3.767747,-0.0102 -5.033203,0.11523 -3.440986,0.34106 -5.981539,1.18519 -7.341797,2.61719 -0.365671,0.38496 -0.637466,0.81243 -0.753906,1.26172 -0.05826,0.22448 -0.0582,0.43702 -0.04297,1.39258 0.08909,5.56963 -0.176066,10.20133 1.609375,13.7832 0.975913,1.95781 1.608219,2.54676 3.027344,3.69727 0.703375,0.57023 1.86409,1.24866 3.05664,1.83398 1.192551,0.58532 2.371891,1.06898 3.220703,1.18555 1.101985,0.15134 2.33689,-0.14758 3.720704,-0.83203 0.563654,-0.27879 1.708124,-0.85029 2.835937,-1.48243 1.127813,-0.63213 2.217958,-1.2838 2.796878,-1.90429 1.44381,-1.5475 1.97032,-3.34202 2.18945,-5.43946 0.21914,-2.09743 0.15541,-4.52824 0.40625,-7.5332 0.066,-0.79378 0.11872,-1.81976 0.14649,-2.69531 0.0139,-0.43778 0.0218,-0.83792 0.0215,-1.1543 -3.4e-4,-0.31638 0.01,-0.48935 -0.0371,-0.71094 -0.24396,-1.15903 -1.383,-2.12945 -2.90234,-2.80078 -1.750625,-0.77349 -3.996728,-1.1965 -6.919926,-1.33398 z m -2.257813,25.88672 0.0332,0.006 h 0.0332 z m 2.212891,-24.92188 c 2.852902,0.13418 4.985032,0.54979 6.574217,1.25196 1.34836,0.59577 2.22185,1.51022 2.34961,2.11718 -0.0115,-0.0544 0.0153,0.21388 0.0156,0.51367 3.2e-4,0.2998 -0.008,0.69078 -0.0215,1.1211 -0.0273,0.86063 -0.0788,1.87913 -0.14258,2.64648 -0.25551,3.06089 -0.19542,5.51442 -0.40429,7.51367 -0.20888,1.99926 -0.66142,3.51328 -1.93555,4.87891 -0.36799,0.39441 -1.463384,1.10551 -2.564453,1.72266 -1.101069,0.61714 -2.23158,1.18228 -2.791016,1.45898 -1.277806,0.63202 -2.331654,0.85624 -3.162109,0.74219 -0.581958,-0.0799 -1.77889,-0.53279 -2.925781,-1.0957 -1.146892,-0.56292 -2.288543,-1.24489 -2.873047,-1.71875 -1.410395,-1.14344 -1.832611,-1.48953 -2.773438,-3.37696 -1.616059,-3.24206 -1.418162,-7.76441 -1.507812,-13.36914 -0.01517,-0.95154 -0.008,-1.05871 0.01172,-1.13476 h 0.002 c 0.05776,-0.22287 0.241289,-0.54899 0.517578,-0.83985 1.062062,-1.11808 3.412567,-1.99068 6.738281,-2.32031 1.169444,-0.1159 3.607438,-0.17177 4.892578,-0.11133 z"
       id="path828-4-5-1-4-4-5-7"
       inkscape:connector-curvature="0" />
  </g>
</svg>
