<?xml version="1.0" encoding="UTF-8" standalone="no"?>
<svg
   xmlns:dc="http://purl.org/dc/elements/1.1/"
   xmlns:cc="http://creativecommons.org/ns#"
   xmlns:rdf="http://www.w3.org/1999/02/22-rdf-syntax-ns#"
   xmlns:svg="http://www.w3.org/2000/svg"
   xmlns="http://www.w3.org/2000/svg"
   xmlns:sodipodi="http://sodipodi.sourceforge.net/DTD/sodipodi-0.dtd"
   xmlns:inkscape="http://www.inkscape.org/namespaces/inkscape"
   id="svg951"
   version="1.1"
   viewBox="0 0 27.081752 26.688241"
   height="26.688242mm"
   width="27.081753mm"
   sodipodi:docname="good.svg"
   inkscape:version="0.92.4 5da689c313, 2019-01-14">
  <sodipodi:namedview
     pagecolor="#ffffff"
     bordercolor="#666666"
     borderopacity="1"
     objecttolerance="10"
     gridtolerance="10"
     guidetolerance="10"
     inkscape:pageopacity="0"
     inkscape:pageshadow="2"
     inkscape:window-width="1920"
     inkscape:window-height="1147"
     id="namedview10"
     showgrid="false"
     inkscape:zoom="2.3396695"
     inkscape:cx="-134.53187"
     inkscape:cy="50.434472"
     inkscape:window-x="0"
     inkscape:window-y="0"
     inkscape:window-maximized="1"
     inkscape:current-layer="layer1" />
  <defs
     id="defs945" />
  <metadata
     id="metadata948">
    <rdf:RDF>
      <cc:Work
         rdf:about="">
        <dc:format>image/svg+xml</dc:format>
        <dc:type
           rdf:resource="http://purl.org/dc/dcmitype/StillImage" />
        <dc:title />
      </cc:Work>
    </rdf:RDF>
  </metadata>
  <g
     transform="translate(-78.803217,-294.94543)"
     id="layer1">
    <path
       d="m 98.255859,306.16992 c -1.231984,0 -2.240234,1.00825 -2.240234,2.24024 0,1.23198 1.00825,2.24023 2.240234,2.24023 1.231985,0 2.240231,-1.00825 2.240231,-2.24023 0,-1.23199 -1.008246,-2.24024 -2.240231,-2.24024 z m 0,0.84766 c 0.773537,0 1.392578,0.61904 1.392579,1.39258 0,0.77353 -0.619042,1.39062 -1.392579,1.39062 -0.773536,0 -1.390625,-0.61709 -1.390625,-1.39062 0,-0.77354 0.617089,-1.39258 1.390625,-1.39258 z"
       id="circle2063"
       inkscape:connector-curvature="0" />
    <path
       d="m 99.009766,312.43945 a 0.46306713,0.46306713 0 0 0 -0.205078,0.0625 c -7.041085,4.01439 -12.625,0.11914 -12.625,0.11914 a 0.46347676,0.46347676 0 1 0 -0.525391,0.76368 c 0,0 6.156114,4.17126 13.609375,-0.0781 a 0.46306713,0.46306713 0 0 0 -0.253906,-0.86719 z"
       id="path2067"
       inkscape:connector-curvature="0" />
    <path
       d="m 86.615234,306.16992 c -1.231984,0 -2.240234,1.00825 -2.240234,2.24024 0,1.23198 1.00825,2.24023 2.240234,2.24023 1.231985,0 2.238282,-1.00825 2.238282,-2.24023 0,-1.23199 -1.006297,-2.24024 -2.238282,-2.24024 z m 0,0.84766 c 0.773537,0 1.390625,0.61904 1.390625,1.39258 0,0.77353 -0.617088,1.39062 -1.390625,1.39062 -0.773536,0 -1.392578,-0.61709 -1.392578,-1.39062 0,-0.77354 0.619042,-1.39258 1.392578,-1.39258 z"
       id="circle2069"
       inkscape:connector-curvature="0" />
    <path
       style="stroke-width:1"
       d="m 94.25994,295.34035 c -1.366999,-0.0643 -3.767743,-0.008 -5.033203,0.11718 -3.440988,0.34105 -5.983484,1.18324 -7.343751,2.61524 -0.365669,0.38496 -0.635513,0.81242 -0.751953,1.26172 -0.05826,0.22448 -0.0582,0.43702 -0.04297,1.39257 0.08909,5.56963 -0.176077,10.20134 1.609375,13.78321 0.975913,1.95782 1.608219,2.54676 3.027343,3.69726 0.703376,0.57024 1.864089,1.25062 3.056641,1.83594 1.192552,0.58532 2.371892,1.06703 3.220703,1.1836 1.101983,0.15133 2.336886,-0.14758 3.720703,-0.83204 0.563651,-0.27878 1.706174,-0.84833 2.833985,-1.48046 1.12781,-0.63214 2.219907,-1.28576 2.798827,-1.90625 1.44381,-1.5475 1.97032,-3.34202 2.18946,-5.43946 0.21913,-2.09743 0.1554,-4.52824 0.40625,-7.5332 0.0663,-0.79392 0.11878,-1.81973 0.14648,-2.69531 0.0138,-0.43779 0.0219,-0.83597 0.0215,-1.15235 -3.7e-4,-0.31637 0.009,-0.48952 -0.0371,-0.71093 -0.24397,-1.15904 -1.38494,-2.13141 -2.9043,-2.80274 -1.750613,-0.7735 -3.99478,-1.1965 -6.917969,-1.33398 z m -2.257813,25.88672 0.03125,0.006 h 0.0332 z m 2.212891,-24.92188 c 2.852895,0.13418 4.985047,0.54978 6.574222,1.25195 1.34837,0.59578 2.21989,1.51022 2.34765,2.11719 -0.0114,-0.0543 0.0153,0.21387 0.0156,0.51367 3.7e-4,0.2998 -0.006,0.69275 -0.0195,1.12305 -0.0272,0.8606 -0.0805,1.87731 -0.14453,2.64453 -0.25551,3.06088 -0.19346,5.51442 -0.40234,7.51367 -0.20888,1.99926 -0.66337,3.51523 -1.9375,4.88086 -0.36799,0.39441 -1.461439,1.10356 -2.562505,1.72071 -1.101067,0.61714 -2.231578,1.18227 -2.791016,1.45898 -1.277812,0.63202 -2.33165,0.85624 -3.162109,0.74219 -0.581956,-0.0799 -1.778889,-0.53279 -2.925781,-1.09571 -1.146897,-0.56291 -2.290499,-1.24488 -2.875004,-1.71875 -1.410395,-1.14343 -1.830657,-1.48952 -2.771484,-3.37695 -1.616068,-3.24206 -1.418162,-7.76441 -1.507813,-13.36914 -0.01517,-0.95154 -0.008,-1.05872 0.01172,-1.13476 0.05776,-0.22288 0.243241,-0.54898 0.519531,-0.83985 1.062074,-1.11808 3.412569,-1.99069 6.738282,-2.32031 1.169441,-0.11591 3.607437,-0.17177 4.892577,-0.11133 z"
       id="path828-4-5-1"
       inkscape:connector-curvature="0" />
  </g>
</svg>
