<?xml version="1.0" encoding="UTF-8" standalone="no"?>
<svg
   xmlns:dc="http://purl.org/dc/elements/1.1/"
   xmlns:cc="http://creativecommons.org/ns#"
   xmlns:rdf="http://www.w3.org/1999/02/22-rdf-syntax-ns#"
   xmlns:svg="http://www.w3.org/2000/svg"
   xmlns="http://www.w3.org/2000/svg"
   xmlns:sodipodi="http://sodipodi.sourceforge.net/DTD/sodipodi-0.dtd"
   xmlns:inkscape="http://www.inkscape.org/namespaces/inkscape"
   id="svg951"
   version="1.1"
   viewBox="0 0 27.081752 26.688241"
   height="26.688242mm"
   width="27.081753mm"
   sodipodi:docname="greatv2.svg"
   inkscape:version="0.92.4 5da689c313, 2019-01-14">
  <sodipodi:namedview
     pagecolor="#ffffff"
     bordercolor="#666666"
     borderopacity="1"
     objecttolerance="10"
     gridtolerance="10"
     guidetolerance="10"
     inkscape:pageopacity="0"
     inkscape:pageshadow="2"
     inkscape:window-width="1920"
     inkscape:window-height="1147"
     id="namedview10"
     showgrid="false"
     inkscape:zoom="1.1698348"
     inkscape:cx="-305.37895"
     inkscape:cy="66.016464"
     inkscape:window-x="0"
     inkscape:window-y="0"
     inkscape:window-maximized="1"
     inkscape:current-layer="svg951" />
  <defs
     id="defs945" />
  <metadata
     id="metadata948">
    <rdf:RDF>
      <cc:Work
         rdf:about="">
        <dc:format>image/svg+xml</dc:format>
        <dc:type
           rdf:resource="http://purl.org/dc/dcmitype/StillImage" />
        <dc:title />
      </cc:Work>
    </rdf:RDF>
  </metadata>
  <path
     d="M 15.230469,0.39453125 C 13.86347,0.33023726 11.462725,0.38434223 10.197266,0.50976562 6.7562787,0.85081118 4.2157351,1.6949543 2.8554688,3.1269531 2.4897993,3.5119109 2.2180021,3.9393741 2.1015625,4.3886719 2.0432993,4.6131584 2.0433617,4.8256918 2.0585938,5.78125 c 0.089089,5.569629 -0.1760769,10.201338 1.609375,13.783203 0.9759134,1.957819 1.6082203,2.546756 3.0273437,3.697266 0.7033758,0.570235 1.8640887,1.248661 3.0566406,1.833984 1.1925519,0.585323 2.3718929,1.068977 3.2207029,1.185547 1.101983,0.151339 2.336886,-0.147579 3.720703,-0.832031 0.563651,-0.27879 1.708127,-0.850287 2.835938,-1.482422 1.12781,-0.632135 2.217955,-1.283805 2.796875,-1.904297 1.443812,-1.547494 1.970315,-3.342016 2.189453,-5.439453 0.219138,-2.097438 0.155408,-4.528246 0.40625,-7.5332032 0.06627,-0.7939162 0.118788,-1.8197317 0.146484,-2.6953126 0.01385,-0.4377904 0.02187,-0.8379215 0.02148,-1.1542968 -3.82e-4,-0.3163754 0.0095,-0.4895265 -0.03711,-0.7109375 C 24.808767,3.3702592 23.667794,2.3998397 22.148438,1.7285156 20.397825,0.95501371 18.153658,0.53201832 15.230469,0.39453125 Z M 12.972656,26.28125 l 0.03125,0.0059 h 0.0332 z M 15.185547,1.359375 c 2.852895,0.1341809 4.985047,0.549783 6.574219,1.2519531 1.348369,0.595774 2.221847,1.5102172 2.349609,2.1171875 -0.01142,-0.054275 0.01526,0.2138729 0.01563,0.5136719 3.61e-4,0.299799 -0.0079,0.6907922 -0.02148,1.1210937 -0.02722,0.8606032 -0.07853,1.8792675 -0.142578,2.6464844 -0.255511,3.0608834 -0.195417,5.5144144 -0.404297,7.5136724 -0.20888,1.999257 -0.663363,3.513272 -1.9375,4.878906 -0.367985,0.394409 -1.461434,1.105511 -2.5625,1.722656 -1.101067,0.617145 -2.231579,1.182279 -2.791016,1.458984 -1.277812,0.632021 -2.33165,0.856237 -3.162109,0.742188 C 12.52156,25.24625 11.324627,24.793381 10.177734,24.230469 9.0308413,23.667556 7.8872386,22.985583 7.3027344,22.511719 5.8923398,21.368286 5.4720766,21.022195 4.53125,19.134766 2.9151819,15.892708 3.1130882,11.370352 3.0234375,5.765625 3.0082695,4.8140852 3.0154194,4.7069049 3.0351562,4.6308594 3.0929166,4.4079832 3.278397,4.0818799 3.5546875,3.7910156 4.6167611,2.6729345 6.9672557,1.8003236 10.292969,1.4707031 11.462409,1.3547965 13.900405,1.298931 15.185547,1.359375 Z"
     id="path828-4-5-1"
     inkscape:connector-curvature="0" />
  <path
     d="m 6.3164062,15.119141 v 0.46289 c -0.00234,2.18801 1.4219242,4.178878 3.6542969,5.236328 2.2324719,1.057307 4.9502389,1.057923 7.1835939,0.002 2.23345,-1.055822 3.660158,-3.046362 3.660156,-5.234374 v -0.462891 h -0.462891 z m 1.078125,0.925781 12.3398438,0.0039 c -0.191189,1.599376 -1.189785,3.088927 -2.976563,3.933594 -1.967492,0.930265 -4.423994,0.931403 -6.390624,0 -1.7857821,-0.845905 -2.7831481,-2.338051 -2.9726568,-3.9375 z"
     id="path4611-9-1-5-0"
     inkscape:connector-curvature="0" />
  <path
     d="m 19.416016,9.2949219 c -1.231985,0 -2.240235,1.0062971 -2.240235,2.2382811 0,1.231985 1.00825,2.240235 2.240235,2.240235 1.231984,0 2.240234,-1.00825 2.240234,-2.240235 0,-1.231984 -1.00825,-2.2382811 -2.240234,-2.2382811 z m 0,0.8476561 c 0.773536,0 1.392578,0.617088 1.392578,1.390625 0,0.773537 -0.619042,1.392578 -1.392578,1.392578 -0.773537,0 -1.390625,-0.619041 -1.390625,-1.392578 0,-0.773537 0.617088,-1.390625 1.390625,-1.390625 z"
     id="circle2087-1-4-3"
     inkscape:connector-curvature="0" />
  <path
     d="m 7.7753906,9.2949219 c -1.2319844,0 -2.2402344,1.0062971 -2.2402344,2.2382811 0,1.231985 1.00825,2.240234 2.2402344,2.240235 1.2319844,0 2.2382814,-1.00825 2.2382814,-2.240235 0,-1.231984 -1.006297,-2.2382811 -2.2382814,-2.2382811 z m 0,0.8476561 c 0.7735368,0 1.390625,0.617088 1.390625,1.390625 0,0.773537 -0.6170882,1.392578 -1.390625,1.392578 -0.7735368,0 -1.3925781,-0.619041 -1.3925781,-1.392578 0,-0.773537 0.6190413,-1.390625 1.3925781,-1.390625 z"
     id="circle2093-7-4-3"
     inkscape:connector-curvature="0" />
</svg>
