<?xml version="1.0" encoding="UTF-8" standalone="no"?>
<svg
   xmlns:dc="http://purl.org/dc/elements/1.1/"
   xmlns:cc="http://creativecommons.org/ns#"
   xmlns:rdf="http://www.w3.org/1999/02/22-rdf-syntax-ns#"
   xmlns:svg="http://www.w3.org/2000/svg"
   xmlns="http://www.w3.org/2000/svg"
   xmlns:sodipodi="http://sodipodi.sourceforge.net/DTD/sodipodi-0.dtd"
   xmlns:inkscape="http://www.inkscape.org/namespaces/inkscape"
   id="svg951"
   version="1.1"
   viewBox="0 0 27.081752 26.688241"
   height="26.688242mm"
   width="27.081753mm"
   sodipodi:docname="meh2.svg"
   inkscape:version="0.92.4 5da689c313, 2019-01-14">
  <sodipodi:namedview
     pagecolor="#ffffff"
     bordercolor="#666666"
     borderopacity="1"
     objecttolerance="10"
     gridtolerance="10"
     guidetolerance="10"
     inkscape:pageopacity="0"
     inkscape:pageshadow="2"
     inkscape:window-width="1920"
     inkscape:window-height="1147"
     id="namedview10"
     showgrid="false"
     inkscape:zoom="3.3087924"
     inkscape:cx="-42.729668"
     inkscape:cy="66.339796"
     inkscape:window-x="0"
     inkscape:window-y="0"
     inkscape:window-maximized="1"
     inkscape:current-layer="layer1" />
  <defs
     id="defs945" />
  <metadata
     id="metadata948">
    <rdf:RDF>
      <cc:Work
         rdf:about="">
        <dc:format>image/svg+xml</dc:format>
        <dc:type
           rdf:resource="http://purl.org/dc/dcmitype/StillImage" />
        <dc:title />
      </cc:Work>
    </rdf:RDF>
  </metadata>
  <g
     transform="translate(-52.37311,-258.73376)"
     id="layer1">
    <path
       d="m 71.714844,265.90625 c -0.406965,-0.0697 -0.804274,-0.043 -1.16211,0.0977 -0.447263,0.1758 -0.83318,0.45321 -1.189453,0.89257 -0.356272,0.43936 -0.695149,1.03636 -1.113281,1.89258 -0.138992,0.28462 -0.23138,0.49938 -0.279297,0.6875 -0.02396,0.0941 -0.0467,0.18092 -0.01953,0.31055 0.01358,0.0648 0.04748,0.14649 0.117187,0.21289 0.0697,0.0664 0.167331,0.10119 0.242188,0.10742 0.149713,0.0125 0.232322,-0.0342 0.318359,-0.0781 0.08604,-0.0439 0.171178,-0.099 0.267578,-0.16992 0.04439,-0.0327 0.116944,-0.10158 0.166016,-0.14063 v 0.0371 l 0.554688,-0.50781 c 0.910238,-0.83327 1.834725,-1.17914 2.664062,-1.06836 0.15682,0.0209 0.834429,0.22003 1.345703,0.42383 0.498533,0.1987 0.798602,0.31411 1.042969,0.35937 0.122183,0.0226 0.244045,0.0369 0.388672,-0.0254 0.144627,-0.0623 0.243626,-0.22216 0.269531,-0.33008 0.04363,-0.18161 -0.02132,-0.2348 -0.04687,-0.2793 -0.02556,-0.0445 -0.04922,-0.075 -0.07617,-0.10742 -0.0539,-0.0648 -0.119841,-0.13268 -0.199219,-0.20898 -0.158755,-0.15261 -0.37261,-0.33937 -0.611328,-0.53711 -0.477436,-0.39549 -1.046535,-0.82894 -1.458984,-1.08594 -0.39627,-0.24692 -0.813738,-0.41267 -1.220703,-0.48242 z m -0.919922,0.71289 c 0.447468,-0.17589 1.128436,-0.0808 1.791016,0.33203 0.358391,0.22332 0.926269,0.65179 1.386718,1.03321 0.03079,0.0255 0.04637,0.0433 0.07617,0.0684 -0.08034,-0.0308 -0.08179,-0.025 -0.175781,-0.0625 -0.548028,-0.21844 -1.152784,-0.41992 -1.503906,-0.46679 -0.883743,-0.11804 -1.785657,0.25663 -2.644532,0.8789 v -0.14843 l -0.554687,0.50586 c -0.116985,0.10709 -0.178882,0.15109 -0.275391,0.23437 0.381963,-0.77257 0.69698,-1.32768 0.982422,-1.67969 0.299692,-0.36958 0.563332,-0.55591 0.917969,-0.69531 z"
       id="path1130-9-6-8-7-9-0-5"
       inkscape:connector-curvature="0" />
    <path
       d="m 61.511719,265.90625 c -0.406966,0.0697 -0.824429,0.2355 -1.220703,0.48242 -0.412443,0.257 -0.98155,0.69045 -1.458985,1.08594 -0.238717,0.19774 -0.452572,0.3845 -0.611328,0.53711 -0.07938,0.0763 -0.145317,0.14417 -0.199219,0.20898 -0.02695,0.0324 -0.05062,0.0629 -0.07617,0.10742 -0.02556,0.0445 -0.0905,0.0977 -0.04687,0.2793 0.02591,0.10792 0.124906,0.26779 0.269531,0.33008 0.144624,0.0623 0.266488,0.048 0.388672,0.0254 0.244367,-0.0453 0.54444,-0.16067 1.042968,-0.35937 0.511273,-0.2038 1.188884,-0.4029 1.345703,-0.42383 0.829337,-0.11077 1.753826,0.23509 2.664063,1.06836 l 0.554687,0.50781 v -0.0371 c 0.04907,0.039 0.12163,0.10797 0.166016,0.14063 0.0964,0.0709 0.181541,0.12599 0.267578,0.16992 0.08604,0.0439 0.168648,0.0906 0.31836,0.0781 0.07486,-0.006 0.172482,-0.041 0.242187,-0.10742 0.0697,-0.0664 0.103602,-0.14808 0.117188,-0.21289 0.02717,-0.12963 0.0044,-0.21649 -0.01953,-0.31055 -0.04792,-0.18812 -0.140305,-0.40288 -0.279297,-0.6875 -0.418132,-0.85622 -0.757008,-1.45322 -1.113281,-1.89258 -0.356272,-0.43936 -0.74219,-0.71677 -1.189453,-0.89257 -0.357836,-0.14066 -0.755143,-0.16741 -1.162109,-0.0977 z m 0.919922,0.71289 c 0.354636,0.1394 0.618276,0.32573 0.917968,0.69531 0.285442,0.35201 0.60046,0.90712 0.982422,1.67969 -0.09651,-0.0833 -0.158406,-0.12728 -0.27539,-0.23437 l -0.554688,-0.50586 v 0.14843 c -0.858874,-0.62227 -1.760789,-0.99694 -2.644531,-0.8789 -0.351122,0.0469 -0.953926,0.24835 -1.501953,0.46679 -0.09567,0.0381 -0.09816,0.0313 -0.179688,0.0625 0.03021,-0.0254 0.04689,-0.0425 0.07813,-0.0684 0.460448,-0.38142 1.028332,-0.80989 1.386719,-1.03321 0.662591,-0.41287 1.343546,-0.50792 1.791016,-0.33203 z"
       id="path1209-4-82-3-2-2"
       inkscape:connector-curvature="0" />
    <path
       d="m 67.947266,259.11914 c -1.367001,-0.0643 -3.767747,-0.0102 -5.033204,0.11524 -3.440986,0.34105 -5.983492,1.18323 -7.34375,2.61523 -0.365671,0.38496 -0.635513,0.81243 -0.751953,1.26172 -0.05826,0.22448 -0.0582,0.43897 -0.04297,1.39453 0.08909,5.56963 -0.176067,10.20134 1.609375,13.7832 0.975913,1.95783 1.608218,2.54676 3.027343,3.69727 0.703375,0.57023 1.86409,1.24866 3.056641,1.83398 1.192551,0.58533 2.371889,1.06898 3.220703,1.18555 1.10198,0.15133 2.33689,-0.14954 3.720703,-0.83398 0.563651,-0.2788 1.706173,-0.84834 2.833985,-1.48047 1.127811,-0.63214 2.219906,-1.28576 2.798828,-1.90625 1.443812,-1.5475 1.970317,-3.34007 2.189453,-5.4375 0.219136,-2.09744 0.155409,-4.52825 0.40625,-7.53321 0.06601,-0.79378 0.11872,-1.81975 0.146484,-2.69531 0.01388,-0.43778 0.02183,-0.83792 0.02148,-1.1543 -3.43e-4,-0.31637 0.0096,-0.48935 -0.03711,-0.71093 -0.243962,-1.15904 -1.384944,-2.12946 -2.904297,-2.80079 -1.750617,-0.77349 -3.994772,-1.1965 -6.917968,-1.33398 z m -2.257813,25.88672 0.03125,0.004 h 0.0332 z m 2.212891,-24.92188 c 2.852901,0.13418 4.985036,0.54979 6.574218,1.25196 1.348368,0.59577 2.219899,1.51022 2.347657,2.11718 -0.01147,-0.0544 0.0153,0.21388 0.01563,0.51368 3.25e-4,0.2998 -0.0059,0.69078 -0.01953,1.12109 -0.02729,0.86063 -0.08072,1.87913 -0.144531,2.64649 -0.255279,3.05977 -0.193519,5.51493 -0.402343,7.51367 -0.208879,1.99925 -0.663363,3.51327 -1.9375,4.8789 -0.367988,0.39441 -1.461432,1.10551 -2.5625,1.72266 -1.101069,0.61714 -2.231576,1.18032 -2.791016,1.45703 -1.277807,0.63201 -2.331652,0.85623 -3.16211,0.74219 -0.581956,-0.0799 -1.778889,-0.53279 -2.925781,-1.09571 -1.146891,-0.56291 -2.290495,-1.24293 -2.875,-1.71679 -1.410397,-1.14343 -1.830658,-1.49147 -2.771484,-3.37891 -1.616059,-3.24205 -1.418162,-7.76246 -1.507813,-13.36719 -0.01517,-0.95154 -0.008,-1.06066 0.01172,-1.13671 0.05776,-0.22287 0.243243,-0.54703 0.519531,-0.8379 1.062063,-1.11807 3.412567,-1.99068 6.738282,-2.32031 1.169443,-0.1159 3.607436,-0.17177 4.892578,-0.11133 z"
       id="path828-4-5-1-4-4-5-7-79"
       inkscape:connector-curvature="0" />
    <path
       d="m 70.773438,275.45703 c -1.967132,-0.0148 -4.447413,0.16233 -6.916016,0.51367 -0.630377,0.0804 -1.441922,0.13765 -1.931641,0.23047 -1.054637,0.19991 -1.796293,0.4149 -2.279297,0.58203 -0.241502,0.0836 -0.418149,0.15492 -0.537109,0.20703 -0.05948,0.0261 -0.103821,0.0475 -0.134766,0.0625 -0.0062,0.003 -0.0086,0.005 -0.01367,0.008 -0.0048,0.002 -0.01004,0.004 -0.01367,0.006 -0.0035,0.002 -0.0061,0.003 -0.0078,0.004 a 0.43660613,0.43660613 0 0 0 -0.0078,0.004 0.43660613,0.43660613 0 0 0 -0.0039,0.002 c -0.0037,0.002 -0.0098,0.006 -0.0098,0.006 a 0.43660613,0.43660613 0 0 0 -0.13086,0.10938 c 0,0 0.436979,0.58219 0.482422,0.64257 l 0.01758,0.0371 c 1.343907,-0.52877 3.05276,-0.80343 4.742188,-1.04101 2.025302,-0.25465 4.585727,-0.44644 8.392578,-0.28906 0.827195,0.0342 1.340746,0.0422 1.628906,0.0293 0.07204,-0.003 0.128055,-0.009 0.1875,-0.0176 0.02972,-0.004 0.05916,-0.008 0.107422,-0.0234 0.02413,-0.008 0.05431,-0.0164 0.09961,-0.043 0.02265,-0.0133 0.04828,-0.0306 0.08008,-0.0606 0.0318,-0.0299 0.09924,-0.13788 0.09961,-0.13867 3.64e-4,-7.9e-4 0.03915,-0.22966 0.03906,-0.23047 -8.7e-5,-8.1e-4 -0.06782,-0.19253 -0.06836,-0.19336 -5.35e-4,-8.3e-4 -0.05964,-0.0745 -0.08398,-0.0957 -0.02435,-0.0212 -0.04318,-0.0343 -0.06055,-0.0449 -0.06945,-0.0426 -0.102064,-0.0475 -0.132813,-0.0566 -0.0615,-0.0183 -0.108619,-0.0273 -0.169921,-0.0371 -0.490417,-0.0788 -1.706876,-0.1593 -3.375,-0.17188 z"
       id="path889-4-7-7-5-4-2-1"
       inkscape:connector-curvature="0" />
  </g>
</svg>
