<?xml version="1.0" encoding="UTF-8" standalone="no"?>
<svg
   xmlns:dc="http://purl.org/dc/elements/1.1/"
   xmlns:cc="http://creativecommons.org/ns#"
   xmlns:rdf="http://www.w3.org/1999/02/22-rdf-syntax-ns#"
   xmlns:svg="http://www.w3.org/2000/svg"
   xmlns="http://www.w3.org/2000/svg"
   id="svg991"
   version="1.1"
   viewBox="0 0 27.081753 26.688242"
   height="26.688242mm"
   width="27.081753mm">
  <defs
     id="defs985" />
  <metadata
     id="metadata988">
    <rdf:RDF>
      <cc:Work
         rdf:about="">
        <dc:format>image/svg+xml</dc:format>
        <dc:type
           rdf:resource="http://purl.org/dc/dcmitype/StillImage" />
        <dc:title></dc:title>
      </cc:Work>
    </rdf:RDF>
  </metadata>
  <g
     transform="translate(31.683733,-126.41778)"
     id="layer1">
    <ellipse
       ry="12.807558"
       rx="13.004313"
       cy="139.7619"
       cx="-18.142857"
       id="ellipse956"
       style="fill:none;fill-opacity:1;stroke:#5c6a6f;stroke-width:0.87312502;stroke-linecap:round;stroke-linejoin:bevel;stroke-miterlimit:4;stroke-dasharray:none;stroke-opacity:1" />
    <path
       id="path973"
       d="m -18.81547,147.67066 c -0.380593,-0.12531 -0.665761,-0.36574 -0.846932,-0.71407 -0.154664,-0.29737 -0.148381,-0.82282 0.01347,-1.12926 0.139464,-0.26399 0.340415,-0.4621 0.612013,-0.60336 0.160403,-0.0834 0.268382,-0.10365 0.55355,-0.10365 0.285171,0 0.39315,0.0202 0.553556,0.10365 0.271595,0.14126 0.472549,0.33937 0.612011,0.60336 0.159604,0.30213 0.168174,0.83374 0.01799,1.11696 -0.248938,0.46946 -0.628721,0.72388 -1.117139,0.74838 -0.158319,0.008 -0.337669,-0.002 -0.398563,-0.022 z m -0.236337,-4.29004 c -0.07117,-0.68746 -0.257458,-3.34049 -0.236066,-3.36188 0.01344,-0.0134 0.398907,-0.10105 0.856567,-0.19468 1.144527,-0.23414 1.368081,-0.32701 1.727647,-0.71773 0.492564,-0.53525 0.719125,-1.49931 0.663242,-2.82228 -0.03123,-0.73941 -0.107715,-1.14298 -0.288814,-1.52393 -0.173024,-0.36396 -0.391086,-0.6028 -0.700424,-0.76716 -0.445084,-0.23649 -0.748188,-0.29467 -1.54225,-0.29603 -0.807043,-0.001 -1.240756,0.0809 -1.806861,0.34256 l -0.318789,0.14737 -0.169389,0.81611 c -0.09316,0.44885 -0.179202,0.85097 -0.191195,0.8936 -0.01842,0.0655 -0.07636,0.0775 -0.373092,0.0775 h -0.35129 v -1.38724 -1.38724 l 0.653193,-0.14254 c 0.977244,-0.21324 1.380781,-0.26996 2.136722,-0.30033 2.328487,-0.0936 3.921601,0.55791 4.564827,1.86668 0.290729,0.59155 0.363709,0.94743 0.367797,1.79352 0.0039,0.80927 -0.05753,1.20571 -0.282292,1.82156 -0.230481,0.63154 -0.643813,1.18791 -1.193334,1.60631 -0.518835,0.39504 -1.004578,0.60308 -1.921716,0.82305 -0.288169,0.0691 -0.530466,0.13235 -0.538438,0.14052 -0.01159,0.0119 -0.155443,2.57956 -0.155443,2.77458 0,0.0367 -0.130421,0.0523 -0.437121,0.0523 h -0.437126 z"
       style="fill:#5c6a6f;fill-opacity:1;stroke-width:0.04428436" />
  </g>
</svg>
